<svg width="559" height="495" viewBox="0 0 559 495" fill="none" xmlns="http://www.w3.org/2000/svg">
<path d="M276.834 495C417.728 495 531.945 488.332 531.945 480.106C531.945 471.88 417.728 465.211 276.834 465.211C135.94 465.211 21.7231 471.88 21.7231 480.106C21.7231 488.332 135.94 495 276.834 495Z" fill="#A6B6ED"/>
<path d="M261.571 389.924H7.51295C5.52146 389.921 3.61253 389.128 2.20433 387.72C0.796138 386.312 0.00347859 384.403 0 382.411V25.2766C0.0207681 23.2966 0.821055 21.4045 2.22739 20.0104C3.63372 18.6164 5.53278 17.8328 7.51295 17.8295H261.571C263.562 17.833 265.469 18.626 266.875 20.0346C268.282 21.4432 269.071 23.3521 269.071 25.3424V382.411C269.071 384.401 268.282 386.31 266.875 387.719C265.469 389.127 263.562 389.921 261.571 389.924ZM7.51295 18.0926C5.6087 18.0961 3.78344 18.8541 2.43693 20.2006C1.09042 21.5471 0.332416 23.3724 0.328938 25.2766V382.411C0.332416 384.315 1.09042 386.141 2.43693 387.487C3.78344 388.834 5.6087 389.592 7.51295 389.595H261.571C263.474 389.592 265.298 388.833 266.643 387.486C267.987 386.139 268.742 384.314 268.742 382.411V25.2766C268.742 23.3736 267.987 21.5483 266.643 20.2014C265.298 18.8545 263.474 18.0961 261.571 18.0926H7.51295Z" fill="white"/>
<path d="M546.169 389.924H292.097C290.107 389.921 288.199 389.127 286.793 387.719C285.387 386.31 284.597 384.401 284.597 382.411V25.2766C284.614 23.2978 285.412 21.4057 286.816 20.0113C288.22 18.6169 290.118 17.8329 292.097 17.8295H546.169C548.147 17.8329 550.045 18.6169 551.449 20.0113C552.854 21.4057 553.651 23.2978 553.668 25.2766V382.411C553.668 384.401 552.879 386.31 551.472 387.719C550.066 389.127 548.159 389.921 546.169 389.924ZM292.097 18.0926C290.194 18.0961 288.37 18.8545 287.026 20.2014C285.681 21.5483 284.926 23.3736 284.926 25.2766V382.411C284.926 384.314 285.681 386.139 287.026 387.486C288.37 388.833 290.194 389.592 292.097 389.595H546.169C548.074 389.592 549.901 388.834 551.249 387.488C552.598 386.142 553.359 384.317 553.366 382.411V25.2766C553.359 23.3712 552.598 21.5459 551.249 20.1998C549.901 18.8537 548.074 18.0961 546.169 18.0926H292.097Z" fill="white"/>
<path d="M72.8926 456.606H18.6705V456.935H72.8926V456.606Z" fill="#A9BCFF"/>
<path d="M183.416 453.975H129.036V454.304H183.416V453.975Z" fill="#A9BCFF"/>
<path d="M254.177 453.975H241.019V454.304H254.177V453.975Z" fill="#A9BCFF"/>
<path d="M122.668 465.211H61.814V465.54H122.668V465.211Z" fill="#A9BCFF"/>
<path d="M333.148 456.435H304.728V456.764H333.148V456.435Z" fill="#A9BCFF"/>
<path d="M381.608 456.435H344.859V456.764H381.608V456.435Z" fill="#A9BCFF"/>
<path d="M558.839 462.001H476.684V462.33H558.839V462.001Z" fill="#A9BCFF"/>
<path d="M490.565 90.8536H427.922V134.629H490.565V90.8536Z" fill="white"/>
<path d="M456.171 90.8536H427.922V134.629H456.171V90.8536Z" fill="#49648E"/>
<path opacity="0.4" d="M442.027 96.7877C443.872 96.7877 445.675 97.3348 447.21 98.3599C448.744 99.3849 449.939 100.842 450.645 102.546C451.351 104.251 451.536 106.127 451.176 107.936C450.816 109.746 449.928 111.408 448.623 112.713C447.319 114.017 445.656 114.906 443.847 115.266C442.037 115.626 440.161 115.441 438.457 114.735C436.752 114.029 435.295 112.833 434.27 111.299C433.245 109.765 432.698 107.961 432.698 106.116C432.698 103.642 433.681 101.269 435.43 99.52C437.18 97.7706 439.553 96.7877 442.027 96.7877Z" fill="#A9BCFF"/>
<path d="M446.566 124.313C446.566 125.214 446.299 126.094 445.799 126.842C445.299 127.591 444.588 128.175 443.756 128.519C442.924 128.864 442.009 128.954 441.126 128.778C440.242 128.603 439.431 128.169 438.795 127.532C438.158 126.896 437.724 126.084 437.549 125.201C437.373 124.318 437.463 123.403 437.808 122.571C438.152 121.739 438.736 121.028 439.484 120.528C440.233 120.028 441.113 119.761 442.014 119.761C442.612 119.759 443.205 119.876 443.758 120.104C444.311 120.332 444.814 120.667 445.237 121.09C445.66 121.513 445.995 122.016 446.223 122.569C446.451 123.122 446.568 123.715 446.566 124.313Z" fill="#A9BCFF"/>
<path d="M441.961 109.406C443.429 109.406 444.619 108.216 444.619 106.748C444.619 105.28 443.429 104.09 441.961 104.09C440.493 104.09 439.303 105.28 439.303 106.748C439.303 108.216 440.493 109.406 441.961 109.406Z" fill="#FAFAFA"/>
<path d="M356.832 75.1699H329.741V134.642H356.832V75.1699Z" fill="#49648E"/>
<path d="M392.028 75.1699H356.082V134.642H392.028V75.1699Z" fill="white"/>
<path d="M343.188 94.0509C343.933 94.0483 344.662 94.2671 345.283 94.6796C345.904 95.0921 346.388 95.6797 346.675 96.3678C346.961 97.056 347.037 97.8137 346.892 98.5449C346.747 99.276 346.389 99.9478 345.862 100.475C345.334 101.002 344.663 101.361 343.932 101.505C343.2 101.65 342.443 101.574 341.755 101.288C341.066 101.002 340.479 100.517 340.066 99.8964C339.654 99.2755 339.435 98.5462 339.438 97.8008C339.441 96.8074 339.837 95.8556 340.54 95.1531C341.242 94.4506 342.194 94.0544 343.188 94.0509Z" fill="white"/>
<path d="M343.188 88.1958C343.56 88.1958 343.923 88.3061 344.233 88.5129C344.542 88.7196 344.783 89.0135 344.926 89.3573C345.068 89.7011 345.106 90.0794 345.033 90.4444C344.96 90.8094 344.781 91.1446 344.518 91.4078C344.255 91.6709 343.92 91.8501 343.555 91.9227C343.19 91.9953 342.811 91.958 342.468 91.8156C342.124 91.6732 341.83 91.4321 341.623 91.1226C341.416 90.8132 341.306 90.4495 341.306 90.0773C341.306 89.8302 341.355 89.5856 341.449 89.3573C341.544 89.129 341.682 88.9216 341.857 88.7469C342.032 88.5722 342.239 88.4336 342.468 88.339C342.696 88.2445 342.94 88.1958 343.188 88.1958Z" fill="white"/>
<path d="M343.188 82.5118C343.56 82.5118 343.923 82.6221 344.233 82.8289C344.542 83.0356 344.783 83.3295 344.926 83.6733C345.068 84.0171 345.106 84.3954 345.033 84.7604C344.96 85.1253 344.781 85.4606 344.518 85.7237C344.255 85.9869 343.92 86.1661 343.555 86.2387C343.19 86.3113 342.811 86.274 342.468 86.1316C342.124 85.9892 341.83 85.748 341.623 85.4386C341.416 85.1292 341.306 84.7654 341.306 84.3933C341.306 84.1462 341.355 83.9016 341.449 83.6733C341.544 83.445 341.682 83.2376 341.857 83.0629C342.032 82.8882 342.239 82.7496 342.468 82.655C342.696 82.5605 342.94 82.5118 343.188 82.5118Z" fill="white"/>
<path d="M391.397 108.524H330.346V109.458H391.397V108.524Z" fill="#A9BCFF"/>
<path d="M391.397 113.8H330.346V114.735H391.397V113.8Z" fill="#A9BCFF"/>
<path d="M391.397 119.076H330.346V120.011H391.397V119.076Z" fill="#A9BCFF"/>
<path d="M391.397 124.353H330.346V125.287H391.397V124.353Z" fill="#A9BCFF"/>
<path d="M391.397 129.629H330.346V130.563H391.397V129.629Z" fill="#A9BCFF"/>
<path d="M343.832 110.129H341.253V112.708H343.832V110.129Z" fill="#A9BCFF"/>
<path d="M343.832 115.682H341.253V118.261H343.832V115.682Z" fill="#A9BCFF"/>
<path d="M343.832 120.682H341.253V123.261H343.832V120.682Z" fill="#A9BCFF"/>
<path d="M343.832 126.076H341.253V128.655H343.832V126.076Z" fill="#A9BCFF"/>
<path d="M343.832 131.313H341.253V133.892H343.832V131.313Z" fill="#A9BCFF"/>
<path d="M277.979 193.18H276.663V142.8C276.667 140.079 277.749 137.47 279.673 135.547C281.597 133.623 284.205 132.54 286.926 132.537H330.346V133.852H286.926C284.554 133.856 282.28 134.8 280.603 136.477C278.926 138.154 277.982 140.428 277.979 142.8V193.18Z" fill="#A9BCFF"/>
<path d="M275.347 193.272H274.032V142.431C274.035 139.131 275.348 135.967 277.681 133.634C280.015 131.3 283.179 129.988 286.479 129.984H330.346V131.3H286.479C283.527 131.303 280.698 132.477 278.611 134.564C276.525 136.651 275.351 139.48 275.347 142.431V193.272Z" fill="#A9BCFF"/>
<path d="M131.273 66.8676H90.0764V110.722H131.273V66.8676Z" fill="white"/>
<path d="M141.825 66.8676H131.273V110.722H141.825V66.8676Z" fill="#A6B6ED"/>
<path d="M110.221 60.1046H79.2741V110.722H110.221V60.1046Z" fill="white"/>
<path d="M119.154 60.1046H110.207V110.722H119.154V60.1046Z" fill="#A6B6ED"/>
<path d="M101.102 66.8676H75.011V110.722H101.102V66.8676Z" fill="#EBEBEB"/>
<path d="M107.063 66.8676H101.102V110.722H107.063V66.8676Z" fill="#A6B6ED"/>
<path d="M79.7477 74.2883H45.525V110.721H79.7477V74.2883Z" fill="white"/>
<path d="M88.5106 74.2883H79.7477V110.721H88.5106V74.2883Z" fill="#A6B6ED"/>
<path d="M62.2614 68.6702H36.5516V110.722H62.2614V68.6702Z" fill="white"/>
<path d="M69.6822 68.6702H62.2482V110.722H69.6822V68.6702Z" fill="#A6B6ED"/>
<path d="M54.6826 74.2883H29.7097V110.721H54.6826V74.2883Z" fill="white"/>
<path d="M59.643 74.2883H54.6958V110.721H59.643V74.2883Z" fill="#49648E"/>
<path d="M0.526306 123.392L268.94 123.392V110.695L0.526306 110.695V123.392Z" fill="white"/>
<path d="M48.696 123.695H63.5377L52.7222 140.023H48.696V123.695Z" fill="#A9BCFF"/>
<path d="M48.696 123.695H46.5513V140.023H48.696V123.695Z" fill="#A9BCFF"/>
<path d="M215.402 123.695H230.257L219.441 140.023H215.402V123.695Z" fill="#A9BCFF"/>
<path d="M215.415 123.695H213.27V140.023H215.415V123.695Z" fill="#A9BCFF"/>
<path d="M553.445 134.642H285.031V147.339H553.445V134.642Z" fill="white"/>
<path d="M505.288 163.957H501.249L490.433 147.628H505.288V163.957Z" fill="#A9BCFF"/>
<path d="M507.433 147.628H505.288V163.957H507.433V147.628Z" fill="#A9BCFF"/>
<path d="M338.569 163.957H334.53L323.714 147.628H338.569V163.957Z" fill="#A9BCFF"/>
<path d="M340.714 147.628H338.569V163.957H340.714V147.628Z" fill="#A9BCFF"/>
<path d="M207.691 85.1434C207.693 83.2573 207.414 81.3815 206.863 79.5777L211.744 75.2884L208.678 69.9596L202.521 72.0516C199.927 69.2801 196.571 67.3388 192.876 66.4728L191.56 60.1046H185.416L184.1 66.4728C180.409 67.339 177.057 69.2805 174.469 72.0516L168.298 69.9596L165.232 75.2884L170.114 79.5777C169.009 83.2059 169.009 87.0808 170.114 90.709L165.232 94.9983L168.298 100.327L174.469 98.2351C177.057 101.006 180.409 102.948 184.1 103.814L185.416 110.182H191.56L192.876 103.814C196.571 102.948 199.927 101.007 202.521 98.2351L208.678 100.327L211.744 94.9983L206.863 90.709C207.414 88.9053 207.693 87.0295 207.691 85.1434ZM188.534 95.4852C186.564 95.4852 184.638 94.901 183 93.8066C181.363 92.7121 180.086 91.1565 179.332 89.3366C178.578 87.5166 178.381 85.5139 178.765 83.5818C179.15 81.6497 180.098 79.8749 181.491 78.482C182.884 77.089 184.659 76.1404 186.591 75.7561C188.523 75.3718 190.526 75.569 192.346 76.3229C194.166 77.0767 195.721 78.3534 196.816 79.9913C197.91 81.6293 198.494 83.555 198.494 85.5249C198.494 88.1666 197.445 90.7 195.577 92.5679C193.709 94.4358 191.176 95.4852 188.534 95.4852Z" fill="#49648E"/>
<path d="M240.927 88.3669C240.288 87.3043 239.489 86.3459 238.559 85.5249L239.875 81.4329L236.322 79.4988L233.572 82.7882C231.17 82.1192 228.622 82.1833 226.257 82.9724L223.349 79.8409L219.888 81.9461L221.362 85.9591C219.588 87.718 218.371 89.9602 217.862 92.4063L213.691 93.3536L213.797 97.393L218.02 98.1298C218.649 100.543 219.977 102.717 221.836 104.38L220.52 108.472L224.073 110.406L226.822 107.116C229.231 107.772 231.779 107.708 234.151 106.932L237.059 110.064L240.506 107.958L239.033 103.932C240.807 102.178 242.024 99.9404 242.533 97.4983L246.703 96.5509L246.598 92.4984L242.388 91.7747C242.078 90.5707 241.586 89.4213 240.927 88.3669ZM233.73 100.761C232.621 101.444 231.334 101.782 230.033 101.732C228.731 101.683 227.474 101.248 226.42 100.483C225.365 99.7182 224.562 98.6577 224.111 97.4358C223.66 96.214 223.582 94.8859 223.887 93.6196C224.191 92.3533 224.865 91.206 225.822 90.3228C226.779 89.4397 227.977 88.8605 229.264 88.6587C230.55 88.457 231.868 88.6416 233.049 89.1893C234.231 89.737 235.224 90.623 235.901 91.7353C236.806 93.2211 237.086 95.005 236.679 96.6965C236.272 98.3881 235.212 99.8497 233.73 100.761Z" fill="#49648E"/>
<path d="M545.484 299.913H9.15764V306.663H545.484V299.913Z" fill="#407BFF"/>
<path d="M41.1041 304.755V465.725H45.2882L50.5512 304.755H41.1041Z" fill="#407BFF"/>
<path d="M90.4974 310.018V459.146H94.6815L99.9445 310.018H90.4974Z" fill="#407BFF"/>
<path opacity="0.5" d="M90.4974 310.018V459.146H94.6815L99.9445 310.018H90.4974Z" fill="black"/>
<path d="M515.446 304.755V465.725H511.275L505.999 304.755H515.446Z" fill="#407BFF"/>
<path d="M466.052 310.018V459.146H461.868L456.605 310.018H466.052Z" fill="#407BFF"/>
<path opacity="0.5" d="M466.052 310.018V459.146H461.868L456.605 310.018H466.052Z" fill="black"/>
<path d="M524.985 313.887H31.236L20.3152 306.663H535.906L524.985 313.887Z" fill="#407BFF"/>
<path opacity="0.5" d="M524.985 313.887H31.236L20.3152 306.663H535.906L524.985 313.887Z" fill="black"/>
<path d="M44.4066 279.217V284.48C44.4065 285.352 44.7518 286.19 45.3671 286.808L49.5381 290.979C49.9075 291.347 50.3583 291.622 50.8538 291.782C51.7137 293.633 53.0846 295.199 54.8048 296.297C56.5251 297.395 58.5233 297.979 60.5641 297.979H62.1298C63.5456 297.988 64.9491 297.716 66.2589 297.178C67.5686 296.64 68.7586 295.847 69.7598 294.846C70.7609 293.845 71.5534 292.655 72.0912 291.345C72.629 290.036 72.9014 288.632 72.8927 287.216V274.94H49.8933V275.94H47.696C46.8259 275.94 45.9912 276.285 45.3747 276.899C44.7582 277.513 44.4101 278.346 44.4066 279.217ZM47.0381 279.217C47.0381 279.131 47.0552 279.046 47.0884 278.967C47.1216 278.888 47.1703 278.816 47.2316 278.756C47.2929 278.696 47.3655 278.649 47.4452 278.617C47.525 278.585 47.6102 278.57 47.696 278.572H49.8933V287.216C49.8933 287.335 49.8933 287.453 49.8933 287.572L47.2618 284.94C47.1986 284.881 47.1484 284.81 47.1144 284.731C47.0804 284.651 47.0634 284.566 47.0644 284.48L47.0381 279.217Z" fill="#407BFF"/>
<path opacity="0.5" d="M44.4066 279.217V284.48C44.4065 285.352 44.7518 286.19 45.3671 286.808L49.5381 290.979C49.9075 291.347 50.3583 291.622 50.8538 291.782C51.7137 293.633 53.0846 295.199 54.8048 296.297C56.5251 297.395 58.5233 297.979 60.5641 297.979H62.1298C63.5456 297.988 64.9491 297.716 66.2589 297.178C67.5686 296.64 68.7586 295.847 69.7598 294.846C70.7609 293.845 71.5534 292.655 72.0912 291.345C72.629 290.036 72.9014 288.632 72.8927 287.216V274.94H49.8933V275.94H47.696C46.8259 275.94 45.9912 276.285 45.3747 276.899C44.7582 277.513 44.4101 278.346 44.4066 279.217ZM47.0381 279.217C47.0381 279.131 47.0552 279.046 47.0884 278.967C47.1216 278.888 47.1703 278.816 47.2316 278.756C47.2929 278.696 47.3655 278.649 47.4452 278.617C47.525 278.585 47.6102 278.57 47.696 278.572H49.8933V287.216C49.8933 287.335 49.8933 287.453 49.8933 287.572L47.2618 284.94C47.1986 284.881 47.1484 284.81 47.1144 284.731C47.0804 284.651 47.0634 284.566 47.0644 284.48L47.0381 279.217Z" fill="white"/>
<path d="M78.3399 299.755H45.2619C43.7494 299.621 42.3417 298.926 41.3146 297.808H82.2345C81.2228 298.918 79.8347 299.612 78.3399 299.755Z" fill="#407BFF"/>
<path opacity="0.5" d="M78.3399 299.755H45.2619C43.7494 299.621 42.3417 298.926 41.3146 297.808H82.2345C81.2228 298.918 79.8347 299.612 78.3399 299.755Z" fill="white"/>
<path d="M523.353 283.651C523.182 278.388 519.209 277.151 514.025 276.559V274.651C514.018 274.43 513.924 274.22 513.764 274.068C513.604 273.915 513.391 273.832 513.169 273.835H495.249C495.138 273.832 495.028 273.85 494.925 273.889C494.821 273.928 494.726 273.987 494.646 274.063C494.565 274.139 494.5 274.23 494.455 274.331C494.409 274.432 494.384 274.54 494.381 274.651V299.532H514.038V296.808C519.222 296.229 523.196 288.887 523.353 283.651ZM514.025 293.598V279.782C517.84 280.335 520.472 280.861 519.906 284.677C519.459 287.73 517.064 293.177 514.025 293.598Z" fill="#407BFF"/>
<g opacity="0.5">
<path d="M523.353 283.651C523.182 278.388 519.209 277.151 514.025 276.559V274.651C514.018 274.43 513.924 274.22 513.764 274.068C513.604 273.915 513.391 273.832 513.169 273.835H495.249C495.138 273.832 495.028 273.85 494.925 273.889C494.821 273.928 494.726 273.987 494.646 274.063C494.565 274.139 494.5 274.23 494.455 274.331C494.409 274.432 494.384 274.54 494.381 274.651V299.532H514.038V296.808C519.222 296.229 523.196 288.887 523.353 283.651ZM514.025 293.598V279.782C517.84 280.335 520.472 280.861 519.906 284.677C519.459 287.73 517.064 293.177 514.025 293.598Z" fill="white"/>
</g>
<path d="M284.584 267.822H269.071V299.335H284.584V267.822Z" fill="#407BFF"/>
<path opacity="0.5" d="M284.584 267.822H269.071V299.335H284.584V267.822Z" fill="white"/>
<path d="M291.597 299.9H262.203L269.374 293.598H284.426L291.597 299.9Z" fill="#407BFF"/>
<path opacity="0.5" d="M291.597 299.9H262.203L269.374 293.598H284.426L291.597 299.9Z" fill="white"/>
<path d="M356.213 289.703H282.742L296.018 299.94H369.476L356.213 289.703Z" fill="#407BFF"/>
<path opacity="0.4" d="M356.213 289.703H282.742L296.018 299.94H369.476L356.213 289.703Z" fill="white"/>
<path d="M284.439 299.94L282.742 289.703L296.018 299.94H284.439Z" fill="#407BFF"/>
<path opacity="0.5" d="M284.439 299.94L282.742 289.703L296.018 299.94H284.439Z" fill="black"/>
<path d="M343.319 193.232H209.599C208.197 193.232 207.06 194.369 207.06 195.772V277.769C207.06 279.172 208.197 280.309 209.599 280.309H343.319C344.722 280.309 345.859 279.172 345.859 277.769V195.772C345.859 194.369 344.722 193.232 343.319 193.232Z" fill="#407BFF"/>
<path opacity="0.5" d="M340.674 198.68H212.099V274.559H340.674V198.68Z" fill="black"/>
<path opacity="0.4" d="M336.582 214.284H271.703V258.954H336.582V214.284Z" fill="black"/>
<path d="M336.582 214.284H271.703V218.376H336.582V214.284Z" fill="#407BFF"/>
<path d="M283.597 238.994L294.202 244.862C294.607 245.057 294.969 245.33 295.268 245.665C295.448 245.928 295.541 246.241 295.531 246.56C295.532 246.783 295.488 247.003 295.402 247.209C295.316 247.415 295.19 247.601 295.031 247.757C294.884 247.914 294.707 248.039 294.51 248.125C294.313 248.211 294.101 248.256 293.886 248.257C293.415 248.204 292.963 248.037 292.571 247.77L278.887 240.165C278.668 240.056 278.484 239.888 278.355 239.68C278.226 239.472 278.158 239.232 278.158 238.988C278.158 238.743 278.226 238.503 278.355 238.295C278.484 238.087 278.668 237.919 278.887 237.81L292.571 230.205C292.967 229.95 293.418 229.792 293.886 229.744C294.102 229.741 294.317 229.783 294.516 229.867C294.715 229.951 294.895 230.075 295.044 230.231C295.204 230.384 295.331 230.568 295.417 230.772C295.503 230.975 295.546 231.194 295.544 231.416C295.556 231.734 295.463 232.048 295.281 232.31C294.982 232.645 294.62 232.918 294.215 233.113L283.597 238.994Z" fill="white"/>
<path d="M310.886 228.034L300.36 250.652C300.191 251.063 299.946 251.438 299.636 251.757C299.351 251.98 298.998 252.096 298.636 252.086C298.421 252.089 298.208 252.049 298.009 251.968C297.81 251.886 297.629 251.765 297.478 251.612C297.324 251.475 297.199 251.307 297.113 251.119C297.027 250.931 296.981 250.727 296.978 250.52C297.016 250.059 297.151 249.611 297.373 249.204L307.899 226.6C308.064 226.197 308.3 225.827 308.596 225.508C308.886 225.282 309.243 225.162 309.61 225.166C309.823 225.163 310.034 225.203 310.231 225.285C310.428 225.366 310.606 225.487 310.754 225.639C310.903 225.777 311.022 225.944 311.104 226.129C311.185 226.315 311.227 226.516 311.228 226.718C311.209 227.176 311.092 227.625 310.886 228.034Z" fill="white"/>
<path d="M324.083 238.994L313.478 233.113C313.078 232.911 312.717 232.639 312.412 232.31C312.23 232.048 312.137 231.734 312.149 231.415C312.147 231.194 312.19 230.975 312.276 230.772C312.362 230.568 312.489 230.384 312.649 230.231C312.801 230.075 312.983 229.951 313.184 229.867C313.386 229.784 313.602 229.742 313.82 229.744C314.288 229.794 314.738 229.952 315.136 230.205L328.82 237.81C329.038 237.919 329.223 238.087 329.351 238.295C329.48 238.503 329.548 238.743 329.548 238.988C329.548 239.232 329.48 239.472 329.351 239.68C329.223 239.888 329.038 240.056 328.82 240.165L315.136 247.77C314.742 248.034 314.291 248.201 313.82 248.257C313.598 248.26 313.377 248.215 313.173 248.127C312.969 248.039 312.786 247.908 312.636 247.744C312.48 247.589 312.357 247.404 312.273 247.201C312.19 246.997 312.148 246.78 312.149 246.56C312.139 246.241 312.232 245.928 312.412 245.665C312.717 245.336 313.078 245.065 313.478 244.862L324.083 238.994Z" fill="white"/>
<path d="M221.77 205.679H217.375V210.074H221.77V205.679Z" fill="white"/>
<path d="M221.77 217.061H217.375V221.455H221.77V217.061Z" fill="white"/>
<path d="M221.77 228.429H217.375V232.823H221.77V228.429Z" fill="white"/>
<path d="M221.77 239.797H217.375V244.191H221.77V239.797Z" fill="white"/>
<path d="M221.77 251.165H217.375V255.559H221.77V251.165Z" fill="white"/>
<path d="M221.77 262.533H217.375V266.928H221.77V262.533Z" fill="white"/>
<path d="M243.454 206.679H225.941V207.995H243.454V206.679Z" fill="white"/>
<path d="M236.256 218.074H230.02V219.389H236.256V218.074Z" fill="white"/>
<path d="M263.4 230.863H257.164V232.179H263.4V230.863Z" fill="white"/>
<path d="M236.256 241.007H230.02V242.323H236.256V241.007Z" fill="white"/>
<path d="M245.243 241.007H239.006V242.323H245.243V241.007Z" fill="white"/>
<path d="M254.94 230.863H239.006V232.179H254.94V230.863Z" fill="white"/>
<path d="M258.782 241.007H248.296V242.323H258.782V241.007Z" fill="white"/>
<path d="M254.493 265.388H248.256V266.704H254.493V265.388Z" fill="white"/>
<path d="M263.492 265.388H257.256V266.704H263.492V265.388Z" fill="white"/>
<path d="M270.019 265.388H266.532V266.704H270.019V265.388Z" fill="white"/>
<path d="M258.782 218.074H239.375V219.389H258.782V218.074Z" fill="white"/>
<path d="M245.243 252.889H239.006V254.204H245.243V252.889Z" fill="white"/>
<path d="M250.94 252.889H247.335V254.204H250.94V252.889Z" fill="white"/>
<path d="M263.874 252.889H253.69V254.204H263.874V252.889Z" fill="white"/>
<path d="M265.571 156.996C265.242 172.917 248.703 186.272 228.612 186.798C222.442 187.006 216.3 185.87 210.612 183.469C208.586 188.469 204.323 192.759 192.1 194.68C204.849 184.825 197.876 176.483 194.968 169.154C193.464 165.954 192.712 162.453 192.771 158.917C193.1 142.984 209.639 129.655 229.73 129.116C249.822 128.576 265.887 141.076 265.571 156.996Z" fill="#407BFF"/>
<path d="M229.599 140.326H212.086V141.642H229.599V140.326Z" fill="white"/>
<path d="M222.402 151.733H216.165V153.049H222.402V151.733Z" fill="white"/>
<path d="M249.545 164.522H243.309V165.838H249.545V164.522Z" fill="white"/>
<path d="M222.402 174.667H216.165V175.983H222.402V174.667Z" fill="white"/>
<path d="M231.401 174.667H225.165V175.983H231.401V174.667Z" fill="white"/>
<path d="M241.098 164.522H225.165V165.838H241.098V164.522Z" fill="white"/>
<path d="M244.927 174.667H234.441V175.983H244.927V174.667Z" fill="white"/>
<path d="M244.94 151.733H225.533V153.049H244.94V151.733Z" fill="white"/>
<path d="M341.53 458.633L331.938 455.764L334.175 432.252L343.766 435.12L341.53 458.633Z" fill="#7F3E3B"/>
<path opacity="0.2" d="M344.556 429.804L334.964 426.949L333.714 440.12L343.411 441.922L344.556 429.804Z" fill="black"/>
<path d="M398.304 313.413C398.304 313.413 332.346 318.979 333.964 347.623C335.28 371.069 338.767 364.727 331.938 434.462L348.529 435.383C348.529 435.383 365.411 378.359 363.134 355.701C381.726 355.701 424.29 357.333 430.474 340.557C433.543 332.038 435.036 323.032 434.882 313.979L398.304 313.413Z" fill="#407BFF"/>
<path d="M351.161 438.541L329.477 434.831L329.833 425.239L352.279 430.226L351.161 438.541Z" fill="#263238"/>
<path d="M330.951 451.817L342.03 454.014C342.231 454.062 342.407 454.182 342.524 454.353C342.641 454.523 342.69 454.731 342.661 454.935L341.74 465.461C341.724 465.709 341.658 465.952 341.546 466.174C341.435 466.396 341.281 466.594 341.092 466.756C340.903 466.917 340.684 467.04 340.448 467.116C340.211 467.192 339.962 467.22 339.714 467.198C335.872 466.356 334.056 465.738 329.188 464.764C326.188 464.172 319.333 462.738 315.162 462.264C310.991 461.791 311.491 456.922 313.294 456.672C321.399 455.607 326.004 454.291 329.148 452.264C329.668 451.886 330.315 451.725 330.951 451.817Z" fill="#263238"/>
<path d="M325.977 453.699C326.849 453.817 327.731 453.844 328.609 453.778C328.653 453.779 328.697 453.766 328.733 453.739C328.769 453.713 328.795 453.676 328.806 453.633C328.826 453.594 328.836 453.551 328.836 453.508C328.836 453.464 328.826 453.422 328.806 453.383C328.53 453.107 326.043 450.751 324.767 451.014C324.619 451.038 324.481 451.103 324.367 451.2C324.253 451.298 324.169 451.425 324.122 451.567C324.019 451.774 323.971 452.005 323.985 452.236C323.999 452.467 324.074 452.69 324.201 452.883C324.667 453.373 325.303 453.665 325.977 453.699ZM328.096 453.343C326.267 453.343 324.977 453.133 324.596 452.593C324.518 452.467 324.477 452.321 324.477 452.172C324.477 452.024 324.518 451.878 324.596 451.751C324.617 451.681 324.656 451.617 324.709 451.566C324.762 451.515 324.827 451.479 324.899 451.462C325.517 451.33 327.07 452.383 328.148 453.356L328.096 453.343Z" fill="#407BFF"/>
<path d="M328.622 453.791H328.727C328.765 453.776 328.799 453.753 328.826 453.724C328.854 453.694 328.874 453.658 328.885 453.62C328.885 453.501 329.609 450.699 328.767 449.58C328.664 449.431 328.527 449.308 328.367 449.223C328.206 449.138 328.027 449.094 327.846 449.094C327.649 449.065 327.448 449.104 327.276 449.205C327.104 449.305 326.971 449.461 326.899 449.646C326.491 450.686 327.622 452.988 328.504 453.738C328.518 453.755 328.536 453.769 328.557 453.778C328.577 453.788 328.6 453.792 328.622 453.791ZM327.938 449.567C328.121 449.605 328.285 449.708 328.398 449.857C328.777 450.896 328.819 452.029 328.517 453.093C327.714 452.195 327.29 451.021 327.333 449.817C327.333 449.686 327.477 449.541 327.82 449.554L327.938 449.567Z" fill="#407BFF"/>
<path d="M298.768 462.29L289.636 458.185L295.952 435.66L305.083 439.765L298.768 462.29Z" fill="#7F3E3B"/>
<path opacity="0.2" d="M306.623 433.962L297.491 429.857L294.242 441.475L303.373 445.58L306.623 433.962Z" fill="black"/>
<path d="M378.673 313.413C378.239 313.413 304.728 320.979 304.636 345.912C304.478 387.148 292.702 434.41 292.702 434.41L307.175 441.607C307.175 441.607 332.477 390.371 332.096 358.228C352.319 352.425 404.633 362.175 410.817 345.412C415.883 331.702 413.146 313.413 413.146 313.413H378.673Z" fill="#407BFF"/>
<path d="M309.544 443.699L290.071 434.936L291.636 426.963L312.175 434.055L309.544 443.699Z" fill="#263238"/>
<path d="M290.544 450.62L301.649 452.922C301.858 452.991 302.035 453.133 302.148 453.321C302.262 453.509 302.304 453.732 302.268 453.949L301.399 465.461C301.241 466.711 300.347 467.567 299.386 467.369C295.544 466.488 293.728 465.803 288.86 464.738C285.86 464.132 277.689 462.106 273.571 461.067C269.453 460.027 270.374 454.751 272.255 454.712C280.4 454.593 285.676 453.264 288.808 450.988C289.056 450.81 289.338 450.685 289.637 450.622C289.936 450.558 290.245 450.558 290.544 450.62Z" fill="#263238"/>
<path d="M286.044 453.106C286.817 452.681 287.544 452.179 288.215 451.607C288.249 451.575 288.274 451.536 288.288 451.492C288.302 451.448 288.304 451.402 288.294 451.357C288.281 451.313 288.255 451.275 288.22 451.247C288.185 451.219 288.142 451.202 288.097 451.199C287.715 451.199 284.321 450.699 283.439 451.686C283.342 451.798 283.275 451.932 283.243 452.077C283.21 452.221 283.215 452.372 283.255 452.514C283.294 452.742 283.392 452.956 283.54 453.134C283.688 453.312 283.88 453.448 284.097 453.528C284.776 453.636 285.471 453.485 286.044 453.106ZM287.531 451.567C286.097 452.685 284.9 453.225 284.281 453.041C284.143 452.978 284.023 452.882 283.933 452.759C283.843 452.637 283.786 452.494 283.768 452.343C283.746 452.275 283.743 452.203 283.76 452.133C283.776 452.064 283.811 452 283.86 451.949C284.255 451.475 286.044 451.436 287.465 451.567H287.531Z" fill="#407BFF"/>
<path d="M288.15 451.607L288.242 451.541C288.264 451.508 288.276 451.469 288.276 451.429C288.276 451.389 288.264 451.35 288.242 451.317C288.176 451.225 287.084 448.528 285.755 448.12C285.583 448.065 285.401 448.051 285.223 448.079C285.045 448.106 284.876 448.174 284.729 448.278C284.552 448.372 284.413 448.524 284.334 448.708C284.255 448.892 284.241 449.098 284.294 449.291C284.571 450.383 286.847 451.554 288.018 451.633L288.15 451.607ZM285.084 448.607C285.171 448.568 285.265 448.548 285.36 448.548C285.455 448.548 285.549 448.568 285.637 448.607C286.563 449.218 287.272 450.107 287.663 451.146C286.48 450.9 285.439 450.207 284.755 449.212C284.676 449.107 284.755 448.896 284.992 448.712L285.084 448.607Z" fill="#407BFF"/>
<path d="M403.646 233.863C405.58 238.021 407.173 242.02 408.765 246.178C410.357 250.336 411.765 254.494 413.067 258.757C414.37 263.02 415.501 267.388 416.409 271.914C417.4 276.617 417.894 281.411 417.883 286.216C417.868 289.038 417.447 291.843 416.633 294.545C416.117 296.199 415.378 297.775 414.435 299.229C413.879 300.048 413.249 300.814 412.554 301.519L411.988 302.071C411.672 302.334 411.33 302.624 411.001 302.848C410.445 303.226 409.855 303.552 409.238 303.821C408.322 304.214 407.371 304.518 406.396 304.729C405.627 304.888 404.85 305.002 404.067 305.071C402.731 305.15 401.391 305.15 400.054 305.071C397.681 304.954 395.317 304.69 392.976 304.282C384.242 302.692 375.687 300.241 367.437 296.966L369.345 289.716C377.7 290.716 386.226 291.782 394.265 292.151C396.265 292.151 398.212 292.243 400.028 292.151C400.836 292.102 401.641 292 402.436 291.848C403.094 291.729 403.659 291.493 403.462 291.506C403.33 291.546 403.205 291.608 403.094 291.69C402.96 291.767 402.837 291.86 402.725 291.966C402.769 291.894 402.809 291.82 402.844 291.743C403.012 291.366 403.145 290.974 403.238 290.572C403.527 289.126 403.647 287.651 403.594 286.177C403.394 282.409 402.834 278.668 401.923 275.006C401.028 271.059 399.87 267.217 398.607 263.309C397.344 259.401 395.975 255.494 394.476 251.599C392.976 247.704 391.397 243.797 389.844 240.126L403.646 233.863Z" fill="#7F3E3B"/>
<path d="M372.976 291.69L364.253 286.782L359.871 296.229C359.871 296.229 370.068 300.479 372.213 297.821L372.976 291.69Z" fill="#7F3E3B"/>
<path d="M357.187 288.572L353.2 294.887L359.871 296.164L364.253 286.716L357.187 288.572Z" fill="#7F3E3B"/>
<path d="M383.305 241.362C381.634 245.56 379.884 249.573 378.042 253.638C376.2 257.704 374.358 261.704 372.41 265.704C368.489 273.848 364.096 281.756 359.253 289.387C357.937 291.335 356.621 293.269 355.148 295.203C354.411 296.177 353.595 297.137 352.727 298.124C352.253 298.624 351.871 299.084 351.319 299.598L350.529 300.361L350.082 300.782C348.829 301.853 347.356 302.635 345.766 303.071C344.929 303.309 344.076 303.489 343.214 303.611C341.808 303.779 340.392 303.836 338.977 303.782C336.534 303.706 334.098 303.464 331.688 303.058C322.767 301.481 314.03 299.004 305.61 295.664L307.531 288.401C316.044 289.427 324.741 290.519 332.925 290.861C334.855 290.933 336.787 290.907 338.714 290.782C339.49 290.718 340.26 290.595 341.017 290.414C341.262 290.352 341.5 290.263 341.727 290.151C341.806 290.151 341.727 290.058 341.372 290.282C341.24 290.35 341.12 290.439 341.017 290.545L341.148 290.387L341.517 289.979C341.753 289.743 342.043 289.348 342.319 289.032C342.859 288.348 343.411 287.611 343.964 286.808C345.056 285.243 346.122 283.506 347.174 281.743C349.279 278.217 351.24 274.467 353.161 270.677C355.082 266.888 356.924 263.02 358.74 259.125C362.358 251.362 365.897 243.336 369.266 235.573L383.305 241.362Z" fill="#7F3E3B"/>
<path d="M311.267 290.295L302.531 285.282L298.149 294.729C298.149 294.729 308.346 298.992 310.504 296.335L311.267 290.295Z" fill="#7F3E3B"/>
<path d="M295.478 287.19L291.478 293.493L298.149 294.769L302.531 285.322L295.478 287.19Z" fill="#7F3E3B"/>
<path d="M405.896 194.68L400.317 201.14L391.805 209.942L392.449 211.535C393.106 213.162 393.488 214.887 393.581 216.64C393.778 220.166 393.436 223.153 387.87 225.547C387.87 225.547 382.029 233.179 395.923 231.06C409.817 228.942 411.909 221.732 411.909 221.732C405.778 217.35 405.409 202.785 405.896 194.68Z" fill="#7F3E3B"/>
<path d="M377.568 187.39C377.568 188.259 377.134 188.996 376.555 189.022C375.976 189.048 375.516 188.364 375.502 187.496C375.489 186.627 375.95 185.89 376.516 185.864C377.081 185.838 377.555 186.522 377.568 187.39Z" fill="#263238"/>
<path d="M380.476 184.154C380.391 184.153 380.309 184.131 380.235 184.089C380.161 184.048 380.099 183.989 380.055 183.917C379.714 183.359 379.25 182.886 378.698 182.535C378.146 182.183 377.521 181.963 376.871 181.891C376.736 181.884 376.609 181.825 376.516 181.727C376.422 181.629 376.371 181.499 376.371 181.364C376.371 181.296 376.384 181.229 376.411 181.167C376.438 181.104 376.477 181.048 376.526 181.001C376.576 180.954 376.634 180.918 376.698 180.895C376.761 180.871 376.829 180.861 376.897 180.864C377.717 180.937 378.508 181.201 379.208 181.635C379.907 182.07 380.494 182.662 380.923 183.364C380.994 183.48 381.016 183.619 380.987 183.751C380.958 183.884 380.878 183.999 380.765 184.075C380.677 184.125 380.577 184.152 380.476 184.154Z" fill="#263238"/>
<path d="M377.252 187.917C376.543 190.285 375.526 192.55 374.226 194.653C374.766 194.958 375.367 195.14 375.986 195.185C376.605 195.231 377.226 195.139 377.805 194.917L377.252 187.917Z" fill="#630F0F"/>
<path d="M406.686 183.009C406.173 193.746 406.409 200.114 401.081 205.798C399.367 207.686 397.171 209.07 394.728 209.8C392.286 210.53 389.69 210.579 387.222 209.941C384.754 209.302 382.507 208.002 380.724 206.18C378.942 204.357 377.691 202.082 377.108 199.601C374.687 190.088 375.95 174.128 386.318 169.338C388.549 168.233 391.032 167.737 393.517 167.9C396.001 168.063 398.398 168.88 400.466 170.268C402.533 171.655 404.197 173.564 405.289 175.802C406.382 178.039 406.863 180.526 406.686 183.009Z" fill="#7F3E3B"/>
<path d="M411.554 186.601C410.005 191.155 407.642 195.39 404.58 199.101L390.607 201.732C390.607 201.732 379.568 197.114 382.515 189.509C380.647 187.93 381.344 183.048 382.66 180.364C383.719 181.234 385.057 181.693 386.427 181.657C387.797 181.621 389.109 181.092 390.12 180.167C390.543 180.829 391.114 181.385 391.787 181.79C392.46 182.196 393.217 182.441 394 182.506C394.783 182.571 395.571 182.454 396.301 182.165C397.032 181.875 397.686 181.421 398.212 180.838C398.811 181.417 399.536 181.85 400.33 182.103C401.124 182.355 401.966 182.42 402.789 182.293C403.613 182.165 404.395 181.849 405.076 181.368C405.756 180.887 406.316 180.256 406.712 179.522C407.571 180.059 408.577 180.312 409.587 180.246C410.598 180.18 411.562 179.798 412.343 179.154L412.541 178.97C412.73 181.554 412.394 184.15 411.554 186.601Z" fill="#263238"/>
<path opacity="0.1" d="M411.554 186.601C410.005 191.155 407.642 195.39 404.58 199.101L390.607 201.732C390.607 201.732 379.568 197.114 382.515 189.509C380.647 187.93 381.344 183.048 382.66 180.364C383.719 181.234 385.057 181.693 386.427 181.657C387.797 181.621 389.109 181.092 390.12 180.167C390.543 180.829 391.114 181.385 391.787 181.79C392.46 182.196 393.217 182.441 394 182.506C394.783 182.571 395.571 182.454 396.301 182.165C397.032 181.875 397.686 181.421 398.212 180.838C398.811 181.417 399.536 181.85 400.33 182.103C401.124 182.355 401.966 182.42 402.789 182.293C403.613 182.165 404.395 181.849 405.076 181.368C405.756 180.887 406.316 180.256 406.712 179.522C407.571 180.059 408.577 180.312 409.587 180.246C410.598 180.18 411.562 179.798 412.343 179.154L412.541 178.97C412.73 181.554 412.394 184.15 411.554 186.601Z" fill="white"/>
<path d="M413.567 173.575C413.946 174.464 414.051 175.447 413.868 176.396C413.685 177.346 413.223 178.219 412.541 178.904L412.343 179.088C411.562 179.732 410.598 180.114 409.587 180.18C408.577 180.247 407.571 179.993 406.712 179.456C406.317 180.19 405.757 180.822 405.076 181.302C404.395 181.783 403.613 182.099 402.789 182.227C401.966 182.354 401.124 182.289 400.33 182.037C399.536 181.785 398.811 181.352 398.212 180.772C397.686 181.356 397.032 181.809 396.301 182.099C395.571 182.388 394.783 182.505 394 182.44C393.217 182.375 392.46 182.13 391.787 181.724C391.114 181.319 390.544 180.763 390.12 180.101C389.109 181.026 387.797 181.555 386.427 181.591C385.057 181.628 383.719 181.169 382.66 180.298C382.1 179.865 381.65 179.306 381.344 178.667C381.272 178.527 381.21 178.382 381.16 178.233C381.047 178.361 380.924 178.48 380.792 178.588C380.135 179.112 379.332 179.421 378.494 179.47C377.655 179.52 376.821 179.308 376.108 178.864C375.543 178.472 375.091 177.939 374.795 177.318C374.5 176.698 374.372 176.01 374.424 175.325C374.439 175.04 374.487 174.757 374.568 174.483C374.464 174.681 374.331 174.863 374.174 175.022C373.86 175.325 373.489 175.562 373.083 175.72C372.676 175.878 372.243 175.954 371.807 175.943C371.371 175.932 370.942 175.835 370.544 175.656C370.146 175.478 369.788 175.222 369.489 174.904C369.186 174.445 368.979 173.929 368.881 173.387C368.783 172.846 368.796 172.29 368.919 171.754C369.042 171.217 369.272 170.712 369.597 170.267C369.921 169.822 370.332 169.448 370.805 169.167C371.556 168.73 372.41 168.503 373.279 168.509C374.646 168.529 375.971 168.991 377.055 169.825C376.637 168.996 376.525 168.045 376.739 167.141C376.952 166.238 377.478 165.438 378.222 164.883C378.967 164.328 379.884 164.054 380.811 164.108C381.738 164.163 382.617 164.542 383.292 165.181C383.145 164.509 383.203 163.809 383.459 163.171C383.715 162.533 384.156 161.986 384.726 161.602C386.542 160.549 389.568 161.457 391.041 163.22C391.041 163.22 393.068 158.325 396.568 158.878C397.331 158.983 400.923 160.575 400.831 161.865C400.85 161.947 400.85 162.033 400.831 162.115C400.88 162.014 400.937 161.917 401.002 161.825C401.389 161.303 401.899 160.885 402.486 160.607C403.074 160.329 403.721 160.201 404.37 160.233C405.776 160.337 407.151 160.703 408.423 161.312C411.146 162.431 414.041 163.681 415.62 166.167C417.199 168.654 416.396 172.786 413.567 173.575Z" fill="#263238"/>
<path d="M388.673 190.548C388.285 193.198 387.069 195.657 385.199 197.574C382.818 199.851 380.792 197.574 380.765 194.114C380.765 190.983 381.936 186.022 384.713 185.101C387.489 184.18 389.199 187.088 388.673 190.548Z" fill="#7F3E3B"/>
<path d="M430.777 225.468C429.79 222.837 425.185 220.205 422.356 220.205H420.488C416.719 220.238 412.954 220.48 409.212 220.929C401.691 221.761 394.223 223.017 386.844 224.692C383.45 225.587 380.173 226.718 377.568 227.692C374.252 229.008 372.305 229.889 372.305 229.889C372.305 229.889 375.937 254.073 377.818 278.098C378.858 291.48 378.423 304.756 378.765 313.887H434.895C436.83 302.913 436.527 293.348 436.685 273.533C436.764 261.599 434.83 236.297 430.777 225.468Z" fill="#263238"/>
<path opacity="0.2" d="M376.594 264.678C377.015 269.717 377.45 275.006 377.91 280.296C384.489 270.691 388.12 244.415 388.12 244.415L376.594 264.678Z" fill="black"/>
<path d="M369.121 231.652C361.082 236.179 353.2 259.283 353.2 259.283L371.621 273.164C378.647 266.52 388.923 250.033 390.041 243.441C391.831 233.389 382.002 224.442 369.121 231.652Z" fill="#263238"/>
<path d="M353.227 467.435C353.227 468.567 352.891 469.674 352.262 470.615C351.633 471.556 350.739 472.29 349.693 472.723C348.648 473.156 347.497 473.269 346.387 473.049C345.276 472.828 344.256 472.283 343.456 471.482C342.656 470.682 342.11 469.662 341.89 468.552C341.669 467.441 341.782 466.29 342.215 465.245C342.649 464.199 343.382 463.305 344.323 462.676C345.265 462.047 346.371 461.711 347.503 461.711C349.021 461.711 350.477 462.314 351.55 463.388C352.624 464.461 353.227 465.917 353.227 467.435Z" fill="#263238"/>
<path d="M438.672 467.435C438.672 468.567 439.007 469.674 439.636 470.615C440.265 471.556 441.159 472.29 442.205 472.723C443.251 473.156 444.401 473.269 445.512 473.049C446.622 472.828 447.642 472.283 448.442 471.482C449.243 470.682 449.788 469.662 450.009 468.552C450.23 467.441 450.116 466.29 449.683 465.245C449.25 464.199 448.516 463.305 447.575 462.676C446.634 462.047 445.527 461.711 444.395 461.711C442.877 461.711 441.421 462.314 440.348 463.388C439.275 464.461 438.672 465.917 438.672 467.435Z" fill="#263238"/>
<path d="M390.344 465.54C390.344 466.672 390.68 467.779 391.309 468.72C391.938 469.661 392.831 470.395 393.877 470.828C394.923 471.261 396.074 471.375 397.184 471.154C398.294 470.933 399.314 470.388 400.115 469.587C400.915 468.787 401.46 467.767 401.681 466.657C401.902 465.547 401.789 464.396 401.355 463.35C400.922 462.304 400.189 461.41 399.247 460.781C398.306 460.152 397.2 459.817 396.068 459.817C394.55 459.817 393.094 460.42 392.02 461.493C390.947 462.567 390.344 464.022 390.344 465.54Z" fill="#263238"/>
<path d="M394.291 458.541V447.475H377.897C374.679 447.471 371.467 447.77 368.305 448.37L337.78 454.291C337.095 454.424 336.486 454.811 336.073 455.373C335.66 455.935 335.474 456.633 335.552 457.326C335.63 458.019 335.966 458.658 336.493 459.114C337.021 459.571 337.701 459.813 338.398 459.791L394.291 458.541Z" fill="#263238"/>
<path d="M394.291 458.541V447.475H410.699C413.906 447.494 417.104 447.815 420.251 448.436L454.566 453.909C455.251 454.043 455.86 454.429 456.273 454.991C456.686 455.554 456.872 456.251 456.794 456.944C456.716 457.638 456.38 458.276 455.852 458.733C455.325 459.19 454.645 459.431 453.947 459.409L394.291 458.541Z" fill="#263238"/>
<path d="M404.436 396.819H384.134V447.488H404.436V396.819Z" fill="#263238"/>
<path d="M401.528 373.24H387.055V396.806H401.528V373.24Z" fill="#263238"/>
<path opacity="0.5" d="M387.055 380.161L401.528 383.806V373.24H387.055V380.161Z" fill="black"/>
<path d="M347.503 319.926H340.148V351.307H347.503V319.926Z" fill="#263238"/>
<path d="M384.384 373.24V236.81C384.382 234.258 384.927 231.734 385.983 229.41C387.038 227.086 388.579 225.015 390.502 223.337L400.225 214.824C403.5 211.952 407.711 210.375 412.067 210.39H447.185L464.316 228.705V373.24H384.384Z" fill="#407BFF"/>
<path d="M332.096 346.846H412.225V373.24H319.03C317.359 373.238 315.719 372.794 314.274 371.953C312.83 371.113 311.634 369.905 310.806 368.454C309.978 367.002 309.548 365.358 309.56 363.687C309.571 362.016 310.024 360.378 310.873 358.938C313.051 355.249 316.155 352.193 319.878 350.073C323.6 347.952 327.812 346.84 332.096 346.846Z" fill="#407BFF"/>
<path opacity="0.7" d="M464.316 228.705V373.24H319.03C317.359 373.238 315.719 372.793 314.274 371.953C312.83 371.112 311.634 369.905 310.806 368.454C309.978 367.002 309.548 365.358 309.56 363.687C309.571 362.016 310.024 360.378 310.873 358.938C313.052 355.25 316.157 352.195 319.879 350.074C323.601 347.954 327.812 346.841 332.096 346.846H372.45C375.629 346.846 378.678 345.583 380.926 343.336C383.173 341.088 384.436 338.039 384.436 334.86V236.81C384.435 234.258 384.98 231.734 386.035 229.41C387.091 227.086 388.632 225.015 390.555 223.337L400.278 214.824C403.553 211.952 407.764 210.375 412.12 210.39H447.237L464.316 228.705Z" fill="white"/>
<path d="M396.068 373.24V236.81C396.069 234.258 396.616 231.736 397.671 229.412C398.726 227.089 400.265 225.017 402.186 223.337L411.909 214.824C415.184 211.952 419.395 210.375 423.751 210.39H451.132C453.578 210.388 455.998 210.888 458.243 211.859C460.488 212.83 462.51 214.251 464.184 216.034L471.184 223.468C474.303 226.795 476.039 231.184 476.039 235.744V359.57C476.041 361.366 475.688 363.146 475.001 364.806C474.313 366.466 473.305 367.975 472.034 369.245C470.763 370.515 469.254 371.521 467.593 372.207C465.932 372.893 464.152 373.244 462.355 373.24H396.068Z" fill="#407BFF"/>
<path opacity="0.5" d="M396.068 373.24V236.81C396.069 234.258 396.616 231.736 397.671 229.412C398.726 227.089 400.265 225.017 402.186 223.337L411.909 214.824C415.184 211.952 419.395 210.375 423.751 210.39H451.132C453.578 210.388 455.998 210.888 458.243 211.859C460.488 212.83 462.51 214.251 464.184 216.034L471.184 223.468C474.303 226.795 476.039 231.184 476.039 235.744V359.57C476.041 361.366 475.688 363.146 475.001 364.806C474.313 366.466 473.305 367.975 472.034 369.245C470.763 370.515 469.254 371.521 467.593 372.207C465.932 372.893 464.152 373.244 462.355 373.24H396.068Z" fill="white"/>
<path d="M368.805 329.505C352.619 323.847 334.993 323.847 318.807 329.505C317.182 330.111 315.393 330.105 313.773 329.487C312.153 328.87 310.813 327.683 310.004 326.15C308.504 322.979 310.517 318.873 314.596 317.439C333.5 310.834 354.085 310.834 372.989 317.439C377.068 318.86 379.081 322.979 377.581 326.15C376.773 327.677 375.438 328.86 373.824 329.477C372.21 330.094 370.426 330.104 368.805 329.505Z" fill="#407BFF"/>
<path opacity="0.7" d="M368.805 329.505C352.619 323.847 334.993 323.847 318.807 329.505C317.182 330.111 315.393 330.105 313.773 329.487C312.153 328.87 310.813 327.683 310.004 326.15C308.504 322.979 310.517 318.873 314.596 317.439C333.5 310.834 354.085 310.834 372.989 317.439C377.068 318.86 379.081 322.979 377.581 326.15C376.773 327.677 375.438 328.86 373.824 329.477C372.21 330.094 370.426 330.104 368.805 329.505Z" fill="white"/>
<path d="M164.324 198.956C164.048 199.732 164.245 200.508 164.758 200.679C165.272 200.85 165.903 200.377 166.166 199.601C166.429 198.824 166.245 198.035 165.745 197.864C165.245 197.693 164.601 198.166 164.324 198.956Z" fill="#263238"/>
<path d="M164.18 199.758C164.287 202.467 164.76 205.15 165.587 207.732C164.924 207.919 164.229 207.962 163.548 207.858C162.867 207.753 162.216 207.504 161.64 207.127L164.18 199.758Z" fill="#A02724"/>
<path d="M163.061 193.666C163.109 193.686 163.161 193.697 163.212 193.697C163.264 193.697 163.316 193.686 163.364 193.666C163.942 193.482 164.555 193.434 165.156 193.525C165.756 193.616 166.327 193.845 166.824 194.193C166.876 194.231 166.935 194.259 166.997 194.274C167.06 194.29 167.125 194.293 167.188 194.283C167.252 194.273 167.313 194.251 167.368 194.217C167.423 194.184 167.471 194.14 167.508 194.087C167.581 193.998 167.621 193.887 167.621 193.772C167.621 193.657 167.581 193.545 167.508 193.456C166.89 192.997 166.172 192.691 165.412 192.565C164.652 192.44 163.873 192.497 163.14 192.732C163.02 192.777 162.922 192.866 162.865 192.981C162.809 193.096 162.799 193.228 162.837 193.351C162.86 193.422 162.899 193.487 162.951 193.539C163.004 193.592 163.069 193.631 163.14 193.653L163.061 193.666Z" fill="#263238"/>
<path d="M135.47 201.824C136.943 209.311 138.404 223.034 133.167 228.034C133.167 228.034 135.22 235.626 149.14 235.626C164.443 235.626 156.456 228.034 156.456 228.034C148.101 226.034 149.443 219.837 150.904 214.021L135.47 201.824Z" fill="#B55B52"/>
<path d="M138.878 188.246C136.141 198.035 134.036 203.627 137.167 210.219C141.864 220.153 158.285 221.442 162.759 210.074C166.166 199.548 169.535 188.535 161.443 181.469C159.673 179.903 157.533 178.814 155.225 178.305C152.917 177.797 150.518 177.886 148.254 178.565C145.99 179.244 143.937 180.489 142.29 182.183C140.642 183.877 139.454 185.964 138.838 188.246H138.878Z" fill="#B55B52"/>
<path d="M128.273 191.509C127.562 187.903 127.378 183.956 129.181 180.746C130.983 177.535 135.338 175.575 138.509 177.443C139.54 175.273 141.064 173.374 142.96 171.898C144.855 170.422 147.07 169.411 149.427 168.944C151.784 168.478 154.217 168.569 156.532 169.212C158.847 169.854 160.98 171.03 162.759 172.644C164.538 174.258 165.915 176.266 166.78 178.508C167.644 180.75 167.971 183.163 167.736 185.554C167.501 187.945 166.709 190.247 165.424 192.277C164.14 194.308 162.398 196.009 160.338 197.245C161.061 194.548 161.798 191.864 162.522 189.167C161.875 192.922 159.883 196.313 156.917 198.706L158.232 190.64C158.025 192.544 157.378 194.374 156.341 195.984C155.304 197.594 153.907 198.94 152.259 199.916L153.798 194.272C153.018 196.867 152.024 199.393 150.825 201.824C149.509 203.337 148.667 213.232 144.141 213.547C128.588 216.639 129.93 199.929 128.273 191.509Z" fill="#263238"/>
<path d="M149.206 196.193C148.944 198.703 149.507 201.23 150.811 203.39C152.561 206.206 155.127 205.127 156.074 202.245C156.917 199.614 157.009 195.074 154.575 193.245C152.14 191.417 149.575 193.18 149.206 196.193Z" fill="#B55B52"/>
<path d="M112.115 291.032C110.444 290.48 102.615 286.453 101.366 287.177C104.984 277.967 107.234 276.533 108.878 270.664C109.336 269.207 109.416 267.658 109.11 266.162C108.804 264.666 108.122 263.272 107.129 262.112C104.813 259.007 104.01 257.441 100.168 257.823C94.9052 266.664 88.208 277.559 85.6028 287.545C84.7213 290.901 84.0897 293.453 86.0896 296.295C87.8528 298.795 91.1027 299.795 94.1552 300.071C101.484 300.729 112.365 299.387 112.22 295.032C112.142 292.282 112.115 291.032 112.115 291.032Z" fill="#B55B52"/>
<path d="M110.878 290.703L117.089 288.69L116.536 299.913C116.536 299.913 111.563 300.084 108.905 296.756L110.878 290.703Z" fill="#B55B52"/>
<path d="M124.852 288.506L123.97 297.769L116.536 299.913L117.089 288.69L124.852 288.506Z" fill="#B55B52"/>
<path d="M196.06 298.676C196.06 298.676 187.363 291.861 176.021 269.493C174.337 266.362 172.732 263.191 171.179 260.007C169.627 256.822 168.153 253.638 166.732 250.257L180.179 244.468C182.942 250.494 187.258 256.717 190.31 262.704C193.363 268.691 200.56 282.874 201.468 284.19C201.915 284.874 202.402 285.44 202.863 286.072L203.56 286.993L194.889 297.019L196.06 298.676Z" fill="#B55B52"/>
<path d="M207.441 255.02L204.81 251.81L203.573 247.007L211.691 239.468C212.933 241.046 214.038 242.728 214.994 244.494C215.203 244.9 215.303 245.353 215.283 245.81L214.954 254.27L207.441 255.02Z" fill="#B55B52"/>
<path d="M203.626 241.823L209.691 236.31L211.612 239.533L203.507 247.033L203.626 241.823Z" fill="#B55B52"/>
<path d="M207.56 252.704C207.77 251.796 207.955 253.573 208.56 252.862C210.349 250.704 212.954 250.481 214.507 252.862C216.06 255.244 214.731 278.677 212.257 286.032C210.612 290.914 209.731 294.808 205.52 297.782C203.819 299.095 201.748 299.84 199.6 299.913C198.53 299.926 197.479 299.634 196.57 299.069C195.661 298.505 194.932 297.694 194.468 296.729C193.152 293.664 197.863 282.611 199.521 279.046C204.718 267.822 205.073 263.309 207.56 252.704Z" fill="#B55B52"/>
<path d="M190.152 251.691L200.902 251.586C202.436 251.684 203.973 251.441 205.402 250.875C207.153 249.853 208.461 248.216 209.073 246.283C210.599 242.336 210.731 238.099 211.323 233.968C211.915 229.836 213.178 225.494 216.31 222.718C210.599 223.481 200.521 221.692 196.113 226.363C193.797 228.85 189.705 251.691 190.152 251.691Z" fill="#407BFF"/>
<path opacity="0.5" d="M190.152 251.691L200.902 251.586C202.436 251.684 203.973 251.441 205.402 250.875C207.153 249.853 208.461 248.216 209.073 246.283C210.599 242.336 210.731 238.099 211.323 233.968C211.915 229.836 213.178 225.494 216.31 222.718C210.599 223.481 200.521 221.692 196.113 226.363C193.797 228.85 189.705 251.691 190.152 251.691Z" fill="white"/>
<path d="M208.547 235.718C207.928 235.889 207.52 238.086 207.652 238.718L208.257 239.797L209.481 245.06L213.586 242.797L209.889 236.218C209.747 236.003 209.541 235.838 209.3 235.748C209.058 235.658 208.794 235.648 208.547 235.718Z" fill="#B55B52"/>
<path d="M115.826 229.915C106.221 232.113 92.0105 262.046 92.0105 262.046L111.286 275.204C116.837 267.283 121.849 258.996 126.286 250.402C131.983 238.481 125.641 227.665 115.826 229.915Z" fill="#407BFF"/>
<path d="M129.852 230.639C128.746 228.231 127.549 225.481 130.036 224.626C132.786 223.679 147.838 222.705 153.022 224.481C153.701 224.666 154.337 224.982 154.893 225.413C155.45 225.844 155.915 226.38 156.264 226.991C156.612 227.603 156.837 228.277 156.924 228.975C157.011 229.673 156.959 230.382 156.772 231.06V231.152L129.852 230.639Z" fill="#263238"/>
<path opacity="0.2" d="M121.76 247.204L108.063 272.993L111.286 275.204C111.286 275.204 117.497 266.559 121.812 259.086L121.76 247.204Z" fill="black"/>
<path d="M174.206 243.086C176.284 253.612 171.429 278.611 171.482 319.4H116.72C116.365 311.163 122.365 291.637 114.905 252.744C114.668 251.428 114.563 230.178 115.826 229.955C121.129 229.028 126.479 228.395 131.851 228.06C139.608 227.613 147.384 227.613 155.14 228.06C158.311 228.389 163.298 230.35 166.456 231.481C171.364 233.218 173.206 237.915 174.206 243.086Z" fill="#407BFF"/>
<path opacity="0.2" d="M159.732 253.546C161.153 262.191 166.824 273.612 172.469 280.322C172.692 275.414 173.192 270.283 173.179 266.349L159.732 253.546Z" fill="black"/>
<path d="M155.785 240.547C154.469 250.244 173.548 274.993 173.548 274.993L192.744 261.836C192.744 261.836 187.416 248.191 178.455 239.244C168.285 229.008 157.324 230.021 155.785 240.547Z" fill="#407BFF"/>
<path d="M218.573 455.185H228.809L231.138 431.462H220.902L218.573 455.185Z" fill="#B55B52"/>
<path opacity="0.2" d="M230.98 432.896L229.796 445.12H219.546L220.744 432.896H230.98Z" fill="black"/>
<path d="M178.192 455.185H188.429L193.573 431.462H183.337L178.192 455.185Z" fill="#B55B52"/>
<g opacity="0.2">
<path d="M183.113 432.725H193.35L190.692 444.949H180.455L183.113 432.725Z" fill="black"/>
</g>
<path d="M229.388 450.58H218.217C217.986 450.607 217.772 450.714 217.611 450.882C217.45 451.05 217.353 451.269 217.336 451.501L215.31 463.211C215.193 463.666 215.24 464.147 215.442 464.57C215.644 464.993 215.988 465.332 216.415 465.527C216.537 465.546 216.661 465.546 216.783 465.527C220.809 465.448 226.638 465.132 231.704 465.132C237.638 465.132 242.756 465.54 249.703 465.54C253.914 465.54 255.085 460.04 253.322 459.554C245.309 457.291 238.769 457.054 231.849 451.514C231.16 450.931 230.291 450.601 229.388 450.58Z" fill="#263238"/>
<path d="M237.52 454.383C238.835 454.383 240.151 454.198 240.533 453.606C240.641 453.45 240.699 453.264 240.699 453.073C240.699 452.883 240.641 452.697 240.533 452.541C240.358 452.264 240.085 452.062 239.769 451.975C238.059 451.514 234.506 453.554 234.335 453.646C234.29 453.668 234.254 453.705 234.233 453.75C234.211 453.796 234.206 453.847 234.217 453.896C234.224 453.944 234.245 453.988 234.278 454.023C234.311 454.059 234.354 454.083 234.401 454.093C235.429 454.288 236.473 454.385 237.52 454.383ZM239.151 452.396H239.612C239.71 452.416 239.804 452.457 239.885 452.516C239.967 452.575 240.035 452.651 240.085 452.738C240.256 453.041 240.204 453.185 240.085 453.264C239.612 453.935 237.02 453.948 235.112 453.672C236.367 452.996 237.736 452.559 239.151 452.383V452.396Z" fill="#407BFF"/>
<path d="M234.428 454.093H234.533C235.77 453.541 238.217 451.33 238.02 450.146C238.02 449.87 237.783 449.541 237.125 449.462C236.648 449.426 236.176 449.577 235.809 449.883C234.493 450.949 234.23 453.712 234.217 453.83C234.211 453.872 234.216 453.915 234.232 453.955C234.249 453.994 234.275 454.028 234.309 454.054C234.344 454.079 234.385 454.092 234.428 454.093ZM236.927 449.949H237.072C237.506 449.949 237.533 450.172 237.546 450.225C237.664 450.922 235.993 452.659 234.73 453.409C234.837 452.251 235.297 451.154 236.046 450.264C236.297 450.064 236.607 449.953 236.927 449.949Z" fill="#407BFF"/>
<path d="M189.152 450.58H177.653C177.423 450.607 177.21 450.715 177.051 450.883C176.893 451.051 176.798 451.27 176.784 451.501L174.758 463.211C174.648 463.675 174.705 464.163 174.919 464.589C175.134 465.015 175.491 465.352 175.929 465.54C176.038 465.553 176.149 465.553 176.258 465.54C180.271 465.461 182.232 465.145 187.284 465.145C190.402 465.145 194.389 465.553 198.692 465.553C202.994 465.553 203.547 460.053 201.784 459.567C193.889 457.33 193.35 454.304 190.823 451.304C190.614 451.069 190.356 450.883 190.068 450.758C189.779 450.633 189.467 450.573 189.152 450.58Z" fill="#263238"/>
<path d="M195.165 455.685C195.6 455.745 196.041 455.717 196.464 455.601C196.887 455.486 197.282 455.286 197.626 455.014C197.747 454.848 197.812 454.648 197.812 454.442C197.812 454.236 197.747 454.036 197.626 453.87C197.548 453.725 197.439 453.599 197.307 453.502C197.176 453.404 197.024 453.336 196.863 453.304C195.363 452.949 192.534 454.883 192.416 454.962C192.378 454.991 192.349 455.029 192.33 455.073C192.312 455.117 192.305 455.164 192.31 455.212C192.318 455.258 192.34 455.3 192.373 455.333C192.406 455.366 192.448 455.388 192.494 455.396C193.371 455.59 194.267 455.687 195.165 455.685ZM196.481 453.738H196.771C196.864 453.755 196.952 453.793 197.029 453.847C197.106 453.902 197.171 453.972 197.218 454.054C197.442 454.462 197.31 454.62 197.218 454.685C196.784 455.251 194.692 455.264 193.152 455.014C194.141 454.335 195.27 453.886 196.455 453.698L196.481 453.738Z" fill="#407BFF"/>
<path d="M192.626 455.409C193.692 454.83 195.744 452.593 195.521 451.462C195.487 451.28 195.391 451.117 195.249 450.999C195.107 450.881 194.929 450.817 194.744 450.817C194.561 450.799 194.376 450.818 194.2 450.872C194.024 450.926 193.86 451.015 193.718 451.133C192.534 452.106 192.284 455.08 192.271 455.185C192.269 455.23 192.279 455.274 192.3 455.313C192.32 455.352 192.351 455.386 192.389 455.409H192.626ZM194.692 451.264H194.797C195.113 451.264 195.139 451.448 195.152 451.514C195.284 452.185 193.968 453.883 192.916 454.685C192.997 453.52 193.418 452.404 194.126 451.475C194.284 451.34 194.484 451.266 194.692 451.264Z" fill="#407BFF"/>
<path d="M155.075 319.373C155.075 319.373 203.56 339.399 213.586 354.78C207.626 393.911 196.929 438.488 196.929 438.488H178.692C178.721 419.2 180.301 399.946 183.416 380.911C186.047 333.084 99.9708 382.569 116.694 319.373H155.075Z" fill="#263238"/>
<path opacity="0.3" d="M188.6 352.385C185.203 352.586 181.821 352.977 178.469 353.557L167.85 355.188C173.328 359.79 179.108 364.019 185.153 367.846C188.824 370.174 192.823 372.411 197.152 372.424C202.021 372.424 215.231 366.188 213.047 359.701C210.862 353.214 194.126 352.149 188.6 352.385Z" fill="black"/>
<path d="M171.495 319.373C171.495 319.373 216.31 325.163 241.019 339.228C248.624 343.557 247.598 357.464 247.361 366.622C246.832 391.196 242.115 415.5 233.414 438.488H218.178C218.178 438.488 218.954 413.66 218.441 373.596C218.283 361.583 194.034 357.622 170.337 356.228C160.302 355.597 150.644 352.174 142.451 346.345C134.258 340.517 127.857 332.515 123.97 323.242L122.352 319.373H171.495Z" fill="#263238"/>
<path d="M237.112 434.41C237.191 434.41 236.125 441.607 236.125 441.607H215.073L214.494 435.186L237.112 434.41Z" fill="#407BFF"/>
<path d="M198.692 434.41C198.771 434.41 196.758 441.607 196.758 441.607H175.705L176.087 435.186L198.692 434.41Z" fill="#407BFF"/>
<path d="M142.128 355.688L127.036 466.882L124.312 466.501L135.957 354.846L142.128 355.688Z" fill="#407BFF"/>
<path opacity="0.4" d="M141.588 359.675L127.036 466.882L124.312 466.501L135.457 359.648L141.588 359.675Z" fill="black"/>
<path d="M195.179 359.662H109.655C109.655 358.38 109.907 357.11 110.398 355.926C110.889 354.741 111.608 353.665 112.514 352.758C113.421 351.852 114.497 351.133 115.682 350.642C116.866 350.151 118.136 349.899 119.418 349.899H185.416C186.698 349.899 187.967 350.151 189.152 350.642C190.336 351.133 191.413 351.852 192.319 352.758C193.226 353.665 193.945 354.741 194.435 355.926C194.926 357.11 195.179 358.38 195.179 359.662Z" fill="#407BFF"/>
<path opacity="0.7" d="M195.179 359.662H109.655C109.655 358.38 109.907 357.11 110.398 355.926C110.889 354.741 111.608 353.665 112.514 352.758C113.421 351.852 114.497 351.133 115.682 350.642C116.866 350.151 118.136 349.899 119.418 349.899H185.416C186.698 349.899 187.967 350.151 189.152 350.642C190.336 351.133 191.413 351.852 192.319 352.758C193.226 353.665 193.945 354.741 194.435 355.926C194.926 357.11 195.179 358.38 195.179 359.662Z" fill="white"/>
<path d="M113.615 359.648L100.721 467.764H103.484L119.839 359.648H113.615Z" fill="#407BFF"/>
<path d="M191.218 359.648L204.113 467.764H201.349L185.008 359.648H191.218Z" fill="#407BFF"/>
<path opacity="0.4" d="M191.218 359.648L204.113 467.764H201.349L185.008 359.648H191.218Z" fill="black"/>
<path d="M173.969 359.648L174.219 467.764H171.469L167.745 359.648H173.969Z" fill="#407BFF"/>
</svg>
