<svg width="2163" height="1611" viewBox="0 0 2163 1611" fill="none" xmlns="http://www.w3.org/2000/svg">
<path d="M2162.27 1415.67H0.418396V1416.75H2162.27V1415.67Z" fill="#FADCFF"/>
<path d="M1633.31 1461.46H1484.58V1462.54H1633.31V1461.46Z" fill="#FADCFF"/>
<path d="M480.523 1461.98H396.816V1463.06H480.523V1461.98Z" fill="#FADCFF"/>
<path d="M1085.67 1459.47H916.007V1460.55H1085.67V1459.47Z" fill="#FADCFF"/>
<path d="M911.684 1444.08H835.846V1445.16H911.684V1444.08Z" fill="#FADCFF"/>
<path d="M1836.09 1444.64H1606.98V1445.72H1836.09V1444.64Z" fill="#FADCFF"/>
<path d="M1960.4 1222.83H1125.49C1118.95 1222.82 1112.67 1220.22 1108.05 1215.59C1103.42 1210.96 1100.81 1204.69 1100.8 1198.15V24.5608C1100.87 18.0541 1103.5 11.8364 1108.12 7.25551C1112.74 2.67461 1118.98 0.0995801 1125.49 0.088562H1960.4C1966.9 0.111065 1973.12 2.69251 1977.73 7.27339C1982.33 11.8543 1984.94 18.0655 1985 24.5608V1198.15C1985 1204.68 1982.41 1210.94 1977.8 1215.57C1973.19 1220.2 1966.93 1222.81 1960.4 1222.83ZM1125.49 0.953307C1119.23 0.964737 1113.24 3.45561 1108.81 7.88039C1104.39 12.3052 1101.9 18.3032 1101.88 24.5608V1198.15C1101.9 1204.4 1104.39 1210.4 1108.81 1214.83C1113.24 1219.25 1119.23 1221.74 1125.49 1221.75H1960.4C1966.66 1221.74 1972.66 1219.25 1977.08 1214.83C1981.5 1210.4 1984 1204.4 1984.01 1198.15V24.5608C1984 18.3032 1981.5 12.3052 1977.08 7.88039C1972.66 3.45561 1966.66 0.964737 1960.4 0.953307H1125.49Z" fill="#FADCFF"/>
<path d="M1899.87 874.473C1846.69 793.49 1895.24 706.453 1887.16 616.347C1879.07 526.241 1793.46 506.611 1809.68 430.427C1828.44 341.878 1778.41 256.917 1721.73 256.917C1665.05 256.917 1615.06 341.662 1633.83 430.298C1650.04 506.611 1564.65 526.284 1556.35 616.217C1548.05 706.15 1596.82 793.49 1543.59 874.343C1490.37 955.196 1504.38 1062.55 1534.34 1115.78C1542.31 1129.9 1551.92 1143.04 1562.96 1154.91C1583.27 1176.71 1607.85 1194.09 1635.17 1205.98C1662.49 1217.87 1691.96 1224 1721.75 1224C1751.55 1224 1781.02 1217.87 1808.34 1205.98C1835.66 1194.09 1860.23 1176.71 1880.54 1154.91C1891.56 1143.02 1901.15 1129.89 1909.12 1115.78C1939.13 1062.68 1953.09 955.629 1899.87 874.473Z" fill="#FADCFF"/>
<path d="M1721.73 935.912C1725.26 935.912 1728.76 936.608 1732.02 937.96C1735.29 939.311 1738.25 941.292 1740.75 943.789C1743.24 946.287 1745.23 949.251 1746.58 952.514C1747.93 955.777 1748.62 959.274 1748.62 962.806V1415.67H1694.84V962.806C1694.84 959.274 1695.53 955.777 1696.88 952.514C1698.24 949.251 1700.22 946.287 1702.71 943.789C1705.21 941.292 1708.18 939.311 1711.44 937.96C1714.7 936.608 1718.2 935.912 1721.73 935.912Z" fill="#CADCFF"/>
<path d="M1383.62 1415.67H1310.5V962.849C1310.53 953.144 1314.39 943.842 1321.25 936.979C1328.12 930.116 1337.42 926.25 1347.12 926.227C1356.83 926.25 1366.13 930.116 1372.99 936.979C1379.86 943.842 1383.72 953.144 1383.75 962.849L1383.62 1415.67Z" fill="#FADCFF"/>
<path d="M1346.99 1293.53C1471.57 1293.53 1572.56 1192.54 1572.56 1067.96C1572.56 943.381 1471.57 842.391 1346.99 842.391C1222.42 842.391 1121.43 943.381 1121.43 1067.96C1121.43 1192.54 1222.42 1293.53 1346.99 1293.53Z" fill="#CADCFF"/>
<path d="M1612.05 1000.27C1623.89 952.624 1594.86 904.404 1547.21 892.568C1499.56 880.732 1451.34 909.763 1439.51 957.411C1427.67 1005.06 1456.7 1053.28 1504.35 1065.12C1552 1076.95 1600.22 1047.92 1612.05 1000.27Z" fill="#CADCFF"/>
<path d="M1216.47 934.656C1221.14 905.973 1201.67 878.934 1172.99 874.262C1144.31 869.591 1117.27 889.056 1112.6 917.739C1107.92 946.423 1127.39 973.462 1156.07 978.133C1184.76 982.804 1211.8 963.339 1216.47 934.656Z" fill="#CADCFF"/>
<path d="M1221.78 935.912C1242.17 935.912 1258.7 919.381 1258.7 898.988C1258.7 878.595 1242.17 862.063 1221.78 862.063C1201.39 862.063 1184.86 878.595 1184.86 898.988C1184.86 919.381 1201.39 935.912 1221.78 935.912Z" fill="#CADCFF"/>
<path d="M882.455 1145.4C847.379 1150.62 813.86 1163.41 784.221 1182.88C783.961 1148.64 777.692 1116.17 761.608 1089.92C737.135 1113.75 717.29 1144.62 701.076 1177.82C695.152 1115.61 678.765 1055.07 642.489 1016.72C588.14 1050.92 560.123 1107.91 546.806 1168.27C524.805 1127.57 492.872 1093.09 453.976 1068.05C420.726 1103.07 410.09 1151.49 410.998 1201.13C373.209 1157.11 331.269 1122.78 290.366 1118.76C280.292 1188.33 301.738 1253.96 329.02 1305.85C346.733 1339.14 373.195 1366.96 405.553 1386.32C437.912 1405.68 474.941 1415.85 512.648 1415.71H690.31C766.018 1415.71 837.013 1375.33 872.511 1308.44C894.951 1266.07 905.674 1211.55 882.455 1145.4Z" fill="#FADCFF"/>
<path d="M831.695 247.145C853.616 182.852 836.019 137.064 782.534 137.064C748.896 137.064 707.172 155.094 666.529 184.408C661.946 167.676 649.018 157.688 628.221 157.688C591.599 157.688 541.142 188.646 501.58 232.315C490.441 221.733 475.695 215.782 460.331 215.669C425.266 213.68 382.851 231.494 345.969 260.419C344.121 257.833 341.681 255.726 338.853 254.274C336.025 252.822 332.891 252.068 329.712 252.074C309.52 250.95 282.151 268.937 268.618 292.198C267.797 293.625 267.062 295.052 266.283 296.522H842.331C844.061 276.201 840.472 259.252 831.695 247.145Z" fill="#CADCFF"/>
<path d="M833.468 637.533C844.19 606.143 835.673 583.79 809.471 583.79C792.998 583.79 772.633 592.437 752.787 606.921C751.718 602.887 749.247 599.365 745.816 596.987C742.385 594.61 738.219 593.534 734.066 593.95C716.209 593.95 691.563 609.083 672.193 630.442C666.764 625.256 659.553 622.347 652.045 622.314C634.75 621.319 614.212 630.01 596.182 644.149C595.308 642.898 594.152 641.871 592.808 641.15C591.463 640.429 589.968 640.034 588.443 639.998C578.585 639.436 565.225 648.213 558.609 659.584L557.442 661.66H838.829C840.005 653.234 838.102 644.667 833.468 637.533Z" fill="#CADCFF"/>
<path d="M1482.46 399.989C1480.24 399.677 1478 399.518 1475.75 399.513C1477.83 368.166 1465.85 348.104 1440.21 348.104C1421.75 348.104 1399.05 358.567 1375.96 376.251C1382.58 315.373 1361.39 275.812 1313.4 275.812C1274.75 275.812 1225.76 301.754 1177.38 343.521C1173.05 319.654 1158.87 305.299 1134.92 305.299C1092.85 305.299 1033.05 349.574 985.1 412.008C979.636 404.809 972.629 398.925 964.593 394.787C956.558 390.65 947.698 388.364 938.664 388.098C898.626 385.288 848.86 410.711 804.629 452.132C803.019 448.64 800.458 445.671 797.238 443.568C794.018 441.465 790.271 440.312 786.426 440.242C764.505 438.686 734.541 461.558 716.771 492.127H1517.69C1536.5 445.777 1521.54 405.22 1482.46 399.989Z" fill="#CADCFF"/>
<path d="M1081.35 1610.93C1544.34 1610.93 1919.67 1589.02 1919.67 1561.99C1919.67 1534.95 1544.34 1513.04 1081.35 1513.04C618.352 1513.04 243.022 1534.95 243.022 1561.99C243.022 1589.02 618.352 1610.93 1081.35 1610.93Z" fill="white"/>
<path d="M211.675 413.262L1197.35 555.167L1329.61 688.639L211.675 413.262Z" fill="#407BFF"/>
<path opacity="0.6" d="M211.675 413.262L1197.35 555.167L1329.61 688.639L211.675 413.262Z" fill="white"/>
<path d="M211.675 413.262L1197.35 555.167L1151.61 748.177L211.675 413.262Z" fill="#407BFF"/>
<path opacity="0.2" d="M211.675 413.262L1197.35 555.167L1151.61 748.177L211.675 413.262Z" fill="black"/>
<path d="M1131.37 189.813L1188.57 457.883C1190.06 464.883 1188.71 472.187 1184.82 478.194C1180.93 484.2 1174.82 488.418 1167.82 489.922L657.277 598.879C650.278 600.355 642.979 599.001 636.976 595.112C630.972 591.223 626.752 585.116 625.238 578.125L567.992 310.055C566.517 303.05 567.877 295.746 571.775 289.742C575.673 283.737 581.79 279.521 588.789 278.017L1099.33 169.059C1106.34 167.584 1113.64 168.944 1119.65 172.842C1125.65 176.74 1129.87 182.857 1131.37 189.856V189.813Z" fill="#407BFF"/>
<path opacity="0.4" d="M1131.37 189.813L1188.57 457.883C1190.06 464.883 1188.71 472.187 1184.82 478.194C1180.93 484.2 1174.82 488.418 1167.82 489.922L657.277 598.879C650.278 600.355 642.979 599.001 636.976 595.112C630.972 591.223 626.752 585.116 625.238 578.125L567.992 310.055C566.517 303.05 567.877 295.746 571.775 289.742C575.673 283.737 581.79 279.521 588.789 278.017L1099.33 169.059C1106.34 167.584 1113.64 168.944 1119.65 172.842C1125.65 176.74 1129.87 182.857 1131.37 189.856V189.813Z" fill="black"/>
<path d="M1118.79 172.259L948.219 381.656C932.4 401.07 910.428 414.502 885.936 419.731C861.445 424.959 835.903 421.67 813.535 410.409L572.316 288.912C576.218 283.306 582.108 279.395 588.789 277.973L1099.33 169.016C1106 167.598 1112.95 168.757 1118.79 172.259Z" fill="#407BFF"/>
<path d="M211.675 413.262L1024.66 606.489L1151.61 748.177L211.675 413.262Z" fill="#407BFF"/>
<path opacity="0.6" d="M211.675 413.262L1024.66 606.489L1151.61 748.177L211.675 413.262Z" fill="white"/>
<path d="M508.234 599.507L506.049 603.238L596.52 656.232L598.706 652.502L508.234 599.507Z" fill="#407BFF"/>
<path d="M638.649 675.865L636.464 679.596L668.996 698.652L671.181 694.921L638.649 675.865Z" fill="#407BFF"/>
<path d="M211.675 413.262L1024.66 606.489L866.631 796.948L211.675 413.262Z" fill="#407BFF"/>
<path d="M1299.09 865.955C1297.99 865.957 1296.91 865.752 1295.89 865.349L1163.5 812.946C1161.38 812.093 1159.68 810.436 1158.78 808.338C1157.88 806.24 1157.85 803.871 1158.69 801.747C1159.52 799.623 1161.17 797.918 1163.26 797.002C1165.35 796.087 1167.72 796.037 1169.85 796.862L1302.29 849.265C1304.16 850.006 1305.72 851.377 1306.69 853.143C1307.66 854.908 1307.98 856.957 1307.6 858.936C1307.22 860.914 1306.16 862.698 1304.61 863.98C1303.06 865.261 1301.1 865.96 1299.09 865.955Z" fill="#407BFF"/>
<path opacity="0.3" d="M1299.09 865.955C1297.99 865.957 1296.91 865.752 1295.89 865.349L1163.5 812.946C1161.38 812.093 1159.68 810.436 1158.78 808.338C1157.88 806.24 1157.85 803.871 1158.69 801.747C1159.52 799.623 1161.17 797.918 1163.26 797.002C1165.35 796.087 1167.72 796.037 1169.85 796.862L1302.29 849.265C1304.16 850.006 1305.72 851.377 1306.69 853.143C1307.66 854.908 1307.98 856.957 1307.6 858.936C1307.22 860.914 1306.16 862.698 1304.61 863.98C1303.06 865.261 1301.1 865.96 1299.09 865.955Z" fill="black"/>
<path d="M1291.26 790.03C1290.18 790.024 1289.11 789.803 1288.11 789.382L1216.98 761.062C1215.92 760.65 1214.95 760.031 1214.12 759.242C1213.3 758.453 1212.64 757.509 1212.18 756.464C1211.73 755.419 1211.48 754.295 1211.46 753.154C1211.44 752.014 1211.64 750.881 1212.06 749.82C1212.48 748.76 1213.11 747.793 1213.9 746.975C1214.7 746.156 1215.64 745.503 1216.69 745.053C1217.74 744.603 1218.87 744.365 1220.01 744.352C1221.15 744.339 1222.28 744.551 1223.34 744.977L1294.46 773.168C1296.59 774.007 1298.3 775.657 1299.22 777.757C1300.14 779.856 1300.18 782.233 1299.35 784.366C1298.74 786.023 1297.64 787.453 1296.19 788.466C1294.75 789.478 1293.03 790.024 1291.26 790.03Z" fill="#407BFF"/>
<path opacity="0.5" d="M1291.26 790.03C1290.18 790.024 1289.11 789.803 1288.11 789.382L1216.98 761.062C1215.92 760.65 1214.95 760.031 1214.12 759.242C1213.3 758.453 1212.64 757.509 1212.18 756.464C1211.73 755.419 1211.48 754.295 1211.46 753.154C1211.44 752.014 1211.64 750.881 1212.06 749.82C1212.48 748.76 1213.11 747.793 1213.9 746.975C1214.7 746.156 1215.64 745.503 1216.69 745.053C1217.74 744.603 1218.87 744.365 1220.01 744.352C1221.15 744.339 1222.28 744.551 1223.34 744.977L1294.46 773.168C1296.59 774.007 1298.3 775.657 1299.22 777.757C1300.14 779.856 1300.18 782.233 1299.35 784.366C1298.74 786.023 1297.64 787.453 1296.19 788.466C1294.75 789.478 1293.03 790.024 1291.26 790.03Z" fill="white"/>
<path d="M1142.57 864.831C1141.49 864.818 1140.42 864.613 1139.41 864.225L1010.26 812.946C1009.2 812.534 1008.23 811.916 1007.41 811.127C1006.58 810.338 1005.92 809.394 1005.47 808.349C1005.01 807.304 1004.76 806.179 1004.74 805.039C1004.72 803.899 1004.93 802.766 1005.35 801.705C1005.77 800.644 1006.39 799.677 1007.19 798.859C1007.98 798.041 1008.93 797.388 1009.98 796.938C1011.02 796.488 1012.15 796.249 1013.29 796.236C1014.43 796.223 1015.56 796.436 1016.62 796.862L1145.77 847.968C1147.64 848.709 1149.2 850.08 1150.17 851.846C1151.14 853.611 1151.46 855.66 1151.08 857.638C1150.7 859.617 1149.65 861.401 1148.09 862.683C1146.54 863.964 1144.58 864.663 1142.57 864.658V864.831Z" fill="#407BFF"/>
<path opacity="0.3" d="M1142.57 864.831C1141.49 864.818 1140.42 864.613 1139.41 864.225L1010.26 812.946C1009.2 812.534 1008.23 811.916 1007.41 811.127C1006.58 810.338 1005.92 809.394 1005.47 808.349C1005.01 807.304 1004.76 806.179 1004.74 805.039C1004.72 803.899 1004.93 802.766 1005.35 801.705C1005.77 800.644 1006.39 799.677 1007.19 798.859C1007.98 798.041 1008.93 797.388 1009.98 796.938C1011.02 796.488 1012.15 796.249 1013.29 796.236C1014.43 796.223 1015.56 796.436 1016.62 796.862L1145.77 847.968C1147.64 848.709 1149.2 850.08 1150.17 851.846C1151.14 853.611 1151.46 855.66 1151.08 857.638C1150.7 859.617 1149.65 861.401 1148.09 862.683C1146.54 863.964 1144.58 864.663 1142.57 864.658V864.831Z" fill="black"/>
<path d="M1610.14 474.918C1621.59 497.272 1632.1 519.669 1642.09 542.584C1652.08 565.5 1661.37 588.719 1669.5 613.061L1672.44 622.27C1672.96 623.913 1673.69 626.594 1674.13 628.497C1674.56 630.399 1674.95 632.561 1675.16 634.377C1676.15 641.352 1676.66 648.388 1676.68 655.433C1676.74 668.427 1676.14 681.416 1674.86 694.347C1672.45 719.379 1668.52 744.243 1663.1 768.801L1639.36 766.164C1639.06 741.821 1638.85 717.219 1637.98 693.223C1637.59 681.289 1636.9 669.312 1635.69 658.071C1635.14 652.792 1634.27 647.551 1633.09 642.376C1632.88 641.165 1632.53 640.257 1632.27 639.263C1632.01 638.268 1631.75 637.922 1631.32 636.625L1628.04 628.453C1619 606.575 1608.84 584.524 1598.46 562.56L1567.07 496.667L1610.14 474.918Z" fill="#E4897B"/>
<path d="M1639.71 758.554L1628.64 779.264L1664.01 789.122C1664.01 789.122 1670.75 772.476 1662.71 759.332L1639.71 758.554Z" fill="#E4897B"/>
<path d="M1615.11 809.098L1647.62 811.692L1664.01 789.122L1628.64 779.264L1615.11 809.098Z" fill="#E4897B"/>
<path d="M1461.27 325.491C1460.79 328.042 1459.02 329.815 1457.38 329.469C1455.74 329.123 1454.83 326.831 1455.35 324.324C1455.87 321.816 1457.6 320 1459.24 320.346C1460.88 320.692 1461.83 322.983 1461.27 325.491Z" fill="#263238"/>
<path d="M1459.28 329.815C1454.71 336.888 1449.2 343.304 1442.89 348.882C1444.37 350.449 1446.16 351.677 1448.15 352.483C1450.15 353.29 1452.29 353.654 1454.44 353.552L1459.28 329.815Z" fill="#DE5753"/>
<path d="M1473.29 313.428C1472.88 313.418 1472.49 313.247 1472.21 312.952C1470.97 311.532 1469.41 310.423 1467.66 309.717C1465.91 309.011 1464.02 308.727 1462.14 308.888C1461.78 308.891 1461.43 308.768 1461.15 308.539C1460.88 308.31 1460.69 307.991 1460.63 307.638C1460.57 307.285 1460.63 306.921 1460.81 306.612C1460.99 306.303 1461.28 306.067 1461.62 305.948C1464.02 305.643 1466.46 305.938 1468.73 306.805C1470.99 307.673 1473 309.086 1474.59 310.92C1474.86 311.203 1475.02 311.583 1475.02 311.979C1475.02 312.376 1474.86 312.756 1474.59 313.039C1474.41 313.197 1474.21 313.314 1473.98 313.382C1473.76 313.449 1473.52 313.465 1473.29 313.428Z" fill="#263238"/>
<path d="M1532.78 360.816C1528.24 384.077 1523.7 426.623 1539.96 442.145C1539.96 442.145 1533.61 465.709 1490.41 465.709C1442.85 465.709 1467.76 442.145 1467.76 442.145C1493.7 435.962 1492.96 416.721 1488.47 398.691L1532.78 360.816Z" fill="#E4897B"/>
<path d="M1546.49 456.802C1549.91 445.431 1553.67 432.416 1545.89 428.309C1537.24 423.985 1490.24 419.229 1474.03 427.66C1457.81 436.092 1462.44 459.223 1462.44 459.223L1546.49 456.802Z" fill="#263238"/>
<path d="M1646.2 1535.01C1644.85 1535.18 1643.49 1535.09 1642.18 1534.74C1640.87 1534.38 1639.65 1533.77 1638.59 1532.93C1638.21 1532.41 1638.01 1531.78 1638.01 1531.14C1638.01 1530.49 1638.21 1529.86 1638.59 1529.34C1638.83 1528.89 1639.17 1528.5 1639.58 1528.2C1639.99 1527.89 1640.46 1527.68 1640.96 1527.57C1645.63 1526.53 1654.37 1532.5 1654.76 1532.76C1654.87 1532.85 1654.96 1532.97 1655.01 1533.11C1655.06 1533.24 1655.08 1533.39 1655.06 1533.54C1655.03 1533.68 1654.97 1533.8 1654.87 1533.91C1654.77 1534.01 1654.64 1534.07 1654.5 1534.1C1651.77 1534.69 1648.99 1534.99 1646.2 1535.01ZM1642.22 1528.95H1641.31C1641.02 1529.01 1640.74 1529.14 1640.5 1529.32C1640.26 1529.5 1640.07 1529.73 1639.93 1529.99C1639.23 1531.2 1639.67 1531.72 1639.93 1531.89C1641.27 1533.71 1647.75 1533.71 1652.51 1532.93C1649.41 1530.88 1645.89 1529.56 1642.22 1529.04V1528.95Z" fill="#407BFF"/>
<path d="M1654.32 1534.23H1653.98C1650.69 1532.41 1644.34 1525.58 1644.98 1521.95C1645.1 1521.39 1645.4 1520.88 1645.84 1520.52C1646.28 1520.16 1646.83 1519.96 1647.41 1519.96C1647.98 1519.9 1648.55 1519.95 1649.1 1520.11C1649.65 1520.28 1650.16 1520.55 1650.61 1520.91C1654.28 1523.94 1654.93 1533.1 1654.93 1533.49C1654.95 1533.63 1654.92 1533.77 1654.86 1533.89C1654.8 1534.01 1654.7 1534.12 1654.58 1534.18C1654.5 1534.22 1654.41 1534.23 1654.32 1534.23ZM1647.93 1521.26H1647.75C1646.76 1521.26 1646.67 1521.86 1646.63 1522.03C1646.24 1524.15 1650.3 1529.38 1653.55 1531.85C1653.33 1528.24 1652.03 1524.77 1649.83 1521.9C1649.54 1521.68 1649.2 1521.51 1648.85 1521.41C1648.49 1521.32 1648.12 1521.29 1647.75 1521.34L1647.93 1521.26Z" fill="#407BFF"/>
<path d="M1455.48 1535.01C1451.41 1535.01 1447.48 1534.44 1446.14 1532.63C1445.8 1532.15 1445.62 1531.57 1445.62 1530.98C1445.62 1530.4 1445.8 1529.82 1446.14 1529.34C1446.4 1528.9 1446.75 1528.51 1447.17 1528.21C1447.58 1527.9 1448.06 1527.68 1448.56 1527.57C1453.79 1526.14 1464.95 1532.45 1465.42 1532.71C1465.55 1532.8 1465.65 1532.91 1465.71 1533.05C1465.77 1533.19 1465.79 1533.34 1465.77 1533.49C1465.74 1533.64 1465.67 1533.78 1465.56 1533.89C1465.45 1534 1465.31 1534.07 1465.16 1534.1C1461.97 1534.7 1458.73 1535 1455.48 1535.01ZM1450.42 1528.87C1449.94 1528.8 1449.46 1528.8 1448.99 1528.87C1448.69 1528.93 1448.4 1529.05 1448.15 1529.23C1447.89 1529.41 1447.68 1529.64 1447.52 1529.9C1446.96 1530.86 1447.18 1531.29 1447.52 1531.55C1448.95 1533.54 1456.99 1533.67 1462.96 1532.84C1459.07 1530.75 1454.81 1529.42 1450.42 1528.95V1528.87Z" fill="#407BFF"/>
<path d="M1465.08 1534.23H1464.77C1460.92 1532.54 1453.36 1525.58 1453.92 1522.08C1453.92 1521.21 1454.66 1520.18 1456.73 1519.96C1457.5 1519.84 1458.29 1519.9 1459.04 1520.12C1459.79 1520.35 1460.47 1520.73 1461.05 1521.26C1465.12 1524.54 1465.94 1533.1 1465.98 1533.49C1466 1533.62 1465.98 1533.76 1465.93 1533.88C1465.87 1534 1465.79 1534.11 1465.68 1534.18C1465.59 1534.23 1465.49 1534.26 1465.38 1534.27C1465.28 1534.28 1465.17 1534.26 1465.08 1534.23ZM1457.34 1521.26H1456.86C1455.52 1521.26 1455.43 1521.95 1455.39 1522.12C1455.04 1524.28 1460.23 1529.69 1464.04 1532.02C1463.66 1528.39 1462.15 1524.97 1459.71 1522.25C1459.1 1521.72 1458.32 1521.4 1457.51 1521.34L1457.34 1521.26Z" fill="#407BFF"/>
<path d="M1500.01 1533.45H1468.23L1465.08 1459.9H1496.85L1500.01 1533.45Z" fill="#E4897B"/>
<path d="M1690.73 1533.45H1658.95L1643 1459.9H1674.73L1690.73 1533.45Z" fill="#E4897B"/>
<path d="M1656.7 1529.77H1692.37C1693.01 1529.78 1693.63 1530 1694.12 1530.4C1694.62 1530.8 1694.96 1531.36 1695.1 1531.98L1701.37 1560.21C1701.51 1560.9 1701.5 1561.61 1701.33 1562.29C1701.16 1562.97 1700.84 1563.61 1700.39 1564.15C1699.94 1564.69 1699.37 1565.12 1698.73 1565.41C1698.1 1565.7 1697.4 1565.85 1696.7 1565.83C1684.24 1565.62 1678.19 1564.88 1662.5 1564.88C1652.85 1564.88 1632.96 1565.92 1619.6 1565.92C1606.24 1565.92 1604.56 1552.95 1610.01 1551.52C1634.48 1546.16 1643.69 1538.77 1651.51 1531.76C1652.94 1530.48 1654.79 1529.77 1656.7 1529.77Z" fill="#263238"/>
<path d="M1468.45 1529.77H1503.04C1503.67 1529.78 1504.29 1530 1504.79 1530.4C1505.28 1530.8 1505.62 1531.36 1505.76 1531.98L1512.03 1560.21C1512.18 1560.89 1512.17 1561.6 1512.01 1562.28C1511.85 1562.96 1511.54 1563.59 1511.1 1564.13C1510.66 1564.67 1510.1 1565.11 1509.47 1565.4C1508.84 1565.7 1508.14 1565.84 1507.45 1565.83C1494.95 1565.62 1476.88 1564.88 1461.14 1564.88C1442.76 1564.88 1426.85 1565.92 1405.28 1565.92C1392.31 1565.92 1388.63 1552.95 1394.08 1551.52C1418.94 1546.07 1439.22 1545.51 1460.71 1532.28C1463 1530.73 1465.68 1529.86 1468.45 1529.77Z" fill="#263238"/>
<path d="M1453.19 497.921C1426.62 495.863 1400.2 492.355 1374.02 487.414C1361.05 484.906 1347.82 482.096 1334.67 478.55C1321.2 475.102 1307.97 470.769 1295.07 465.579C1291.74 464.196 1288.37 462.682 1285.04 461.255C1281.29 459.409 1277.68 457.3 1274.23 454.943C1268 450.835 1262.64 446.555 1257.32 442.318C1246.73 433.67 1236.91 425.023 1227.05 416.159C1207.73 398.259 1189.4 379.754 1171.71 360.297L1187.62 342.526L1250.36 387.623C1260.69 395.059 1271.16 402.367 1281.45 409.241C1286.55 412.657 1291.78 415.856 1296.58 418.58C1298.59 419.725 1300.67 420.736 1302.81 421.607C1305.36 422.602 1307.95 423.596 1310.68 424.547C1334.04 431.743 1357.94 437.092 1382.15 440.545C1406.83 444.436 1432.34 447.636 1456.99 450.23L1453.19 497.921Z" fill="#E4897B"/>
<path d="M1596.82 449.322C1626.61 456.154 1656.7 543.19 1656.7 543.19L1595.44 587.162C1595.44 587.162 1578.14 546.606 1561.45 511.151C1543.98 474.01 1566.38 442.361 1596.82 449.322Z" fill="#407BFF"/>
<path opacity="0.4" d="M1596.82 449.322C1626.61 456.154 1656.7 543.19 1656.7 543.19L1595.44 587.162C1595.44 587.162 1578.14 546.606 1561.45 511.151C1543.98 474.01 1566.38 442.361 1596.82 449.322Z" fill="black"/>
<path d="M1579.65 496.883L1567.5 524.079C1580.09 551.232 1591.59 578.125 1594.66 585.303C1594.22 553.178 1588.13 513.313 1579.65 496.883Z" fill="#407BFF"/>
<path opacity="0.6" d="M1579.65 496.883L1567.5 524.079C1580.09 551.232 1591.59 578.125 1594.66 585.303C1594.22 553.178 1588.13 513.313 1579.65 496.883Z" fill="black"/>
<path d="M1418.9 450.965C1418.9 450.965 1385.09 489.143 1417 725.521H1586.87C1588.08 699.578 1571.7 572.202 1596.82 449.322C1578.04 445.706 1559.05 443.309 1539.96 442.145C1515.91 440.76 1491.8 440.76 1467.76 442.145C1451.26 443.806 1434.93 446.755 1418.9 450.965Z" fill="#407BFF"/>
<path opacity="0.4" d="M1418.9 450.965C1418.9 450.965 1385.09 489.143 1417 725.521H1586.87C1588.08 699.578 1571.7 572.202 1596.82 449.322C1578.04 445.706 1559.05 443.309 1539.96 442.145C1515.91 440.76 1491.8 440.76 1467.76 442.145C1451.26 443.806 1434.93 446.755 1418.9 450.965Z" fill="black"/>
<path d="M1406.32 496.883C1405.19 505.833 1404.33 516.426 1403.77 528.922C1420.54 523.886 1436.48 516.397 1451.07 506.698L1406.32 496.883Z" fill="#407BFF"/>
<path opacity="0.6" d="M1406.32 496.883C1405.19 505.833 1404.33 516.426 1403.77 528.922C1420.54 523.886 1436.48 516.397 1451.07 506.698L1406.32 496.883Z" fill="black"/>
<path d="M1479.13 501.639C1456.38 521.787 1369.56 519.755 1369.56 519.755L1366.71 435.702C1396.03 439.879 1425.6 442.017 1455.22 442.101C1503.6 441.107 1503.95 479.415 1479.13 501.639Z" fill="#407BFF"/>
<path opacity="0.4" d="M1479.13 501.639C1456.38 521.787 1369.56 519.755 1369.56 519.755L1366.71 435.702C1396.03 439.879 1425.6 442.017 1455.22 442.101C1503.6 441.107 1503.95 479.415 1479.13 501.639Z" fill="black"/>
<path d="M1188.44 342.699L1166.83 317.233L1143.52 343.175C1143.52 343.175 1157.88 367.301 1180.66 363.496L1188.44 342.699Z" fill="#E4897B"/>
<path d="M1135.87 287.529L1127.48 320.778L1143.35 343.002L1166.65 317.233L1135.87 287.529Z" fill="#E4897B"/>
<path d="M1465.08 1459.95L1466.72 1497.82H1498.5L1496.85 1459.95H1465.08Z" fill="#CE6F64"/>
<path d="M1674.78 1459.95H1643L1651.21 1497.82H1682.99L1674.78 1459.95Z" fill="#CE6F64"/>
<path d="M1484.19 294.101C1455.69 281.13 1446.7 223.495 1528.68 237.893C1528.68 237.893 1516.31 251.556 1541.39 260.203C1566.47 268.85 1545.5 322.248 1484.19 294.101Z" fill="#263238"/>
<path d="M1546.1 337.338C1537.93 367.604 1534.73 386.023 1515.84 398.691C1487.56 417.716 1452.41 395.881 1451.28 363.583C1450.29 334.571 1463.82 289.647 1496.47 283.508C1503.67 282.095 1511.12 282.552 1518.1 284.835C1525.08 287.118 1531.35 291.15 1536.33 296.548C1541.31 301.946 1544.82 308.53 1546.53 315.67C1548.24 322.811 1548.09 330.271 1546.1 337.338Z" fill="#E4897B"/>
<path d="M1527.55 253.026C1546.97 263.835 1573.25 270.32 1570.79 285.713C1567.55 304.521 1586.66 292.761 1582.2 320.735C1579.31 339.024 1545.58 394.454 1521.67 391.774C1485.96 387.45 1490.5 333.144 1490.37 304.521C1490.28 287.615 1489.5 231.71 1527.55 253.026Z" fill="#263238"/>
<path d="M1486.09 277.282C1477.44 279.314 1465.98 329.166 1499.49 333.749C1538.02 338.981 1486.09 277.282 1486.09 277.282Z" fill="#263238"/>
<path d="M1486.95 294.966C1476.36 295.917 1452.36 283.162 1455.3 263.965C1455.3 263.835 1470.48 286.405 1486.95 294.966Z" fill="#263238"/>
<path d="M1502.69 337.727C1499.44 344.856 1493.92 350.709 1487 354.373C1477.87 359.129 1472.73 352.212 1474.8 343.045C1476.66 334.83 1483.67 322.421 1493.05 321.427C1502.43 320.432 1506.45 329.08 1502.69 337.727Z" fill="#E4897B"/>
<path d="M1550.25 302.748C1556.71 299.944 1562.38 295.581 1566.74 290.05C1571.1 284.519 1574.02 277.993 1575.24 271.055C1575.24 271.055 1589.51 310.704 1550.25 302.748Z" fill="#263238"/>
<path d="M1586.31 302.1C1583.3 300.079 1579.84 298.836 1576.23 298.481C1572.63 298.126 1568.99 298.671 1565.64 300.068C1565.64 300.068 1578.96 282.816 1586.31 302.1Z" fill="#263238"/>
<path d="M1477.27 725.521C1477.27 725.521 1513.33 968.254 1533.09 1059.18C1554.71 1158.63 1636.42 1490.51 1636.42 1490.51H1694.58C1694.58 1490.51 1640.75 1166.8 1628.38 1068.05C1614.98 961.033 1586.87 725.348 1586.87 725.348L1477.27 725.521Z" fill="#407BFF"/>
<path opacity="0.5" d="M1477.27 725.521C1477.27 725.521 1513.33 968.254 1533.09 1059.18C1554.71 1158.63 1636.42 1490.51 1636.42 1490.51H1694.58C1694.58 1490.51 1640.75 1166.8 1628.38 1068.05C1614.98 961.033 1586.87 725.348 1586.87 725.348L1477.27 725.521Z" fill="white"/>
<path d="M1627.13 1469.07C1626.87 1469.07 1633.14 1491.42 1633.14 1491.42H1698.6L1697.39 1471.49L1627.13 1469.07Z" fill="#407BFF"/>
<path opacity="0.1" d="M1627.13 1469.07C1626.87 1469.07 1633.14 1491.42 1633.14 1491.42H1698.6L1697.39 1471.49L1627.13 1469.07Z" fill="black"/>
<path d="M1500.05 811.995C1541.73 820.167 1537.32 975.604 1532.31 1055.55C1520.29 999.039 1502.69 890.297 1490.67 813.119C1493.58 811.686 1496.89 811.29 1500.05 811.995Z" fill="#407BFF"/>
<path opacity="0.4" d="M1500.05 811.995C1541.73 820.167 1537.32 975.604 1532.31 1055.55C1520.29 999.039 1502.69 890.297 1490.67 813.119C1493.58 811.686 1496.89 811.29 1500.05 811.995Z" fill="white"/>
<path d="M1417 725.521C1417 725.521 1412.67 962.979 1416.09 1059.87C1419.68 1160.62 1455 1490.51 1455 1490.51H1508.79C1508.79 1490.51 1510.78 1166.5 1513.11 1067.57C1515.75 959.693 1528.76 725.521 1528.76 725.521H1417Z" fill="#407BFF"/>
<path opacity="0.5" d="M1417 725.521C1417 725.521 1412.67 962.979 1416.09 1059.87C1419.68 1160.62 1455 1490.51 1455 1490.51H1508.79C1508.79 1490.51 1510.78 1166.5 1513.11 1067.57C1515.75 959.693 1528.76 725.521 1528.76 725.521H1417Z" fill="white"/>
<path d="M1466.16 1451.86C1466.03 1451.86 1465.9 1451.81 1465.8 1451.72C1465.71 1451.64 1465.65 1451.52 1465.64 1451.39C1456.13 1360.07 1433.77 1139.13 1431.05 1059.87C1428.15 978.977 1430.79 797.467 1431.65 743.767C1431.65 743.629 1431.71 743.497 1431.8 743.4C1431.9 743.303 1432.03 743.248 1432.17 743.248C1432.31 743.248 1432.45 743.301 1432.55 743.397C1432.66 743.493 1432.72 743.625 1432.73 743.767C1431.87 797.467 1429.23 978.977 1432.13 1059.83C1434.94 1139.08 1457.29 1359.94 1466.72 1451.26C1466.72 1451.4 1466.67 1451.54 1466.57 1451.66C1466.48 1451.77 1466.34 1451.84 1466.2 1451.86H1466.16Z" fill="#407BFF"/>
<path opacity="0.4" d="M1466.16 1451.86C1466.03 1451.86 1465.9 1451.81 1465.8 1451.72C1465.71 1451.64 1465.65 1451.52 1465.64 1451.39C1456.13 1360.07 1433.77 1139.13 1431.05 1059.87C1428.15 978.977 1430.79 797.467 1431.65 743.767C1431.65 743.629 1431.71 743.497 1431.8 743.4C1431.9 743.303 1432.03 743.248 1432.17 743.248C1432.31 743.248 1432.45 743.301 1432.55 743.397C1432.66 743.493 1432.72 743.625 1432.73 743.767C1431.87 797.467 1429.23 978.977 1432.13 1059.83C1434.94 1139.08 1457.29 1359.94 1466.72 1451.26C1466.72 1451.4 1466.67 1451.54 1466.57 1451.66C1466.48 1451.77 1466.34 1451.84 1466.2 1451.86H1466.16Z" fill="white"/>
<path d="M1444.54 1469.07C1444.32 1469.07 1447.61 1491.42 1447.61 1491.42H1513.03L1514.8 1471.49L1444.54 1469.07Z" fill="#407BFF"/>
<path opacity="0.1" d="M1444.54 1469.07C1444.32 1469.07 1447.61 1491.42 1447.61 1491.42H1513.03L1514.8 1471.49L1444.54 1469.07Z" fill="black"/>
</svg>
