<svg width="369" height="276" viewBox="0 0 369 276" fill="none" xmlns="http://www.w3.org/2000/svg">
<path d="M369 242.121H0V242.306H369V242.121Z" fill="#EBEBEB"/>
<path d="M332.026 253.996H307.584V254.18H332.026V253.996Z" fill="#EBEBEB"/>
<path d="M244.44 256.003H238.027V256.187H244.44V256.003Z" fill="#EBEBEB"/>
<path d="M306.846 247.147H292.683V247.331H306.846V247.147Z" fill="#EBEBEB"/>
<path d="M70.5897 248.387H38.7155V248.571H70.5897V248.387Z" fill="#EBEBEB"/>
<path d="M81.8368 248.387H77.1653V248.571H81.8368V248.387Z" fill="#EBEBEB"/>
<path d="M166.161 251.501H97.0249V251.686H166.161V251.501Z" fill="#EBEBEB"/>
<path d="M174.906 209.206H32.4056C31.2892 209.204 30.2193 208.76 29.4306 207.97C28.6419 207.179 28.199 206.109 28.199 204.992V4.67708C28.2087 3.56715 28.6559 2.50587 29.4436 1.72377C30.2312 0.941662 31.2956 0.501901 32.4056 0.5H174.906C176.024 0.5 177.095 0.943972 177.886 1.73425C178.676 2.52452 179.12 3.59636 179.12 4.71398V204.992C179.12 206.11 178.676 207.182 177.886 207.972C177.095 208.762 176.024 209.206 174.906 209.206ZM32.4056 0.647601C31.3382 0.649556 30.3152 1.07495 29.5611 1.83041C28.807 2.58587 28.3835 3.60967 28.3835 4.67708V204.992C28.3835 206.06 28.807 207.084 29.5611 207.839C30.3152 208.595 31.3382 209.02 32.4056 209.022H174.906C175.974 209.02 176.998 208.595 177.753 207.84C178.508 207.084 178.934 206.061 178.935 204.992V4.67708C178.934 3.60899 178.508 2.58521 177.753 1.82996C176.998 1.07471 175.974 0.649551 174.906 0.647601H32.4056Z" fill="#EBEBEB"/>
<path d="M334.543 209.206H192.035C190.918 209.204 189.847 208.76 189.057 207.97C188.268 207.18 187.823 206.109 187.821 204.992V4.67708C187.833 3.56647 188.282 2.5052 189.07 1.7233C189.859 0.941404 190.924 0.501881 192.035 0.5H334.543C335.651 0.503841 336.714 0.94446 337.5 1.72636C338.286 2.50825 338.732 3.56842 338.742 4.67708V204.992C338.742 206.107 338.3 207.177 337.513 207.967C336.726 208.757 335.658 209.202 334.543 209.206ZM192.035 0.647601C190.967 0.649551 189.943 1.07471 189.188 1.82996C188.433 2.58521 188.007 3.60899 188.006 4.67708V204.992C188.007 206.061 188.433 207.084 189.188 207.84C189.943 208.595 190.967 209.02 192.035 209.022H334.543C335.611 209.02 336.635 208.595 337.39 207.84C338.145 207.084 338.57 206.061 338.572 204.992V4.67708C338.57 3.60899 338.145 2.58521 337.39 1.82996C336.635 1.07471 335.611 0.649551 334.543 0.647601H192.035Z" fill="#EBEBEB"/>
<path d="M115.512 175.79L105.29 184.336L119.851 205.502L131.482 199.007C137.717 204.995 145.025 209.752 153.024 213.029L151.843 226.262L177.12 230.918L180.744 218.136C189.373 217.939 197.886 216.111 205.836 212.749L214.382 222.97L235.547 208.409L229.068 196.808C235.057 190.577 239.815 183.271 243.09 175.273L256.315 176.454L260.986 151.192L248.204 147.561C248.002 138.933 246.174 130.42 242.817 122.469L253.038 113.923L238.477 92.7648L226.839 99.2518C220.607 93.2647 213.301 88.5074 205.304 85.2298L206.485 71.9975L181.223 67.3333L177.6 80.1081C168.972 80.3133 160.459 82.1409 152.508 85.4955L143.91 75.2299L122.759 89.798L129.246 101.429C123.259 107.664 118.502 114.972 115.224 122.971L101.992 121.79L97.3274 147.052L110.102 150.676C110.307 159.313 112.143 167.834 115.512 175.79ZM144.965 142.779C146.215 136.016 149.443 129.775 154.24 124.846C159.037 119.918 165.188 116.522 171.914 115.089C178.641 113.656 185.642 114.249 192.031 116.795C198.421 119.341 203.912 123.724 207.81 129.39C211.708 135.056 213.839 141.751 213.932 148.628C214.025 155.505 212.077 162.256 208.334 168.026C204.591 173.796 199.221 178.326 192.903 181.044C186.585 183.762 179.603 184.545 172.84 183.295C163.77 181.619 155.739 176.408 150.511 168.81C145.284 161.212 143.289 151.848 144.965 142.779Z" fill="#BEC8FF"/>
<path d="M285.886 162.735L293.872 164.211L295.016 160.174C297.746 160.108 300.44 159.53 302.956 158.469L305.657 161.701L312.351 157.096L310.299 153.406C312.192 151.438 313.695 149.13 314.727 146.602L318.912 146.971L320.388 138.993L316.344 137.842C316.284 135.111 315.705 132.416 314.639 129.901L317.871 127.2L313.266 120.514L309.576 122.565C307.605 120.677 305.297 119.175 302.772 118.137L303.141 113.96L295.156 112.484L294.012 116.521C291.282 116.588 288.588 117.166 286.071 118.226L283.392 114.993L276.698 119.598L278.75 123.288C276.857 125.256 275.355 127.565 274.322 130.093L270.138 129.724L268.662 137.702L272.698 138.853C272.762 141.584 273.34 144.278 274.403 146.794L271.171 149.495L275.776 156.181L279.466 154.129C281.436 156.023 283.748 157.525 286.278 158.557L285.886 162.735ZM283.709 136.351C284.103 134.212 285.123 132.237 286.639 130.678C288.156 129.118 290.101 128.043 292.228 127.589C294.356 127.135 296.57 127.322 298.591 128.127C300.612 128.931 302.349 130.317 303.582 132.109C304.815 133.901 305.489 136.019 305.519 138.194C305.548 140.369 304.932 142.504 303.748 144.329C302.564 146.153 300.865 147.586 298.867 148.445C296.868 149.304 294.66 149.552 292.521 149.155C289.656 148.623 287.12 146.976 285.468 144.575C283.816 142.175 283.183 139.217 283.709 136.351Z" fill="#BEC8FF"/>
<path d="M61.7706 185.472L67.8517 186.601L68.7299 183.524C70.808 183.471 72.8579 183.031 74.7742 182.225L76.8332 184.683L81.9328 181.177L80.3682 178.358C81.8075 176.864 82.9517 175.111 83.7409 173.192L86.929 173.472L88.0508 167.391L84.9733 166.55C84.9275 164.469 84.4867 162.415 83.6744 160.498L86.1394 158.439L82.6265 153.347L79.8295 154.912C78.3334 153.473 76.5813 152.326 74.6635 151.532L74.9513 148.351L68.8628 147.222L67.9919 150.299C65.9115 150.352 63.8593 150.793 61.9403 151.598L59.8887 149.141L54.7891 152.646L56.3537 155.45C54.9137 156.944 53.7694 158.697 52.981 160.616L49.7929 160.336L48.6711 166.417L51.7264 167.288C51.7722 169.369 52.213 171.423 53.0253 173.34L50.5604 175.406L54.0659 180.498L56.8703 178.941C58.3672 180.377 60.1193 181.521 62.0363 182.314L61.7706 185.472ZM60.1175 165.377C60.4194 163.749 61.1969 162.248 62.3518 161.063C63.5067 159.878 64.9871 159.061 66.6059 158.717C68.2246 158.373 69.9091 158.517 71.4463 159.13C72.9834 159.743 74.3044 160.798 75.242 162.162C76.1797 163.525 76.692 165.136 76.7141 166.791C76.7363 168.446 76.2674 170.07 75.3666 171.458C74.4659 172.847 73.1737 173.937 71.6535 174.591C70.1333 175.245 68.4533 175.434 66.8259 175.133C64.6431 174.728 62.7103 173.473 61.4525 171.643C60.1946 169.814 59.7144 167.56 60.1175 165.377Z" fill="#BEC8FF"/>
<path d="M170.367 49.946L174.972 50.7947L175.644 48.47C177.22 48.4385 178.776 48.1053 180.227 47.4885L181.784 49.3556L185.637 46.6988L184.456 44.5808C185.546 43.4439 186.412 42.112 187.009 40.6546L189.415 40.8686L190.264 36.2709L187.939 35.6067C187.9 34.0336 187.567 32.4817 186.958 31.0311L188.817 29.4739L186.168 25.6215L184.05 26.8023C182.913 25.7123 181.581 24.846 180.124 24.2489L180.338 21.843L175.733 20.9869L175.076 23.319C173.502 23.3498 171.948 23.6831 170.5 24.3005L168.943 22.4334L165.083 25.0902L166.271 27.2082C165.179 28.3434 164.313 29.6758 163.718 31.1344L161.305 30.9204L160.456 35.5181L162.781 36.1823C162.818 37.7556 163.151 39.3078 163.762 40.7579L161.902 42.3151L164.559 46.1675L166.677 44.9867C167.811 46.0778 169.14 46.9442 170.596 47.5401L170.367 49.946ZM169.12 34.7358C169.348 33.5046 169.936 32.3686 170.81 31.4715C171.683 30.5743 172.803 29.9564 174.028 29.6956C175.253 29.4349 176.527 29.5431 177.69 30.0067C178.854 30.4702 179.853 31.2682 180.563 32.2998C181.273 33.3314 181.661 34.5503 181.678 35.8024C181.695 37.0544 181.34 38.2834 180.659 39.334C179.978 40.3847 179 41.2097 177.85 41.7048C176.7 42.2 175.429 42.343 174.198 42.1158C172.548 41.8109 171.088 40.8641 170.136 39.4833C169.184 38.1025 168.818 36.4004 169.12 34.7506V34.7358Z" fill="#BEC8FF"/>
<path d="M246.854 86.9862L249.924 87.5471L250.359 85.9973C251.41 85.9723 252.446 85.7495 253.414 85.3405L254.455 86.5877L257.023 84.8165L256.234 83.3995C256.961 82.6438 257.54 81.7574 257.938 80.787L259.547 80.9272L260.115 77.8572L258.558 77.4144C258.535 76.3666 258.315 75.3326 257.909 74.3664L259.149 73.3258L257.377 70.7576L255.968 71.5473C255.208 70.821 254.32 70.2429 253.348 69.8425L253.488 68.2336L250.418 67.6654L249.983 69.2226C248.933 69.245 247.896 69.4654 246.927 69.872L245.887 68.6322L243.319 70.4034L244.108 71.8129C243.382 72.5726 242.804 73.4611 242.403 74.4328L240.795 74.2926L240.234 77.3553L241.784 77.7981C241.805 78.8492 242.028 79.8864 242.44 80.8534L241.193 81.8866L242.964 84.4623L244.381 83.6726C245.137 84.4003 246.023 84.9787 246.994 85.3774L246.854 86.9862ZM246.02 76.8387C246.171 76.0159 246.563 75.2564 247.146 74.6563C247.729 74.0563 248.477 73.6428 249.295 73.468C250.114 73.2932 250.965 73.3651 251.743 73.6745C252.52 73.9839 253.188 74.5169 253.662 75.2062C254.137 75.8954 254.396 76.7099 254.407 77.5464C254.418 78.383 254.181 79.2042 253.726 79.9059C253.27 80.6077 252.617 81.1586 251.848 81.4888C251.079 81.8191 250.23 81.9138 249.407 81.7612C248.306 81.5568 247.33 80.9236 246.695 80.0007C246.06 79.0778 245.817 77.9406 246.02 76.8387Z" fill="#BEC8FF"/>
<path d="M105.349 49.9977L108.42 50.5659L108.855 49.0161C109.905 48.9875 110.941 48.7648 111.91 48.3593L112.951 49.5991L115.519 47.8279L114.729 46.4184C115.457 45.6599 116.036 44.7711 116.434 43.7985L118.043 43.9461L118.611 40.876L117.054 40.4332C117.031 39.3831 116.811 38.3466 116.405 37.3779L117.645 36.3447L115.873 33.769L114.456 34.5587C113.702 33.8308 112.815 33.2546 111.844 32.8613L111.984 31.2525L108.914 30.6842L108.486 32.234C107.435 32.259 106.399 32.4818 105.431 32.8908L104.39 31.651L101.844 33.4148L102.634 34.8318C101.906 35.5902 101.328 36.4791 100.929 37.4517L99.32 37.3041L98.7592 40.3741L100.309 40.8169C100.33 41.8656 100.553 42.9004 100.966 43.8649L99.7186 44.9055L101.49 47.4811L102.907 46.6914C103.663 47.4167 104.549 47.9926 105.519 48.3888L105.349 49.9977ZM104.516 39.8575C104.667 39.0347 105.059 38.2752 105.642 37.6752C106.225 37.0752 106.973 36.6616 107.791 36.4868C108.609 36.312 109.461 36.3839 110.238 36.6933C111.016 37.0027 111.684 37.5358 112.158 38.225C112.632 38.9142 112.892 39.7287 112.903 40.5653C112.914 41.4019 112.677 42.223 112.222 42.9248C111.766 43.6265 111.112 44.1774 110.344 44.5076C109.575 44.8379 108.726 44.9327 107.903 44.78C106.801 44.5756 105.826 43.9424 105.191 43.0195C104.556 42.0966 104.313 40.9594 104.516 39.8575Z" fill="#BEC8FF"/>
<path d="M241.784 213.605C241.823 215.438 242.211 217.246 242.927 218.933L240.758 220.749L243.85 225.228L246.315 223.856C247.639 225.117 249.189 226.119 250.883 226.808L250.632 229.612L255.99 230.601L256.728 227.893C258.557 227.845 260.362 227.457 262.049 226.749L263.865 228.911L268.352 225.826L267.008 223.376C268.271 222.053 269.273 220.503 269.96 218.808L272.765 219.059L273.798 213.708L271.09 212.97C271.05 211.138 270.662 209.329 269.946 207.642L272.115 205.834L269.031 201.347L266.529 202.712C265.209 201.448 263.662 200.446 261.968 199.76L262.211 196.948L256.861 195.959L256.123 198.668C254.291 198.715 252.484 199.103 250.795 199.812L248.979 197.649L244.492 200.734L245.872 203.199C244.609 204.523 243.608 206.072 242.92 207.767L240.116 207.516L239.112 212.837L241.784 213.605ZM249.164 211.937C249.427 210.5 250.11 209.173 251.127 208.125C252.145 207.077 253.451 206.354 254.879 206.049C256.307 205.743 257.794 205.868 259.152 206.408C260.509 206.949 261.675 207.879 262.503 209.083C263.331 210.286 263.783 211.709 263.802 213.169C263.821 214.63 263.407 216.063 262.61 217.288C261.814 218.513 260.672 219.474 259.33 220.049C257.987 220.624 256.504 220.788 255.068 220.52C253.15 220.16 251.452 219.054 250.347 217.446C249.242 215.837 248.819 213.857 249.171 211.937H249.164Z" fill="#BEC8FF"/>
<path d="M288.137 181.827L279.894 184.845L288.137 187.841V190.904L276.329 186.424V183.207L288.137 178.727V181.827Z" fill="#455A64"/>
<path d="M297.008 172.661H300.455L292.285 195.989H288.838L297.008 172.661Z" fill="#455A64"/>
<path d="M312.691 183.236V186.476L300.883 190.956V187.863L309.126 184.867L300.883 181.849V178.779L312.691 183.236Z" fill="#455A64"/>
<path d="M83.2759 221.221C84.4567 221.575 85.0028 222.321 85.0028 224.099V228.21C84.9684 228.465 84.9929 228.726 85.0744 228.97C85.156 229.215 85.2924 229.438 85.4734 229.621C85.6543 229.805 85.8749 229.945 86.1183 230.031C86.3616 230.116 86.6213 230.144 86.8774 230.114H87.3423V233.25H85.8663C82.6486 233.25 81.0029 231.605 81.0029 228.645V223.996C81.0029 223.169 80.5675 222.786 79.8737 222.786H79.025V219.686H79.8737C80.5675 219.686 81.0029 219.302 81.0029 218.476V213.782C81.0029 210.83 82.6486 209.184 85.8663 209.184H87.3423V212.306H86.8774C86.6213 212.276 86.3616 212.304 86.1183 212.389C85.8749 212.475 85.6543 212.615 85.4734 212.799C85.2924 212.982 85.156 213.205 85.0744 213.45C84.9929 213.694 84.9684 213.954 85.0028 214.21V218.321C85.0028 220.114 84.4567 220.859 83.2759 221.221Z" fill="#455A64"/>
<path d="M103.733 219.686V222.823H102.885C102.725 222.808 102.565 222.831 102.415 222.888C102.266 222.945 102.131 223.035 102.022 223.151C101.913 223.268 101.831 223.408 101.784 223.561C101.736 223.713 101.724 223.875 101.748 224.033V228.682C101.748 231.634 100.102 233.287 96.892 233.287H95.416V230.151H95.881C96.1371 230.181 96.3967 230.153 96.6401 230.067C96.8834 229.982 97.104 229.842 97.2849 229.658C97.4659 229.475 97.6023 229.252 97.6839 229.007C97.7655 228.762 97.79 228.502 97.7555 228.247V224.114C97.7555 222.335 98.2942 221.59 99.475 221.236C98.2942 220.874 97.7555 220.129 97.7555 218.35V214.225C97.7929 213.967 97.7702 213.703 97.6889 213.456C97.6077 213.208 97.4702 212.982 97.2872 212.796C97.1043 212.611 96.8808 212.47 96.6342 212.384C96.3877 212.299 96.1248 212.273 95.8662 212.306H95.4013V209.17H96.8773C100.088 209.17 101.733 210.815 101.733 213.767V218.424C101.709 218.582 101.721 218.744 101.769 218.896C101.816 219.049 101.898 219.189 102.007 219.306C102.117 219.422 102.251 219.512 102.401 219.569C102.55 219.626 102.711 219.648 102.87 219.634L103.733 219.686Z" fill="#455A64"/>
<path d="M72.6856 71.444C72.6856 66.3813 76.5675 62.7651 81.7925 62.7651C83.0906 62.7072 84.385 62.9426 85.5796 63.4536C86.7741 63.9647 87.8383 64.7383 88.6928 65.7171L86.1984 68.0123C85.6868 67.3916 85.0428 66.8932 84.3137 66.5535C83.5846 66.2139 82.7887 66.0415 81.9844 66.0492C81.2626 66.0224 80.5428 66.1415 79.8681 66.3992C79.1933 66.657 78.5775 67.0482 78.0573 67.5493C77.5372 68.0505 77.1235 68.6515 76.8409 69.3162C76.5583 69.9809 76.4127 70.6958 76.4127 71.4181C76.4127 72.1404 76.5583 72.8553 76.8409 73.52C77.1235 74.1848 77.5372 74.7857 78.0573 75.2869C78.5775 75.7881 79.1933 76.1793 79.8681 76.437C80.5428 76.6948 81.2626 76.8138 81.9844 76.7871C82.7919 76.796 83.5908 76.6212 84.3209 76.276C85.0509 75.9308 85.6929 75.4242 86.1984 74.7945L88.6928 77.097C87.8419 78.0889 86.7764 78.8742 85.5771 79.3933C84.3777 79.9125 83.076 80.1518 81.7704 80.0933C76.5675 80.1155 72.6856 76.514 72.6856 71.444Z" fill="#455A64"/>
<path d="M102.073 72.9052H97.9031V76.979H94.8109V72.9052H90.6707V69.9532H94.8109V65.8721H97.9031V69.9532H102.073V72.9052Z" fill="#455A64"/>
<path d="M116.604 72.9052H112.434V76.979H109.342V72.9052H105.195V69.9532H109.342V65.8721H112.434V69.9532H116.604V72.9052Z" fill="#455A64"/>
<path d="M134.36 155.945L136.781 153.037C137.807 154.41 138.943 155.111 140.286 155.111C142.043 155.111 142.958 154.056 142.958 151.982V143.008H136.316V139.502H147.29V151.738C147.29 156.402 144.943 158.698 140.493 158.698C139.328 158.741 138.168 158.516 137.105 158.038C136.041 157.561 135.102 156.845 134.36 155.945Z" fill="#455A64"/>
<path d="M149.917 157.022L151.29 154.004C152.815 154.912 154.555 155.397 156.331 155.406C158.271 155.406 159.002 154.897 159.002 154.085C159.002 151.716 150.242 154.137 150.242 148.344C150.242 145.591 152.722 143.65 156.95 143.65C158.888 143.612 160.806 144.048 162.537 144.919L161.135 147.916C159.86 147.192 158.416 146.818 156.95 146.831C155.069 146.831 154.257 147.428 154.257 148.181C154.257 150.661 163.017 148.262 163.017 153.974C163.017 156.676 160.515 158.587 156.168 158.587C153.983 158.624 151.827 158.084 149.917 157.022Z" fill="#455A64"/>
<path d="M184.5 275.449C263.527 275.449 327.591 271.709 327.591 267.095C327.591 262.481 263.527 258.741 184.5 258.741C105.473 258.741 41.4092 262.481 41.4092 267.095C41.4092 271.709 105.473 275.449 184.5 275.449Z" fill="#F5F5F5"/>
<path d="M240.536 28.5514H218.522C217.597 28.5514 216.847 29.3014 216.847 30.2266V52.2412C216.847 53.1664 217.597 53.9164 218.522 53.9164H240.536C241.462 53.9164 242.212 53.1664 242.212 52.2412V30.2266C242.212 29.3014 241.462 28.5514 240.536 28.5514Z" fill="#407BFF"/>
<g opacity="0.4">
<path d="M240.536 28.5514H218.522C217.597 28.5514 216.847 29.3014 216.847 30.2266V52.2412C216.847 53.1664 217.597 53.9164 218.522 53.9164H240.536C241.462 53.9164 242.212 53.1664 242.212 52.2412V30.2266C242.212 29.3014 241.462 28.5514 240.536 28.5514Z" fill="white"/>
</g>
<path d="M226.123 39.8944L221.695 41.5106L226.123 43.1121V44.78L219.835 42.3815V40.6693L226.123 38.2708V39.8944Z" fill="white"/>
<path d="M230.861 35.0089H232.699L228.33 47.4589H226.492L230.861 35.0089Z" fill="white"/>
<path d="M239.223 40.6546V42.3667L232.935 44.78V43.1269L237.363 41.5254L232.935 39.9092V38.2708L239.223 40.6546Z" fill="white"/>
<path d="M222.433 58.5511V64.706H221.009V62.1746H218.204V64.706H216.78V58.5437H218.204V61.016H221.009V58.588L222.433 58.5511Z" fill="#263238"/>
<path d="M225.179 59.7097H223.201V58.5511H228.573V59.7097H226.603V64.706H225.179V59.7097Z" fill="#263238"/>
<path d="M234.957 64.706V61.016L233.142 64.0639H232.47L230.662 61.1119V64.706H229.326V58.5437H230.507L232.809 62.3739L235.083 58.5437H236.256V64.706H234.957Z" fill="#263238"/>
<path d="M237.761 58.5511H239.186V63.5473H242.278V64.706H237.761V58.5511Z" fill="#263238"/>
<g opacity="0.6">
<path d="M222.433 58.5511V64.706H221.009V62.1746H218.204V64.706H216.78V58.5437H218.204V61.016H221.009V58.588L222.433 58.5511Z" fill="white"/>
<path d="M225.179 59.7097H223.201V58.5511H228.573V59.7097H226.603V64.706H225.179V59.7097Z" fill="white"/>
<path d="M234.957 64.706V61.016L233.142 64.0639H232.47L230.662 61.1119V64.706H229.326V58.5437H230.507L232.809 62.3739L235.083 58.5437H236.256V64.706H234.957Z" fill="white"/>
<path d="M237.761 58.5511H239.186V63.5473H242.278V64.706H237.761V58.5511Z" fill="white"/>
</g>
<path d="M294.787 42.0715H272.772C271.847 42.0715 271.097 42.8215 271.097 43.7468V65.7613C271.097 66.6865 271.847 67.4366 272.772 67.4366H294.787C295.712 67.4366 296.462 66.6865 296.462 65.7613V43.7468C296.462 42.8215 295.712 42.0715 294.787 42.0715Z" fill="#407BFF"/>
<g opacity="0.4">
<path d="M294.787 42.0715H272.772C271.847 42.0715 271.097 42.8215 271.097 43.7468V65.7613C271.097 66.6865 271.847 67.4366 272.772 67.4366H294.787C295.712 67.4366 296.462 66.6865 296.462 65.7613V43.7468C296.462 42.8215 295.712 42.0715 294.787 42.0715Z" fill="white"/>
</g>
<path d="M279.621 54.7504C280.226 54.9349 280.506 55.3186 280.506 56.2264V58.3444C280.49 58.4757 280.503 58.609 280.546 58.7342C280.588 58.8595 280.659 58.9734 280.752 59.0673C280.845 59.1612 280.959 59.2326 281.084 59.2762C281.209 59.3197 281.342 59.3342 281.473 59.3186H281.709V60.9348H280.971C279.318 60.9348 278.477 60.0861 278.477 58.5658V56.1747C278.488 56.0939 278.481 56.0115 278.456 55.9337C278.432 55.8559 278.39 55.7846 278.334 55.7252C278.278 55.6657 278.209 55.6195 278.133 55.59C278.057 55.5605 277.975 55.5485 277.894 55.5548H277.458V53.9386H277.894C277.975 53.9449 278.057 53.9328 278.133 53.9034C278.209 53.8739 278.278 53.8277 278.334 53.7682C278.39 53.7088 278.432 53.6375 278.456 53.5597C278.481 53.4819 278.488 53.3995 278.477 53.3187V50.9275C278.477 49.4073 279.318 48.5586 280.971 48.5586H281.709V50.1748H281.473C281.342 50.1592 281.209 50.1737 281.084 50.2172C280.959 50.2608 280.845 50.3322 280.752 50.4261C280.659 50.52 280.588 50.6339 280.546 50.7591C280.503 50.8844 280.49 51.0177 280.506 51.1489V53.267C280.506 54.1821 280.226 54.5659 279.621 54.7504Z" fill="white"/>
<path d="M290.13 53.9459V55.5622H289.695C289.613 55.5559 289.531 55.5679 289.455 55.5974C289.379 55.6269 289.31 55.673 289.255 55.7325C289.199 55.792 289.157 55.8632 289.132 55.9411C289.107 56.0189 289.1 56.1012 289.112 56.1821V58.5732C289.112 60.0935 288.263 60.9422 286.617 60.9422H285.879V59.326H286.115C286.247 59.3416 286.38 59.3271 286.505 59.2835C286.63 59.24 286.743 59.1685 286.836 59.0746C286.929 58.9807 287 58.8669 287.043 58.7416C287.085 58.6164 287.099 58.483 287.082 58.3518V56.2337C287.082 55.3186 287.355 54.9349 287.968 54.7577C287.355 54.5732 287.082 54.1895 287.082 53.2817V51.1637C287.099 51.0324 287.085 50.8991 287.043 50.7739C287 50.6486 286.929 50.5347 286.836 50.4408C286.743 50.3469 286.63 50.2755 286.505 50.232C286.38 50.1884 286.247 50.1739 286.115 50.1895H285.879V48.5733H286.617C288.263 48.5733 289.112 49.422 289.112 50.9423V53.3334C289.1 53.4143 289.107 53.4966 289.132 53.5744C289.157 53.6522 289.199 53.7235 289.255 53.783C289.31 53.8424 289.379 53.8886 289.455 53.9181C289.531 53.9476 289.613 53.9596 289.695 53.9533L290.13 53.9459Z" fill="white"/>
<path d="M275.274 75.2446C275.311 74.5759 275.544 73.9329 275.945 73.3966C276.346 72.8603 276.897 72.4546 277.528 72.2306C278.159 72.0065 278.842 71.9741 279.492 72.1375C280.141 72.3009 280.728 72.6527 281.178 73.1487L280.263 73.9974C280.077 73.7659 279.841 73.5793 279.572 73.4515C279.304 73.3237 279.01 73.2581 278.713 73.2594C278.444 73.2429 278.174 73.2818 277.92 73.3735C277.666 73.4653 277.434 73.608 277.237 73.7929C277.041 73.9779 276.884 74.2011 276.777 74.4488C276.67 74.6966 276.614 74.9636 276.614 75.2335C276.614 75.5034 276.67 75.7705 276.777 76.0183C276.884 76.266 277.041 76.4892 277.237 76.6742C277.434 76.8591 277.666 77.0018 277.92 77.0936C278.174 77.1853 278.444 77.2242 278.713 77.2077C279.01 77.2085 279.304 77.1426 279.572 77.0149C279.84 76.8871 280.076 76.7008 280.263 76.4697L281.178 77.311C280.73 77.8102 280.144 78.1651 279.494 78.3309C278.844 78.4966 278.16 78.4657 277.527 78.242C276.895 78.0183 276.343 77.612 275.942 77.0744C275.541 76.5368 275.308 75.8923 275.274 75.2225V75.2446Z" fill="#263238"/>
<path d="M281.562 77.7243L282.041 76.6468C282.642 77.0569 283.351 77.2803 284.078 77.2889C284.92 77.2889 285.267 77.0084 285.267 76.6321C285.267 75.4734 281.68 76.2704 281.68 73.9826C281.68 72.9347 282.529 72.0565 284.278 72.0565C285.027 72.0439 285.766 72.2325 286.418 72.6026L285.982 73.6874C285.462 73.383 284.873 73.2178 284.27 73.2077C283.429 73.2077 283.097 73.5177 283.097 73.9088C283.097 75.0454 286.683 74.2631 286.683 76.5214C286.683 77.5546 285.827 78.4328 284.071 78.4328C283.182 78.4538 282.308 78.2069 281.562 77.7243Z" fill="#263238"/>
<path d="M287.178 77.7243L287.665 76.6468C288.264 77.0602 288.974 77.2839 289.702 77.2889C290.543 77.2889 290.89 77.0085 290.89 76.6321C290.89 75.4734 287.303 76.2705 287.303 73.9827C287.303 72.9347 288.152 72.0565 289.901 72.0565C290.65 72.045 291.389 72.2335 292.041 72.6026L291.599 73.6875C291.082 73.3824 290.494 73.2171 289.894 73.2078C289.045 73.2078 288.72 73.5177 288.72 73.9089C288.72 75.0454 292.307 74.2631 292.307 76.5214C292.307 77.5546 291.451 78.4328 289.687 78.4328C288.799 78.4538 287.924 78.207 287.178 77.7243Z" fill="#263238"/>
<g opacity="0.6">
<path d="M275.274 75.2446C275.311 74.5759 275.544 73.9329 275.945 73.3966C276.346 72.8603 276.897 72.4546 277.528 72.2306C278.159 72.0065 278.842 71.9741 279.492 72.1375C280.141 72.3009 280.728 72.6527 281.178 73.1487L280.263 73.9974C280.077 73.7659 279.841 73.5793 279.572 73.4515C279.304 73.3237 279.01 73.2581 278.713 73.2594C278.444 73.2429 278.174 73.2818 277.92 73.3735C277.666 73.4653 277.434 73.608 277.237 73.7929C277.041 73.9779 276.884 74.2011 276.777 74.4488C276.67 74.6966 276.614 74.9636 276.614 75.2335C276.614 75.5034 276.67 75.7705 276.777 76.0183C276.884 76.266 277.041 76.4892 277.237 76.6742C277.434 76.8591 277.666 77.0018 277.92 77.0936C278.174 77.1853 278.444 77.2242 278.713 77.2077C279.01 77.2085 279.304 77.1426 279.572 77.0149C279.84 76.8871 280.076 76.7008 280.263 76.4697L281.178 77.311C280.73 77.8102 280.144 78.1651 279.494 78.3309C278.844 78.4966 278.16 78.4657 277.527 78.242C276.895 78.0183 276.343 77.612 275.942 77.0744C275.541 76.5368 275.308 75.8923 275.274 75.2225V75.2446Z" fill="white"/>
<path d="M281.562 77.7243L282.041 76.6468C282.642 77.0569 283.351 77.2803 284.078 77.2889C284.92 77.2889 285.267 77.0084 285.267 76.6321C285.267 75.4734 281.68 76.2704 281.68 73.9826C281.68 72.9347 282.529 72.0565 284.278 72.0565C285.027 72.0439 285.766 72.2325 286.418 72.6026L285.982 73.6874C285.462 73.383 284.873 73.2178 284.27 73.2077C283.429 73.2077 283.097 73.5177 283.097 73.9088C283.097 75.0454 286.683 74.2631 286.683 76.5214C286.683 77.5546 285.827 78.4328 284.071 78.4328C283.182 78.4538 282.308 78.2069 281.562 77.7243Z" fill="white"/>
<path d="M287.178 77.7243L287.665 76.6468C288.264 77.0602 288.974 77.2839 289.702 77.2889C290.543 77.2889 290.89 77.0085 290.89 76.6321C290.89 75.4734 287.303 76.2705 287.303 73.9827C287.303 72.9347 288.152 72.0565 289.901 72.0565C290.65 72.045 291.389 72.2335 292.041 72.6026L291.599 73.6875C291.082 73.3824 290.494 73.2171 289.894 73.2078C289.045 73.2078 288.72 73.5177 288.72 73.9089C288.72 75.0454 292.307 74.2631 292.307 76.5214C292.307 77.5546 291.451 78.4328 289.687 78.4328C288.799 78.4538 287.924 78.207 287.178 77.7243Z" fill="white"/>
</g>
<path d="M200.042 39.5993H109.63V105.045H200.042V39.5993Z" fill="black"/>
<path opacity="0.9" d="M200.042 39.5993H109.63V105.045H200.042V39.5993Z" fill="white"/>
<path opacity="0.1" d="M122.22 39.5993H109.63V105.045H122.22V39.5993Z" fill="black"/>
<path d="M200.042 39.5993H109.63V45.7173H200.042V39.5993Z" fill="#407BFF"/>
<g opacity="0.2">
<path d="M145.91 54.9497H129.445C129.249 54.9497 129.062 54.8719 128.923 54.7335C128.785 54.5951 128.707 54.4074 128.707 54.2117C128.707 54.016 128.785 53.8283 128.923 53.6898C129.062 53.5514 129.249 53.4737 129.445 53.4737H145.91C146.105 53.4737 146.293 53.5514 146.432 53.6898C146.57 53.8283 146.648 54.016 146.648 54.2117C146.648 54.4074 146.57 54.5951 146.432 54.7335C146.293 54.8719 146.105 54.9497 145.91 54.9497Z" fill="black"/>
<path d="M182.286 54.9497H150.294C150.098 54.9497 149.91 54.8719 149.772 54.7335C149.633 54.5951 149.556 54.4074 149.556 54.2117C149.556 54.016 149.633 53.8283 149.772 53.6898C149.91 53.5514 150.098 53.4737 150.294 53.4737H182.286C182.482 53.4737 182.669 53.5514 182.808 53.6898C182.946 53.8283 183.024 54.016 183.024 54.2117C183.024 54.4074 182.946 54.5951 182.808 54.7335C182.669 54.8719 182.482 54.9497 182.286 54.9497Z" fill="black"/>
<path d="M174.67 59.7688H131.659C131.463 59.7688 131.276 59.6911 131.137 59.5527C130.999 59.4143 130.921 59.2265 130.921 59.0308C130.921 58.8351 130.999 58.6474 131.137 58.509C131.276 58.3706 131.463 58.2928 131.659 58.2928H174.67C174.866 58.2928 175.053 58.3706 175.192 58.509C175.33 58.6474 175.408 58.8351 175.408 59.0308C175.408 59.2265 175.33 59.4143 175.192 59.5527C175.053 59.6911 174.866 59.7688 174.67 59.7688Z" fill="black"/>
<path d="M157.15 64.5806H129.445C129.249 64.5806 129.062 64.5028 128.923 64.3644C128.785 64.226 128.707 64.0383 128.707 63.8426C128.707 63.6469 128.785 63.4591 128.923 63.3207C129.062 63.1823 129.249 63.1046 129.445 63.1046H157.15C157.345 63.1046 157.533 63.1823 157.672 63.3207C157.81 63.4591 157.888 63.6469 157.888 63.8426C157.888 64.0383 157.81 64.226 157.672 64.3644C157.533 64.5028 157.345 64.5806 157.15 64.5806Z" fill="black"/>
<path d="M182.286 64.5806H162.434C162.238 64.5806 162.05 64.5028 161.912 64.3644C161.774 64.226 161.696 64.0383 161.696 63.8426C161.696 63.6469 161.774 63.4591 161.912 63.3207C162.05 63.1823 162.238 63.1046 162.434 63.1046H182.286C182.482 63.1046 182.669 63.1823 182.808 63.3207C182.946 63.4591 183.024 63.6469 183.024 63.8426C183.024 64.0383 182.946 64.226 182.808 64.3644C182.669 64.5028 182.482 64.5806 182.286 64.5806Z" fill="black"/>
<path d="M144.744 69.3998H129.445C129.249 69.3998 129.062 69.322 128.923 69.1836C128.785 69.0452 128.707 68.8575 128.707 68.6618C128.707 68.466 128.785 68.2783 128.923 68.1399C129.062 68.0015 129.249 67.9238 129.445 67.9238H144.744C144.94 67.9238 145.127 68.0015 145.266 68.1399C145.404 68.2783 145.482 68.466 145.482 68.6618C145.482 68.8575 145.404 69.0452 145.266 69.1836C145.127 69.322 144.94 69.3998 144.744 69.3998Z" fill="black"/>
<path d="M173.792 69.3998H149.703C149.508 69.3998 149.32 69.322 149.181 69.1836C149.043 69.0452 148.965 68.8575 148.965 68.6618C148.965 68.466 149.043 68.2783 149.181 68.1399C149.32 68.0015 149.508 67.9238 149.703 67.9238H173.792C173.987 67.9238 174.175 68.0015 174.313 68.1399C174.452 68.2783 174.53 68.466 174.53 68.6618C174.53 68.8575 174.452 69.0452 174.313 69.1836C174.175 69.322 173.987 69.3998 173.792 69.3998Z" fill="black"/>
<path d="M152.242 74.2189H131.659C131.463 74.2189 131.276 74.1411 131.137 74.0027C130.999 73.8643 130.921 73.6766 130.921 73.4809C130.921 73.2851 130.999 73.0974 131.137 72.959C131.276 72.8206 131.463 72.7429 131.659 72.7429H152.242C152.438 72.7429 152.625 72.8206 152.764 72.959C152.902 73.0974 152.98 73.2851 152.98 73.4809C152.98 73.6766 152.902 73.8643 152.764 74.0027C152.625 74.1411 152.438 74.2189 152.242 74.2189Z" fill="black"/>
<path d="M154.818 79.038H131.659C131.463 79.038 131.276 78.9602 131.137 78.8218C130.999 78.6834 130.921 78.4957 130.921 78.3C130.921 78.1043 130.999 77.9165 131.137 77.7781C131.276 77.6397 131.463 77.562 131.659 77.562H154.818C155.013 77.562 155.201 77.6397 155.339 77.7781C155.478 77.9165 155.556 78.1043 155.556 78.3C155.556 78.4957 155.478 78.6834 155.339 78.8218C155.201 78.9602 155.013 79.038 154.818 79.038Z" fill="black"/>
<path d="M182.286 79.038H158.67C158.474 79.038 158.287 78.9602 158.148 78.8218C158.01 78.6834 157.932 78.4957 157.932 78.3C157.932 78.1043 158.01 77.9165 158.148 77.7781C158.287 77.6397 158.474 77.562 158.67 77.562H182.286C182.482 77.562 182.669 77.6397 182.808 77.7781C182.946 77.9165 183.024 78.1043 183.024 78.3C183.024 78.4957 182.946 78.6834 182.808 78.8218C182.669 78.9602 182.482 79.038 182.286 79.038Z" fill="black"/>
<path d="M142.7 83.8497H129.416C129.22 83.8497 129.032 83.772 128.894 83.6336C128.755 83.4952 128.678 83.3075 128.678 83.1117C128.678 82.916 128.755 82.7283 128.894 82.5899C129.032 82.4515 129.22 82.3737 129.416 82.3737H142.7C142.895 82.3737 143.083 82.4515 143.222 82.5899C143.36 82.7283 143.438 82.916 143.438 83.1117C143.438 83.3075 143.36 83.4952 143.222 83.6336C143.083 83.772 142.895 83.8497 142.7 83.8497Z" fill="black"/>
<path d="M182.286 83.8497H147.224C147.028 83.8497 146.84 83.772 146.702 83.6336C146.563 83.4952 146.486 83.3075 146.486 83.1117C146.486 82.916 146.563 82.7283 146.702 82.5899C146.84 82.4515 147.028 82.3737 147.224 82.3737H182.286C182.482 82.3737 182.669 82.4515 182.808 82.5899C182.946 82.7283 183.024 82.916 183.024 83.1117C183.024 83.3075 182.946 83.4952 182.808 83.6336C182.669 83.772 182.482 83.8497 182.286 83.8497Z" fill="black"/>
<path d="M154.67 88.6689H131.659C131.463 88.6689 131.276 88.5912 131.137 88.4528C130.999 88.3144 130.921 88.1267 130.921 87.9309C130.921 87.7352 130.999 87.5475 131.137 87.4091C131.276 87.2707 131.463 87.1929 131.659 87.1929H154.67C154.866 87.1929 155.053 87.2707 155.192 87.4091C155.33 87.5475 155.408 87.7352 155.408 87.9309C155.408 88.1267 155.33 88.3144 155.192 88.4528C155.053 88.5912 154.866 88.6689 154.67 88.6689Z" fill="black"/>
<path d="M172.773 88.6689H157.88C157.685 88.6689 157.497 88.5912 157.358 88.4528C157.22 88.3144 157.142 88.1267 157.142 87.9309C157.142 87.7352 157.22 87.5475 157.358 87.4091C157.497 87.2707 157.685 87.1929 157.88 87.1929H172.773C172.969 87.1929 173.157 87.2707 173.295 87.4091C173.433 87.5475 173.511 87.7352 173.511 87.9309C173.511 88.1267 173.433 88.3144 173.295 88.4528C173.157 88.5912 172.969 88.6689 172.773 88.6689Z" fill="black"/>
<path d="M158.146 93.4881H131.659C131.463 93.4881 131.276 93.4103 131.137 93.2719C130.999 93.1335 130.921 92.9458 130.921 92.7501C130.921 92.5543 130.999 92.3666 131.137 92.2282C131.276 92.0898 131.463 92.0121 131.659 92.0121H158.146C158.342 92.0121 158.529 92.0898 158.668 92.2282C158.806 92.3666 158.884 92.5543 158.884 92.7501C158.884 92.9458 158.806 93.1335 158.668 93.2719C158.529 93.4103 158.342 93.4881 158.146 93.4881Z" fill="black"/>
</g>
<path opacity="0.4" d="M196.153 43.9609C196.85 43.9609 197.415 43.3959 197.415 42.6989C197.415 42.0019 196.85 41.4369 196.153 41.4369C195.456 41.4369 194.891 42.0019 194.891 42.6989C194.891 43.3959 195.456 43.9609 196.153 43.9609Z" fill="white"/>
<path opacity="0.4" d="M191.718 43.9609C192.415 43.9609 192.98 43.3959 192.98 42.6989C192.98 42.0019 192.415 41.4369 191.718 41.4369C191.021 41.4369 190.456 42.0019 190.456 42.6989C190.456 43.3959 191.021 43.9609 191.718 43.9609Z" fill="white"/>
<path opacity="0.4" d="M187.29 43.9609C187.987 43.9609 188.552 43.3959 188.552 42.6989C188.552 42.0019 187.987 41.4369 187.29 41.4369C186.593 41.4369 186.028 42.0019 186.028 42.6989C186.028 43.3959 186.593 43.9609 187.29 43.9609Z" fill="white"/>
<g opacity="0.2">
<path d="M116.146 54.9497C115.951 54.9497 115.763 54.8719 115.625 54.7335C115.486 54.5951 115.408 54.4074 115.408 54.2117C115.408 54.016 115.486 53.8283 115.625 53.6898C115.763 53.5514 115.951 53.4737 116.146 53.4737C116.342 53.4737 116.53 53.5514 116.668 53.6898C116.807 53.8283 116.884 54.016 116.884 54.2117C116.884 54.4074 116.807 54.5951 116.668 54.7335C116.53 54.8719 116.342 54.9497 116.146 54.9497Z" fill="black"/>
<path d="M116.146 59.7688C115.951 59.7688 115.763 59.6911 115.625 59.5527C115.486 59.4143 115.408 59.2265 115.408 59.0308C115.408 58.8351 115.486 58.6474 115.625 58.509C115.763 58.3706 115.951 58.2928 116.146 58.2928C116.342 58.2928 116.53 58.3706 116.668 58.509C116.807 58.6474 116.884 58.8351 116.884 59.0308C116.884 59.2265 116.807 59.4143 116.668 59.5527C116.53 59.6911 116.342 59.7688 116.146 59.7688Z" fill="black"/>
<path d="M116.146 64.5806C115.951 64.5806 115.763 64.5028 115.625 64.3644C115.486 64.226 115.408 64.0383 115.408 63.8426C115.408 63.6469 115.486 63.4591 115.625 63.3207C115.763 63.1823 115.951 63.1046 116.146 63.1046C116.342 63.1046 116.53 63.1823 116.668 63.3207C116.807 63.4591 116.884 63.6469 116.884 63.8426C116.884 64.0383 116.807 64.226 116.668 64.3644C116.53 64.5028 116.342 64.5806 116.146 64.5806Z" fill="black"/>
<path d="M116.146 69.3998C115.951 69.3998 115.763 69.322 115.625 69.1836C115.486 69.0452 115.408 68.8575 115.408 68.6618C115.408 68.466 115.486 68.2783 115.625 68.1399C115.763 68.0015 115.951 67.9238 116.146 67.9238C116.342 67.9238 116.53 68.0015 116.668 68.1399C116.807 68.2783 116.884 68.466 116.884 68.6618C116.884 68.8575 116.807 69.0452 116.668 69.1836C116.53 69.322 116.342 69.3998 116.146 69.3998Z" fill="black"/>
<path d="M116.146 74.2189C115.951 74.2189 115.763 74.1411 115.625 74.0027C115.486 73.8643 115.408 73.6766 115.408 73.4809C115.408 73.2851 115.486 73.0974 115.625 72.959C115.763 72.8206 115.951 72.7429 116.146 72.7429C116.342 72.7429 116.53 72.8206 116.668 72.959C116.807 73.0974 116.884 73.2851 116.884 73.4809C116.884 73.6766 116.807 73.8643 116.668 74.0027C116.53 74.1411 116.342 74.2189 116.146 74.2189Z" fill="black"/>
<path d="M116.146 79.038C115.951 79.038 115.763 78.9602 115.625 78.8218C115.486 78.6834 115.408 78.4957 115.408 78.3C115.408 78.1043 115.486 77.9165 115.625 77.7781C115.763 77.6397 115.951 77.562 116.146 77.562C116.342 77.562 116.53 77.6397 116.668 77.7781C116.807 77.9165 116.884 78.1043 116.884 78.3C116.884 78.4957 116.807 78.6834 116.668 78.8218C116.53 78.9602 116.342 79.038 116.146 79.038Z" fill="black"/>
<path d="M116.146 83.8497C115.951 83.8497 115.763 83.772 115.625 83.6336C115.486 83.4952 115.408 83.3075 115.408 83.1117C115.408 82.916 115.486 82.7283 115.625 82.5899C115.763 82.4515 115.951 82.3737 116.146 82.3737C116.342 82.3737 116.53 82.4515 116.668 82.5899C116.807 82.7283 116.884 82.916 116.884 83.1117C116.884 83.3075 116.807 83.4952 116.668 83.6336C116.53 83.772 116.342 83.8497 116.146 83.8497Z" fill="black"/>
<path d="M116.146 88.6689C115.951 88.6689 115.763 88.5912 115.625 88.4528C115.486 88.3144 115.408 88.1267 115.408 87.9309C115.408 87.7352 115.486 87.5475 115.625 87.4091C115.763 87.2707 115.951 87.1929 116.146 87.1929C116.342 87.1929 116.53 87.2707 116.668 87.4091C116.807 87.5475 116.884 87.7352 116.884 87.9309C116.884 88.1267 116.807 88.3144 116.668 88.4528C116.53 88.5912 116.342 88.6689 116.146 88.6689Z" fill="black"/>
<path d="M116.146 93.4881C115.951 93.4881 115.763 93.4103 115.625 93.2719C115.486 93.1335 115.408 92.9458 115.408 92.7501C115.408 92.5543 115.486 92.3666 115.625 92.2282C115.763 92.0898 115.951 92.0121 116.146 92.0121C116.342 92.0121 116.53 92.0898 116.668 92.2282C116.807 92.3666 116.884 92.5543 116.884 92.7501C116.884 92.9458 116.807 93.1335 116.668 93.2719C116.53 93.4103 116.342 93.4881 116.146 93.4881Z" fill="black"/>
</g>
<path d="M281.931 93.0009H163.46V168.86H281.931V93.0009Z" fill="#263238"/>
<path opacity="0.9" d="M281.931 93.0009H163.46V168.86H281.931V93.0009Z" fill="white"/>
<path opacity="0.1" d="M181.939 93.0009H163.46V168.86H181.939V93.0009Z" fill="black"/>
<path d="M281.931 93.0009H163.46V99.119H281.931V93.0009Z" fill="#407BFF"/>
<path d="M171.829 105.827L169.865 106.565L171.829 107.303V108.041L169.024 106.971V106.233L171.829 105.171V105.827Z" fill="white"/>
<path d="M173.947 103.643H174.766L172.817 109.2H171.998L173.947 103.643Z" fill="white"/>
<path d="M177.681 106.159V106.897L174.876 107.968V107.23L176.84 106.492L174.876 105.754V105.016L177.681 106.159Z" fill="white"/>
<g opacity="0.2">
<path d="M177.268 114.263H169.238C169.042 114.263 168.855 114.185 168.716 114.047C168.578 113.908 168.5 113.72 168.5 113.525C168.5 113.329 168.578 113.141 168.716 113.003C168.855 112.864 169.042 112.787 169.238 112.787H177.268C177.463 112.787 177.651 112.864 177.789 113.003C177.928 113.141 178.006 113.329 178.006 113.525C178.006 113.72 177.928 113.908 177.789 114.047C177.651 114.185 177.463 114.263 177.268 114.263Z" fill="black"/>
<path d="M177.268 119.075H169.238C169.042 119.075 168.855 118.997 168.716 118.858C168.578 118.72 168.5 118.532 168.5 118.337C168.5 118.141 168.578 117.953 168.716 117.815C168.855 117.676 169.042 117.599 169.238 117.599H177.268C177.463 117.599 177.651 117.676 177.789 117.815C177.928 117.953 178.006 118.141 178.006 118.337C178.006 118.532 177.928 118.72 177.789 118.858C177.651 118.997 177.463 119.075 177.268 119.075Z" fill="black"/>
<path d="M177.268 123.894H169.238C169.042 123.894 168.855 123.816 168.716 123.677C168.578 123.539 168.5 123.351 168.5 123.156C168.5 122.96 168.578 122.772 168.716 122.634C168.855 122.495 169.042 122.418 169.238 122.418H177.268C177.463 122.418 177.651 122.495 177.789 122.634C177.928 122.772 178.006 122.96 178.006 123.156C178.006 123.351 177.928 123.539 177.789 123.677C177.651 123.816 177.463 123.894 177.268 123.894Z" fill="black"/>
<path d="M177.268 128.713H169.238C169.042 128.713 168.855 128.635 168.716 128.497C168.578 128.358 168.5 128.17 168.5 127.975C168.5 127.779 168.578 127.591 168.716 127.453C168.855 127.315 169.042 127.237 169.238 127.237H177.268C177.463 127.237 177.651 127.315 177.789 127.453C177.928 127.591 178.006 127.779 178.006 127.975C178.006 128.17 177.928 128.358 177.789 128.497C177.651 128.635 177.463 128.713 177.268 128.713Z" fill="black"/>
<path d="M177.268 133.532H169.238C169.042 133.532 168.855 133.454 168.716 133.316C168.578 133.177 168.5 132.99 168.5 132.794C168.5 132.598 168.578 132.41 168.716 132.272C168.855 132.134 169.042 132.056 169.238 132.056H177.268C177.463 132.056 177.651 132.134 177.789 132.272C177.928 132.41 178.006 132.598 178.006 132.794C178.006 132.99 177.928 133.177 177.789 133.316C177.651 133.454 177.463 133.532 177.268 133.532Z" fill="black"/>
<path d="M177.268 138.344H169.238C169.042 138.344 168.855 138.266 168.716 138.128C168.578 137.989 168.5 137.801 168.5 137.606C168.5 137.41 168.578 137.222 168.716 137.084C168.855 136.945 169.042 136.868 169.238 136.868H177.268C177.463 136.868 177.651 136.945 177.789 137.084C177.928 137.222 178.006 137.41 178.006 137.606C178.006 137.801 177.928 137.989 177.789 138.128C177.651 138.266 177.463 138.344 177.268 138.344Z" fill="black"/>
<path d="M177.268 143.163H169.238C169.042 143.163 168.855 143.085 168.716 142.947C168.578 142.808 168.5 142.621 168.5 142.425C168.5 142.229 168.578 142.041 168.716 141.903C168.855 141.765 169.042 141.687 169.238 141.687H177.268C177.463 141.687 177.651 141.765 177.789 141.903C177.928 142.041 178.006 142.229 178.006 142.425C178.006 142.621 177.928 142.808 177.789 142.947C177.651 143.085 177.463 143.163 177.268 143.163Z" fill="black"/>
<path d="M177.268 147.982H169.238C169.042 147.982 168.855 147.904 168.716 147.766C168.578 147.627 168.5 147.44 168.5 147.244C168.5 147.048 168.578 146.86 168.716 146.722C168.855 146.584 169.042 146.506 169.238 146.506H177.268C177.463 146.506 177.651 146.584 177.789 146.722C177.928 146.86 178.006 147.048 178.006 147.244C178.006 147.44 177.928 147.627 177.789 147.766C177.651 147.904 177.463 147.982 177.268 147.982Z" fill="black"/>
<path d="M177.268 152.801H169.238C169.042 152.801 168.855 152.723 168.716 152.585C168.578 152.447 168.5 152.259 168.5 152.063C168.5 151.867 168.578 151.68 168.716 151.541C168.855 151.403 169.042 151.325 169.238 151.325H177.268C177.463 151.325 177.651 151.403 177.789 151.541C177.928 151.68 178.006 151.867 178.006 152.063C178.006 152.259 177.928 152.447 177.789 152.585C177.651 152.723 177.463 152.801 177.268 152.801Z" fill="black"/>
</g>
<path d="M200.478 114.263H184.013C183.817 114.263 183.629 114.185 183.491 114.047C183.353 113.908 183.275 113.72 183.275 113.525C183.275 113.329 183.353 113.141 183.491 113.003C183.629 112.864 183.817 112.787 184.013 112.787H200.478C200.673 112.787 200.861 112.864 201 113.003C201.138 113.141 201.216 113.329 201.216 113.525C201.216 113.72 201.138 113.908 201 114.047C200.861 114.185 200.673 114.263 200.478 114.263Z" fill="#407BFF"/>
<path d="M247.776 114.263H204.861C204.666 114.263 204.478 114.185 204.34 114.047C204.201 113.908 204.123 113.72 204.123 113.525C204.123 113.329 204.201 113.141 204.34 113.003C204.478 112.864 204.666 112.787 204.861 112.787H247.776C247.972 112.787 248.16 112.864 248.298 113.003C248.436 113.141 248.514 113.329 248.514 113.525C248.514 113.72 248.436 113.908 248.298 114.047C248.16 114.185 247.972 114.263 247.776 114.263Z" fill="#263238"/>
<g opacity="0.2">
<path d="M267.363 114.263H254.927C254.732 114.263 254.544 114.185 254.405 114.047C254.267 113.908 254.189 113.72 254.189 113.525C254.189 113.329 254.267 113.141 254.405 113.003C254.544 112.864 254.732 112.787 254.927 112.787H267.363C267.558 112.787 267.746 112.864 267.884 113.003C268.023 113.141 268.101 113.329 268.101 113.525C268.101 113.72 268.023 113.908 267.884 114.047C267.746 114.185 267.558 114.263 267.363 114.263Z" fill="#263238"/>
</g>
<g opacity="0.2">
<path d="M229.238 119.075H186.227C186.031 119.075 185.843 118.997 185.705 118.858C185.567 118.72 185.489 118.532 185.489 118.337C185.489 118.141 185.567 117.953 185.705 117.815C185.843 117.676 186.031 117.599 186.227 117.599H229.238C229.433 117.599 229.621 117.676 229.759 117.815C229.898 117.953 229.976 118.141 229.976 118.337C229.976 118.532 229.898 118.72 229.759 118.858C229.621 118.997 229.433 119.075 229.238 119.075Z" fill="#263238"/>
</g>
<path d="M273.267 119.075H233.208C233.012 119.075 232.825 118.997 232.686 118.858C232.548 118.72 232.47 118.532 232.47 118.337C232.47 118.141 232.548 117.953 232.686 117.815C232.825 117.676 233.012 117.599 233.208 117.599H273.296C273.492 117.599 273.68 117.676 273.818 117.815C273.956 117.953 274.034 118.141 274.034 118.337C274.034 118.532 273.956 118.72 273.818 118.858C273.68 118.997 273.492 119.075 273.296 119.075H273.267Z" fill="#407BFF"/>
<path d="M211.717 123.894H186.227C186.031 123.894 185.843 123.816 185.705 123.677C185.567 123.539 185.489 123.351 185.489 123.156C185.489 122.96 185.567 122.772 185.705 122.634C185.843 122.495 186.031 122.418 186.227 122.418H211.717C211.913 122.418 212.101 122.495 212.239 122.634C212.378 122.772 212.455 122.96 212.455 123.156C212.455 123.351 212.378 123.539 212.239 123.677C212.101 123.816 211.913 123.894 211.717 123.894Z" fill="#263238"/>
<path d="M242.064 123.894H216.972C216.776 123.894 216.589 123.816 216.45 123.677C216.312 123.539 216.234 123.351 216.234 123.156C216.234 122.96 216.312 122.772 216.45 122.634C216.589 122.495 216.776 122.418 216.972 122.418H242.064C242.26 122.418 242.447 122.495 242.586 122.634C242.724 122.772 242.802 122.96 242.802 123.156C242.802 123.351 242.724 123.539 242.586 123.677C242.447 123.816 242.26 123.894 242.064 123.894Z" fill="#407BFF"/>
<path d="M273.267 123.894H246.167C245.972 123.894 245.784 123.816 245.645 123.677C245.507 123.539 245.429 123.351 245.429 123.156C245.429 122.96 245.507 122.772 245.645 122.634C245.784 122.495 245.972 122.418 246.167 122.418H273.267C273.462 122.418 273.65 122.495 273.789 122.634C273.927 122.772 274.005 122.96 274.005 123.156C274.005 123.351 273.927 123.539 273.789 123.677C273.65 123.816 273.462 123.894 273.267 123.894Z" fill="#263238"/>
<path d="M214.079 128.713H198.78C198.585 128.713 198.397 128.635 198.258 128.497C198.12 128.358 198.042 128.17 198.042 127.975C198.042 127.779 198.12 127.591 198.258 127.453C198.397 127.315 198.585 127.237 198.78 127.237H214.079C214.275 127.237 214.462 127.315 214.601 127.453C214.739 127.591 214.817 127.779 214.817 127.975C214.817 128.17 214.739 128.358 214.601 128.497C214.462 128.635 214.275 128.713 214.079 128.713Z" fill="#263238"/>
<path d="M235.747 128.713H219.046C218.85 128.713 218.662 128.635 218.524 128.497C218.386 128.358 218.308 128.17 218.308 127.975C218.308 127.779 218.386 127.591 218.524 127.453C218.662 127.315 218.85 127.237 219.046 127.237H235.747C235.942 127.237 236.13 127.315 236.269 127.453C236.407 127.591 236.485 127.779 236.485 127.975C236.485 128.17 236.407 128.358 236.269 128.497C236.13 128.635 235.942 128.713 235.747 128.713Z" fill="#263238"/>
<g opacity="0.2">
<path d="M266.625 128.713H239.54C239.344 128.713 239.157 128.635 239.018 128.497C238.88 128.358 238.802 128.17 238.802 127.975C238.802 127.779 238.88 127.591 239.018 127.453C239.157 127.315 239.344 127.237 239.54 127.237H266.625C266.82 127.237 267.008 127.315 267.146 127.453C267.285 127.591 267.363 127.779 267.363 127.975C267.363 128.17 267.285 128.358 267.146 128.497C267.008 128.635 266.82 128.713 266.625 128.713Z" fill="#263238"/>
</g>
<g opacity="0.2">
<path d="M206.81 133.532H186.227C186.031 133.532 185.843 133.454 185.705 133.316C185.567 133.177 185.489 132.99 185.489 132.794C185.489 132.598 185.567 132.41 185.705 132.272C185.843 132.134 186.031 132.056 186.227 132.056H206.81C207.005 132.056 207.193 132.134 207.332 132.272C207.47 132.41 207.548 132.598 207.548 132.794C207.548 132.99 207.47 133.177 207.332 133.316C207.193 133.454 207.005 133.532 206.81 133.532Z" fill="#263238"/>
</g>
<path d="M209.385 138.344H186.227C186.031 138.344 185.843 138.266 185.705 138.128C185.567 137.989 185.489 137.801 185.489 137.606C185.489 137.41 185.567 137.222 185.705 137.084C185.843 136.945 186.031 136.868 186.227 136.868H209.385C209.581 136.868 209.769 136.945 209.907 137.084C210.046 137.222 210.123 137.41 210.123 137.606C210.123 137.801 210.046 137.989 209.907 138.128C209.769 138.266 209.581 138.344 209.385 138.344Z" fill="#407BFF"/>
<path d="M248.071 138.344H213.179C212.983 138.344 212.795 138.266 212.657 138.128C212.518 137.989 212.441 137.801 212.441 137.606C212.441 137.41 212.518 137.222 212.657 137.084C212.795 136.945 212.983 136.868 213.179 136.868H248.071C248.267 136.868 248.455 136.945 248.593 137.084C248.732 137.222 248.809 137.41 248.809 137.606C248.809 137.801 248.732 137.989 248.593 138.128C248.455 138.266 248.267 138.344 248.071 138.344Z" fill="#263238"/>
<path d="M273.267 138.344H252.3C252.104 138.344 251.917 138.266 251.778 138.128C251.64 137.989 251.562 137.801 251.562 137.606C251.562 137.41 251.64 137.222 251.778 137.084C251.917 136.945 252.104 136.868 252.3 136.868H273.267C273.462 136.868 273.65 136.945 273.789 137.084C273.927 137.222 274.005 137.41 274.005 137.606C274.005 137.801 273.927 137.989 273.789 138.128C273.65 138.266 273.462 138.344 273.267 138.344Z" fill="#263238"/>
<g opacity="0.2">
<path d="M206.869 143.163H193.585C193.389 143.163 193.201 143.085 193.063 142.947C192.925 142.808 192.847 142.621 192.847 142.425C192.847 142.229 192.925 142.041 193.063 141.903C193.201 141.765 193.389 141.687 193.585 141.687H206.869C207.065 141.687 207.252 141.765 207.391 141.903C207.529 142.041 207.607 142.229 207.607 142.425C207.607 142.621 207.529 142.808 207.391 142.947C207.252 143.085 207.065 143.163 206.869 143.163Z" fill="#263238"/>
</g>
<g opacity="0.2">
<path d="M236.824 143.163H211.393C211.197 143.163 211.009 143.085 210.871 142.947C210.732 142.808 210.655 142.621 210.655 142.425C210.655 142.229 210.732 142.041 210.871 141.903C211.009 141.765 211.197 141.687 211.393 141.687H236.824C237.02 141.687 237.208 141.765 237.346 141.903C237.484 142.041 237.562 142.229 237.562 142.425C237.562 142.621 237.484 142.808 237.346 142.947C237.208 143.085 237.02 143.163 236.824 143.163Z" fill="#263238"/>
</g>
<path d="M266.625 143.163H241.791C241.595 143.163 241.407 143.085 241.269 142.947C241.131 142.808 241.053 142.621 241.053 142.425C241.053 142.229 241.131 142.041 241.269 141.903C241.407 141.765 241.595 141.687 241.791 141.687H266.625C266.82 141.687 267.008 141.765 267.147 141.903C267.285 142.041 267.363 142.229 267.363 142.425C267.363 142.621 267.285 142.808 267.147 142.947C267.008 143.085 266.82 143.163 266.625 143.163Z" fill="#263238"/>
<path d="M216.625 147.982H200.994C200.799 147.982 200.611 147.904 200.472 147.766C200.334 147.627 200.256 147.44 200.256 147.244C200.256 147.048 200.334 146.86 200.472 146.722C200.611 146.584 200.799 146.506 200.994 146.506H216.625C216.821 146.506 217.009 146.584 217.147 146.722C217.285 146.86 217.363 147.048 217.363 147.244C217.363 147.44 217.285 147.627 217.147 147.766C217.009 147.904 216.821 147.982 216.625 147.982Z" fill="#263238"/>
<g opacity="0.2">
<path d="M234.721 147.982H219.835C219.64 147.982 219.452 147.904 219.314 147.766C219.175 147.627 219.097 147.44 219.097 147.244C219.097 147.048 219.175 146.86 219.314 146.722C219.452 146.584 219.64 146.506 219.835 146.506H234.721C234.917 146.506 235.104 146.584 235.243 146.722C235.381 146.86 235.459 147.048 235.459 147.244C235.459 147.44 235.381 147.627 235.243 147.766C235.104 147.904 234.917 147.982 234.721 147.982Z" fill="#263238"/>
</g>
<path d="M266.625 147.982H239.392C239.197 147.982 239.009 147.904 238.871 147.766C238.732 147.627 238.654 147.44 238.654 147.244C238.654 147.048 238.732 146.86 238.871 146.722C239.009 146.584 239.197 146.506 239.392 146.506H266.625C266.82 146.506 267.008 146.584 267.147 146.722C267.285 146.86 267.363 147.048 267.363 147.244C267.363 147.44 267.285 147.627 267.147 147.766C267.008 147.904 266.82 147.982 266.625 147.982Z" fill="#407BFF"/>
<g opacity="0.2">
<path d="M220.101 152.801H200.994C200.799 152.801 200.611 152.723 200.472 152.585C200.334 152.447 200.256 152.259 200.256 152.063C200.256 151.867 200.334 151.68 200.472 151.541C200.611 151.403 200.799 151.325 200.994 151.325H220.101C220.297 151.325 220.485 151.403 220.623 151.541C220.761 151.68 220.839 151.867 220.839 152.063C220.839 152.259 220.761 152.447 220.623 152.585C220.485 152.723 220.297 152.801 220.101 152.801Z" fill="#263238"/>
</g>
<path opacity="0.4" d="M276.75 96.1079C276.75 96.3593 276.825 96.605 276.964 96.8139C277.104 97.0228 277.303 97.1855 277.535 97.2814C277.768 97.3772 278.023 97.4019 278.27 97.3523C278.516 97.3028 278.742 97.1811 278.92 97.0029C279.097 96.8246 279.217 96.5977 279.265 96.351C279.313 96.1043 279.287 95.8489 279.19 95.617C279.093 95.3852 278.929 95.1875 278.719 95.0489C278.509 94.9103 278.263 94.8371 278.012 94.8386C277.846 94.8386 277.681 94.8715 277.527 94.9353C277.374 94.9992 277.234 95.0928 277.117 95.2108C277 95.3288 276.907 95.4688 276.844 95.6227C276.781 95.7767 276.749 95.9416 276.75 96.1079Z" fill="white"/>
<path opacity="0.4" d="M273.614 97.3699C274.31 97.3699 274.875 96.8049 274.875 96.1079C274.875 95.411 274.31 94.846 273.614 94.846C272.917 94.846 272.352 95.411 272.352 96.1079C272.352 96.8049 272.917 97.3699 273.614 97.3699Z" fill="white"/>
<path opacity="0.4" d="M269.178 97.3699C269.875 97.3699 270.44 96.8049 270.44 96.1079C270.44 95.411 269.875 94.846 269.178 94.846C268.481 94.846 267.916 95.411 267.916 96.1079C267.916 96.8049 268.481 97.3699 269.178 97.3699Z" fill="white"/>
<path d="M83.5859 97.488H62.3905C61.5332 97.487 60.684 97.655 59.8917 97.9825C59.0993 98.3099 58.3792 98.7903 57.7726 99.3962C57.1661 100.002 56.6848 100.722 56.3565 101.514C56.0282 102.306 55.8592 103.155 55.8592 104.012V122.462C55.8582 123.319 56.0263 124.168 56.3537 124.961C56.6811 125.753 57.1615 126.473 57.7674 127.08C58.3733 127.686 59.0928 128.168 59.8848 128.496C60.6768 128.824 61.5258 128.993 62.3831 128.993H77.4162L81.8442 134.816V128.993H83.5785C85.3107 128.993 86.972 128.305 88.1968 127.08C89.4217 125.855 90.1098 124.194 90.1098 122.462V104.012C90.1098 102.282 89.4225 100.622 88.199 99.3988C86.9755 98.1753 85.3161 97.488 83.5859 97.488Z" fill="#407BFF"/>
<path opacity="0.7" d="M83.5859 97.488H62.3905C61.5332 97.487 60.684 97.655 59.8917 97.9825C59.0993 98.3099 58.3792 98.7903 57.7726 99.3962C57.1661 100.002 56.6848 100.722 56.3565 101.514C56.0282 102.306 55.8592 103.155 55.8592 104.012V122.462C55.8582 123.319 56.0263 124.168 56.3537 124.961C56.6811 125.753 57.1615 126.473 57.7674 127.08C58.3733 127.686 59.0928 128.168 59.8848 128.496C60.6768 128.824 61.5258 128.993 62.3831 128.993H77.4162L81.8442 134.816V128.993H83.5785C85.3107 128.993 86.972 128.305 88.1968 127.08C89.4217 125.855 90.1098 124.194 90.1098 122.462V104.012C90.1098 102.282 89.4225 100.622 88.199 99.3988C86.9755 98.1753 85.3161 97.488 83.5859 97.488Z" fill="white"/>
<path d="M71.8812 117.842C71.7411 117.841 71.6027 117.811 71.4754 117.752C71.3481 117.694 71.2349 117.609 71.1432 117.503L67.0178 112.676C66.9354 112.579 66.8729 112.467 66.8339 112.346C66.7949 112.225 66.7801 112.097 66.7904 111.97C66.8006 111.844 66.8358 111.72 66.8938 111.607C66.9518 111.494 67.0316 111.393 67.1285 111.311C67.2254 111.228 67.3376 111.166 67.4586 111.127C67.5797 111.088 67.7073 111.073 67.8341 111.083C67.9608 111.094 68.0843 111.129 68.1975 111.187C68.3107 111.245 68.4114 111.325 68.4938 111.421L71.8812 115.421L77.4826 108.824C77.6509 108.638 77.8847 108.525 78.1348 108.508C78.3848 108.492 78.6315 108.573 78.8229 108.735C79.0143 108.896 79.1354 109.126 79.1608 109.375C79.1861 109.625 79.1136 109.874 78.9586 110.071L72.6192 117.517C72.5268 117.621 72.413 117.704 72.2857 117.76C72.1583 117.816 72.0203 117.844 71.8812 117.842Z" fill="white"/>
<path d="M80.425 120.596C84.5348 116.486 84.5348 109.822 80.425 105.713C76.3151 101.603 69.6518 101.603 65.542 105.713C61.4321 109.822 61.4321 116.486 65.542 120.596C69.6518 124.705 76.3151 124.705 80.425 120.596Z" fill="#407BFF"/>
<path d="M151.083 228.158L166.928 227.383L165.386 241.162C165.386 241.162 154.39 243.258 149.482 235.435L151.083 228.158Z" fill="#EBB376"/>
<path d="M177.142 232.188L173.533 242.18L165.386 241.162L166.928 227.383L177.142 232.188Z" fill="#EBB376"/>
<path d="M135.873 250.52C141.907 247.369 147.406 243.287 152.168 238.424L151.083 228.158C136.109 230.372 127.467 233.538 127.467 233.538C127.467 233.538 133.017 213.649 127.94 206.402L113.999 208.926C113.999 208.926 99.1872 239.715 109.15 250.52H135.873Z" fill="#407BFF"/>
<path opacity="0.7" d="M135.851 250.52C141.888 247.37 147.392 243.291 152.161 238.431L151.083 228.151C136.589 230.276 128.021 233.317 127.467 233.516C127.652 232.778 132.899 213.509 127.925 206.395L113.984 208.919C111.118 215.101 108.842 221.54 107.187 228.151C105.195 236.557 104.612 245.612 109.143 250.52H135.851Z" fill="white"/>
<path opacity="0.2" d="M124.39 250.52C129.312 219.332 124.951 211.406 124.951 211.406L107.239 228.136C105.246 236.542 104.663 245.597 109.194 250.505L124.39 250.52Z" fill="black"/>
<path d="M121.312 250.52C124.633 234.756 128.36 210.077 127.954 206.402C127.364 201.059 98.3016 178.166 73.0768 194.83C67.9108 198.232 65.2761 234.933 64.3757 250.52H121.312Z" fill="#407BFF"/>
<path opacity="0.7" d="M121.312 250.52C124.633 234.756 128.36 210.07 127.954 206.395C127.364 201.059 98.2942 178.166 73.0694 194.838C71.2022 196.085 69.6672 201.716 68.3978 209.155C66.7152 219.28 65.5492 232.726 64.8554 242.867C64.6636 245.737 64.5012 248.335 64.3757 250.52H121.312Z" fill="white"/>
<path d="M108.862 127.104C100.117 123.569 79.4974 136.255 77.6893 158.875C75.8812 181.495 87.3497 175.229 87.3497 175.229C87.3497 175.229 89.3939 183.856 97.7481 181.192C97.7481 181.192 104.648 189.007 111.069 185.827C111.069 185.827 119.062 194.151 123.349 189.76C123.349 189.76 128.013 195.081 132.272 191.052C136.53 187.022 148.7 145.886 129.608 136.373C110.515 126.86 108.862 127.104 108.862 127.104Z" fill="#263238"/>
<path d="M108.877 219.686L108.036 219.612C109.01 208.719 106.611 203.9 106.56 203.856L107.298 203.465C107.438 203.635 109.873 208.483 108.877 219.686Z" fill="#263238"/>
<path d="M112.833 219.782C107.04 206.136 113.571 202.956 113.837 202.808L114.183 203.546C114.124 203.546 108.161 206.564 113.608 219.406L112.833 219.782Z" fill="#263238"/>
<path d="M107.172 206.063C107.172 206.063 95.9917 197.207 78.6339 192.218L73.062 194.83C73.062 194.83 63.7189 183.266 79.2907 179.48C94.8625 175.694 116.043 186.122 121.357 195.052C126.67 203.981 112.117 206.86 112.117 206.86C112.117 206.86 110.781 205.044 107.172 206.063Z" fill="#407BFF"/>
<path opacity="0.6" d="M107.172 206.063C107.172 206.063 95.9917 197.207 78.6339 192.218L73.062 194.83C73.062 194.83 63.7189 183.266 79.2907 179.48C94.8625 175.694 116.043 186.122 121.357 195.052C126.67 203.981 112.117 206.86 112.117 206.86C112.117 206.86 110.781 205.044 107.172 206.063Z" fill="white"/>
<path d="M113.918 219.62C113.918 219.766 113.874 219.908 113.793 220.03C113.712 220.151 113.597 220.246 113.462 220.301C113.327 220.357 113.179 220.372 113.036 220.343C112.893 220.315 112.761 220.245 112.658 220.141C112.555 220.038 112.484 219.907 112.456 219.764C112.427 219.62 112.442 219.472 112.498 219.337C112.554 219.202 112.648 219.087 112.77 219.006C112.891 218.925 113.034 218.882 113.18 218.882C113.375 218.882 113.563 218.959 113.702 219.098C113.84 219.236 113.918 219.424 113.918 219.62Z" fill="white"/>
<path d="M109.128 219.62C109.128 219.766 109.085 219.908 109.004 220.03C108.923 220.151 108.807 220.246 108.672 220.301C108.538 220.357 108.389 220.372 108.246 220.343C108.103 220.315 107.971 220.245 107.868 220.141C107.765 220.038 107.695 219.907 107.666 219.764C107.638 219.62 107.652 219.472 107.708 219.337C107.764 219.202 107.859 219.087 107.98 219.006C108.101 218.925 108.244 218.882 108.39 218.882C108.586 218.882 108.774 218.959 108.912 219.098C109.05 219.236 109.128 219.424 109.128 219.62Z" fill="white"/>
<path d="M101.231 164.336C100.552 172.255 98.1245 186.351 91.6817 189.428C91.6817 189.428 98.8846 190.904 110.132 205.155C116.53 200.668 114.11 197.605 114.11 197.605C106.626 192.697 108.567 186.646 111.593 181.369L101.231 164.336Z" fill="#EBB376"/>
<path opacity="0.2" d="M105.445 171.281L111.578 181.391C110.846 182.612 110.226 183.896 109.726 185.229C106.774 183.649 103.541 178.646 104.154 175.222C104.345 173.841 104.782 172.506 105.445 171.281Z" fill="black"/>
<path d="M100.368 147.591C98.309 160.033 97.1725 165.244 101.785 173.251C108.715 185.303 124.073 185.871 129.718 174.476C134.796 164.218 137.312 145.591 126.715 137.369C116.257 129.266 102.412 135.141 100.368 147.591Z" fill="#EBB376"/>
<path d="M125.851 130.44C133.917 134.912 141.6 148.89 130.124 145.399C128.39 148.757 122.213 145.679 118.619 141.65C118.014 144.447 111.401 147.251 106.53 142.919C108.885 146.314 104.877 154.882 100.707 153.406C96.5378 151.93 87.1799 149.989 95.4677 136.779C103.755 123.569 117.239 125.65 125.851 130.44Z" fill="#263238"/>
<path d="M122.914 159.332C122.914 159.332 123.652 164.27 125.054 166.949C123.482 167.856 121.364 166.646 121.364 166.646L122.914 159.332Z" fill="#D58745"/>
<path d="M114.87 168.86C115.393 169.116 115.939 169.323 116.501 169.48C116.539 169.491 116.578 169.494 116.617 169.488C116.656 169.483 116.694 169.469 116.727 169.448C116.761 169.427 116.789 169.4 116.811 169.367C116.833 169.334 116.848 169.297 116.855 169.258C116.875 169.177 116.862 169.091 116.82 169.019C116.777 168.948 116.707 168.896 116.626 168.875C115.356 168.519 114.183 167.883 113.191 167.013C112.2 166.143 111.417 165.062 110.899 163.849C110.888 163.81 110.87 163.773 110.844 163.741C110.819 163.71 110.787 163.683 110.751 163.664C110.715 163.645 110.676 163.633 110.636 163.629C110.595 163.625 110.554 163.63 110.515 163.642C110.441 163.673 110.381 163.732 110.349 163.807C110.318 163.881 110.316 163.965 110.346 164.041C111.21 166.149 112.82 167.865 114.87 168.86Z" fill="#263238"/>
<path d="M94.0876 156.535C94.7833 159.122 96.4766 161.328 98.7961 162.668C101.8 164.314 103.962 161.495 103.741 157.989C103.512 154.823 101.667 150.159 98.3754 149.975C95.0839 149.79 93.1946 153.266 94.0876 156.535Z" fill="#EBB376"/>
<path d="M114.021 147.93C114.095 147.965 114.176 147.982 114.257 147.982C114.339 147.982 114.419 147.965 114.493 147.93C115.148 147.567 115.883 147.37 116.632 147.357C117.381 147.344 118.121 147.516 118.788 147.856C118.855 147.899 118.929 147.927 119.007 147.939C119.085 147.951 119.164 147.946 119.24 147.925C119.316 147.904 119.387 147.868 119.447 147.818C119.508 147.768 119.558 147.705 119.593 147.635C119.666 147.486 119.681 147.316 119.636 147.157C119.592 146.997 119.489 146.86 119.349 146.772C118.517 146.316 117.583 146.077 116.634 146.077C115.684 146.077 114.75 146.316 113.918 146.772C113.778 146.855 113.676 146.989 113.632 147.145C113.588 147.302 113.606 147.469 113.682 147.613C113.753 147.756 113.874 147.868 114.021 147.93Z" fill="#263238"/>
<path d="M133.851 152.786C133.918 152.824 133.991 152.848 134.068 152.856C134.144 152.863 134.221 152.855 134.294 152.831C134.371 152.805 134.441 152.764 134.502 152.711C134.563 152.657 134.612 152.592 134.647 152.519C134.682 152.446 134.703 152.367 134.707 152.286C134.71 152.205 134.698 152.124 134.67 152.048C134.401 151.089 133.914 150.206 133.247 149.466C132.58 148.726 131.751 148.15 130.825 147.783C130.749 147.756 130.668 147.745 130.588 147.753C130.508 147.76 130.43 147.784 130.36 147.824C130.29 147.864 130.229 147.918 130.182 147.984C130.135 148.049 130.103 148.124 130.087 148.203C130.049 148.364 130.071 148.532 130.15 148.677C130.23 148.822 130.36 148.932 130.515 148.986C131.245 149.287 131.896 149.752 132.418 150.344C132.94 150.937 133.319 151.641 133.526 152.403C133.552 152.485 133.594 152.561 133.65 152.627C133.706 152.693 133.774 152.747 133.851 152.786Z" fill="#263238"/>
<path d="M117.991 156.07C117.63 157.059 116.803 157.657 116.146 157.414C115.49 157.17 115.253 156.181 115.615 155.2C115.977 154.218 116.803 153.613 117.453 153.856C118.102 154.1 118.346 155.089 117.991 156.07Z" fill="#263238"/>
<path d="M117.165 153.805L119.615 153.753C119.615 153.753 117.888 155.155 117.165 153.805Z" fill="#263238"/>
<path d="M130.382 160.004C130.021 160.986 129.194 161.583 128.545 161.347C127.895 161.111 127.644 160.107 128.006 159.133C128.368 158.159 129.194 157.554 129.851 157.79C130.508 158.026 130.744 159.015 130.382 160.004Z" fill="#263238"/>
<path d="M129.563 157.731L132.006 157.679C132.006 157.679 130.279 159.089 129.563 157.731Z" fill="#263238"/>
<path d="M116.825 163.045C116.063 163.047 115.309 162.888 114.611 162.58C113.874 162.241 113.218 161.746 112.691 161.13C112.163 160.513 111.776 159.789 111.556 159.008C111.08 157.323 111.21 155.526 111.924 153.928C112.637 152.33 113.889 151.033 115.46 150.262C116.188 149.898 116.988 149.7 117.801 149.683C118.615 149.665 119.423 149.828 120.166 150.159C120.909 150.491 121.569 150.983 122.099 151.601C122.629 152.219 123.016 152.946 123.231 153.731C123.722 155.413 123.588 157.217 122.855 158.808C122.162 160.426 120.906 161.737 119.32 162.498C118.538 162.86 117.687 163.047 116.825 163.045ZM117.984 150.535C117.249 150.555 116.527 150.731 115.866 151.052C114.48 151.738 113.377 152.885 112.746 154.297C112.116 155.709 111.998 157.297 112.412 158.786C112.59 159.457 112.915 160.079 113.365 160.608C113.814 161.136 114.376 161.557 115.009 161.84C115.643 162.123 116.331 162.261 117.025 162.243C117.718 162.226 118.399 162.053 119.017 161.738C120.414 161.07 121.523 159.919 122.139 158.498C122.788 157.089 122.906 155.493 122.471 154.004C122.286 153.338 121.958 152.719 121.509 152.193C121.06 151.667 120.502 151.244 119.873 150.956C119.282 150.678 118.637 150.535 117.984 150.535Z" fill="#263238"/>
<path d="M129.106 166.808C128.343 166.815 127.588 166.656 126.892 166.343C126.154 166.004 125.498 165.509 124.969 164.893C124.441 164.276 124.052 163.553 123.829 162.771C123.357 161.086 123.489 159.289 124.204 157.692C124.918 156.094 126.17 154.797 127.74 154.026C128.468 153.661 129.267 153.462 130.081 153.443C130.894 153.425 131.702 153.588 132.445 153.919C133.188 154.251 133.848 154.744 134.377 155.363C134.906 155.981 135.291 156.709 135.504 157.495C136.001 159.176 135.87 160.981 135.135 162.572C134.637 163.779 133.805 164.818 132.737 165.568C131.669 166.318 130.41 166.749 129.106 166.808ZM130.279 154.262C129.534 154.267 128.799 154.434 128.124 154.749C126.728 155.423 125.621 156.575 125.002 157.997C124.35 159.402 124.231 160.997 124.67 162.484C124.855 163.151 125.184 163.77 125.632 164.298C126.081 164.825 126.639 165.249 127.268 165.539C129.851 166.698 133.054 165.192 134.397 162.196C135.043 160.786 135.161 159.191 134.729 157.701C134.543 157.036 134.214 156.418 133.765 155.892C133.317 155.366 132.759 154.943 132.132 154.653C131.545 154.409 130.914 154.288 130.279 154.299V154.262Z" fill="#263238"/>
<path d="M123.836 159.111C123.82 159.058 123.793 159.01 123.756 158.969C123.719 158.928 123.673 158.896 123.622 158.875C123.298 158.818 122.964 158.867 122.67 159.015L122.301 158.277C122.803 158.021 123.381 157.96 123.925 158.107C124.095 158.167 124.25 158.265 124.378 158.393C124.505 158.52 124.603 158.675 124.663 158.845L123.836 159.111Z" fill="#263238"/>
<path d="M103.653 151.214L103.401 152.021L113.39 155.143L113.643 154.335L103.653 151.214Z" fill="#263238"/>
<path opacity="0.2" d="M101.313 228.882C101.313 228.882 81.8959 243.76 64.8554 242.904C65.5492 232.763 66.7152 219.288 68.3978 209.192C70.1395 207.273 71.2834 206.107 71.2834 206.107L81.6154 213.834L79.0988 216.992C79.0988 216.992 94.7371 216.195 100.184 216.992L101.313 228.882Z" fill="black"/>
<path d="M103.32 216.955L118.862 213.782L119.416 227.642C119.416 227.642 108.87 231.376 102.833 224.387L103.32 216.955Z" fill="#EBB376"/>
<path d="M129.681 217L127.63 227.42L119.416 227.649L118.862 213.789L129.681 217Z" fill="#EBB376"/>
<path d="M103.32 216.955L104.08 227.649L100.213 229.383L98.5599 216.955H103.32Z" fill="#407BFF"/>
<path opacity="0.6" d="M103.32 216.955L104.08 227.649L100.213 229.383L98.5599 216.955H103.32Z" fill="white"/>
<path d="M78.6339 192.218C74.4635 192.954 70.6869 195.139 67.9698 198.387C63.2835 203.893 46.7671 220.247 50.4349 233.597C54.1028 246.948 89.4235 237.014 100.213 229.383L98.5599 216.955L74.0952 218.749L81.6376 213.782C86.8109 199.391 78.6339 192.218 78.6339 192.218Z" fill="#407BFF"/>
<path opacity="0.7" d="M78.6339 192.218C74.4635 192.954 70.6869 195.139 67.9698 198.387C63.2835 203.893 46.7671 220.247 50.4349 233.597C54.1028 246.948 89.4235 237.014 100.213 229.383L98.5599 216.955L74.0952 218.749L81.6376 213.782C86.8109 199.391 78.6339 192.218 78.6339 192.218Z" fill="white"/>
<path d="M149.489 228.394L153.939 227.649V239.575L150.412 240.151L149.489 228.394Z" fill="#407BFF"/>
<path opacity="0.6" d="M149.489 228.394L153.939 227.649V239.575L150.412 240.151L149.489 228.394Z" fill="white"/>
<path d="M140.493 239.457C140.48 238.804 140.513 238.15 140.589 237.501L140.722 236.52L139.77 237.081L139.202 237.42C139.015 237.504 138.822 237.576 138.626 237.634C138.29 237.741 137.929 237.741 137.593 237.634C137.268 237.514 136.982 237.307 136.766 237.036C136.517 236.737 136.32 236.398 136.183 236.033L135.349 233.708L134.759 236.173C134.7 236.416 134.663 236.667 134.619 236.911C134.574 237.154 134.471 237.369 134.405 237.597C134.263 237.965 134.026 238.289 133.718 238.535C133.374 238.712 132.973 238.746 132.604 238.631C132.139 238.509 131.695 238.314 131.29 238.055L130.006 237.25L130.523 238.557C130.746 239.112 130.924 239.685 131.054 240.269C131.119 240.56 131.158 240.856 131.172 241.154C131.205 241.458 131.137 241.764 130.98 242.025C131.239 241.817 131.417 241.525 131.482 241.199C131.567 240.881 131.611 240.554 131.615 240.225C131.63 239.966 131.63 239.708 131.615 239.45C131.83 239.571 132.051 239.68 132.279 239.774C132.614 239.912 132.974 239.978 133.336 239.969C133.698 239.96 134.054 239.876 134.382 239.723C135.006 239.373 135.493 238.821 135.762 238.158V238.062C136.162 238.517 136.697 238.831 137.288 238.957C137.88 239.083 138.497 239.015 139.047 238.763C139.263 238.665 139.473 238.552 139.674 238.424C139.674 238.424 139.674 238.476 139.674 238.505C139.727 238.853 139.798 239.198 139.888 239.538C139.978 239.882 140.101 240.215 140.257 240.535C140.404 240.856 140.624 241.139 140.899 241.361C140.733 241.072 140.626 240.754 140.582 240.424C140.531 240.104 140.501 239.781 140.493 239.457Z" fill="#407BFF"/>
<path d="M166.891 222.808C166.316 222.864 165.736 222.801 165.187 222.623C164.62 222.455 164.081 222.206 163.585 221.885C163.114 221.536 162.712 221.103 162.397 220.609C162.064 220.117 161.798 219.584 161.607 219.022L161.12 217.546L160.294 218.852C159.94 219.4 159.513 219.897 159.024 220.328C158.627 220.721 158.105 220.961 157.548 221.007H157.371L157.15 220.963C156.995 220.963 156.847 220.889 156.692 220.852C156.384 220.751 156.085 220.622 155.799 220.468C155.221 220.145 154.688 219.748 154.212 219.287L152.928 218.055L153.194 219.745C153.343 220.647 153.399 221.562 153.364 222.476C153.349 222.905 153.262 223.33 153.105 223.73C153.036 223.905 152.909 224.052 152.745 224.146C152.582 224.24 152.391 224.275 152.205 224.247H151.873L151.976 224.52C152.193 225.076 152.414 225.629 152.641 226.18C152.574 225.686 152.493 225.191 152.404 224.704H152.545C152.692 224.694 152.838 224.669 152.98 224.631C153.115 224.561 153.246 224.482 153.371 224.394C153.467 224.291 153.57 224.18 153.659 224.07C153.942 223.621 154.131 223.118 154.212 222.594C154.305 222.107 154.36 221.613 154.375 221.118C154.611 221.313 154.857 221.495 155.113 221.664C155.459 221.877 155.825 222.057 156.205 222.203C156.611 222.371 157.043 222.469 157.482 222.49C158.395 222.477 159.271 222.131 159.947 221.516C160.236 221.273 160.505 221.007 160.751 220.719C160.896 220.973 161.053 221.22 161.223 221.457C161.665 222.067 162.215 222.59 162.847 223C163.477 223.382 164.169 223.652 164.891 223.797C165.355 223.887 165.829 223.922 166.301 223.9C166.242 224.048 166.175 224.195 166.124 224.35C165.994 224.776 165.893 225.21 165.821 225.649C165.743 226.09 165.723 226.539 165.762 226.985C165.785 227.429 165.919 227.861 166.153 228.239C166.026 227.837 165.993 227.41 166.057 226.992C166.113 226.578 166.209 226.17 166.345 225.775C166.629 225.003 166.987 224.262 167.415 223.561L167.88 222.771L166.891 222.808Z" fill="#407BFF"/>
<path d="M314.536 266.424L55.719 266.424C54.8499 266.424 54.0165 266.078 53.402 265.464C52.7875 264.849 52.4423 264.016 52.4423 263.147V255.176L317.812 255.176V263.147C317.812 264.016 317.467 264.849 316.853 265.464C316.238 266.078 315.405 266.424 314.536 266.424Z" fill="#407BFF"/>
<path opacity="0.2" d="M52.4349 260.793L317.812 260.793V255.169L52.4349 255.169V260.793Z" fill="black"/>
<path d="M46.8778 256.638H323.377C324.217 256.638 325.023 256.304 325.618 255.711C326.213 255.117 326.548 254.312 326.55 253.472C326.55 252.63 326.216 251.823 325.621 251.228C325.026 250.633 324.218 250.298 323.377 250.298H46.8778C46.0361 250.298 45.229 250.633 44.6338 251.228C44.0387 251.823 43.7044 252.63 43.7044 253.472C43.7063 254.312 44.0415 255.117 44.6364 255.711C45.2313 256.304 46.0374 256.638 46.8778 256.638Z" fill="#407BFF"/>
<path d="M304.639 211.568L296.565 248.188C296.418 248.774 296.081 249.296 295.608 249.672C295.134 250.048 294.55 250.258 293.945 250.269H249.843C249.568 250.262 249.299 250.191 249.056 250.062C248.814 249.934 248.604 249.751 248.444 249.528C248.284 249.305 248.178 249.048 248.133 248.777C248.089 248.506 248.108 248.229 248.189 247.966L256.248 211.627C256.414 211.073 256.764 210.593 257.241 210.267C257.718 209.94 258.292 209.788 258.868 209.834H302.971C304.152 209.863 304.897 210.402 304.639 211.568Z" fill="#263238"/>
<path opacity="0.4" d="M304.639 211.568L296.565 248.188C296.418 248.774 296.081 249.296 295.608 249.672C295.134 250.048 294.55 250.258 293.945 250.269H251.341C251.066 250.263 250.796 250.193 250.552 250.065C250.309 249.937 250.098 249.754 249.937 249.531C249.776 249.308 249.669 249.05 249.625 248.779C249.58 248.507 249.599 248.229 249.68 247.966L257.754 211.627C257.916 211.071 258.265 210.589 258.743 210.262C259.221 209.935 259.797 209.783 260.374 209.834H302.971C304.152 209.863 304.897 210.402 304.639 211.568Z" fill="white"/>
<path d="M297.606 249.14L305.635 212.712C305.901 211.516 305.156 210.978 303.967 210.978H261.37C260.794 210.93 260.219 211.082 259.742 211.409C259.265 211.736 258.914 212.217 258.75 212.771L250.595 249.619L297.606 249.14Z" fill="#407BFF"/>
<path opacity="0.4" d="M305.635 212.705L301.399 231.952L297.598 249.14L272.433 249.398L250.603 249.612L258.721 212.771C258.882 212.216 259.231 211.735 259.707 211.408C260.183 211.081 260.758 210.929 261.333 210.978H303.982C305.163 210.978 305.901 211.524 305.635 212.705Z" fill="white"/>
<path opacity="0.2" d="M301.399 231.952L297.599 249.14L272.433 249.398H251.533L254.949 233.678C255.059 233.191 255.33 232.756 255.719 232.442C256.107 232.129 256.59 231.956 257.09 231.952H301.399Z" fill="black"/>
<path d="M302.122 234.343C301.959 233.788 301.609 233.307 301.132 232.982C300.654 232.656 300.078 232.506 299.503 232.557H256.905C255.724 232.557 254.979 233.088 255.237 234.284L258.47 248.94H251.274C251.094 248.94 250.921 249.012 250.794 249.139C250.667 249.267 250.595 249.439 250.595 249.619C250.595 249.799 250.667 249.972 250.794 250.099C250.921 250.227 251.094 250.298 251.274 250.298H303.746C303.975 250.294 304.2 250.239 304.405 250.137C304.61 250.035 304.79 249.888 304.931 249.708C305.072 249.528 305.172 249.318 305.222 249.095C305.273 248.872 305.272 248.64 305.222 248.416L302.122 234.343Z" fill="#407BFF"/>
<path opacity="0.4" d="M302.122 234.343C301.959 233.788 301.609 233.307 301.132 232.982C300.654 232.656 300.078 232.506 299.503 232.557H256.905C255.724 232.557 254.979 233.088 255.237 234.284L258.47 248.94H251.274C251.094 248.94 250.921 249.012 250.794 249.139C250.667 249.267 250.595 249.439 250.595 249.619C250.595 249.799 250.667 249.972 250.794 250.099C250.921 250.227 251.094 250.298 251.274 250.298H303.746C303.975 250.294 304.2 250.239 304.405 250.137C304.61 250.035 304.79 249.888 304.931 249.708C305.072 249.528 305.172 249.318 305.222 249.095C305.273 248.872 305.272 248.64 305.222 248.416L302.122 234.343Z" fill="white"/>
<path d="M249.998 243.236H247.525L247.215 244.571H249.621L249.998 243.236Z" fill="black"/>
<path d="M234.374 250.468H227.252C227.197 250.469 227.142 250.459 227.09 250.438C227.039 250.417 226.992 250.386 226.953 250.347C226.913 250.308 226.882 250.261 226.862 250.209C226.841 250.158 226.831 250.103 226.832 250.047C226.832 249.936 226.876 249.829 226.955 249.75C227.034 249.671 227.141 249.627 227.252 249.627H234.374C235.543 249.629 236.697 249.368 237.751 248.863C238.805 248.359 239.731 247.623 240.463 246.712C241.273 245.7 242.301 244.884 243.47 244.324C244.639 243.764 245.919 243.476 247.215 243.479H248.47C248.581 243.481 248.687 243.526 248.765 243.604C248.844 243.683 248.889 243.789 248.891 243.9C248.891 244.011 248.846 244.118 248.767 244.197C248.688 244.276 248.581 244.32 248.47 244.32H247.23C246.061 244.318 244.907 244.579 243.853 245.084C242.799 245.588 241.873 246.324 241.142 247.236C240.329 248.249 239.299 249.066 238.127 249.626C236.956 250.185 235.673 250.473 234.374 250.468Z" fill="black"/>
<path d="M115.704 245.258V248.335C115.704 249.723 117.379 250.298 118.766 250.298H226.942C228.315 250.298 229.946 249.723 229.946 248.335V245.258H115.704Z" fill="#263238"/>
<path opacity="0.4" d="M115.704 245.258V248.335C115.704 249.723 117.379 250.298 118.766 250.298H226.942C228.315 250.298 229.946 249.723 229.946 248.335V245.258H115.704Z" fill="white"/>
<path opacity="0.2" d="M152.559 245.258V248.335C152.559 249.723 154.205 250.298 155.593 250.298H226.942C228.315 250.298 229.946 249.723 229.946 248.335V245.258H152.559Z" fill="black"/>
<path d="M248.049 186.72L235.171 245.132C234.94 246.071 234.405 246.907 233.65 247.51C232.894 248.114 231.961 248.45 230.994 248.468H160.64C158.773 248.468 157.563 246.719 157.998 244.778L170.862 186.808C171.297 184.904 173.157 183.952 175.046 183.952H245.392C247.282 183.959 248.47 184.816 248.049 186.72Z" fill="#263238"/>
<path opacity="0.4" d="M248.049 186.72L235.171 245.132C234.94 246.071 234.405 246.907 233.65 247.51C232.894 248.114 231.961 248.45 230.994 248.468H163.032C161.142 248.468 159.954 246.719 160.375 244.778L173.253 186.808C173.674 184.904 175.548 183.952 177.437 183.952H245.392C247.282 183.959 248.47 184.816 248.049 186.72Z" fill="white"/>
<path opacity="0.2" d="M213.363 216.409C213.363 221.413 208.005 225.479 204.072 225.479C200.138 225.479 197.813 221.413 198.906 216.409C199.998 211.406 203.932 207.516 207.762 207.361C206.64 212.365 209.038 216.409 212.928 216.409C213.073 216.423 213.218 216.423 213.363 216.409Z" fill="black"/>
</svg>
