<svg width="1684" height="1255" viewBox="0 0 1684 1255" fill="none" xmlns="http://www.w3.org/2000/svg">
<path d="M1683.93 1102.64H3.05176e-05V1103.48H1683.93V1102.64Z" fill="#E6E6E6"/>
<path d="M1501.56 1131.77H1439.16V1132.61H1501.56V1131.77Z" fill="#E6E6E6"/>
<path d="M1417.03 1131.77H1328.93V1132.61H1417.03V1131.77Z" fill="#E6E6E6"/>
<path d="M1176.7 1132.61H1111.5V1133.46H1176.7V1132.61Z" fill="#E6E6E6"/>
<path d="M285.494 1124.97H140.036V1125.81H285.494V1124.97Z" fill="#E6E6E6"/>
<path d="M110.028 1124.97H88.7097V1125.81H110.028V1124.97Z" fill="#E6E6E6"/>
<path d="M555.53 1150.33H343.422V1151.17H555.53V1150.33Z" fill="#E6E6E6"/>
<path d="M1417.94 102.922H960.921V539.263H1417.94V102.922Z" fill="#E0E0E0"/>
<path d="M1428.08 102.922H971.058V539.263H1428.08V102.922Z" fill="#F5F5F5"/>
<path d="M1409.86 518.787V123.399L989.312 123.399V518.787H1409.86Z" fill="white"/>
<path d="M1409.86 518.787V123.399H1402.18V518.787H1409.86Z" fill="#E0E0E0"/>
<path d="M1420.53 395.893H978.602V423.375H1420.53V395.893Z" fill="#F5F5F5"/>
<path d="M852.913 889.96H762.721V1089.98H852.913V889.96Z" fill="#E6E6E6"/>
<path d="M1177.21 1089.98H780.066V1102.64H1177.21V1089.98Z" fill="#E6E6E6"/>
<path d="M852.913 1089.98H1194.48V889.959H852.913V1089.98Z" fill="#FAFAFA"/>
<path d="M888.377 980.185H1159.02V914.579H888.377V980.185Z" fill="#E6E6E6"/>
<path d="M888.377 1065.32H1159.02V999.718H888.377V1065.32Z" fill="#E6E6E6"/>
<path d="M1064.28 942.869H983.149C980.954 942.869 979.174 944.648 979.174 946.843V947.887C979.174 950.082 980.954 951.861 983.149 951.861H1064.28C1066.48 951.861 1068.25 950.082 1068.25 947.887V946.843C1068.25 944.648 1066.48 942.869 1064.28 942.869Z" fill="#FAFAFA"/>
<path d="M1064.28 1028.04H983.149C980.954 1028.04 979.174 1029.82 979.174 1032.02V1033.06C979.174 1035.26 980.954 1037.03 983.149 1037.03H1064.28C1066.48 1037.03 1068.25 1035.26 1068.25 1033.06V1032.02C1068.25 1029.82 1066.48 1028.04 1064.28 1028.04Z" fill="#FAFAFA"/>
<path d="M302.064 678.356H210.054V1077.35H302.064V678.356Z" fill="#E6E6E6"/>
<path d="M681.455 1077.35H227.735V1102.64H681.455V1077.35Z" fill="#E6E6E6"/>
<path d="M302.064 1077.35H699.102V678.356H302.064L302.064 1077.35Z" fill="#FAFAFA"/>
<path d="M338.235 858.302H662.932V727.426H338.235V858.302Z" fill="#E6E6E6"/>
<path d="M338.235 1028.24H662.932V897.369H338.235V1028.24Z" fill="#E6E6E6"/>
<path d="M537.041 801.856H464.126C461.753 801.847 459.479 800.901 457.801 799.222C456.123 797.544 455.176 795.271 455.168 792.898C455.168 790.518 456.11 788.236 457.789 786.551C459.469 784.866 461.747 783.914 464.126 783.905H537.041C539.42 783.914 541.698 784.866 543.377 786.551C545.056 788.236 545.999 790.518 545.999 792.898C545.99 795.271 545.044 797.544 543.365 799.222C541.687 800.901 539.414 801.847 537.041 801.856Z" fill="#FAFAFA"/>
<path d="M537.041 971.765H464.126C461.753 971.756 459.479 970.81 457.801 969.132C456.123 967.453 455.176 965.18 455.168 962.807C455.176 960.434 456.123 958.16 457.801 956.482C459.479 954.804 461.753 953.857 464.126 953.848H537.041C539.414 953.857 541.687 954.804 543.365 956.482C545.044 958.16 545.99 960.434 545.999 962.807C545.999 965.183 545.055 967.461 543.375 969.141C541.695 970.821 539.417 971.765 537.041 971.765Z" fill="#FAFAFA"/>
<path d="M1060.88 858.234C1060.88 858.234 993.117 741.403 1087.11 648.416C1087.11 648.416 1111.67 664.38 1111.3 685.9C1110.93 707.421 1085.03 712.843 1090.58 730.794C1096.14 748.745 1120.59 766.325 1104.56 781.312C1088.53 796.299 1107.12 809.333 1106.04 827.519C1104.96 845.706 1060.88 858.234 1060.88 858.234Z" fill="#FAFAFA"/>
<path d="M961.796 824.859C961.796 824.859 964.12 889.96 1052.96 889.96C1141.81 889.96 1144.1 824.859 1144.1 824.859H961.796Z" fill="#E6E6E6"/>
<path d="M1066 868.91C1066 868.91 1093.45 736.654 975.066 678.053C975.066 678.053 956.845 700.988 963.985 721.263C971.125 741.538 997.395 738.54 997.664 757.333C997.933 776.126 980.353 800.543 1000.29 809.535C1020.23 818.527 1006.66 836.983 1013.43 853.89C1020.2 870.796 1066 868.91 1066 868.91Z" fill="#E6E6E6"/>
<path d="M525.556 305.937C525.556 305.937 527.88 345.072 616.691 345.072C705.501 345.072 707.859 305.937 707.859 305.937H525.556Z" fill="#F0F0F0"/>
<path d="M284.686 373.564L270.103 470.862H284.686L374.137 373.564H284.686Z" fill="#F5F5F5"/>
<path d="M270.103 373.564V470.862L359.554 373.564H270.103Z" fill="#E0E0E0"/>
<path d="M635.517 373.564L620.9 470.862H635.517L724.968 373.564H635.517Z" fill="#F5F5F5"/>
<path d="M620.9 373.564V470.862L710.385 373.564H620.9Z" fill="#E0E0E0"/>
<path d="M204.396 375.416H301.694V345.072H204.396V375.416Z" fill="#E0E0E0"/>
<path d="M785.455 345.072H301.727V375.416H785.455V345.072Z" fill="#F5F5F5"/>
<path d="M401.113 220.393C426.271 223.761 441.831 169.235 386.295 122.961C389.292 176.51 357.297 214.365 401.113 220.393Z" fill="#E0E0E0"/>
<path d="M419.603 291.994C456.043 266.432 431.087 177.15 318.264 183.616C367.098 249.222 356.017 336.518 419.603 291.994Z" fill="#E0E0E0"/>
<path d="M406.738 291.388C382.489 265.287 416.841 199.614 504.17 223.593C454.932 266.836 448.971 336.787 406.738 291.388Z" fill="#E0E0E0"/>
<path d="M437.823 253.331C446.209 243.228 456.111 231.642 453.719 219.652C451.328 207.663 445.3 198.469 450.082 185.536C455.807 170.044 454.696 151.554 445.03 153.103C435.365 154.653 424.52 166.002 424.823 180.989C425.126 195.976 415.494 200.186 406.569 207.932C397.644 215.678 394.175 226.927 392.559 238.243C389.764 255.823 366.963 252.489 360.901 267.779C354.67 282.531 367.131 302.199 387.069 306.712C407.007 311.225 421.219 314.054 434.826 298.494C448.634 281.689 425.396 267.948 437.823 253.331Z" fill="#F5F5F5"/>
<path d="M369.186 345.072H444.121L449.779 295.261H363.528L369.186 345.072Z" fill="#E6E6E6"/>
<path d="M357.971 304.152H455.37V293.173H357.971V304.152Z" fill="#E6E6E6"/>
<path d="M612.481 624.672H531.113V678.323H612.481V624.672Z" fill="#F5F5F5"/>
<path d="M470.02 678.356H531.113V624.706H470.02V678.356Z" fill="#E0E0E0"/>
<path d="M446.175 596.113H411.284V678.356H446.175V596.113Z" fill="#F5F5F5"/>
<path d="M385.082 678.356H411.284V596.113H385.082V678.356Z" fill="#E0E0E0"/>
<path d="M841.967 1254.73C1202.61 1254.73 1494.96 1237.66 1494.96 1216.61C1494.96 1195.55 1202.61 1178.48 841.967 1178.48C481.328 1178.48 188.971 1195.55 188.971 1216.61C188.971 1237.66 481.328 1254.73 841.967 1254.73Z" fill="#F5F5F5"/>
<path d="M529.362 595.507C533.241 597.214 537.348 598.348 541.553 598.875C550.199 599.927 558.94 597.9 566.24 593.149C577.792 585.673 584.797 572.571 583.685 560.515C583.626 559.925 583.348 559.38 582.904 558.986C582.461 558.593 581.887 558.381 581.294 558.393C570.839 558.318 560.498 560.57 551.021 564.985C541.544 569.4 533.168 575.869 526.499 583.921C523.333 570.45 520.538 556.204 518.517 541.52C524.121 545.811 530.708 548.636 537.68 549.737C540.566 550.088 543.49 549.962 546.336 549.367C561.39 546.268 573.279 530.136 584.123 513.129C584.323 512.824 584.456 512.48 584.514 512.12C584.572 511.761 584.554 511.393 584.46 511.041C584.369 510.7 584.2 510.386 583.966 510.123C583.732 509.86 583.44 509.655 583.113 509.525C555.665 498.074 526.566 522.828 517.271 531.753C515.858 519.386 515.105 506.952 515.015 494.504C520.888 496.373 526.918 497.704 533.033 498.478C547.818 500.196 560.245 497.636 569.136 490.766C579.678 482.683 584.561 469.245 583.248 451.968C583.22 451.637 583.124 451.316 582.965 451.024C582.806 450.732 582.588 450.477 582.325 450.274C582.062 450.072 581.76 449.926 581.437 449.846C581.115 449.767 580.779 449.755 580.452 449.813C549.199 454.359 525.186 474.364 515.183 483.997C515.183 481.774 515.183 479.551 515.419 477.261C515.456 476.709 515.302 476.162 514.981 475.712C514.706 471.485 513.493 467.374 511.431 463.674C509.369 459.975 506.509 456.782 503.059 454.326C495.212 449.24 484.232 448.567 470.39 452.271C469.983 452.388 469.604 452.59 469.279 452.863C468.955 453.135 468.69 453.473 468.504 453.854C468.321 454.214 468.225 454.612 468.225 455.016C468.225 455.42 468.321 455.818 468.504 456.178C469.077 457.155 481.168 477.564 502.486 480.09C504.794 480.293 507.116 480.293 509.424 480.09C509.155 486.219 509.053 492.383 509.155 498.546C501.733 492.183 493.011 487.517 483.599 484.876C474.186 482.235 464.311 481.682 454.662 483.256C453.9 483.379 453.213 483.788 452.743 484.401C452.52 484.695 452.363 485.034 452.281 485.394C452.2 485.754 452.197 486.127 452.271 486.489C456.515 507.336 466.787 521.38 479.753 524.007C480.326 524.007 480.932 524.209 481.572 524.31C488.307 525.085 497.94 523.097 509.66 511.95C510.486 526.195 512.093 540.384 514.476 554.452C503.16 547.144 477.193 533.774 454.09 546.774C453.504 547.084 453.054 547.598 452.824 548.22C452.594 548.841 452.601 549.525 452.844 550.142C462.24 569.136 472.478 579.038 484.199 580.452H484.502C494.269 581.496 504.709 576.647 516.53 565.768C519.191 579.509 522.357 592.711 525.724 604.97C514.813 595.844 500.87 595.439 482.649 603.623C482.251 603.807 481.899 604.078 481.619 604.416C481.339 604.754 481.139 605.151 481.033 605.577C480.927 605.981 480.93 606.406 481.043 606.808C481.155 607.211 481.373 607.576 481.673 607.867C482.447 608.641 495.683 621.338 511.984 623.191C518.211 623.973 524.531 622.883 530.136 620.058C536.816 642.482 544.962 664.443 554.52 685.799C554.712 686.202 555.005 686.547 555.371 686.801C555.738 687.055 556.164 687.209 556.608 687.247C557.208 687.305 557.813 687.2 558.359 686.944C559.052 686.608 559.591 686.02 559.866 685.301C560.141 684.582 560.132 683.784 559.841 683.071C547.26 654.783 537.064 625.493 529.362 595.507Z" fill="#407BFF"/>
<g opacity="0.6">
<path d="M529.362 595.507C533.241 597.214 537.348 598.348 541.553 598.875C550.199 599.927 558.94 597.9 566.24 593.149C577.792 585.673 584.797 572.571 583.685 560.515C583.626 559.925 583.348 559.38 582.904 558.986C582.461 558.593 581.887 558.381 581.294 558.393C570.839 558.318 560.498 560.57 551.021 564.985C541.544 569.4 533.168 575.869 526.499 583.921C523.333 570.45 520.538 556.204 518.517 541.52C524.121 545.811 530.708 548.636 537.68 549.737C540.566 550.088 543.49 549.962 546.336 549.367C561.39 546.268 573.279 530.136 584.123 513.129C584.323 512.824 584.456 512.48 584.514 512.12C584.572 511.761 584.554 511.393 584.46 511.041C584.369 510.7 584.2 510.386 583.966 510.123C583.732 509.86 583.44 509.655 583.113 509.525C555.665 498.074 526.566 522.828 517.271 531.753C515.858 519.386 515.105 506.952 515.015 494.504C520.888 496.373 526.918 497.704 533.033 498.478C547.818 500.196 560.245 497.636 569.136 490.766C579.678 482.683 584.561 469.245 583.248 451.968C583.22 451.637 583.124 451.316 582.965 451.024C582.806 450.732 582.588 450.477 582.325 450.274C582.062 450.072 581.76 449.926 581.437 449.846C581.115 449.767 580.779 449.755 580.452 449.813C549.199 454.359 525.186 474.364 515.183 483.997C515.183 481.774 515.183 479.551 515.419 477.261C515.456 476.709 515.302 476.162 514.981 475.712C514.706 471.485 513.493 467.374 511.431 463.674C509.369 459.975 506.509 456.782 503.059 454.326C495.212 449.24 484.232 448.567 470.39 452.271C469.983 452.388 469.604 452.59 469.279 452.863C468.955 453.135 468.69 453.473 468.504 453.854C468.321 454.214 468.225 454.612 468.225 455.016C468.225 455.42 468.321 455.818 468.504 456.178C469.077 457.155 481.168 477.564 502.486 480.09C504.794 480.293 507.116 480.293 509.424 480.09C509.155 486.219 509.053 492.383 509.155 498.546C501.733 492.183 493.011 487.517 483.599 484.876C474.186 482.235 464.311 481.682 454.662 483.256C453.9 483.379 453.213 483.788 452.743 484.401C452.52 484.695 452.363 485.034 452.281 485.394C452.2 485.754 452.197 486.127 452.271 486.489C456.515 507.336 466.787 521.38 479.753 524.007C480.326 524.007 480.932 524.209 481.572 524.31C488.307 525.085 497.94 523.097 509.66 511.95C510.486 526.195 512.093 540.384 514.476 554.452C503.16 547.144 477.193 533.774 454.09 546.774C453.504 547.084 453.054 547.598 452.824 548.22C452.594 548.841 452.601 549.525 452.844 550.142C462.24 569.136 472.478 579.038 484.199 580.452H484.502C494.269 581.496 504.709 576.647 516.53 565.768C519.191 579.509 522.357 592.711 525.724 604.97C514.813 595.844 500.87 595.439 482.649 603.623C482.251 603.807 481.899 604.078 481.619 604.416C481.339 604.754 481.139 605.151 481.033 605.577C480.927 605.981 480.93 606.406 481.043 606.808C481.155 607.211 481.373 607.576 481.673 607.867C482.447 608.641 495.683 621.338 511.984 623.191C518.211 623.973 524.531 622.883 530.136 620.058C536.816 642.482 544.962 664.443 554.52 685.799C554.712 686.202 555.005 686.547 555.371 686.801C555.738 687.055 556.164 687.209 556.608 687.247C557.208 687.305 557.813 687.2 558.359 686.944C559.052 686.608 559.591 686.02 559.866 685.301C560.141 684.582 560.132 683.784 559.841 683.071C547.26 654.783 537.064 625.493 529.362 595.507Z" fill="black"/>
</g>
<path d="M1407.26 516.395H592.913C579.54 516.395 568.698 527.237 568.698 540.61V1042.15C568.698 1055.53 579.54 1066.37 592.913 1066.37H1407.26C1420.64 1066.37 1431.48 1055.53 1431.48 1042.15V540.61C1431.48 527.237 1420.64 516.395 1407.26 516.395Z" fill="#407BFF"/>
<path opacity="0.6" d="M1407.26 516.395H592.913C579.54 516.395 568.698 527.237 568.698 540.61V1042.15C568.698 1055.53 579.54 1066.37 592.913 1066.37H1407.26C1420.64 1066.37 1431.48 1055.53 1431.48 1042.15V540.61C1431.48 527.237 1420.64 516.395 1407.26 516.395Z" fill="black"/>
<path d="M1110.45 1216.61H908.988C928.724 1142.18 916.903 1061.99 873.558 987.594H1075.02C1118.37 1061.99 1130.19 1142.18 1110.45 1216.61Z" fill="#407BFF"/>
<path d="M1099.95 1216.61H898.447C918.182 1142.18 906.395 1061.99 863.017 987.594H1064.52C1108.03 1061.99 1119.68 1142.18 1099.95 1216.61Z" fill="#407BFF"/>
<path d="M1106.82 1094.56H903.128C896.133 1056.85 882.555 1020.66 863.017 987.661H1066.71C1086.22 1020.68 1099.79 1056.86 1106.82 1094.56Z" fill="#407BFF"/>
<g opacity="0.4">
<path d="M1110.45 1216.61H908.988C928.724 1142.18 916.902 1061.99 873.558 987.594H1075.02C1118.37 1061.99 1130.19 1142.18 1110.45 1216.61Z" fill="black"/>
<path d="M1099.95 1216.61H898.447C918.182 1142.18 906.395 1061.99 863.017 987.594H1064.52C1108.03 1061.99 1119.68 1142.18 1099.95 1216.61Z" fill="black"/>
<path d="M1106.82 1094.56H903.128C896.133 1056.85 882.555 1020.66 863.017 987.661H1066.71C1086.22 1020.68 1099.79 1056.86 1106.82 1094.56Z" fill="black"/>
</g>
<path d="M1099.95 1216.61H898.447C918.182 1142.18 906.395 1061.99 863.017 987.594H1064.52C1108.03 1061.99 1119.68 1142.18 1099.95 1216.61Z" fill="#407BFF"/>
<path opacity="0.2" d="M1099.95 1216.61H898.447C918.182 1142.18 906.395 1061.99 863.017 987.594H1064.52C1108.03 1061.99 1119.68 1142.18 1099.95 1216.61Z" fill="black"/>
<path opacity="0.2" d="M1104.66 1094.56H902.926C895.989 1056.89 882.541 1020.71 863.185 987.661H1064.92C1084.28 1020.71 1097.72 1056.89 1104.66 1094.56Z" fill="black"/>
<path d="M1395.81 516.395H581.463C568.089 516.395 557.248 527.237 557.248 540.61V1042.15C557.248 1055.53 568.089 1066.37 581.463 1066.37H1395.81C1409.19 1066.37 1420.03 1055.53 1420.03 1042.15V540.61C1420.03 527.237 1409.19 516.395 1395.81 516.395Z" fill="#407BFF"/>
<path opacity="0.3" d="M1395.81 516.395H581.463C568.089 516.395 557.248 527.237 557.248 540.61V1042.15C557.248 1055.53 568.089 1066.37 581.463 1066.37H1395.81C1409.19 1066.37 1420.03 1055.53 1420.03 1042.15V540.61C1420.03 527.237 1409.19 516.395 1395.81 516.395Z" fill="black"/>
<path d="M1062.56 1200.68H832.537C828.313 1200.68 824.261 1202.36 821.273 1205.34C818.286 1208.33 816.607 1212.38 816.607 1216.61H1078.49C1078.49 1212.38 1076.81 1208.33 1073.83 1205.34C1070.84 1202.36 1066.79 1200.68 1062.56 1200.68Z" fill="#407BFF"/>
<path opacity="0.3" d="M1062.56 1200.68H832.537C828.313 1200.68 824.261 1202.36 821.273 1205.34C818.286 1208.33 816.607 1212.38 816.607 1216.61H1078.49C1078.49 1212.38 1076.81 1208.33 1073.83 1205.34C1070.84 1202.36 1066.79 1200.68 1062.56 1200.68Z" fill="black"/>
<path d="M1420.03 544.248H557.248V987.56H1420.03V544.248Z" fill="#407BFF"/>
<path opacity="0.84" d="M1419.73 544.248H556.945V987.56H1419.73V544.248Z" fill="#FAFAFA"/>
<path opacity="0.23" d="M1294.64 578.499H713.382C708.1 578.499 703.817 582.781 703.817 588.064V928.084C703.817 933.366 708.1 937.649 713.382 937.649H1294.64C1299.93 937.649 1304.21 933.366 1304.21 928.084V588.064C1304.21 582.781 1299.93 578.499 1294.64 578.499Z" fill="#407BFF"/>
<path opacity="0.67" d="M1301.68 603.219V928.084C1301.68 930.621 1300.67 933.053 1298.88 934.847C1297.09 936.641 1294.65 937.649 1292.12 937.649H710.856C708.322 937.64 705.895 936.629 704.103 934.837C702.311 933.046 701.3 930.618 701.292 928.084V603.219H1301.68Z" fill="#FAFAFA"/>
<path opacity="0.41" d="M1299.93 615.95H703.043V924.952H1299.93V615.95Z" fill="white"/>
<path opacity="0.19" d="M1178.05 829.271C1162.36 829.271 1147.03 824.619 1133.98 815.904C1120.94 807.189 1110.77 794.802 1104.77 780.309C1098.77 765.817 1097.2 749.869 1100.26 734.484C1103.32 719.099 1110.87 704.966 1121.96 693.874C1133.06 682.782 1147.19 675.228 1162.57 672.168C1177.96 669.108 1193.91 670.678 1208.4 676.681C1222.89 682.684 1235.28 692.85 1243.99 705.893C1252.71 718.936 1257.36 734.271 1257.36 749.957C1257.33 770.984 1248.97 791.142 1234.1 806.011C1219.23 820.879 1199.07 829.244 1178.05 829.271ZM1178.05 671.486C1162.53 671.486 1147.36 676.088 1134.45 684.711C1121.55 693.333 1111.49 705.589 1105.55 719.928C1099.61 734.266 1098.06 750.044 1101.08 765.266C1104.11 780.488 1111.59 794.47 1122.56 805.445C1133.53 816.419 1147.52 823.893 1162.74 826.921C1177.96 829.949 1193.74 828.395 1208.08 822.455C1222.42 816.516 1234.67 806.458 1243.29 793.554C1251.92 780.649 1256.52 765.477 1256.52 749.957C1256.5 729.151 1248.23 709.202 1233.52 694.489C1218.8 679.777 1198.85 671.504 1178.05 671.486Z" fill="#407BFF"/>
<path opacity="0.19" d="M1044.71 829.271C1029.03 829.271 1013.69 824.619 1000.65 815.904C987.606 807.189 977.44 794.802 971.437 780.309C965.434 765.817 963.863 749.869 966.924 734.484C969.984 719.099 977.538 704.966 988.63 693.874C999.722 682.782 1013.85 675.228 1029.24 672.168C1044.63 669.108 1060.57 670.678 1075.07 676.681C1089.56 682.684 1101.94 692.85 1110.66 705.893C1119.37 718.936 1124.03 734.271 1124.03 749.957C1123.99 770.981 1115.62 791.134 1100.76 806.001C1085.89 820.867 1065.74 829.235 1044.71 829.271ZM1044.71 671.486C1029.19 671.486 1014.02 676.088 1001.12 684.711C988.212 693.333 978.154 705.589 972.215 719.928C966.276 734.266 964.722 750.044 967.75 765.266C970.777 780.488 978.251 794.47 989.226 805.445C1000.2 816.419 1014.18 823.893 1029.4 826.921C1044.63 829.949 1060.4 828.395 1074.74 822.455C1089.08 816.516 1101.34 806.458 1109.96 793.554C1118.58 780.649 1123.18 765.477 1123.18 749.957C1123.16 729.154 1114.88 709.21 1100.17 694.499C1085.46 679.789 1065.52 671.513 1044.71 671.486Z" fill="#407BFF"/>
<path opacity="0.19" d="M1256.96 873.592H788.822C788.766 873.592 788.711 873.58 788.66 873.558C788.608 873.536 788.562 873.503 788.524 873.462C788.486 873.42 788.457 873.372 788.439 873.319C788.421 873.266 788.414 873.21 788.418 873.154V860.12C788.414 860.064 788.421 860.008 788.439 859.955C788.457 859.902 788.486 859.854 788.524 859.812C788.562 859.771 788.608 859.738 788.66 859.716C788.711 859.694 788.766 859.682 788.822 859.682H1256.96C1257.01 859.682 1257.07 859.694 1257.12 859.716C1257.17 859.738 1257.22 859.771 1257.25 859.812C1257.29 859.854 1257.32 859.902 1257.34 859.955C1257.36 860.008 1257.37 860.064 1257.36 860.12V873.154C1257.37 873.21 1257.36 873.266 1257.34 873.319C1257.32 873.372 1257.29 873.42 1257.25 873.462C1257.22 873.503 1257.17 873.536 1257.12 873.558C1257.07 873.58 1257.01 873.592 1256.96 873.592ZM789.126 872.75H1256.52V860.524H789.126V872.75Z" fill="#407BFF"/>
<path opacity="0.19" d="M1283.16 896.359H719.916C719.86 896.359 719.804 896.347 719.753 896.325C719.702 896.303 719.655 896.27 719.617 896.229C719.579 896.187 719.55 896.139 719.532 896.086C719.514 896.033 719.507 895.977 719.512 895.921V644.947C719.507 644.891 719.514 644.835 719.532 644.782C719.55 644.729 719.579 644.68 719.617 644.639C719.655 644.598 719.702 644.565 719.753 644.543C719.804 644.52 719.86 644.509 719.916 644.509H1283.16C1283.21 644.509 1283.27 644.52 1283.32 644.543C1283.37 644.565 1283.42 644.598 1283.46 644.639C1283.49 644.68 1283.52 644.729 1283.54 644.782C1283.56 644.835 1283.57 644.891 1283.56 644.947V895.853C1283.58 895.914 1283.58 895.978 1283.57 896.039C1283.55 896.101 1283.53 896.158 1283.49 896.207C1283.45 896.256 1283.4 896.295 1283.34 896.322C1283.28 896.348 1283.22 896.361 1283.16 896.359ZM720.455 895.517H1282.89V645.351H720.354L720.455 895.517Z" fill="#407BFF"/>
<path d="M1275.65 590.926C1275.64 591.934 1275.93 592.92 1276.49 593.761C1277.04 594.602 1277.84 595.259 1278.76 595.649C1279.69 596.039 1280.72 596.144 1281.7 595.952C1282.69 595.76 1283.6 595.278 1284.32 594.568C1285.03 593.858 1285.52 592.952 1285.72 591.965C1285.92 590.977 1285.82 589.953 1285.43 589.022C1285.05 588.091 1284.4 587.294 1283.56 586.734C1282.73 586.174 1281.74 585.875 1280.73 585.875C1280.07 585.87 1279.41 585.998 1278.79 586.249C1278.17 586.501 1277.61 586.873 1277.14 587.342C1276.67 587.812 1276.29 588.37 1276.04 588.985C1275.78 589.6 1275.65 590.26 1275.65 590.926Z" fill="white"/>
<path d="M1262.72 596.012C1265.52 596.012 1267.8 593.735 1267.8 590.926C1267.8 588.118 1265.52 585.841 1262.72 585.841C1259.91 585.841 1257.63 588.118 1257.63 590.926C1257.63 593.735 1259.91 596.012 1262.72 596.012Z" fill="white"/>
<path d="M1244.7 596.012C1247.51 596.012 1249.78 593.735 1249.78 590.926C1249.78 588.118 1247.51 585.841 1244.7 585.841C1241.89 585.841 1239.61 588.118 1239.61 590.926C1239.61 593.735 1241.89 596.012 1244.7 596.012Z" fill="white"/>
<path d="M1301.68 602.579H701.292V603.859H1301.68V602.579Z" fill="#407BFF"/>
<path opacity="0.47" d="M787.846 544.248L708.6 987.56H787.037L866.283 544.248H787.846Z" fill="#FAFAFA"/>
<path opacity="0.47" d="M885.413 544.248L806.201 987.56H845.403L924.649 544.248H885.413Z" fill="#FAFAFA"/>
<path opacity="0.4" d="M1323.77 544.248L1244.53 987.56H1264.16L1343.38 544.248H1323.77Z" fill="white"/>
<path opacity="0.4" d="M1289.25 544.248L1210.01 987.56H1229.64L1308.86 544.248H1289.25Z" fill="white"/>
<path d="M1117.36 1200.68H1076.17C1071.94 1200.68 1067.89 1202.36 1064.9 1205.34C1061.92 1208.33 1060.24 1212.38 1060.24 1216.61H1133.25C1133.26 1214.52 1132.85 1212.45 1132.05 1210.52C1131.26 1208.58 1130.09 1206.83 1128.61 1205.35C1127.13 1203.87 1125.38 1202.69 1123.45 1201.89C1121.52 1201.09 1119.45 1200.68 1117.36 1200.68Z" fill="#407BFF"/>
<path opacity="0.4" d="M1117.36 1200.68H1076.17C1071.94 1200.68 1067.89 1202.36 1064.9 1205.34C1061.92 1208.33 1060.24 1212.38 1060.24 1216.61H1133.25C1133.26 1214.52 1132.85 1212.45 1132.05 1210.52C1131.26 1208.58 1130.09 1206.83 1128.61 1205.35C1127.13 1203.87 1125.38 1202.69 1123.45 1201.89C1121.52 1201.09 1119.45 1200.68 1117.36 1200.68Z" fill="black"/>
<path d="M1005.14 1027.97C1005.14 1031.24 1004.17 1034.43 1002.36 1037.14C1000.55 1039.86 997.969 1041.97 994.953 1043.22C991.938 1044.47 988.62 1044.8 985.419 1044.16C982.217 1043.52 979.277 1041.95 976.969 1039.64C974.661 1037.34 973.089 1034.4 972.453 1031.19C971.816 1027.99 972.143 1024.68 973.392 1021.66C974.641 1018.64 976.756 1016.07 979.47 1014.25C982.184 1012.44 985.374 1011.47 988.638 1011.47C993.015 1011.47 997.212 1013.21 1000.31 1016.31C1003.4 1019.4 1005.14 1023.6 1005.14 1027.97Z" fill="#407BFF"/>
<path opacity="0.5" d="M1005.14 1027.97C1005.14 1031.24 1004.17 1034.43 1002.36 1037.14C1000.55 1039.86 997.969 1041.97 994.953 1043.22C991.938 1044.47 988.62 1044.8 985.419 1044.16C982.217 1043.52 979.277 1041.95 976.969 1039.64C974.661 1037.34 973.089 1034.4 972.453 1031.19C971.816 1027.99 972.143 1024.68 973.392 1021.66C974.641 1018.64 976.756 1016.07 979.47 1014.25C982.184 1012.44 985.374 1011.47 988.638 1011.47C993.015 1011.47 997.212 1013.21 1000.31 1016.31C1003.4 1019.4 1005.14 1023.6 1005.14 1027.97Z" fill="black"/>
<path d="M847.625 1159.69C845.302 1079.07 845.504 587.39 850.185 547.009L856.55 538.219C856.55 538.219 853.62 546.033 852.913 684.216C852.206 822.4 851.263 1139.18 852.037 1159.69H847.625Z" fill="#407BFF"/>
<path d="M885.447 860.659C912.39 815.799 941.892 783.905 963.244 766.359C984.597 748.812 928.623 862.747 906.732 905.149C884.84 947.55 857.864 994.431 849.175 1034.04C847.491 953.478 858.47 905.519 885.447 860.659Z" fill="#407BFF"/>
<path d="M849.714 552.667C855.237 501.678 847.76 454.561 875.511 394.849C903.263 335.137 924.379 288.256 951.154 266.466C957.586 261.212 935.594 365.01 910.032 423.476C892.014 464.732 886.221 494.201 867.092 522.02C862.612 528.486 849.714 552.667 849.714 552.667Z" fill="#407BFF"/>
<path d="M849.579 824.724C855.169 761.778 860.221 701.157 896.358 611.605C905.149 589.781 986.617 437.284 1007.87 420.782C1018.28 412.665 981.869 514.004 946.304 599.279C919.664 663.268 908.618 681.589 878.947 755.817C867.327 785.219 849.579 824.724 849.579 824.724Z" fill="#407BFF"/>
<path d="M802.159 514.105C771.848 473.051 742.548 445.3 721.027 430.784C699.506 416.269 758.074 517.204 786.229 561.255C814.385 605.307 839.879 643.533 851.532 681.724C845.941 601.333 832.47 555.193 802.159 514.105Z" fill="#407BFF"/>
<path d="M849.579 936.268C843.853 892.485 832.066 841.058 815.227 802.934C798.387 764.81 772.455 706.343 751.843 686.507C746.892 681.724 773.398 795.457 790.439 825.701C807.48 855.944 819.942 884.47 830.651 901.612C834.221 907.169 849.579 936.268 849.579 936.268Z" fill="#407BFF"/>
<path opacity="0.5" d="M847.625 1159.69C845.302 1079.07 845.504 587.39 850.185 547.009L856.55 538.219C856.55 538.219 853.62 546.033 852.913 684.216C852.206 822.4 851.263 1139.18 852.037 1159.69H847.625Z" fill="white"/>
<path opacity="0.5" d="M885.447 860.659C912.39 815.799 941.892 783.905 963.244 766.359C984.597 748.812 928.623 862.747 906.732 905.149C884.84 947.55 857.864 994.431 849.175 1034.04C847.491 953.478 858.47 905.519 885.447 860.659Z" fill="white"/>
<path opacity="0.5" d="M849.714 552.667C855.237 501.678 847.76 454.561 875.511 394.849C903.263 335.137 924.379 288.256 951.154 266.466C957.586 261.212 935.594 365.01 910.032 423.476C892.014 464.732 886.221 494.201 867.092 522.02C862.612 528.486 849.714 552.667 849.714 552.667Z" fill="white"/>
<path opacity="0.5" d="M849.579 824.724C855.169 761.778 860.221 701.157 896.358 611.605C905.149 589.781 986.617 437.284 1007.87 420.782C1018.28 412.665 981.869 514.004 946.304 599.279C919.664 663.268 908.618 681.589 878.947 755.817C867.327 785.219 849.579 824.724 849.579 824.724Z" fill="white"/>
<path opacity="0.5" d="M802.159 514.105C771.848 473.051 742.548 445.3 721.027 430.784C699.506 416.269 758.074 517.204 786.229 561.255C814.385 605.307 839.879 643.533 851.532 681.724C845.941 601.333 832.47 555.193 802.159 514.105Z" fill="white"/>
<path opacity="0.5" d="M849.579 936.268C843.853 892.485 832.066 841.058 815.227 802.934C798.387 764.81 772.455 706.343 751.843 686.507C746.892 681.724 773.398 795.457 790.439 825.701C807.48 855.944 819.942 884.47 830.651 901.612C834.221 907.169 849.579 936.268 849.579 936.268Z" fill="white"/>
<path d="M913.703 1216.61H786.061L776.429 1143.26H923.335L913.703 1216.61Z" fill="#263238"/>
<path d="M932.833 1151.81H766.898L762.149 1127.06H937.581L932.833 1151.81Z" fill="#263238"/>
<path d="M774.442 594.665H394.714C381.713 594.665 371.173 605.205 371.173 618.206V1193.07C371.173 1206.07 381.713 1216.61 394.714 1216.61H774.442C787.443 1216.61 797.983 1206.07 797.983 1193.07V618.206C797.983 605.205 787.443 594.665 774.442 594.665Z" fill="#407BFF"/>
<path opacity="0.6" d="M774.442 594.665H394.714C381.713 594.665 371.173 605.205 371.173 618.206V1193.07C371.173 1206.07 381.713 1216.61 394.714 1216.61H774.442C787.443 1216.61 797.983 1206.07 797.983 1193.07V618.206C797.983 605.205 787.443 594.665 774.442 594.665Z" fill="black"/>
<path d="M763.159 594.665H383.432C370.43 594.665 359.891 605.205 359.891 618.206V1193.07C359.891 1206.07 370.43 1216.61 383.432 1216.61H763.159C776.161 1216.61 786.701 1206.07 786.701 1193.07V618.206C786.701 605.205 776.161 594.665 763.159 594.665Z" fill="#407BFF"/>
<path opacity="0.3" d="M763.159 594.665H383.432C370.43 594.665 359.891 605.205 359.891 618.206V1193.07C359.891 1206.07 370.43 1216.61 383.432 1216.61H763.159C776.161 1216.61 786.701 1206.07 786.701 1193.07V618.206C786.701 605.205 776.161 594.665 763.159 594.665Z" fill="black"/>
<path d="M786.701 621.675H359.891V1161.54H786.701V621.675Z" fill="#FAFAFA"/>
<path opacity="0.1" d="M786.701 621.675H359.891V1161.54H786.701V621.675Z" fill="#407BFF"/>
<path opacity="0.48" d="M511.209 623.022L413.541 1162.89H488.139L585.807 623.022H511.209Z" fill="#FAFAFA"/>
<path opacity="0.48" d="M607.968 621.675L510.3 1161.58H547.582L645.25 621.675H607.968Z" fill="#FAFAFA"/>
<path d="M573.279 1204.79C582.132 1204.79 589.31 1197.61 589.31 1188.76C589.31 1179.9 582.132 1172.73 573.279 1172.73C564.425 1172.73 557.248 1179.9 557.248 1188.76C557.248 1197.61 564.425 1204.79 573.279 1204.79Z" fill="#407BFF"/>
<path opacity="0.5" d="M573.279 1204.79C582.132 1204.79 589.31 1197.61 589.31 1188.76C589.31 1179.9 582.132 1172.73 573.279 1172.73C564.425 1172.73 557.248 1179.9 557.248 1188.76C557.248 1197.61 564.425 1204.79 573.279 1204.79Z" fill="black"/>
<path d="M576.983 607.092C576.983 607.825 576.766 608.541 576.359 609.15C575.952 609.76 575.373 610.234 574.696 610.515C574.019 610.795 573.275 610.869 572.556 610.726C571.837 610.583 571.177 610.23 570.659 609.712C570.141 609.194 569.788 608.534 569.645 607.815C569.502 607.096 569.576 606.351 569.856 605.675C570.136 604.998 570.611 604.419 571.221 604.012C571.83 603.605 572.546 603.388 573.279 603.388C574.261 603.388 575.204 603.778 575.898 604.473C576.593 605.167 576.983 606.11 576.983 607.092Z" fill="#407BFF"/>
<path opacity="0.5" d="M576.983 607.092C576.983 607.825 576.766 608.541 576.359 609.15C575.952 609.76 575.373 610.234 574.696 610.515C574.019 610.795 573.275 610.869 572.556 610.726C571.837 610.583 571.177 610.23 570.659 609.712C570.141 609.194 569.788 608.534 569.645 607.815C569.502 607.096 569.576 606.351 569.856 605.675C570.136 604.998 570.611 604.419 571.221 604.012C571.83 603.605 572.546 603.388 573.279 603.388C574.261 603.388 575.204 603.778 575.898 604.473C576.593 605.167 576.983 606.11 576.983 607.092Z" fill="black"/>
<path d="M1106.38 501.813L1132.08 496.997C1132.49 496.928 1132.88 496.77 1133.22 496.533C1133.56 496.296 1133.85 495.986 1134.06 495.626C1134.27 495.266 1134.39 494.863 1134.43 494.448C1134.47 494.033 1134.41 493.615 1134.26 493.225L1114.06 433.377C1113.74 432.514 1113.14 431.787 1112.34 431.32C1111.55 430.854 1110.62 430.676 1109.71 430.818L1084.05 435.6C1083.63 435.667 1083.24 435.826 1082.89 436.065C1082.55 436.305 1082.26 436.618 1082.05 436.982C1081.84 437.347 1081.71 437.754 1081.68 438.173C1081.65 438.592 1081.71 439.013 1081.86 439.406L1102.07 499.253C1102.37 500.118 1102.97 500.848 1103.76 501.315C1104.55 501.783 1105.47 501.959 1106.38 501.813Z" fill="#407BFF"/>
<path opacity="0.6" d="M1106.38 501.813L1132.08 496.997C1132.49 496.928 1132.88 496.77 1133.22 496.533C1133.56 496.296 1133.85 495.986 1134.06 495.626C1134.27 495.266 1134.39 494.863 1134.43 494.448C1134.47 494.033 1134.41 493.615 1134.26 493.225L1114.06 433.377C1113.74 432.514 1113.14 431.787 1112.34 431.32C1111.55 430.854 1110.62 430.676 1109.71 430.818L1084.05 435.6C1083.63 435.667 1083.24 435.826 1082.89 436.065C1082.55 436.305 1082.26 436.618 1082.05 436.982C1081.84 437.347 1081.71 437.754 1081.68 438.173C1081.65 438.592 1081.71 439.013 1081.86 439.406L1102.07 499.253C1102.37 500.118 1102.97 500.848 1103.76 501.315C1104.55 501.783 1105.47 501.959 1106.38 501.813Z" fill="black"/>
<path d="M1109.54 501.341L1135.21 496.559C1135.62 496.491 1136.02 496.333 1136.36 496.093C1136.71 495.854 1137 495.541 1137.21 495.177C1137.42 494.812 1137.54 494.405 1137.58 493.986C1137.61 493.567 1137.55 493.146 1137.4 492.753L1117.19 432.906C1116.87 432.043 1116.27 431.316 1115.48 430.849C1114.68 430.382 1113.75 430.205 1112.85 430.346L1087.18 435.162C1086.77 435.225 1086.37 435.38 1086.03 435.615C1085.68 435.851 1085.39 436.161 1085.18 436.523C1084.97 436.885 1084.85 437.29 1084.81 437.707C1084.78 438.125 1084.84 438.544 1084.99 438.934L1105.2 498.781C1105.52 499.645 1106.12 500.372 1106.91 500.839C1107.71 501.305 1108.64 501.483 1109.54 501.341Z" fill="#407BFF"/>
<path opacity="0.3" d="M1109.54 501.341L1135.21 496.559C1135.62 496.491 1136.02 496.333 1136.36 496.093C1136.71 495.854 1137 495.541 1137.21 495.177C1137.42 494.812 1137.54 494.405 1137.58 493.986C1137.61 493.567 1137.55 493.146 1137.4 492.753L1117.19 432.906C1116.87 432.043 1116.27 431.316 1115.48 430.849C1114.68 430.382 1113.75 430.205 1112.85 430.346L1087.18 435.162C1086.77 435.225 1086.37 435.38 1086.03 435.615C1085.68 435.851 1085.39 436.161 1085.18 436.523C1084.97 436.885 1084.85 437.29 1084.81 437.707C1084.78 438.125 1084.84 438.544 1084.99 438.934L1105.2 498.781C1105.52 499.645 1106.12 500.372 1106.91 500.839C1107.71 501.305 1108.64 501.483 1109.54 501.341Z" fill="black"/>
<path d="M1103.82 494.706L1136.02 488.678L1117.9 434.994L1085.67 441.023L1103.82 494.706Z" fill="#FAFAFA"/>
<path opacity="0.14" d="M1103.82 494.706L1136.02 488.678L1117.9 434.994L1085.67 441.023L1103.82 494.706Z" fill="#407BFF"/>
<path d="M1085.67 464.227L1088.19 458.367L1112.44 485.613L1091.46 487.23L1085.67 464.227Z" fill="#E58A7B"/>
<path d="M671.385 252.927C700.085 252.927 723.351 229.661 723.351 200.961C723.351 172.261 700.085 148.995 671.385 148.995C642.685 148.995 619.419 172.261 619.419 200.961C619.419 229.661 642.685 252.927 671.385 252.927Z" fill="#407BFF"/>
<path d="M671.385 262.694C667.818 262.696 664.257 262.392 660.742 261.785L661.315 258.417C668.002 259.558 674.835 259.558 681.522 258.417L682.095 261.785C678.557 262.389 674.974 262.693 671.385 262.694ZM640.636 254.476C634.413 250.897 628.862 246.258 624.235 240.769L626.828 238.58C631.191 243.787 636.435 248.187 642.32 251.58L640.636 254.476ZM702.201 254.476L700.517 251.58C706.402 248.187 711.646 243.787 716.009 238.58L718.569 240.735C713.945 246.169 708.405 250.751 702.201 254.274V254.476ZM613.491 222.279C611.031 215.523 609.777 208.387 609.786 201.197H613.154C613.103 207.977 614.243 214.714 616.522 221.101L613.491 222.279ZM729.278 222.279L726.113 221.134C728.392 214.748 729.532 208.011 729.481 201.23H731.771H732.848C732.866 208.311 731.658 215.341 729.278 222.01V222.279ZM616.59 181.427L613.424 180.282C615.871 173.52 619.484 167.239 624.1 161.725L626.659 163.881C622.336 169.019 618.929 174.863 616.59 181.158V181.427ZM726.045 181.09C723.723 174.729 720.303 168.825 715.942 163.645L718.535 161.456C723.168 166.938 726.815 173.182 729.312 179.912L726.045 181.09ZM642.118 150.78L640.434 147.883C646.674 144.234 653.518 141.736 660.641 140.508L661.214 143.875C654.506 144.978 648.043 147.246 642.118 150.577V150.78ZM700.315 150.78C694.431 147.429 688 145.148 681.32 144.044L681.893 140.676C689 141.888 695.84 144.339 702.1 147.917L700.315 150.78Z" fill="#407BFF"/>
<path d="M1075.66 463.722H1065.56V467.09H1075.66V463.722Z" fill="#407BFF"/>
<path d="M1045.32 467.09H1025.11V463.722H1045.32V467.09ZM1004.64 464.766C997.946 462.918 991.584 460.044 985.775 456.245L987.628 453.45C993.14 457.036 999.172 459.751 1005.51 461.499L1004.64 464.766ZM970.384 442.471C965.96 437.139 962.392 431.151 959.809 424.722L962.941 423.476C965.429 429.572 968.837 435.251 973.045 440.315L970.384 442.471ZM955.094 404.582C955.094 402.865 955.094 401.214 955.094 399.396C955.087 394.204 955.674 389.029 956.845 383.971L960.213 384.745C959.107 389.55 958.553 394.465 958.563 399.396C958.563 401.046 958.563 402.764 958.563 404.346L955.094 404.582ZM967.286 366.525L964.389 364.808C967.93 358.849 972.359 353.466 977.524 348.844L979.781 351.37C974.873 355.722 970.659 360.799 967.286 366.424V366.525ZM996.25 340.626L994.869 337.562C1001.18 334.71 1007.89 332.858 1014.77 332.072L1015.18 335.44C1008.65 336.161 1002.26 337.876 996.25 340.525V340.626ZM1077.89 334.968H1075.66V331.6H1077.89C1083.75 331.597 1089.58 330.804 1095.23 329.243L1096.14 332.611C1090.19 334.186 1084.05 334.945 1077.89 334.867V334.968ZM1055.42 334.968H1035.22V331.6H1055.42V334.968ZM1114.97 323.922L1113.11 321.126C1118.63 317.518 1123.56 313.089 1127.73 307.992L1130.36 310.113C1125.96 315.445 1120.77 320.068 1114.97 323.821V323.922ZM1140.87 292.331L1137.73 291.085C1140.16 284.955 1141.65 278.495 1142.15 271.922L1145.51 272.191C1144.98 279.066 1143.41 285.821 1140.87 292.23V292.331ZM1140.6 252.354C1139.09 245.939 1136.6 239.794 1133.22 234.134L1136.12 232.417C1139.67 238.368 1142.28 244.832 1143.86 251.58L1140.6 252.354ZM1120.69 219.013C1115.77 214.643 1110.22 211.044 1104.22 208.336L1105.57 205.272C1111.89 208.096 1117.74 211.879 1122.92 216.487L1120.69 219.013ZM1085.26 203.15C1082.82 202.88 1080.37 202.745 1077.92 202.746H1065.22V199.378H1077.89C1080.48 199.351 1083.06 199.497 1085.63 199.816L1085.26 203.15ZM1044.85 202.746H1024.64V199.378H1044.85V202.746ZM1004.43 202.746H984.226V199.378H1004.43V202.746ZM964.019 202.746H943.812V199.378H964.019V202.746ZM923.605 202.746H903.397V199.378H923.605V202.746ZM883.19 202.746H862.983V199.378H883.19V202.746ZM842.776 202.746H822.568V199.378H842.776V202.746ZM802.361 202.746H782.154V199.378H802.361V202.746Z" fill="#407BFF"/>
<path d="M761.341 199.277H751.237V202.645H761.341V199.277Z" fill="#407BFF"/>
<path d="M672.799 273.538H669.97V281.992H672.799V273.538Z" fill="#407BFF"/>
<path d="M319.948 832.807H317.152V815.967H319.948V832.807ZM319.948 799.128H317.152V782.289H319.948V799.128ZM627.333 790.473C624.037 790.469 620.751 790.108 617.533 789.395L618.139 786.667C623.5 787.812 629.028 787.949 634.439 787.071L634.877 789.833C632.357 790.196 629.811 790.354 627.266 790.304L627.333 790.473ZM453.753 790.473L453.585 787.644C459.051 787.306 464.402 785.923 469.346 783.569L470.559 786.094C465.25 788.535 459.522 789.93 453.686 790.203L453.753 790.473ZM436.476 788.081C430.935 786.239 425.8 783.346 421.354 779.561L423.173 777.405C427.34 780.963 432.154 783.685 437.352 785.421L436.476 788.081ZM651.077 783.67L649.595 781.278C654.256 778.404 658.325 774.666 661.584 770.265L663.874 771.949C660.387 776.602 656.043 780.546 651.077 783.569V783.67ZM601.535 782.423C596.722 779.131 592.583 774.947 589.344 770.097L591.701 768.514C594.737 773.077 598.625 777.01 603.152 780.1L601.535 782.423ZM484.401 775.688L482.346 773.802C486.039 769.751 488.92 765.029 490.833 759.892L493.494 760.869C491.421 766.276 488.334 771.236 484.401 775.486V775.688ZM410.51 766.123C407.783 760.954 406.09 755.303 405.525 749.486L408.321 749.216C408.856 754.668 410.446 759.964 413.002 764.809L410.51 766.123ZM319.948 765.113H317.152V748.273H319.948V765.113ZM671.419 756.188L668.691 755.481C669.575 751.979 670.028 748.382 670.038 744.771V739.012H672.867V744.771C672.836 748.624 672.327 752.459 671.351 756.188H671.419ZM582.641 753.965C582.023 750.939 581.707 747.859 581.698 744.771V736.823H584.527V744.771C584.532 747.667 584.825 750.555 585.403 753.392L582.641 753.965ZM496.289 743.592H493.494V726.753H496.289V743.592ZM408.085 732.242H405.256V715.403H408.085V732.242ZM319.948 731.266H317.152V714.426H319.948V731.266ZM672.867 722.105H670.038V705.266H672.867V722.105ZM584.629 719.882H581.8V707.96C581.811 706.35 581.721 704.742 581.53 703.144L584.325 702.807C584.527 704.517 584.628 706.238 584.629 707.96V719.882ZM496.39 709.779H493.595V707.994C493.586 702.773 494.474 697.589 496.222 692.67L498.883 693.613C497.229 698.227 496.386 703.092 496.39 707.994V709.779ZM404.38 698.799C403.203 693.441 400.995 688.362 397.88 683.846L400.204 682.263C403.463 687.085 405.751 692.496 406.94 698.193L404.38 698.799ZM321.16 697.856L318.432 697.183C319.814 691.508 322.285 686.155 325.707 681.421L327.963 683.071C324.758 687.508 322.426 692.514 321.093 697.823L321.16 697.856ZM672.867 688.258H670.038V671.418H672.867V688.258ZM576.647 687.652C574.037 682.831 570.527 678.555 566.307 675.056L568.092 672.9C572.606 676.639 576.357 681.213 579.139 686.372L576.647 687.652ZM507.201 679.636L505.079 677.75C508.961 673.38 513.649 669.801 518.888 667.209L520.134 669.735C515.198 672.144 510.782 675.497 507.134 679.602L507.201 679.636ZM386.295 672.429C381.742 669.385 376.64 667.257 371.274 666.165L371.847 663.403C377.566 664.586 383 666.874 387.844 670.139L386.295 672.429ZM339.818 671.924L338.336 669.532C343.256 666.38 348.75 664.228 354.502 663.201L355.007 665.996C349.586 666.947 344.403 668.949 339.751 671.89L339.818 671.924ZM551.994 667.276C547.833 665.956 543.494 665.286 539.129 665.289C537.882 665.289 536.906 665.289 535.761 665.289L535.559 662.46C536.704 662.46 537.882 662.46 538.927 662.46C543.586 662.46 548.219 663.164 552.667 664.548L551.994 667.276ZM672.867 654.411H670.038V637.571H672.867V654.411ZM672.867 620.564H670.038V603.724H672.867V620.564ZM672.867 586.717H670.038V569.877H672.867V586.717ZM672.867 553.038H670.038V536.199H672.867V553.038ZM672.867 519.191H670.038V502.351H672.867V519.191ZM672.867 485.31H670.038V468.471H672.867V485.31ZM672.867 451.631H670.038V434.792H672.867V451.631ZM672.867 417.784H670.038V400.945H672.867V417.784ZM672.867 383.937H670.038V367.098H672.867V383.937ZM672.867 350.258H670.038V333.419H672.867V350.258ZM672.867 316.411H670.038V299.572H672.867V316.411Z" fill="#407BFF"/>
<path d="M319.914 850.084H317.085V858.537H319.914V850.084Z" fill="#407BFF"/>
<path d="M665.02 226.287C663.682 226.275 662.402 225.744 661.45 224.805L643.802 207.158C642.864 206.206 642.338 204.924 642.338 203.588C642.338 202.252 642.864 200.969 643.802 200.018C644.269 199.545 644.825 199.17 645.437 198.914C646.05 198.658 646.708 198.526 647.372 198.526C648.036 198.526 648.694 198.658 649.307 198.914C649.919 199.17 650.475 199.545 650.942 200.018L665.02 214.095L691.794 187.321C692.752 186.429 694.018 185.943 695.327 185.966C696.636 185.989 697.885 186.519 698.81 187.445C699.736 188.37 700.266 189.619 700.289 190.928C700.312 192.237 699.826 193.503 698.934 194.461L668.623 224.772C668.155 225.252 667.594 225.634 666.975 225.895C666.356 226.155 665.691 226.289 665.02 226.287Z" fill="white"/>
<path d="M1298.31 327.054C1294.95 343.893 1287.6 377.572 1299.32 388.854C1299.32 388.854 1294.74 405.694 1263.66 405.694C1229.44 405.694 1247.29 388.854 1247.29 388.854C1265.98 384.409 1265.48 370.567 1262.24 357.567L1298.31 327.054Z" fill="#E58A7B"/>
<path d="M1230.22 394.613C1230.22 392.087 1234.05 389.494 1239.65 387.473C1242.64 386.362 1245.57 382.152 1250.12 381.378C1253.49 380.805 1257.83 383.701 1262.14 383.398C1265.75 383.129 1269.52 379.626 1273.69 379.593C1277.87 379.559 1281.24 382.96 1285.35 383.196C1287.91 383.196 1290.47 380.098 1292.62 380.3C1294.78 380.502 1297.1 384.173 1299.16 384.543C1301.88 385.015 1304.95 382.287 1306.8 382.893C1309.76 383.836 1310.17 387.844 1311.48 388.922C1315.25 391.986 1318.22 394.883 1314.85 395.422C1306.53 396.735 1306.19 392.054 1297.77 392.054C1289.36 392.054 1289.36 395.422 1280.94 395.253C1272.52 395.085 1272.55 391.885 1264.1 391.885C1255.64 391.885 1255.81 394.209 1247.26 395.085C1241.6 396.033 1235.81 395.873 1230.22 394.613Z" fill="#407BFF"/>
<g opacity="0.6">
<path d="M1230.22 394.613C1230.22 392.087 1234.05 389.494 1239.65 387.473C1242.64 386.362 1245.57 382.152 1250.12 381.378C1253.49 380.805 1257.83 383.701 1262.14 383.398C1265.75 383.129 1269.52 379.626 1273.69 379.593C1277.87 379.559 1281.24 382.96 1285.35 383.196C1287.91 383.196 1290.47 380.098 1292.62 380.3C1294.78 380.502 1297.1 384.173 1299.16 384.543C1301.88 385.015 1304.95 382.287 1306.8 382.893C1309.76 383.836 1310.17 387.844 1311.48 388.922C1315.25 391.986 1318.22 394.883 1314.85 395.422C1306.53 396.735 1306.19 392.054 1297.77 392.054C1289.36 392.054 1289.36 395.422 1280.94 395.253C1272.52 395.085 1272.55 391.885 1264.1 391.885C1255.64 391.885 1255.81 394.209 1247.26 395.085C1241.6 396.033 1235.81 395.873 1230.22 394.613Z" fill="black"/>
</g>
<path d="M1359.47 425.126C1363.85 434.388 1367.29 443.245 1370.76 452.473C1374.23 461.701 1377.02 470.997 1379.72 480.393C1382.44 489.883 1384.69 499.505 1386.45 509.222C1387.26 514.105 1388.1 518.989 1388.64 524.007C1388.98 526.465 1389.28 528.958 1389.45 531.484L1390.02 539.23C1390.17 545.634 1389.02 552.003 1386.65 557.955C1384.72 562.948 1382.41 567.789 1379.75 572.437C1374.73 581.087 1369.1 589.371 1362.91 597.224C1350.92 612.443 1337.77 626.709 1323.57 639.895L1313.07 630.196C1318.62 622.854 1324.31 615.31 1329.63 607.698C1334.96 600.087 1340.28 592.476 1345.09 584.696C1349.92 577.109 1354.29 569.236 1358.16 561.121C1359.94 557.408 1361.45 553.57 1362.67 549.636C1363.66 546.722 1364.12 543.653 1364.02 540.577L1363.18 534.211C1362.94 532.022 1362.57 529.833 1362.13 527.476C1361.43 523.098 1360.45 518.686 1359.47 514.307C1358.5 509.929 1357.39 505.551 1356.11 501.173C1354.83 496.794 1353.68 492.416 1352.33 488.072C1349.67 479.383 1346.61 470.727 1343.44 462.173C1340.28 453.618 1336.71 444.929 1333.34 436.947L1359.47 425.126Z" fill="#E58A7B"/>
<path d="M1347.99 395.287C1359.71 397.846 1372.2 440.012 1372.2 440.012L1326.07 469.447C1326.07 469.447 1311.58 435.769 1317.17 421.085C1323.03 405.929 1334.15 392.256 1347.99 395.287Z" fill="#407BFF"/>
<path opacity="0.6" d="M1347.99 395.287C1359.71 397.846 1372.2 440.012 1372.2 440.012L1326.07 469.447C1326.07 469.447 1311.58 435.769 1317.17 421.085C1323.03 405.929 1334.15 392.256 1347.99 395.287Z" fill="white"/>
<path opacity="0.28" d="M1341.73 409.634L1325.96 469.178V469.447L1344.42 457.66L1341.73 409.634Z" fill="#407BFF"/>
<path d="M1199.6 396.095C1199.6 396.095 1186.13 400.844 1213.07 566.341H1327.58C1325.66 519.73 1325.59 490.968 1347.79 395.287C1331.74 391.975 1315.48 389.825 1299.12 388.854C1281.8 387.641 1264.41 387.641 1247.09 388.854C1224.96 390.909 1199.6 396.095 1199.6 396.095Z" fill="#407BFF"/>
<path opacity="0.6" d="M1199.6 396.095C1199.6 396.095 1186.13 400.844 1213.07 566.341H1327.58C1325.66 519.73 1325.59 490.968 1347.79 395.287C1331.74 391.975 1315.48 389.825 1299.12 388.854C1281.8 387.641 1264.41 387.641 1247.09 388.854C1224.96 390.909 1199.6 396.095 1199.6 396.095Z" fill="white"/>
<path d="M1318.52 626.424L1291.24 618.206L1302.62 644.543C1302.62 644.543 1320.64 646.294 1327.14 636.527L1318.52 626.424Z" fill="#E58A7B"/>
<path d="M1269.15 626.895L1279.86 648.416L1302.62 644.61L1291.24 618.273L1269.15 626.895Z" fill="#E58A7B"/>
<path d="M1390.69 1201.42H1362.51L1353.41 1136.08H1381.63L1390.69 1201.42Z" fill="#E58A7B"/>
<path d="M1262.51 1201.42H1234.32L1232.44 1136.08H1260.63L1262.51 1201.42Z" fill="#E58A7B"/>
<path d="M1232.44 1136.12L1233.41 1169.76H1261.64L1260.66 1136.12H1232.44Z" fill="#CF6F64"/>
<path d="M1381.63 1136.12H1353.41L1358.09 1169.76H1386.32L1381.63 1136.12Z" fill="#CF6F64"/>
<path d="M1243.35 566.341C1243.35 566.341 1259.72 759.993 1276.73 869.112C1290.43 957.25 1351.29 1163.26 1351.29 1163.26H1389.75C1389.75 1163.26 1358.06 964.288 1351.09 876.993C1333.47 656.398 1364.36 617.364 1327.68 566.206L1243.35 566.341Z" fill="#407BFF"/>
<path opacity="0.6" d="M1243.35 566.341C1243.35 566.341 1259.72 759.993 1276.73 869.112C1290.43 957.25 1351.29 1163.26 1351.29 1163.26H1389.75C1389.75 1163.26 1358.06 964.288 1351.09 876.993C1333.47 656.398 1364.36 617.364 1327.68 566.206L1243.35 566.341Z" fill="black"/>
<path opacity="0.4" d="M1278.31 642.522C1278.31 642.522 1262.55 691.626 1262.78 762.452C1265.51 786.398 1268.41 810.175 1271.37 832.201C1280.4 811.657 1297 751.776 1278.31 642.522Z" fill="black"/>
<path d="M1213.11 566.341C1213.11 566.341 1190.85 783.67 1192.7 869.685C1194.62 959.169 1227.42 1163.26 1227.42 1163.26H1265.54C1265.54 1163.26 1259.52 964.558 1262.88 876.522C1266.55 780.706 1297 566.341 1297 566.341H1213.11Z" fill="#407BFF"/>
<path opacity="0.6" d="M1213.11 566.341C1213.11 566.341 1190.85 783.67 1192.7 869.685C1194.62 959.169 1227.42 1163.26 1227.42 1163.26H1265.54C1265.54 1163.26 1259.52 964.558 1262.88 876.522C1266.55 780.706 1297 566.341 1297 566.341H1213.11Z" fill="black"/>
<path d="M1351.09 1203.07C1349.18 1203.23 1347.27 1202.72 1345.7 1201.62C1345.23 1201.17 1344.88 1200.6 1344.69 1199.98C1344.5 1199.36 1344.46 1198.69 1344.59 1198.05C1344.63 1197.65 1344.77 1197.26 1345.01 1196.93C1345.25 1196.6 1345.57 1196.34 1345.94 1196.17C1349.3 1194.72 1357.79 1200.21 1358.73 1200.85C1358.84 1200.92 1358.93 1201.02 1358.99 1201.14C1359.04 1201.26 1359.06 1201.39 1359.04 1201.52C1359.02 1201.65 1358.96 1201.77 1358.87 1201.87C1358.78 1201.97 1358.66 1202.03 1358.53 1202.06C1356.09 1202.67 1353.6 1203.01 1351.09 1203.07ZM1347.32 1197.24C1347.03 1197.23 1346.74 1197.29 1346.47 1197.41C1346.27 1197.41 1346 1197.68 1345.94 1198.25C1345.83 1198.67 1345.83 1199.11 1345.95 1199.52C1346.07 1199.94 1346.3 1200.31 1346.61 1200.61C1348.02 1201.93 1351.73 1202.09 1356.71 1201.12C1353.89 1199.18 1350.68 1197.86 1347.32 1197.24Z" fill="#407BFF"/>
<path d="M1358.36 1202.09C1358.26 1202.12 1358.16 1202.12 1358.06 1202.09C1355.37 1200.58 1350.25 1194.48 1350.85 1191.32C1350.96 1190.79 1351.24 1190.32 1351.65 1189.98C1352.06 1189.64 1352.57 1189.44 1353.11 1189.43C1353.62 1189.36 1354.14 1189.4 1354.63 1189.56C1355.12 1189.71 1355.57 1189.98 1355.94 1190.34C1359 1193.03 1359.04 1201.18 1359.04 1201.52C1359.04 1201.64 1359.01 1201.75 1358.95 1201.85C1358.89 1201.96 1358.8 1202.04 1358.7 1202.09C1358.59 1202.13 1358.47 1202.13 1358.36 1202.09ZM1353.58 1190.64H1353.28C1352.44 1190.64 1352.23 1191.11 1352.17 1191.42C1351.8 1193.37 1354.99 1197.95 1357.66 1200.07C1357.74 1196.92 1356.83 1193.83 1355.06 1191.22C1354.66 1190.84 1354.13 1190.64 1353.58 1190.64Z" fill="#407BFF"/>
<path d="M1222.74 1203.07C1220.37 1203.26 1218 1202.66 1216 1201.35C1215.54 1200.94 1215.19 1200.41 1214.98 1199.82C1214.78 1199.23 1214.72 1198.6 1214.82 1197.98C1214.84 1197.62 1214.95 1197.26 1215.14 1196.95C1215.34 1196.63 1215.61 1196.38 1215.94 1196.2C1219.3 1194.31 1230.65 1200.07 1231.9 1200.71C1232.03 1200.78 1232.13 1200.88 1232.2 1201.01C1232.27 1201.13 1232.29 1201.28 1232.27 1201.42C1232.25 1201.56 1232.19 1201.68 1232.09 1201.78C1231.99 1201.88 1231.87 1201.94 1231.73 1201.96C1228.78 1202.61 1225.76 1202.98 1222.74 1203.07ZM1217.72 1197.24C1217.29 1197.22 1216.86 1197.3 1216.47 1197.48C1216.34 1197.56 1216.23 1197.66 1216.16 1197.79C1216.08 1197.92 1216.04 1198.07 1216.04 1198.22C1215.98 1198.61 1216.03 1199.01 1216.16 1199.38C1216.3 1199.75 1216.52 1200.08 1216.81 1200.34C1218.53 1201.89 1223.18 1202.16 1229.41 1201.12C1225.76 1199.17 1221.81 1197.86 1217.72 1197.24Z" fill="#407BFF"/>
<path d="M1231.5 1202.09H1231.23C1227.86 1200.58 1221.12 1194.48 1221.73 1191.28C1221.73 1190.54 1222.4 1189.6 1224.25 1189.4C1224.92 1189.33 1225.59 1189.4 1226.23 1189.6C1226.87 1189.81 1227.45 1190.14 1227.96 1190.58C1231.5 1193.51 1232.14 1201.12 1232.17 1201.42C1232.18 1201.54 1232.16 1201.65 1232.11 1201.76C1232.06 1201.86 1231.99 1201.96 1231.9 1202.03C1231.78 1202.09 1231.63 1202.12 1231.5 1202.09ZM1224.76 1190.64H1224.36C1223.14 1190.64 1223.04 1191.25 1223.01 1191.42C1222.71 1193.34 1227.22 1198.15 1230.65 1200.17C1230.37 1196.98 1229.11 1193.94 1227.05 1191.48C1226.42 1190.95 1225.62 1190.65 1224.79 1190.64H1224.76Z" fill="#407BFF"/>
<path d="M1230.52 297.383C1230.3 297.406 1230.08 297.378 1229.88 297.302C1229.67 297.226 1229.49 297.104 1229.34 296.945C1228.26 295.655 1226.88 294.642 1225.33 293.991C1223.78 293.341 1222.09 293.072 1220.41 293.207C1220.06 293.255 1219.7 293.161 1219.42 292.947C1219.14 292.732 1218.95 292.414 1218.9 292.062C1218.86 291.715 1218.95 291.367 1219.16 291.086C1219.36 290.805 1219.67 290.612 1220.01 290.546C1222.13 290.369 1224.26 290.694 1226.22 291.496C1228.19 292.298 1229.94 293.553 1231.33 295.16C1231.57 295.416 1231.7 295.753 1231.7 296.103C1231.7 296.453 1231.57 296.79 1231.33 297.046C1231.1 297.235 1230.82 297.353 1230.52 297.383Z" fill="#263238"/>
<path d="M1224.66 314.121C1223.39 319.546 1221.39 324.77 1218.7 329.647C1219.96 330.306 1221.36 330.68 1222.78 330.744C1224.21 330.808 1225.63 330.56 1226.95 330.018L1224.66 314.121Z" fill="#DF5753"/>
<path d="M1226.14 309.844C1226.44 312.101 1225.53 314.088 1224.05 314.29C1222.57 314.492 1221.12 312.841 1220.68 310.619C1220.25 308.396 1221.29 306.341 1222.77 306.139C1224.25 305.937 1225.9 307.722 1226.14 309.844Z" fill="#263238"/>
<path d="M1223.55 306.476L1217.92 305.702C1217.92 305.702 1221.29 309.339 1223.55 306.476Z" fill="#263238"/>
<path d="M1360.62 1198.15H1392.31C1392.85 1198.14 1393.38 1198.33 1393.79 1198.69C1394.2 1199.04 1394.47 1199.53 1394.53 1200.07L1398.17 1225.16C1398.24 1225.8 1398.17 1226.44 1397.97 1227.05C1397.77 1227.66 1397.45 1228.21 1397.02 1228.69C1396.59 1229.16 1396.07 1229.54 1395.48 1229.8C1394.9 1230.05 1394.26 1230.19 1393.62 1230.18C1382.58 1229.98 1377.26 1229.34 1363.31 1229.34C1354.76 1229.34 1342.23 1230.22 1330.38 1230.22C1318.52 1230.22 1317.91 1218.5 1322.83 1217.45C1344.96 1212.7 1348.43 1206.14 1355.9 1199.87C1357.22 1198.76 1358.89 1198.15 1360.62 1198.15Z" fill="#263238"/>
<path d="M1233.35 1198.15H1265.04C1265.58 1198.15 1266.11 1198.34 1266.53 1198.69C1266.94 1199.04 1267.21 1199.53 1267.3 1200.07L1270.9 1225.16C1270.97 1225.8 1270.9 1226.44 1270.7 1227.04C1270.5 1227.65 1270.18 1228.2 1269.76 1228.68C1269.33 1229.15 1268.81 1229.53 1268.23 1229.79C1267.65 1230.05 1267.02 1230.18 1266.39 1230.18C1255.34 1229.98 1250.02 1229.34 1236.08 1229.34C1227.49 1229.34 1209.77 1230.22 1197.92 1230.22C1186.06 1230.22 1185.46 1218.5 1190.37 1217.45C1212.47 1212.7 1221.19 1206.14 1228.63 1199.87C1229.96 1198.77 1231.62 1198.16 1233.35 1198.15Z" fill="#263238"/>
<path opacity="0.28" d="M1196.3 422.836V423.51C1196.64 442.336 1199.23 474.028 1207.04 527.307L1223.01 464.766L1196.3 422.836Z" fill="#407BFF"/>
<path d="M1218.97 432.502C1215.8 448.499 1212.23 464.16 1207.99 479.888C1203.74 495.616 1199.43 511.243 1193.84 527.038L1191.65 532.932L1189.26 538.859C1188.72 540.263 1188.08 541.625 1187.34 542.934C1186.42 544.678 1185.28 546.306 1183.97 547.784C1180.92 551.145 1176.91 553.495 1172.49 554.52C1168.79 555.364 1164.94 555.364 1161.24 554.52C1158.42 553.938 1155.67 553.034 1153.06 551.825C1148.72 549.791 1144.61 547.295 1140.8 544.382C1133.99 539.142 1127.66 533.316 1121.87 526.971C1118.97 523.94 1116.28 520.774 1113.65 517.574C1111.03 514.375 1108.5 511.175 1106.01 507.639L1116.68 498.175C1128.01 508.402 1140.24 517.578 1153.23 525.59C1156.03 527.22 1158.98 528.573 1162.05 529.631C1164.64 530.608 1166.97 530.338 1166.06 530.17C1165.51 530.245 1164.99 530.453 1164.54 530.776L1165.01 529.328L1166.8 524.007L1168.48 518.517C1172.86 503.732 1176.6 488.206 1180.3 472.984L1190.85 426.642L1218.97 432.502Z" fill="#E58A7B"/>
<path d="M1106.88 509.054L1091.46 487.23L1112.44 485.613C1112.44 485.613 1124.3 499.287 1120.12 510.266L1106.88 509.054Z" fill="#E58A7B"/>
<path d="M1105.6 481.605L1110.05 478.877L1112.1 468.538L1115.51 472.782L1118.03 497.064L1105.6 481.605Z" fill="#E58A7B"/>
<path d="M1300.74 291.388C1303.03 319.274 1304.58 331.028 1292.66 347.261C1274.7 371.611 1239.91 368.31 1229.37 341.637C1219.84 317.624 1217.72 276.031 1243.25 261.145C1248.85 257.831 1255.21 256.006 1261.72 255.845C1268.23 255.683 1274.67 257.189 1280.43 260.221C1286.2 263.252 1291.09 267.707 1294.64 273.163C1298.2 278.618 1300.29 284.892 1300.74 291.388Z" fill="#E58A7B"/>
<path d="M1238.4 258.013C1232.7 260.41 1228.02 264.747 1225.21 270.257C1222.39 275.766 1221.61 282.094 1223.01 288.121C1223.01 288.121 1244.93 278.658 1245.81 313.784C1246.45 339.144 1228.97 373.362 1228.97 373.362C1228.97 373.362 1269.62 381.782 1328.12 363.865C1353.01 356.253 1341.79 206.855 1238.4 258.013Z" fill="#263238"/>
<path d="M1236.31 273.538C1232.34 283.103 1233.38 302.031 1249.04 300.01C1264.7 297.989 1260.12 282.194 1260.12 282.194L1236.31 273.538Z" fill="#263238"/>
<path d="M1253.76 311.326C1253.92 316.74 1251.95 322.002 1248.27 325.976C1243.35 331.163 1237.19 327.66 1235.5 321.059C1233.95 315.165 1234.66 305.297 1241.09 302.536C1242.51 301.957 1244.05 301.742 1245.57 301.91C1247.1 302.077 1248.55 302.623 1249.81 303.496C1251.07 304.369 1252.09 305.543 1252.78 306.91C1253.47 308.277 1253.8 309.795 1253.76 311.326Z" fill="#E58A7B"/>
<path d="M1392.61 1164.51H1348.66L1343.98 1149.18L1394.13 1150.36L1392.61 1164.51Z" fill="#407BFF"/>
<path d="M1313.81 572.538H1316.84C1317.48 572.538 1317.95 572.235 1317.88 571.831L1316.43 558.359C1316.43 557.989 1315.86 557.652 1315.22 557.652H1312.12C1311.52 557.652 1311.04 557.989 1311.08 558.359L1312.53 571.831C1312.66 572.302 1313.2 572.538 1313.81 572.538Z" fill="#407BFF"/>
<path d="M1238.5 572.538H1241.6C1242.21 572.538 1242.68 572.235 1242.64 571.831L1241.19 558.359C1241.19 557.989 1240.59 557.652 1239.98 557.652H1236.88C1236.24 557.652 1235.77 557.989 1235.84 558.359L1237.29 571.831C1237.32 572.302 1237.86 572.538 1238.5 572.538Z" fill="#407BFF"/>
<path d="M1268.47 1164.51H1224.49L1221.32 1151.41L1270.12 1149.18L1268.47 1164.51Z" fill="#407BFF"/>
<path d="M1329.4 559.639L1334.55 569.743C1334.96 570.551 1334.01 571.359 1332.7 571.359H1212.43C1211.39 571.359 1210.55 570.854 1210.48 570.214L1209.44 560.11C1209.44 559.403 1210.28 558.797 1211.39 558.797H1327.41C1327.79 558.747 1328.17 558.798 1328.52 558.946C1328.87 559.095 1329.17 559.334 1329.4 559.639Z" fill="#407BFF"/>
<path opacity="0.1" d="M1329.4 559.639L1334.55 569.743C1334.96 570.551 1334.01 571.359 1332.7 571.359H1212.43C1211.39 571.359 1210.55 570.854 1210.48 570.214L1209.44 560.11C1209.44 559.403 1210.28 558.797 1211.39 558.797H1327.41C1327.79 558.747 1328.17 558.798 1328.52 558.946C1328.87 559.095 1329.17 559.334 1329.4 559.639Z" fill="black"/>
<path opacity="0.6" d="M1313.81 572.538H1316.84C1317.48 572.538 1317.95 572.235 1317.88 571.831L1316.43 558.359C1316.43 557.989 1315.86 557.652 1315.22 557.652H1312.12C1311.52 557.652 1311.04 557.989 1311.08 558.359L1312.53 571.831C1312.66 572.302 1313.2 572.538 1313.81 572.538Z" fill="black"/>
<path opacity="0.6" d="M1238.5 572.538H1241.6C1242.21 572.538 1242.68 572.235 1242.64 571.831L1241.19 558.359C1241.19 557.989 1240.59 557.652 1239.98 557.652H1236.88C1236.24 557.652 1235.77 557.989 1235.84 558.359L1237.29 571.831C1237.32 572.302 1237.86 572.538 1238.5 572.538Z" fill="black"/>
<path d="M1199.6 396.095C1187.98 399.059 1179.87 446.916 1179.87 446.916L1224.73 477.396C1224.73 477.396 1242.74 420.411 1233.68 407.512C1224.36 394.31 1216.58 391.784 1199.6 396.095Z" fill="#407BFF"/>
<path opacity="0.6" d="M1199.6 396.095C1187.98 399.059 1179.87 446.916 1179.87 446.916L1224.73 477.396C1224.73 477.396 1242.74 420.411 1233.68 407.512C1224.36 394.31 1216.58 391.784 1199.6 396.095Z" fill="white"/>
<path d="M563.31 1013.16C563.326 1013.04 563.326 1012.93 563.31 1012.82C564.253 1007.4 565.061 1001.94 565.735 996.418C575.266 1007.03 583.551 1009.72 589.478 1009.72C590.106 1009.76 590.736 1009.76 591.364 1009.72C602.983 1008.58 612.784 997.192 617.634 979.41C617.73 979.058 617.749 978.69 617.691 978.33C617.633 977.97 617.499 977.626 617.297 977.322C616.88 976.683 616.246 976.217 615.512 976.009C607.28 973.756 598.652 973.359 590.248 974.844C581.844 976.329 573.875 979.66 566.914 984.597C567.318 979.41 567.553 974.224 567.621 969.003C569.5 969.333 571.404 969.502 573.312 969.509C592.509 969.509 604.398 952.433 604.97 951.591C605.185 951.267 605.316 950.893 605.351 950.506C605.386 950.118 605.325 949.727 605.173 949.369C605.016 948.976 604.78 948.621 604.478 948.325C604.177 948.029 603.817 947.8 603.421 947.651C591.432 943.138 581.698 942.734 574.525 946.506C569.96 948.989 566.452 953.046 564.657 957.923C559.584 946.871 551.899 937.217 542.266 929.795C532.632 922.373 521.338 917.405 509.357 915.32C509.014 915.238 508.657 915.239 508.315 915.323C507.973 915.407 507.656 915.57 507.39 915.8C507.123 916.031 506.915 916.321 506.783 916.647C506.651 916.973 506.598 917.326 506.629 917.677C507.841 935.089 511.074 956.34 525.421 966.511C531.162 970.444 537.999 972.46 544.955 972.27C550.904 972.141 556.807 971.2 562.502 969.475C562.203 981.885 561.078 994.261 559.134 1006.52C551.152 997.462 530.844 977.322 503.126 970.384C502.818 970.288 502.493 970.261 502.173 970.303C501.853 970.346 501.546 970.457 501.273 970.63C501.001 970.803 500.77 971.034 500.595 971.305C500.421 971.577 500.307 971.883 500.263 972.203C498.209 987.19 501.779 999.348 510.535 1007.36C517.81 1014.1 528.25 1017.47 540.846 1017.47C546.435 1017.42 552.006 1016.83 557.483 1015.72C555.597 1025.99 553.274 1035.92 550.748 1045.62C542.025 1038.68 516.8 1021.14 492.753 1028.45C492.435 1028.55 492.146 1028.73 491.906 1028.96C491.667 1029.19 491.484 1029.48 491.372 1029.79C491.257 1030.13 491.216 1030.49 491.251 1030.84C491.285 1031.2 491.396 1031.54 491.574 1031.85C500.465 1048.42 509.357 1057.61 519.494 1060.81C522.133 1061.63 524.88 1062.05 527.644 1062.06C534.795 1061.76 541.751 1059.64 547.851 1055.89C544.046 1068.62 539.87 1080.48 535.761 1091.05C528.891 1084.64 520.524 1080.05 511.424 1077.69C502.323 1075.34 492.778 1075.3 483.66 1077.58C483.371 1077.65 483.099 1077.77 482.858 1077.94C482.618 1078.11 482.414 1078.33 482.26 1078.58C482.106 1078.83 482.004 1079.11 481.961 1079.4C481.918 1079.69 481.935 1079.99 482.01 1080.28C483.42 1085.74 486.085 1090.79 489.791 1095.04C493.498 1099.29 498.144 1102.62 503.362 1104.76C507.174 1106.34 511.259 1107.15 515.385 1107.15C520.843 1107.11 526.199 1105.67 530.945 1102.98C525.574 1116.1 519.514 1128.92 512.792 1141.4C512.506 1142.03 512.461 1142.73 512.666 1143.39C512.872 1144.04 513.312 1144.59 513.903 1144.94C514.344 1145.23 514.859 1145.38 515.385 1145.38C515.777 1145.39 516.166 1145.3 516.509 1145.11C516.853 1144.92 517.139 1144.64 517.338 1144.3C525.49 1129.02 532.743 1113.28 539.061 1097.15C539.192 1096.89 539.293 1096.62 539.364 1096.34C540.622 1093.18 541.868 1089.91 543.103 1086.54C551.219 1095.9 561.087 1101.09 570.989 1101.09C572.066 1101.09 573.11 1101.09 574.188 1101.09C579.677 1100.54 584.86 1098.31 589.023 1094.69C593.185 1091.07 596.122 1086.24 597.426 1080.88C597.521 1080.28 597.422 1079.66 597.144 1079.12C596.866 1078.57 596.422 1078.13 595.877 1077.85C588.452 1073.69 580.146 1071.35 571.64 1071.01C563.134 1070.68 554.671 1072.37 546.942 1075.93C549.603 1068.22 552.196 1060.04 554.587 1051.55C554.8 1051.21 554.916 1050.81 554.924 1050.4C555.564 1048.01 556.237 1045.62 556.844 1043.16C566.577 1053.74 575.569 1058.93 584.224 1058.93C594.732 1058.93 604.432 1051.15 613.761 1035.35C614.013 1034.76 614.053 1034.11 613.875 1033.49C613.697 1032.88 613.311 1032.34 612.784 1031.98C593.217 1018.51 569.81 1027.71 559.369 1033.09C560.851 1026.78 562.154 1020.36 563.276 1013.83L563.31 1013.16Z" fill="#407BFF"/>
<path opacity="0.3" d="M563.31 1013.16C563.326 1013.04 563.326 1012.93 563.31 1012.82C564.253 1007.4 565.061 1001.94 565.735 996.418C575.266 1007.03 583.551 1009.72 589.478 1009.72C590.106 1009.76 590.736 1009.76 591.364 1009.72C602.983 1008.58 612.784 997.192 617.634 979.41C617.73 979.058 617.749 978.69 617.691 978.33C617.633 977.97 617.499 977.626 617.297 977.322C616.88 976.683 616.246 976.217 615.512 976.009C607.28 973.756 598.652 973.359 590.248 974.844C581.844 976.329 573.875 979.66 566.914 984.597C567.318 979.41 567.553 974.224 567.621 969.003C569.5 969.333 571.404 969.502 573.312 969.509C592.509 969.509 604.398 952.433 604.97 951.591C605.185 951.267 605.316 950.893 605.351 950.506C605.386 950.118 605.325 949.727 605.173 949.369C605.016 948.976 604.78 948.621 604.478 948.325C604.177 948.029 603.817 947.8 603.421 947.651C591.432 943.138 581.698 942.734 574.525 946.506C569.96 948.989 566.452 953.046 564.657 957.923C559.584 946.871 551.899 937.217 542.266 929.795C532.632 922.373 521.338 917.405 509.357 915.32C509.014 915.238 508.657 915.239 508.315 915.323C507.973 915.407 507.656 915.57 507.39 915.8C507.123 916.031 506.915 916.321 506.783 916.647C506.651 916.973 506.598 917.326 506.629 917.677C507.841 935.089 511.074 956.34 525.421 966.511C531.162 970.444 537.999 972.46 544.955 972.27C550.904 972.141 556.807 971.2 562.502 969.475C562.203 981.885 561.078 994.261 559.134 1006.52C551.152 997.462 530.844 977.322 503.126 970.384C502.818 970.288 502.493 970.261 502.173 970.303C501.853 970.346 501.546 970.457 501.273 970.63C501.001 970.803 500.77 971.034 500.595 971.305C500.421 971.577 500.307 971.883 500.263 972.203C498.209 987.19 501.779 999.348 510.535 1007.36C517.81 1014.1 528.25 1017.47 540.846 1017.47C546.435 1017.42 552.006 1016.83 557.483 1015.72C555.597 1025.99 553.274 1035.92 550.748 1045.62C542.025 1038.68 516.8 1021.14 492.753 1028.45C492.435 1028.55 492.146 1028.73 491.906 1028.96C491.667 1029.19 491.484 1029.48 491.372 1029.79C491.257 1030.13 491.216 1030.49 491.251 1030.84C491.285 1031.2 491.396 1031.54 491.574 1031.85C500.465 1048.42 509.357 1057.61 519.494 1060.81C522.133 1061.63 524.88 1062.05 527.644 1062.06C534.795 1061.76 541.751 1059.64 547.851 1055.89C544.046 1068.62 539.87 1080.48 535.761 1091.05C528.891 1084.64 520.524 1080.05 511.424 1077.69C502.323 1075.34 492.778 1075.3 483.66 1077.58C483.371 1077.65 483.099 1077.77 482.858 1077.94C482.618 1078.11 482.414 1078.33 482.26 1078.58C482.106 1078.83 482.004 1079.11 481.961 1079.4C481.918 1079.69 481.935 1079.99 482.01 1080.28C483.42 1085.74 486.085 1090.79 489.791 1095.04C493.498 1099.29 498.144 1102.62 503.362 1104.76C507.174 1106.34 511.259 1107.15 515.385 1107.15C520.843 1107.11 526.199 1105.67 530.945 1102.98C525.574 1116.1 519.514 1128.92 512.792 1141.4C512.506 1142.03 512.461 1142.73 512.666 1143.39C512.872 1144.04 513.312 1144.59 513.903 1144.94C514.344 1145.23 514.859 1145.38 515.385 1145.38C515.777 1145.39 516.166 1145.3 516.509 1145.11C516.853 1144.92 517.139 1144.64 517.338 1144.3C525.49 1129.02 532.743 1113.28 539.061 1097.15C539.192 1096.89 539.293 1096.62 539.364 1096.34C540.622 1093.18 541.868 1089.91 543.103 1086.54C551.219 1095.9 561.087 1101.09 570.989 1101.09C572.066 1101.09 573.11 1101.09 574.188 1101.09C579.677 1100.54 584.86 1098.31 589.023 1094.69C593.185 1091.07 596.122 1086.24 597.426 1080.88C597.521 1080.28 597.422 1079.66 597.144 1079.12C596.866 1078.57 596.422 1078.13 595.877 1077.85C588.452 1073.69 580.146 1071.35 571.64 1071.01C563.134 1070.68 554.671 1072.37 546.942 1075.93C549.603 1068.22 552.196 1060.04 554.587 1051.55C554.8 1051.21 554.916 1050.81 554.924 1050.4C555.564 1048.01 556.237 1045.62 556.844 1043.16C566.577 1053.74 575.569 1058.93 584.224 1058.93C594.732 1058.93 604.432 1051.15 613.761 1035.35C614.013 1034.76 614.053 1034.11 613.875 1033.49C613.697 1032.88 613.311 1032.34 612.784 1031.98C593.217 1018.51 569.81 1027.71 559.369 1033.09C560.851 1026.78 562.154 1020.36 563.276 1013.83L563.31 1013.16Z" fill="black"/>
<path d="M441.191 1081.42C444.822 1082.56 448.6 1083.16 452.406 1083.21C457.237 1083.18 462.008 1082.13 466.4 1080.12C470.791 1078.1 474.702 1075.17 477.871 1071.53C481.04 1067.88 483.394 1063.6 484.775 1058.97C486.157 1054.34 486.535 1049.47 485.883 1044.68C485.769 1044.16 485.465 1043.69 485.029 1043.38C484.593 1043.07 484.057 1042.93 483.525 1043C474.216 1044.03 465.252 1047.11 457.283 1052.04C449.315 1056.96 442.541 1063.59 437.453 1071.45C433.209 1059.8 429.235 1047.41 425.901 1034.58C431.343 1037.79 437.5 1039.61 443.818 1039.86C446.415 1039.87 448.996 1039.46 451.463 1038.65C464.564 1034.31 473.556 1018.68 481.336 1002.41C481.477 1002.12 481.549 1001.8 481.549 1001.47C481.549 1001.14 481.477 1000.82 481.336 1000.53C481.221 1000.23 481.04 999.971 480.806 999.761C480.572 999.55 480.292 999.398 479.989 999.314C454.359 992.006 431.054 1017.06 423.712 1026.02C421.14 1015.16 419.161 1004.16 417.784 993.084C423.213 994.122 428.726 994.663 434.253 994.7C447.725 994.7 458.367 991.13 465.574 984.092C474.129 975.773 477.059 963.312 474.095 948.089C474.038 947.795 473.919 947.516 473.747 947.271C473.574 947.027 473.352 946.821 473.094 946.668C472.836 946.516 472.549 946.419 472.251 946.385C471.954 946.352 471.652 946.381 471.367 946.472C444.02 953.747 424.722 974.089 416.841 983.721C416.841 981.734 416.504 979.747 416.37 977.76C416.329 977.261 416.128 976.788 415.797 976.413C415.115 972.681 413.605 969.15 411.378 966.079C409.152 963.007 406.266 960.474 402.932 958.664C395.455 954.959 385.587 955.498 373.665 960.247C373.312 960.384 372.994 960.597 372.732 960.871C372.47 961.144 372.271 961.471 372.15 961.83C372.029 962.177 371.994 962.547 372.046 962.911C372.099 963.274 372.238 963.62 372.453 963.918C373.059 964.726 385.924 981.633 405.188 981.633C407.269 981.627 409.343 981.424 411.385 981.027C411.789 986.505 412.362 991.995 413.103 997.496C405.845 992.561 397.596 989.272 388.934 987.859C380.272 986.445 371.406 986.941 362.955 989.312C362.622 989.394 362.31 989.544 362.037 989.753C361.765 989.961 361.539 990.224 361.372 990.524C361.204 990.811 361.095 991.129 361.055 991.459C361.014 991.79 361.042 992.125 361.137 992.444C367.098 1010.56 377.707 1021.98 389.561 1022.96C390.1 1022.99 390.64 1022.99 391.178 1022.96C397.24 1022.96 405.626 1020.2 414.753 1009.01C416.985 1021.61 419.908 1034.08 423.51 1046.36C412.665 1041.04 388.147 1031.88 368.95 1045.82C368.679 1046 368.444 1046.22 368.26 1046.48C368.076 1046.74 367.946 1047.04 367.877 1047.35C367.808 1047.67 367.802 1047.99 367.859 1048.31C367.916 1048.62 368.035 1048.92 368.209 1049.19C378.549 1065.12 388.72 1072.77 399.295 1072.77H399.564C408.354 1072.77 417.212 1067.28 426.507 1056.33C430.313 1068.32 434.489 1079.71 438.766 1090.28C428.124 1083.31 415.662 1084.42 400.305 1093.65C399.972 1093.86 399.689 1094.14 399.474 1094.47C399.259 1094.8 399.117 1095.18 399.059 1095.57C399.018 1095.94 399.07 1096.31 399.212 1096.65C399.353 1096.99 399.579 1097.29 399.867 1097.52C400.642 1098.13 413.743 1108 428.393 1108C434.018 1108.05 439.531 1106.42 444.222 1103.31C452.511 1122.58 462.063 1141.28 472.815 1159.29C473.03 1159.63 473.329 1159.9 473.684 1160.09C474.038 1160.28 474.435 1160.38 474.836 1160.37C475.378 1160.37 475.908 1160.21 476.352 1159.89C476.943 1159.53 477.37 1158.95 477.54 1158.28C477.71 1157.6 477.61 1156.89 477.261 1156.29C463.164 1132.39 451.098 1107.34 441.191 1081.42Z" fill="#407BFF"/>
<path opacity="0.5" d="M441.191 1081.42C444.822 1082.56 448.6 1083.16 452.406 1083.21C457.237 1083.18 462.008 1082.13 466.4 1080.12C470.791 1078.1 474.702 1075.17 477.871 1071.53C481.04 1067.88 483.394 1063.6 484.775 1058.97C486.157 1054.34 486.535 1049.47 485.883 1044.68C485.769 1044.16 485.465 1043.69 485.029 1043.38C484.593 1043.07 484.057 1042.93 483.525 1043C474.216 1044.03 465.252 1047.11 457.283 1052.04C449.315 1056.96 442.541 1063.59 437.453 1071.45C433.209 1059.8 429.235 1047.41 425.901 1034.58C431.343 1037.79 437.5 1039.61 443.818 1039.86C446.415 1039.87 448.996 1039.46 451.463 1038.65C464.564 1034.31 473.556 1018.68 481.336 1002.41C481.477 1002.12 481.549 1001.8 481.549 1001.47C481.549 1001.14 481.477 1000.82 481.336 1000.53C481.221 1000.23 481.04 999.971 480.806 999.761C480.572 999.55 480.292 999.398 479.989 999.314C454.359 992.006 431.054 1017.06 423.712 1026.02C421.14 1015.16 419.161 1004.16 417.784 993.084C423.213 994.122 428.726 994.663 434.253 994.7C447.725 994.7 458.367 991.13 465.574 984.092C474.129 975.773 477.059 963.312 474.095 948.089C474.038 947.795 473.919 947.516 473.747 947.271C473.574 947.027 473.352 946.821 473.094 946.668C472.836 946.516 472.549 946.419 472.251 946.385C471.954 946.352 471.652 946.381 471.367 946.472C444.02 953.747 424.722 974.089 416.841 983.721C416.841 981.734 416.504 979.747 416.37 977.76C416.329 977.261 416.128 976.788 415.797 976.413C415.115 972.681 413.605 969.15 411.378 966.079C409.152 963.007 406.266 960.474 402.932 958.664C395.455 954.959 385.587 955.498 373.665 960.247C373.312 960.384 372.994 960.597 372.732 960.871C372.47 961.144 372.271 961.471 372.15 961.83C372.029 962.177 371.994 962.547 372.046 962.911C372.099 963.274 372.238 963.62 372.453 963.918C373.059 964.726 385.924 981.633 405.188 981.633C407.269 981.627 409.343 981.424 411.385 981.027C411.789 986.505 412.362 991.995 413.103 997.496C405.845 992.561 397.596 989.272 388.934 987.859C380.272 986.445 371.406 986.941 362.955 989.312C362.622 989.394 362.31 989.544 362.037 989.753C361.765 989.961 361.539 990.224 361.372 990.524C361.204 990.811 361.095 991.129 361.055 991.459C361.014 991.79 361.042 992.125 361.137 992.444C367.098 1010.56 377.707 1021.98 389.561 1022.96C390.1 1022.99 390.64 1022.99 391.178 1022.96C397.24 1022.96 405.626 1020.2 414.753 1009.01C416.985 1021.61 419.908 1034.08 423.51 1046.36C412.665 1041.04 388.147 1031.88 368.95 1045.82C368.679 1046 368.444 1046.22 368.26 1046.48C368.076 1046.74 367.946 1047.04 367.877 1047.35C367.808 1047.67 367.802 1047.99 367.859 1048.31C367.916 1048.62 368.035 1048.92 368.209 1049.19C378.549 1065.12 388.72 1072.77 399.295 1072.77H399.564C408.354 1072.77 417.212 1067.28 426.507 1056.33C430.313 1068.32 434.489 1079.71 438.766 1090.28C428.124 1083.31 415.662 1084.42 400.305 1093.65C399.972 1093.86 399.689 1094.14 399.474 1094.47C399.259 1094.8 399.117 1095.18 399.059 1095.57C399.018 1095.94 399.07 1096.31 399.212 1096.65C399.353 1096.99 399.579 1097.29 399.867 1097.52C400.642 1098.13 413.743 1108 428.393 1108C434.018 1108.05 439.531 1106.42 444.222 1103.31C452.511 1122.58 462.063 1141.28 472.815 1159.29C473.03 1159.63 473.329 1159.9 473.684 1160.09C474.038 1160.28 474.435 1160.38 474.836 1160.37C475.378 1160.37 475.908 1160.21 476.352 1159.89C476.943 1159.53 477.37 1158.95 477.54 1158.28C477.71 1157.6 477.61 1156.89 477.261 1156.29C463.164 1132.39 451.098 1107.34 441.191 1081.42Z" fill="white"/>
<path d="M533.807 1216.61H453.585L447.523 1133.66H539.87L533.807 1216.61Z" fill="#263238"/>
<path d="M545.831 1128.07H441.528V1142.11H545.831V1128.07Z" fill="#263238"/>
<path d="M498.445 726.012H313.246C300.244 726.012 289.704 736.552 289.704 749.553V1193.07C289.704 1206.07 300.244 1216.61 313.246 1216.61H498.445C511.446 1216.61 521.986 1206.07 521.986 1193.07V749.553C521.986 736.552 511.446 726.012 498.445 726.012Z" fill="#407BFF"/>
<path opacity="0.6" d="M498.445 726.012H313.246C300.244 726.012 289.704 736.552 289.704 749.553V1193.07C289.704 1206.07 300.244 1216.61 313.246 1216.61H498.445C511.446 1216.61 521.986 1206.07 521.986 1193.07V749.553C521.986 736.552 511.446 726.012 498.445 726.012Z" fill="black"/>
<path d="M487.162 726.012H301.963C288.962 726.012 278.422 736.552 278.422 749.553V1193.07C278.422 1206.07 288.962 1216.61 301.963 1216.61H487.162C500.164 1216.61 510.704 1206.07 510.704 1193.07V749.553C510.704 736.552 500.164 726.012 487.162 726.012Z" fill="#407BFF"/>
<path opacity="0.3" d="M487.162 726.012H301.963C288.962 726.012 278.422 736.552 278.422 749.553V1193.07C278.422 1206.07 288.962 1216.61 301.963 1216.61H487.162C500.164 1216.61 510.704 1206.07 510.704 1193.07V749.553C510.704 736.552 500.164 726.012 487.162 726.012Z" fill="black"/>
<path d="M510.704 753.022H278.422V1174.61H510.704V753.022Z" fill="#FAFAFA"/>
<path opacity="0.18" d="M510.838 752.146H278.557V1173.74H510.838V752.146Z" fill="#407BFF"/>
<path opacity="0.4" d="M362.72 753.056L287.38 1174.65H361.979L437.352 753.056H362.72Z" fill="white"/>
<path opacity="0.4" d="M455.538 753.056L380.199 1174.65H417.515L492.854 753.056H455.538Z" fill="white"/>
<path d="M405.054 1194.15C405.054 1196.22 404.439 1198.24 403.288 1199.96C402.138 1201.69 400.502 1203.03 398.588 1203.82C396.674 1204.62 394.568 1204.82 392.536 1204.42C390.504 1204.01 388.638 1203.02 387.173 1201.55C385.709 1200.09 384.711 1198.22 384.307 1196.19C383.903 1194.16 384.11 1192.05 384.903 1190.14C385.696 1188.22 387.038 1186.59 388.761 1185.44C390.483 1184.29 392.508 1183.67 394.58 1183.67C397.358 1183.67 400.022 1184.77 401.986 1186.74C403.95 1188.7 405.054 1191.37 405.054 1194.15Z" fill="#407BFF"/>
<path opacity="0.5" d="M405.054 1194.15C405.054 1196.22 404.439 1198.24 403.288 1199.96C402.138 1201.69 400.502 1203.03 398.588 1203.82C396.674 1204.62 394.568 1204.82 392.536 1204.42C390.504 1204.01 388.638 1203.02 387.173 1201.55C385.709 1200.09 384.711 1198.22 384.307 1196.19C383.903 1194.16 384.11 1192.05 384.903 1190.14C385.696 1188.22 387.038 1186.59 388.761 1185.44C390.483 1184.29 392.508 1183.67 394.58 1183.67C397.358 1183.67 400.022 1184.77 401.986 1186.74C403.95 1188.7 405.054 1191.37 405.054 1194.15Z" fill="black"/>
<path d="M422.028 742.144C424.074 742.144 425.732 740.485 425.732 738.439C425.732 736.393 424.074 734.734 422.028 734.734C419.982 734.734 418.323 736.393 418.323 738.439C418.323 740.485 419.982 742.144 422.028 742.144Z" fill="#407BFF"/>
<path d="M406.906 742.144H367.098C366.115 742.144 365.173 741.753 364.478 741.059C363.783 740.364 363.393 739.422 363.393 738.439C363.402 737.459 363.795 736.522 364.488 735.829C365.181 735.136 366.118 734.743 367.098 734.734H406.872C407.852 734.743 408.789 735.136 409.482 735.829C410.175 736.522 410.568 737.459 410.577 738.439C410.577 739.416 410.191 740.353 409.504 741.047C408.816 741.741 407.883 742.135 406.906 742.144Z" fill="#407BFF"/>
<path opacity="0.5" d="M422.028 742.144C424.074 742.144 425.732 740.485 425.732 738.439C425.732 736.393 424.074 734.734 422.028 734.734C419.982 734.734 418.323 736.393 418.323 738.439C418.323 740.485 419.982 742.144 422.028 742.144Z" fill="black"/>
<path opacity="0.5" d="M406.906 742.144H367.098C366.115 742.144 365.173 741.753 364.478 741.059C363.783 740.364 363.393 739.422 363.393 738.439C363.402 737.459 363.795 736.522 364.488 735.829C365.181 735.136 366.118 734.743 367.098 734.734H406.872C407.852 734.743 408.789 735.136 409.482 735.829C410.175 736.522 410.568 737.459 410.577 738.439C410.577 739.416 410.191 740.353 409.504 741.047C408.816 741.741 407.883 742.135 406.906 742.144Z" fill="black"/>
</svg>
