<svg width="1685" height="1256" viewBox="0 0 1685 1256" fill="none" xmlns="http://www.w3.org/2000/svg">
<path d="M1684.14 1103.6H0.201416V1104.45H1684.14V1103.6Z" fill="#E6E6E6"/>
<path d="M1501.77 1132.74H1439.36V1133.58H1501.77V1132.74Z" fill="#E6E6E6"/>
<path d="M1417.23 1132.74H1329.13V1133.58H1417.23V1132.74Z" fill="#E6E6E6"/>
<path d="M1176.9 1133.58H1111.7V1134.42H1176.9V1133.58Z" fill="#E6E6E6"/>
<path d="M285.696 1125.93H140.237V1126.78H285.696V1125.93Z" fill="#E6E6E6"/>
<path d="M110.23 1125.93H88.9111V1126.78H110.23V1125.93Z" fill="#E6E6E6"/>
<path d="M555.731 1151.29H343.623V1152.14H555.731V1151.29Z" fill="#E6E6E6"/>
<path d="M798.387 953.397H148.085C142.99 953.389 138.107 951.359 134.508 947.753C130.909 944.148 128.888 939.261 128.888 934.167V20.026C128.932 14.9609 130.973 10.1177 134.567 6.54857C138.162 2.97943 143.019 0.972582 148.085 0.963905H798.387C803.487 0.963905 808.378 2.98997 811.985 6.5964C815.591 10.2028 817.617 15.0942 817.617 20.1944V934.167C817.617 939.267 815.591 944.159 811.985 947.765C808.378 951.371 803.487 953.397 798.387 953.397ZM148.085 1.63748C143.213 1.6464 138.545 3.5877 135.104 7.03525C131.662 10.4828 129.73 15.1549 129.73 20.026V934.167C129.73 939.038 131.662 943.71 135.104 947.158C138.545 950.605 143.213 952.547 148.085 952.555H798.387C803.261 952.547 807.933 950.606 811.379 947.16C814.826 943.713 816.766 939.041 816.775 934.167V20.026C816.766 15.1518 814.826 10.4798 811.379 7.0332C807.933 3.5866 803.261 1.64638 798.387 1.63748H148.085Z" fill="#E6E6E6"/>
<path d="M1526.89 953.397H876.555C871.457 953.389 866.571 951.36 862.967 947.755C859.362 944.151 857.333 939.264 857.324 934.167V20.026C857.377 14.9578 859.426 10.1147 863.026 6.54646C866.625 2.97826 871.486 0.972488 876.555 0.963905H1526.89C1531.95 0.981433 1536.8 2.9922 1540.39 6.56039C1543.97 10.1286 1546.01 14.9667 1546.05 20.026V934.167C1546.05 939.256 1544.04 944.137 1540.44 947.741C1536.85 951.346 1531.98 953.38 1526.89 953.397ZM876.555 1.63748C871.681 1.64638 867.008 3.5866 863.562 7.0332C860.115 10.4798 858.175 15.1518 858.166 20.026V934.167C858.175 939.041 860.115 943.713 863.562 947.16C867.008 950.606 871.681 952.547 876.555 952.555H1526.89C1531.76 952.547 1536.44 950.606 1539.88 947.16C1543.33 943.713 1545.27 939.041 1545.28 934.167V20.026C1545.27 15.1518 1543.33 10.4798 1539.88 7.0332C1536.44 3.5866 1531.76 1.64638 1526.89 1.63748H876.555Z" fill="#E6E6E6"/>
<path d="M1418.14 103.886H961.122V540.227H1418.14V103.886Z" fill="#E0E0E0"/>
<path d="M1428.28 103.886H971.259V540.227H1428.28V103.886Z" fill="#F5F5F5"/>
<path d="M1410.06 519.751V124.363L989.513 124.363V519.751H1410.06Z" fill="white"/>
<path d="M1410.06 519.751V124.363H1402.38V519.751H1410.06Z" fill="#E0E0E0"/>
<path d="M1420.74 396.857H978.803V424.339H1420.74V396.857Z" fill="#F5F5F5"/>
<path d="M853.114 890.923H762.923V1090.94H853.114V890.923Z" fill="#E6E6E6"/>
<path d="M1177.41 1090.94H780.267V1103.6H1177.41V1090.94Z" fill="#E6E6E6"/>
<path d="M853.115 1090.94H1194.68V890.924H853.115V1090.94Z" fill="#FAFAFA"/>
<path d="M888.578 981.149H1159.22V915.543H888.578V981.149Z" fill="#E6E6E6"/>
<path d="M888.578 1066.29H1159.22V1000.68H888.578V1066.29Z" fill="#E6E6E6"/>
<path d="M1064.48 943.833H983.35C981.155 943.833 979.376 945.612 979.376 947.807V948.851C979.376 951.046 981.155 952.825 983.35 952.825H1064.48C1066.68 952.825 1068.46 951.046 1068.46 948.851V947.807C1068.46 945.612 1066.68 943.833 1064.48 943.833Z" fill="#FAFAFA"/>
<path d="M1064.48 1029.01H983.35C981.155 1029.01 979.376 1030.79 979.376 1032.98V1034.02C979.376 1036.22 981.155 1038 983.35 1038H1064.48C1066.68 1038 1068.46 1036.22 1068.46 1034.02V1032.98C1068.46 1030.79 1066.68 1029.01 1064.48 1029.01Z" fill="#FAFAFA"/>
<path d="M302.266 679.32H210.255V1078.31H302.266V679.32Z" fill="#E6E6E6"/>
<path d="M681.656 1078.31H227.937V1103.6H681.656V1078.31Z" fill="#E6E6E6"/>
<path d="M302.266 1078.31H699.304V679.32H302.266L302.266 1078.31Z" fill="#FAFAFA"/>
<path d="M338.437 859.266H663.133V728.39H338.437V859.266Z" fill="#E6E6E6"/>
<path d="M338.437 1029.21H663.133V898.333H338.437V1029.21Z" fill="#E6E6E6"/>
<path d="M537.242 802.82H464.328C461.954 802.811 459.681 801.864 458.003 800.186C456.325 798.508 455.378 796.235 455.369 793.861C455.369 791.482 456.312 789.2 457.991 787.515C459.67 785.83 461.949 784.878 464.328 784.869H537.242C539.621 784.878 541.9 785.83 543.579 787.515C545.258 789.2 546.2 791.482 546.2 793.861C546.192 796.235 545.245 798.508 543.567 800.186C541.889 801.864 539.615 802.811 537.242 802.82Z" fill="#FAFAFA"/>
<path d="M537.242 972.729H464.328C461.954 972.72 459.681 971.774 458.003 970.095C456.325 968.417 455.378 966.144 455.369 963.771C455.378 961.397 456.325 959.124 458.003 957.446C459.681 955.768 461.954 954.821 464.328 954.812H537.242C539.615 954.821 541.889 955.768 543.567 957.446C545.245 959.124 546.192 961.397 546.2 963.771C546.2 966.147 545.257 968.425 543.577 970.105C541.897 971.785 539.618 972.729 537.242 972.729Z" fill="#FAFAFA"/>
<path d="M1061.08 859.198C1061.08 859.198 993.319 742.367 1087.32 649.38C1087.32 649.38 1111.87 665.344 1111.5 686.864C1111.13 708.385 1085.23 713.807 1090.78 731.758C1096.34 749.709 1120.79 767.289 1104.76 782.276C1088.73 797.263 1107.32 810.297 1106.24 828.483C1105.17 846.67 1061.08 859.198 1061.08 859.198Z" fill="#FAFAFA"/>
<path d="M961.998 825.823C961.998 825.823 964.321 890.924 1053.17 890.924C1142.01 890.924 1144.3 825.823 1144.3 825.823H961.998Z" fill="#E6E6E6"/>
<path d="M1066.2 869.874C1066.2 869.874 1093.65 737.618 975.267 679.017C975.267 679.017 957.047 701.952 964.187 722.227C971.327 742.501 997.596 739.504 997.865 758.297C998.135 777.089 980.554 801.507 1000.49 810.499C1020.43 819.491 1006.86 837.947 1013.63 854.854C1020.4 871.76 1066.2 869.874 1066.2 869.874Z" fill="#E6E6E6"/>
<path d="M525.758 306.901C525.758 306.901 528.081 346.036 616.892 346.036C705.703 346.036 708.06 306.901 708.06 306.901H525.758Z" fill="#F0F0F0"/>
<path d="M284.887 374.528L270.305 471.826H284.887L374.338 374.528H284.887Z" fill="#F5F5F5"/>
<path d="M270.305 374.528V471.826L359.755 374.528H270.305Z" fill="#E0E0E0"/>
<path d="M635.718 374.528L621.102 471.826H635.718L725.169 374.528H635.718Z" fill="#F5F5F5"/>
<path d="M621.102 374.528V471.826L710.586 374.528H621.102Z" fill="#E0E0E0"/>
<path d="M204.597 376.38H301.895V346.036H204.597V376.38Z" fill="#E0E0E0"/>
<path d="M785.656 346.036H301.929V376.38H785.656V346.036Z" fill="#F5F5F5"/>
<path d="M401.315 221.357C426.473 224.725 442.032 170.199 386.496 123.925C389.493 177.474 357.499 215.329 401.315 221.357Z" fill="#E0E0E0"/>
<path d="M419.804 292.958C456.245 267.396 431.289 178.114 318.465 184.58C367.299 250.186 356.219 337.481 419.804 292.958Z" fill="#E0E0E0"/>
<path d="M406.939 292.352C382.69 266.251 417.043 200.578 504.372 224.557C455.133 267.8 449.172 337.751 406.939 292.352Z" fill="#E0E0E0"/>
<path d="M438.024 254.295C446.41 244.191 456.312 232.606 453.921 220.616C451.53 208.627 445.501 199.432 450.283 186.5C456.009 171.008 454.897 152.518 445.232 154.067C435.566 155.616 424.721 166.966 425.024 181.953C425.328 196.94 415.695 201.15 406.771 208.896C397.846 216.642 394.377 227.891 392.76 239.207C389.965 256.787 367.164 253.453 361.102 268.743C354.872 283.494 367.333 303.163 387.271 307.676C407.208 312.189 421.421 315.018 435.027 299.458C448.835 282.653 425.597 268.912 438.024 254.295Z" fill="#F5F5F5"/>
<path d="M369.387 346.036H444.322L449.98 296.225H363.729L369.387 346.036Z" fill="#E6E6E6"/>
<path d="M358.172 305.116H455.571V294.137H358.172V305.116Z" fill="#E6E6E6"/>
<path d="M612.682 625.636H531.314V679.287H612.682V625.636Z" fill="#F5F5F5"/>
<path d="M470.221 679.32H531.314V625.67H470.221V679.32Z" fill="#E0E0E0"/>
<path d="M446.377 597.077H411.486V679.32H446.377V597.077Z" fill="#F5F5F5"/>
<path d="M385.284 679.32H411.486V597.077H385.284V679.32Z" fill="#E0E0E0"/>
<path d="M842.169 1255.7C1202.81 1255.7 1495.17 1238.63 1495.17 1217.57C1495.17 1196.52 1202.81 1179.45 842.169 1179.45C481.529 1179.45 189.173 1196.52 189.173 1217.57C189.173 1238.63 481.529 1255.7 842.169 1255.7Z" fill="#F5F5F5"/>
<path d="M529.563 596.471C533.443 598.177 537.549 599.312 541.755 599.838C550.401 600.891 559.141 598.864 566.441 594.113C577.993 586.636 584.998 573.535 583.887 561.478C583.828 560.889 583.549 560.343 583.106 559.95C582.663 559.557 582.088 559.345 581.496 559.357C571.041 559.282 560.7 561.534 551.223 565.949C541.745 570.364 533.369 576.833 526.7 584.885C523.535 571.414 520.739 557.168 518.719 542.484C524.323 546.775 530.91 549.6 537.882 550.701C540.768 551.051 543.692 550.926 546.537 550.331C561.592 547.232 573.48 531.1 584.325 514.093C584.524 513.788 584.658 513.444 584.716 513.084C584.774 512.725 584.755 512.357 584.662 512.004C584.571 511.664 584.402 511.35 584.168 511.087C583.934 510.824 583.642 510.619 583.314 510.489C555.866 499.038 526.768 523.792 517.473 532.717C516.059 520.349 515.306 507.916 515.216 495.468C521.089 497.337 527.12 498.667 533.234 499.442C548.019 501.16 560.447 498.6 569.338 491.73C579.879 483.647 584.763 470.209 583.449 452.932C583.421 452.601 583.325 452.28 583.166 451.988C583.007 451.696 582.789 451.441 582.526 451.238C582.263 451.036 581.961 450.89 581.639 450.81C581.316 450.731 580.981 450.719 580.654 450.777C549.4 455.323 525.387 475.328 515.384 484.96C515.384 482.738 515.384 480.515 515.62 478.225C515.658 477.673 515.503 477.126 515.182 476.675C514.907 472.449 513.695 468.337 511.632 464.638C509.57 460.939 506.71 457.746 503.26 455.289C495.413 450.204 484.434 449.53 470.592 453.235C470.184 453.352 469.806 453.554 469.481 453.826C469.156 454.099 468.892 454.437 468.706 454.818C468.522 455.178 468.427 455.576 468.427 455.98C468.427 456.384 468.522 456.782 468.706 457.142C469.278 458.119 481.369 478.528 502.688 481.054C504.996 481.257 507.317 481.257 509.625 481.054C509.356 487.183 509.255 493.346 509.356 499.51C501.934 493.147 493.213 488.481 483.8 485.84C474.388 483.199 464.512 482.646 454.864 484.22C454.101 484.343 453.415 484.752 452.944 485.365C452.721 485.659 452.564 485.998 452.483 486.358C452.402 486.718 452.398 487.091 452.473 487.453C456.716 508.3 466.988 522.344 479.954 524.971C480.527 524.971 481.133 525.173 481.773 525.274C488.509 526.048 498.141 524.061 509.861 512.914C510.687 527.159 512.295 541.348 514.677 555.416C503.361 548.108 477.395 534.738 454.291 547.738C453.706 548.048 453.255 548.562 453.025 549.184C452.796 549.805 452.803 550.489 453.045 551.105C462.442 570.1 472.68 580.002 484.4 581.416H484.703C494.47 582.46 504.91 577.611 516.732 566.732C519.392 580.473 522.558 593.675 525.926 605.934C515.014 596.807 501.071 596.403 482.851 604.587C482.452 604.771 482.1 605.042 481.82 605.38C481.54 605.718 481.34 606.115 481.234 606.541C481.128 606.945 481.132 607.37 481.244 607.772C481.357 608.175 481.574 608.54 481.874 608.831C482.649 609.605 495.884 622.302 512.185 624.154C518.413 624.937 524.732 623.847 530.338 621.022C537.018 643.446 545.163 665.407 554.721 686.763C554.913 687.166 555.207 687.511 555.573 687.765C555.939 688.019 556.365 688.173 556.809 688.211C557.41 688.269 558.014 688.164 558.561 687.908C559.253 687.572 559.792 686.984 560.067 686.265C560.343 685.545 560.334 684.748 560.042 684.035C547.461 655.747 537.266 626.457 529.563 596.471Z" fill="#407BFF"/>
<g opacity="0.6">
<path d="M529.563 596.471C533.443 598.177 537.549 599.312 541.755 599.838C550.401 600.891 559.141 598.864 566.441 594.113C577.993 586.636 584.998 573.535 583.887 561.478C583.828 560.889 583.549 560.343 583.106 559.95C582.663 559.557 582.088 559.345 581.496 559.357C571.041 559.282 560.7 561.534 551.223 565.949C541.745 570.364 533.369 576.833 526.7 584.885C523.535 571.414 520.739 557.168 518.719 542.484C524.323 546.775 530.91 549.6 537.882 550.701C540.768 551.051 543.692 550.926 546.537 550.331C561.592 547.232 573.48 531.1 584.325 514.093C584.524 513.788 584.658 513.444 584.716 513.084C584.774 512.725 584.755 512.357 584.662 512.004C584.571 511.664 584.402 511.35 584.168 511.087C583.934 510.824 583.642 510.619 583.314 510.489C555.866 499.038 526.768 523.792 517.473 532.717C516.059 520.349 515.306 507.916 515.216 495.468C521.089 497.337 527.12 498.667 533.234 499.442C548.019 501.16 560.447 498.6 569.338 491.73C579.879 483.647 584.763 470.209 583.449 452.932C583.421 452.601 583.325 452.28 583.166 451.988C583.007 451.696 582.789 451.441 582.526 451.238C582.263 451.036 581.961 450.89 581.639 450.81C581.316 450.731 580.981 450.719 580.654 450.777C549.4 455.323 525.387 475.328 515.384 484.96C515.384 482.738 515.384 480.515 515.62 478.225C515.658 477.673 515.503 477.126 515.182 476.675C514.907 472.449 513.695 468.337 511.632 464.638C509.57 460.939 506.71 457.746 503.26 455.289C495.413 450.204 484.434 449.53 470.592 453.235C470.184 453.352 469.806 453.554 469.481 453.826C469.156 454.099 468.892 454.437 468.706 454.818C468.522 455.178 468.427 455.576 468.427 455.98C468.427 456.384 468.522 456.782 468.706 457.142C469.278 458.119 481.369 478.528 502.688 481.054C504.996 481.257 507.317 481.257 509.625 481.054C509.356 487.183 509.255 493.346 509.356 499.51C501.934 493.147 493.213 488.481 483.8 485.84C474.388 483.199 464.512 482.646 454.864 484.22C454.101 484.343 453.415 484.752 452.944 485.365C452.721 485.659 452.564 485.998 452.483 486.358C452.402 486.718 452.398 487.091 452.473 487.453C456.716 508.3 466.988 522.344 479.954 524.971C480.527 524.971 481.133 525.173 481.773 525.274C488.509 526.048 498.141 524.061 509.861 512.914C510.687 527.159 512.295 541.348 514.677 555.416C503.361 548.108 477.395 534.738 454.291 547.738C453.706 548.048 453.255 548.562 453.025 549.184C452.796 549.805 452.803 550.489 453.045 551.105C462.442 570.1 472.68 580.002 484.4 581.416H484.703C494.47 582.46 504.91 577.611 516.732 566.732C519.392 580.473 522.558 593.675 525.926 605.934C515.014 596.807 501.071 596.403 482.851 604.587C482.452 604.771 482.1 605.042 481.82 605.38C481.54 605.718 481.34 606.115 481.234 606.541C481.128 606.945 481.132 607.37 481.244 607.772C481.357 608.175 481.574 608.54 481.874 608.831C482.649 609.605 495.884 622.302 512.185 624.154C518.413 624.937 524.732 623.847 530.338 621.022C537.018 643.446 545.163 665.407 554.721 686.763C554.913 687.166 555.207 687.511 555.573 687.765C555.939 688.019 556.365 688.173 556.809 688.211C557.41 688.269 558.014 688.164 558.561 687.908C559.253 687.572 559.792 686.984 560.067 686.265C560.343 685.545 560.334 684.748 560.042 684.035C547.461 655.747 537.266 626.457 529.563 596.471Z" fill="black"/>
</g>
<path d="M1407.47 517.359H593.115C579.741 517.359 568.9 528.201 568.9 541.574V1043.12C568.9 1056.49 579.741 1067.33 593.115 1067.33H1407.47C1420.84 1067.33 1431.68 1056.49 1431.68 1043.12V541.574C1431.68 528.201 1420.84 517.359 1407.47 517.359Z" fill="#407BFF"/>
<path opacity="0.6" d="M1407.47 517.359H593.115C579.741 517.359 568.9 528.201 568.9 541.574V1043.12C568.9 1056.49 579.741 1067.33 593.115 1067.33H1407.47C1420.84 1067.33 1431.68 1056.49 1431.68 1043.12V541.574C1431.68 528.201 1420.84 517.359 1407.47 517.359Z" fill="black"/>
<path d="M1110.66 1217.57H909.189C928.925 1143.14 917.104 1062.95 873.76 988.558H1075.23C1118.57 1062.95 1130.39 1143.14 1110.66 1217.57Z" fill="#407BFF"/>
<path d="M1100.15 1217.57H898.648C918.384 1143.14 906.596 1062.95 863.218 988.558H1064.72C1108.23 1062.95 1119.88 1143.14 1100.15 1217.57Z" fill="#407BFF"/>
<path d="M1107.02 1095.52H903.329C896.334 1057.81 882.757 1021.63 863.218 988.625H1066.91C1086.42 1021.64 1099.99 1057.82 1107.02 1095.52Z" fill="#407BFF"/>
<g opacity="0.4">
<path d="M1110.66 1217.57H909.189C928.925 1143.14 917.104 1062.95 873.759 988.558H1075.23C1118.57 1062.95 1130.39 1143.14 1110.66 1217.57Z" fill="black"/>
<path d="M1100.15 1217.57H898.648C918.384 1143.14 906.596 1062.95 863.218 988.558H1064.72C1108.23 1062.95 1119.88 1143.14 1100.15 1217.57Z" fill="black"/>
<path d="M1107.02 1095.52H903.329C896.334 1057.81 882.757 1021.63 863.218 988.625H1066.91C1086.42 1021.64 1099.99 1057.82 1107.02 1095.52Z" fill="black"/>
</g>
<path d="M1100.15 1217.57H898.648C918.384 1143.14 906.596 1062.95 863.218 988.558H1064.72C1108.23 1062.95 1119.88 1143.14 1100.15 1217.57Z" fill="#407BFF"/>
<path opacity="0.2" d="M1100.15 1217.57H898.648C918.384 1143.14 906.596 1062.95 863.218 988.558H1064.72C1108.23 1062.95 1119.88 1143.14 1100.15 1217.57Z" fill="black"/>
<path opacity="0.2" d="M1104.86 1095.52H903.127C896.191 1057.85 882.743 1021.68 863.386 988.625H1065.12C1084.48 1021.68 1097.93 1057.85 1104.86 1095.52Z" fill="black"/>
<path d="M1396.02 517.359H581.664C568.291 517.359 557.449 528.201 557.449 541.574V1043.12C557.449 1056.49 568.291 1067.33 581.664 1067.33H1396.02C1409.39 1067.33 1420.23 1056.49 1420.23 1043.12V541.574C1420.23 528.201 1409.39 517.359 1396.02 517.359Z" fill="#407BFF"/>
<path opacity="0.3" d="M1396.02 517.359H581.664C568.291 517.359 557.449 528.201 557.449 541.574V1043.12C557.449 1056.49 568.291 1067.33 581.664 1067.33H1396.02C1409.39 1067.33 1420.23 1056.49 1420.23 1043.12V541.574C1420.23 528.201 1409.39 517.359 1396.02 517.359Z" fill="black"/>
<path d="M1062.76 1201.64H832.739C828.514 1201.64 824.462 1203.32 821.475 1206.31C818.487 1209.3 816.809 1213.35 816.809 1217.57H1078.69C1078.69 1213.35 1077.02 1209.3 1074.03 1206.31C1071.04 1203.32 1066.99 1201.64 1062.76 1201.64Z" fill="#407BFF"/>
<path opacity="0.3" d="M1062.76 1201.64H832.739C828.514 1201.64 824.462 1203.32 821.475 1206.31C818.487 1209.3 816.809 1213.35 816.809 1217.57H1078.69C1078.69 1213.35 1077.02 1209.3 1074.03 1206.31C1071.04 1203.32 1066.99 1201.64 1062.76 1201.64Z" fill="black"/>
<path d="M1420.23 545.212H557.449V988.524H1420.23V545.212Z" fill="#407BFF"/>
<path opacity="0.84" d="M1419.93 545.212H557.146V988.524H1419.93V545.212Z" fill="#FAFAFA"/>
<path opacity="0.23" d="M1294.84 579.463H713.584C708.301 579.463 704.019 583.745 704.019 589.028V929.048C704.019 934.33 708.301 938.613 713.584 938.613H1294.84C1300.13 938.613 1304.41 934.33 1304.41 929.048V589.028C1304.41 583.745 1300.13 579.463 1294.84 579.463Z" fill="#407BFF"/>
<path opacity="0.67" d="M1301.88 604.183V929.048C1301.88 931.584 1300.88 934.017 1299.08 935.811C1297.29 937.605 1294.86 938.613 1292.32 938.613H711.058C708.524 938.604 706.096 937.593 704.304 935.801C702.512 934.009 701.502 931.582 701.493 929.048V604.183H1301.88Z" fill="#FAFAFA"/>
<path opacity="0.41" d="M1300.13 616.914H703.244V925.916H1300.13V616.914Z" fill="white"/>
<path opacity="0.19" d="M1178.25 830.235C1162.56 830.235 1147.23 825.583 1134.18 816.868C1121.14 808.153 1110.98 795.766 1104.97 781.273C1098.97 766.78 1097.4 750.833 1100.46 735.448C1103.52 720.063 1111.07 705.93 1122.17 694.838C1133.26 683.746 1147.39 676.192 1162.78 673.132C1178.16 670.071 1194.11 671.642 1208.6 677.645C1223.09 683.648 1235.48 693.814 1244.2 706.857C1252.91 719.9 1257.56 735.234 1257.56 750.921C1257.54 771.948 1249.17 792.106 1234.3 806.975C1219.43 821.843 1199.28 830.208 1178.25 830.235ZM1178.25 672.45C1162.73 672.45 1147.56 677.052 1134.65 685.675C1121.75 694.297 1111.69 706.553 1105.75 720.892C1099.81 735.23 1098.26 751.008 1101.29 766.23C1104.31 781.452 1111.79 795.434 1122.76 806.409C1133.74 817.383 1147.72 824.857 1162.94 827.885C1178.16 830.913 1193.94 829.359 1208.28 823.419C1222.62 817.48 1234.87 807.422 1243.5 794.518C1252.12 781.613 1256.72 766.441 1256.72 750.921C1256.7 730.115 1248.43 710.166 1233.72 695.453C1219 680.741 1199.06 672.468 1178.25 672.45Z" fill="#407BFF"/>
<path opacity="0.19" d="M1044.91 830.235C1029.23 830.235 1013.89 825.583 1000.85 816.868C987.807 808.153 977.642 795.766 971.639 781.273C965.636 766.78 964.065 750.833 967.125 735.448C970.186 720.063 977.739 705.93 988.832 694.838C999.924 683.746 1014.06 676.192 1029.44 673.132C1044.83 670.071 1060.77 671.642 1075.27 677.645C1089.76 683.648 1102.15 693.814 1110.86 706.857C1119.58 719.9 1124.23 735.234 1124.23 750.921C1124.19 771.945 1115.82 792.098 1100.96 806.965C1086.09 821.831 1065.94 830.199 1044.91 830.235ZM1044.91 672.45C1029.39 672.45 1014.22 677.052 1001.32 685.675C988.414 694.297 978.356 706.553 972.417 720.892C966.477 735.23 964.923 751.008 967.951 766.23C970.979 781.452 978.453 795.434 989.427 806.409C1000.4 817.383 1014.38 824.857 1029.61 827.885C1044.83 830.913 1060.61 829.359 1074.94 823.419C1089.28 817.48 1101.54 807.422 1110.16 794.518C1118.78 781.613 1123.39 766.441 1123.39 750.921C1123.36 730.117 1115.08 710.173 1100.37 695.463C1085.66 680.753 1065.72 672.477 1044.91 672.45Z" fill="#407BFF"/>
<path opacity="0.19" d="M1257.16 874.556H789.024C788.968 874.556 788.912 874.544 788.861 874.522C788.81 874.5 788.763 874.467 788.725 874.426C788.687 874.384 788.658 874.336 788.64 874.283C788.622 874.23 788.615 874.174 788.62 874.118V861.084C788.615 861.028 788.622 860.972 788.64 860.919C788.658 860.866 788.687 860.818 788.725 860.776C788.763 860.735 788.81 860.702 788.861 860.68C788.912 860.658 788.968 860.646 789.024 860.646H1257.16C1257.21 860.646 1257.27 860.658 1257.32 860.68C1257.37 860.702 1257.42 860.735 1257.46 860.776C1257.49 860.818 1257.52 860.866 1257.54 860.919C1257.56 860.972 1257.57 861.028 1257.56 861.084V874.118C1257.57 874.174 1257.56 874.23 1257.54 874.283C1257.52 874.336 1257.49 874.384 1257.46 874.426C1257.42 874.467 1257.37 874.5 1257.32 874.522C1257.27 874.544 1257.21 874.556 1257.16 874.556ZM789.327 873.714H1256.72V861.488H789.327V873.714Z" fill="#407BFF"/>
<path opacity="0.19" d="M1283.36 897.322H720.117C720.061 897.323 720.006 897.311 719.954 897.289C719.903 897.266 719.857 897.234 719.819 897.192C719.781 897.151 719.752 897.103 719.734 897.05C719.715 896.997 719.708 896.94 719.713 896.885V645.911C719.708 645.855 719.715 645.799 719.734 645.746C719.752 645.693 719.781 645.644 719.819 645.603C719.857 645.562 719.903 645.529 719.954 645.507C720.006 645.484 720.061 645.473 720.117 645.473H1283.36C1283.42 645.473 1283.47 645.484 1283.52 645.507C1283.57 645.529 1283.62 645.562 1283.66 645.603C1283.7 645.644 1283.73 645.693 1283.74 645.746C1283.76 645.799 1283.77 645.855 1283.76 645.911V896.817C1283.78 896.878 1283.78 896.942 1283.77 897.003C1283.75 897.064 1283.73 897.122 1283.69 897.171C1283.65 897.22 1283.6 897.259 1283.54 897.285C1283.48 897.312 1283.42 897.324 1283.36 897.322ZM720.656 896.48H1283.09V646.315H720.555L720.656 896.48Z" fill="#407BFF"/>
<path d="M1275.85 591.89C1275.84 592.898 1276.14 593.884 1276.69 594.725C1277.24 595.566 1278.04 596.223 1278.97 596.613C1279.89 597.003 1280.92 597.108 1281.91 596.916C1282.89 596.723 1283.8 596.242 1284.52 595.532C1285.23 594.822 1285.72 593.916 1285.92 592.929C1286.12 591.941 1286.02 590.917 1285.64 589.986C1285.25 589.055 1284.6 588.258 1283.76 587.698C1282.93 587.138 1281.94 586.839 1280.93 586.839C1280.27 586.834 1279.61 586.962 1278.99 587.213C1278.37 587.465 1277.81 587.837 1277.34 588.306C1276.87 588.776 1276.49 589.334 1276.24 589.949C1275.98 590.564 1275.85 591.224 1275.85 591.89Z" fill="white"/>
<path d="M1262.92 596.976C1265.73 596.976 1268 594.699 1268 591.89C1268 589.082 1265.73 586.805 1262.92 586.805C1260.11 586.805 1257.83 589.082 1257.83 591.89C1257.83 594.699 1260.11 596.976 1262.92 596.976Z" fill="white"/>
<path d="M1244.9 596.976C1247.71 596.976 1249.98 594.699 1249.98 591.89C1249.98 589.082 1247.71 586.805 1244.9 586.805C1242.09 586.805 1239.81 589.082 1239.81 591.89C1239.81 594.699 1242.09 596.976 1244.9 596.976Z" fill="white"/>
<path d="M1301.88 603.543H701.493V604.823H1301.88V603.543Z" fill="#407BFF"/>
<path opacity="0.47" d="M788.047 545.212L708.801 988.524H787.239L866.485 545.212H788.047Z" fill="#FAFAFA"/>
<path opacity="0.47" d="M885.614 545.212L806.402 988.524H845.604L924.85 545.212H885.614Z" fill="#FAFAFA"/>
<path opacity="0.4" d="M1323.98 545.212L1244.73 988.524H1264.36L1343.58 545.212H1323.98Z" fill="white"/>
<path opacity="0.4" d="M1289.46 545.212L1210.21 988.524H1229.84L1309.06 545.212H1289.46Z" fill="white"/>
<path d="M1117.56 1201.64H1076.37C1072.15 1201.64 1068.09 1203.32 1065.11 1206.31C1062.12 1209.3 1060.44 1213.35 1060.44 1217.57H1133.46C1133.46 1215.48 1133.05 1213.41 1132.26 1211.48C1131.46 1209.55 1130.29 1207.79 1128.81 1206.31C1127.34 1204.83 1125.58 1203.66 1123.65 1202.86C1121.72 1202.06 1119.65 1201.64 1117.56 1201.64Z" fill="#407BFF"/>
<path opacity="0.4" d="M1117.56 1201.64H1076.37C1072.15 1201.64 1068.09 1203.32 1065.11 1206.31C1062.12 1209.3 1060.44 1213.35 1060.44 1217.57H1133.46C1133.46 1215.48 1133.05 1213.41 1132.26 1211.48C1131.46 1209.55 1130.29 1207.79 1128.81 1206.31C1127.34 1204.83 1125.58 1203.66 1123.65 1202.86C1121.72 1202.06 1119.65 1201.64 1117.56 1201.64Z" fill="black"/>
<path d="M1005.34 1028.94C1005.34 1032.2 1004.37 1035.39 1002.56 1038.11C1000.75 1040.82 998.17 1042.94 995.155 1044.19C992.139 1045.43 988.821 1045.76 985.62 1045.12C982.419 1044.49 979.478 1042.92 977.17 1040.61C974.863 1038.3 973.291 1035.36 972.654 1032.16C972.017 1028.96 972.344 1025.64 973.593 1022.62C974.842 1019.61 976.957 1017.03 979.671 1015.22C982.385 1013.4 985.576 1012.44 988.839 1012.44C993.216 1012.44 997.414 1014.17 1000.51 1017.27C1003.6 1020.36 1005.34 1024.56 1005.34 1028.94Z" fill="#407BFF"/>
<path opacity="0.5" d="M1005.34 1028.94C1005.34 1032.2 1004.37 1035.39 1002.56 1038.11C1000.75 1040.82 998.17 1042.94 995.155 1044.19C992.139 1045.43 988.821 1045.76 985.62 1045.12C982.419 1044.49 979.478 1042.92 977.17 1040.61C974.863 1038.3 973.291 1035.36 972.654 1032.16C972.017 1028.96 972.344 1025.64 973.593 1022.62C974.842 1019.61 976.957 1017.03 979.671 1015.22C982.385 1013.4 985.576 1012.44 988.839 1012.44C993.216 1012.44 997.414 1014.17 1000.51 1017.27C1003.6 1020.36 1005.34 1024.56 1005.34 1028.94Z" fill="black"/>
<path d="M847.827 1160.66C845.503 1080.03 845.705 588.354 850.387 547.973L856.752 539.183C856.752 539.183 853.822 546.997 853.114 685.18C852.407 823.364 851.464 1140.15 852.239 1160.66H847.827Z" fill="#407BFF"/>
<path d="M885.648 861.623C912.591 816.763 942.094 784.869 963.446 767.323C984.798 749.776 928.824 863.711 906.933 906.113C885.042 948.514 858.065 995.395 849.376 1035C847.692 954.442 858.671 906.483 885.648 861.623Z" fill="#407BFF"/>
<path d="M849.915 553.631C855.438 502.642 847.962 455.525 875.713 395.813C903.464 336.101 924.581 289.22 951.355 267.43C957.788 262.176 935.796 365.974 910.233 424.44C892.215 465.696 886.423 495.165 867.293 522.984C862.814 529.45 849.915 553.631 849.915 553.631Z" fill="#407BFF"/>
<path d="M849.78 825.688C855.371 762.742 860.423 702.121 896.56 612.569C905.35 590.745 986.819 438.248 1008.07 421.746C1018.48 413.629 982.07 514.968 946.505 600.243C919.866 664.232 908.819 682.553 879.148 756.781C867.529 786.183 849.78 825.688 849.78 825.688Z" fill="#407BFF"/>
<path d="M802.361 515.069C772.05 474.015 742.749 446.264 721.229 431.748C699.708 417.233 758.275 518.168 786.431 562.219C814.586 606.271 840.081 644.496 851.734 682.688C846.143 602.297 832.671 556.157 802.361 515.069Z" fill="#407BFF"/>
<path d="M849.78 937.232C844.055 893.449 832.267 842.022 815.428 803.898C798.589 765.773 772.656 707.307 752.045 687.47C747.094 682.688 773.599 796.421 790.64 826.665C807.682 856.908 820.143 885.434 830.853 902.576C834.423 908.133 849.78 937.232 849.78 937.232Z" fill="#407BFF"/>
<path opacity="0.5" d="M847.827 1160.66C845.503 1080.03 845.705 588.354 850.387 547.973L856.752 539.183C856.752 539.183 853.822 546.997 853.114 685.18C852.407 823.364 851.464 1140.15 852.239 1160.66H847.827Z" fill="white"/>
<path opacity="0.5" d="M885.648 861.623C912.591 816.763 942.094 784.869 963.446 767.323C984.798 749.776 928.824 863.711 906.933 906.113C885.042 948.514 858.065 995.395 849.376 1035C847.692 954.442 858.671 906.483 885.648 861.623Z" fill="white"/>
<path opacity="0.5" d="M849.915 553.631C855.438 502.642 847.962 455.525 875.713 395.813C903.464 336.101 924.581 289.22 951.355 267.43C957.788 262.176 935.796 365.974 910.233 424.44C892.215 465.696 886.423 495.165 867.293 522.984C862.814 529.45 849.915 553.631 849.915 553.631Z" fill="white"/>
<path opacity="0.5" d="M849.78 825.688C855.371 762.742 860.423 702.121 896.56 612.569C905.35 590.745 986.819 438.248 1008.07 421.746C1018.48 413.629 982.07 514.968 946.505 600.243C919.866 664.232 908.819 682.553 879.148 756.781C867.529 786.183 849.78 825.688 849.78 825.688Z" fill="white"/>
<path opacity="0.5" d="M802.361 515.069C772.05 474.015 742.749 446.264 721.229 431.748C699.708 417.233 758.275 518.168 786.431 562.219C814.586 606.271 840.081 644.496 851.734 682.688C846.143 602.297 832.671 556.157 802.361 515.069Z" fill="white"/>
<path opacity="0.5" d="M849.78 937.232C844.055 893.449 832.267 842.022 815.428 803.898C798.589 765.773 772.656 707.307 752.045 687.47C747.094 682.688 773.599 796.421 790.64 826.665C807.682 856.908 820.143 885.434 830.853 902.576C834.423 908.133 849.78 937.232 849.78 937.232Z" fill="white"/>
<path d="M913.904 1217.57H786.262L776.63 1144.22H923.537L913.904 1217.57Z" fill="#263238"/>
<path d="M933.034 1152.78H767.099L762.35 1128.02H937.783L933.034 1152.78Z" fill="#263238"/>
<path d="M774.643 595.629H394.916C381.914 595.629 371.374 606.168 371.374 619.17V1194.03C371.374 1207.03 381.914 1217.57 394.916 1217.57H774.643C787.645 1217.57 798.184 1207.03 798.184 1194.03V619.17C798.184 606.168 787.645 595.629 774.643 595.629Z" fill="#407BFF"/>
<path opacity="0.6" d="M774.643 595.629H394.916C381.914 595.629 371.374 606.168 371.374 619.17V1194.03C371.374 1207.03 381.914 1217.57 394.916 1217.57H774.643C787.645 1217.57 798.184 1207.03 798.184 1194.03V619.17C798.184 606.168 787.645 595.629 774.643 595.629Z" fill="black"/>
<path d="M763.361 595.629H383.633C370.632 595.629 360.092 606.169 360.092 619.17V1194.03C360.092 1207.03 370.632 1217.57 383.633 1217.57H763.361C776.362 1217.57 786.902 1207.03 786.902 1194.03V619.17C786.902 606.169 776.362 595.629 763.361 595.629Z" fill="#407BFF"/>
<path opacity="0.3" d="M763.361 595.629H383.633C370.632 595.629 360.092 606.169 360.092 619.17V1194.03C360.092 1207.03 370.632 1217.57 383.633 1217.57H763.361C776.362 1217.57 786.902 1207.03 786.902 1194.03V619.17C786.902 606.169 776.362 595.629 763.361 595.629Z" fill="black"/>
<path d="M786.902 622.639H360.092V1162.51H786.902V622.639Z" fill="#FAFAFA"/>
<path opacity="0.1" d="M786.902 622.639H360.092V1162.51H786.902V622.639Z" fill="#407BFF"/>
<path opacity="0.48" d="M511.41 623.986L413.742 1163.86H488.34L586.009 623.986H511.41Z" fill="#FAFAFA"/>
<path opacity="0.48" d="M608.169 622.639L510.501 1162.54H547.783L645.452 622.639H608.169Z" fill="#FAFAFA"/>
<path d="M573.48 1205.75C582.334 1205.75 589.511 1198.57 589.511 1189.72C589.511 1180.87 582.334 1173.69 573.48 1173.69C564.626 1173.69 557.449 1180.87 557.449 1189.72C557.449 1198.57 564.626 1205.75 573.48 1205.75Z" fill="#407BFF"/>
<path opacity="0.5" d="M573.48 1205.75C582.334 1205.75 589.511 1198.57 589.511 1189.72C589.511 1180.87 582.334 1173.69 573.48 1173.69C564.626 1173.69 557.449 1180.87 557.449 1189.72C557.449 1198.57 564.626 1205.75 573.48 1205.75Z" fill="black"/>
<path d="M577.185 608.056C577.185 608.789 576.968 609.505 576.561 610.114C576.153 610.723 575.575 611.198 574.898 611.479C574.221 611.759 573.476 611.833 572.757 611.69C572.039 611.547 571.379 611.194 570.861 610.676C570.343 610.158 569.99 609.497 569.847 608.779C569.704 608.06 569.777 607.315 570.058 606.638C570.338 605.961 570.813 605.383 571.422 604.976C572.031 604.569 572.748 604.351 573.48 604.351C574.463 604.351 575.405 604.742 576.1 605.436C576.795 606.131 577.185 607.074 577.185 608.056Z" fill="#407BFF"/>
<path opacity="0.5" d="M577.185 608.056C577.185 608.789 576.968 609.505 576.561 610.114C576.153 610.723 575.575 611.198 574.898 611.479C574.221 611.759 573.476 611.833 572.757 611.69C572.039 611.547 571.379 611.194 570.861 610.676C570.343 610.158 569.99 609.497 569.847 608.779C569.704 608.06 569.777 607.315 570.058 606.638C570.338 605.961 570.813 605.383 571.422 604.976C572.031 604.569 572.748 604.351 573.48 604.351C574.463 604.351 575.405 604.742 576.1 605.436C576.795 606.131 577.185 607.074 577.185 608.056Z" fill="black"/>
<path d="M1106.58 502.776L1132.28 497.96C1132.69 497.892 1133.08 497.734 1133.42 497.497C1133.76 497.26 1134.05 496.95 1134.26 496.59C1134.47 496.229 1134.6 495.827 1134.63 495.412C1134.67 494.997 1134.61 494.579 1134.47 494.188L1114.26 434.341C1113.94 433.478 1113.34 432.751 1112.54 432.284C1111.75 431.818 1110.82 431.64 1109.91 431.782L1084.25 436.564C1083.84 436.631 1083.44 436.79 1083.1 437.029C1082.75 437.268 1082.46 437.582 1082.25 437.946C1082.04 438.311 1081.92 438.717 1081.88 439.137C1081.85 439.556 1081.91 439.977 1082.06 440.37L1102.27 500.217C1102.57 501.081 1103.17 501.811 1103.96 502.279C1104.75 502.747 1105.68 502.923 1106.58 502.776Z" fill="#407BFF"/>
<path opacity="0.6" d="M1106.58 502.776L1132.28 497.96C1132.69 497.892 1133.08 497.734 1133.42 497.497C1133.76 497.26 1134.05 496.95 1134.26 496.59C1134.47 496.229 1134.6 495.827 1134.63 495.412C1134.67 494.997 1134.61 494.579 1134.47 494.188L1114.26 434.341C1113.94 433.478 1113.34 432.751 1112.54 432.284C1111.75 431.818 1110.82 431.64 1109.91 431.782L1084.25 436.564C1083.84 436.631 1083.44 436.79 1083.1 437.029C1082.75 437.268 1082.46 437.582 1082.25 437.946C1082.04 438.311 1081.92 438.717 1081.88 439.137C1081.85 439.556 1081.91 439.977 1082.06 440.37L1102.27 500.217C1102.57 501.081 1103.17 501.811 1103.96 502.279C1104.75 502.747 1105.68 502.923 1106.58 502.776Z" fill="black"/>
<path d="M1109.75 502.305L1135.41 497.523C1135.82 497.455 1136.22 497.296 1136.57 497.057C1136.91 496.818 1137.2 496.505 1137.41 496.141C1137.62 495.776 1137.74 495.369 1137.78 494.95C1137.81 494.531 1137.75 494.11 1137.6 493.717L1117.39 433.87C1117.07 433.006 1116.47 432.279 1115.68 431.813C1114.88 431.346 1113.95 431.168 1113.05 431.31L1087.38 436.126C1086.97 436.189 1086.57 436.344 1086.23 436.579C1085.88 436.815 1085.59 437.125 1085.38 437.487C1085.17 437.849 1085.05 438.254 1085.01 438.671C1084.98 439.088 1085.04 439.508 1085.19 439.898L1105.4 499.745C1105.72 500.609 1106.32 501.336 1107.12 501.802C1107.91 502.269 1108.84 502.447 1109.75 502.305Z" fill="#407BFF"/>
<path opacity="0.3" d="M1109.75 502.305L1135.41 497.523C1135.82 497.455 1136.22 497.296 1136.57 497.057C1136.91 496.818 1137.2 496.505 1137.41 496.141C1137.62 495.776 1137.74 495.369 1137.78 494.95C1137.81 494.531 1137.75 494.11 1137.6 493.717L1117.39 433.87C1117.07 433.006 1116.47 432.279 1115.68 431.813C1114.88 431.346 1113.95 431.168 1113.05 431.31L1087.38 436.126C1086.97 436.189 1086.57 436.344 1086.23 436.579C1085.88 436.815 1085.59 437.125 1085.38 437.487C1085.17 437.849 1085.05 438.254 1085.01 438.671C1084.98 439.088 1085.04 439.508 1085.19 439.898L1105.4 499.745C1105.72 500.609 1106.32 501.336 1107.12 501.802C1107.91 502.269 1108.84 502.447 1109.75 502.305Z" fill="black"/>
<path d="M1104.02 495.67L1136.22 489.642L1118.1 435.958L1085.87 441.986L1104.02 495.67Z" fill="#FAFAFA"/>
<path opacity="0.14" d="M1104.02 495.67L1136.22 489.642L1118.1 435.958L1085.87 441.986L1104.02 495.67Z" fill="#407BFF"/>
<path d="M1085.87 465.191L1088.39 459.331L1112.64 486.577L1091.66 488.194L1085.87 465.191Z" fill="#E58A7B"/>
<path d="M671.586 253.891C700.286 253.891 723.552 230.625 723.552 201.925C723.552 173.225 700.286 149.958 671.586 149.958C642.886 149.958 619.62 173.225 619.62 201.925C619.62 230.625 642.886 253.891 671.586 253.891Z" fill="#407BFF"/>
<path d="M671.586 263.658C668.019 263.66 664.459 263.356 660.944 262.748L661.516 259.381C668.204 260.522 675.036 260.522 681.724 259.381L682.296 262.748C678.758 263.353 675.175 263.657 671.586 263.658ZM640.838 255.44C634.614 251.861 629.064 247.222 624.436 241.733L627.029 239.544C631.393 244.751 636.636 249.151 642.522 252.544L640.838 255.44ZM702.402 255.44L700.718 252.544C706.604 249.151 711.847 244.751 716.211 239.544L718.77 241.699C714.146 247.133 708.607 251.715 702.402 255.238V255.44ZM613.693 223.243C611.232 216.487 609.978 209.351 609.988 202.16H613.356C613.304 208.941 614.444 215.678 616.724 222.065L613.693 223.243ZM729.48 223.243L726.314 222.098C728.594 215.712 729.734 208.975 729.682 202.194H731.972H733.05C733.068 209.275 731.86 216.305 729.48 222.974V223.243ZM616.791 182.391L613.625 181.246C616.072 174.484 619.686 168.203 624.301 162.689L626.861 164.844C622.537 169.982 619.131 175.827 616.791 182.122V182.391ZM726.247 182.054C723.925 175.693 720.505 169.789 716.143 164.609L718.736 162.42C723.369 167.902 727.016 174.146 729.514 180.875L726.247 182.054ZM642.319 151.743L640.636 148.847C646.875 145.198 653.72 142.7 660.843 141.471L661.415 144.839C654.708 145.942 648.245 148.21 642.319 151.541V151.743ZM700.516 151.743C694.633 148.393 688.202 146.112 681.521 145.008L682.094 141.64C689.202 142.852 696.041 145.302 702.301 148.881L700.516 151.743Z" fill="#407BFF"/>
<path d="M1075.87 464.686H1065.76V468.054H1075.87V464.686Z" fill="#407BFF"/>
<path d="M1045.52 468.054H1025.31V464.686H1045.52V468.054ZM1004.84 465.73C998.147 463.882 991.785 461.008 985.977 457.209L987.829 454.414C993.341 458 999.373 460.715 1005.71 462.463L1004.84 465.73ZM970.586 443.435C966.161 438.103 962.594 432.115 960.011 425.686L963.143 424.44C965.631 430.536 969.038 436.215 973.246 441.279L970.586 443.435ZM955.296 405.546C955.296 403.828 955.296 402.178 955.296 400.36C955.288 395.168 955.876 389.993 957.047 384.935L960.415 385.709C959.308 390.514 958.755 395.429 958.764 400.36C958.764 402.01 958.764 403.727 958.764 405.31L955.296 405.546ZM967.487 367.489L964.591 365.772C968.131 359.813 972.56 354.43 977.726 349.808L979.982 352.334C975.074 356.686 970.861 361.763 967.487 367.388V367.489ZM996.451 341.59L995.07 338.525C1001.38 335.674 1008.09 333.822 1014.97 333.036L1015.38 336.404C1008.85 337.125 1002.46 338.84 996.451 341.489V341.59ZM1078.09 335.932H1075.87V332.564H1078.09C1083.95 332.56 1089.78 331.767 1095.43 330.207L1096.34 333.575C1090.39 335.15 1084.25 335.909 1078.09 335.831V335.932ZM1055.62 335.932H1035.42V332.564H1055.62V335.932ZM1115.17 324.886L1113.32 322.09C1118.83 318.482 1123.76 314.053 1127.93 308.956L1130.56 311.077C1126.16 316.409 1120.97 321.032 1115.17 324.785V324.886ZM1141.07 293.295L1137.94 292.049C1140.36 285.919 1141.85 279.459 1142.35 272.886L1145.71 273.155C1145.18 280.03 1143.61 286.785 1141.07 293.194V293.295ZM1140.8 253.318C1139.29 246.903 1136.8 240.758 1133.42 235.098L1136.32 233.381C1139.87 239.332 1142.48 245.796 1144.06 252.544L1140.8 253.318ZM1120.89 219.976C1115.97 215.607 1110.42 212.008 1104.42 209.3L1105.77 206.236C1112.1 209.06 1117.95 212.843 1123.12 217.451L1120.89 219.976ZM1085.46 204.114C1083.03 203.844 1080.57 203.709 1078.12 203.71H1065.42V200.342H1078.09C1080.68 200.315 1083.26 200.461 1085.83 200.78L1085.46 204.114ZM1045.05 203.71H1024.84V200.342H1045.05V203.71ZM1004.63 203.71H984.428V200.342H1004.63V203.71ZM964.22 203.71H944.013V200.342H964.22V203.71ZM923.806 203.71H903.599V200.342H923.806V203.71ZM883.392 203.71H863.184V200.342H883.392V203.71ZM842.977 203.71H822.77V200.342H842.977V203.71ZM802.563 203.71H782.355V200.342H802.563V203.71Z" fill="#407BFF"/>
<path d="M761.542 200.241H751.438V203.609H761.542V200.241Z" fill="#407BFF"/>
<path d="M673.001 274.502H670.172V282.956H673.001V274.502Z" fill="#407BFF"/>
<path d="M320.149 833.771H317.354V816.931H320.149V833.771ZM320.149 800.092H317.354V783.253H320.149V800.092ZM627.535 791.437C624.238 791.433 620.952 791.072 617.734 790.359L618.34 787.631C623.702 788.776 629.229 788.913 634.641 788.035L635.079 790.797C632.558 791.16 630.013 791.318 627.467 791.268L627.535 791.437ZM453.954 791.437L453.786 788.608C459.252 788.27 464.603 786.887 469.548 784.532L470.76 787.058C465.452 789.499 459.723 790.894 453.887 791.167L453.954 791.437ZM436.677 789.045C431.136 787.203 426.002 784.31 421.556 780.525L423.374 778.369C427.542 781.927 432.356 784.649 437.553 786.385L436.677 789.045ZM651.278 784.633L649.796 782.242C654.457 779.368 658.527 775.63 661.786 771.229L664.076 772.913C660.588 777.566 656.245 781.509 651.278 784.532V784.633ZM601.737 783.387C596.923 780.095 592.785 775.911 589.545 771.061L591.902 769.478C594.939 774.04 598.827 777.974 603.353 781.064L601.737 783.387ZM484.602 776.652L482.548 774.766C486.241 770.715 489.122 765.993 491.035 760.856L493.695 761.833C491.622 767.239 488.536 772.2 484.602 776.45V776.652ZM410.711 767.087C407.984 761.918 406.291 756.267 405.727 750.45L408.522 750.18C409.057 755.632 410.647 760.928 413.203 765.773L410.711 767.087ZM320.149 766.076H317.354V749.237H320.149V766.076ZM671.62 757.152L668.892 756.444C669.777 752.943 670.229 749.346 670.239 745.735V739.976H673.068V745.735C673.038 749.588 672.528 753.423 671.553 757.152H671.62ZM582.843 754.929C582.224 751.903 581.908 748.823 581.9 745.735V737.786H584.729V745.735C584.733 748.631 585.027 751.519 585.605 754.356L582.843 754.929ZM496.491 744.556H493.695V727.717H496.491V744.556ZM408.286 733.206H405.457V716.367H408.286V733.206ZM320.149 732.229H317.354V715.39H320.149V732.229ZM673.068 723.069H670.239V706.229H673.068V723.069ZM584.83 720.846H582.001V708.924C582.013 707.314 581.923 705.706 581.731 704.108L584.527 703.771C584.728 705.481 584.83 707.202 584.83 708.924V720.846ZM496.592 710.742H493.796V708.957C493.787 703.737 494.676 698.553 496.423 693.634L499.084 694.577C497.43 699.191 496.587 704.056 496.592 708.957V710.742ZM404.582 699.763C403.404 694.405 401.197 689.326 398.082 684.81L400.405 683.227C403.664 688.049 405.952 693.46 407.141 699.157L404.582 699.763ZM321.361 698.82L318.634 698.147C320.016 692.471 322.486 687.119 325.908 682.385L328.165 684.035C324.959 688.472 322.628 693.478 321.294 698.787L321.361 698.82ZM673.068 689.222H670.239V672.382H673.068V689.222ZM576.848 688.615C574.239 683.794 570.729 679.519 566.509 676.02L568.294 673.864C572.807 677.603 576.558 682.177 579.34 687.336L576.848 688.615ZM507.403 680.6L505.281 678.714C509.162 674.344 513.851 670.765 519.089 668.173L520.335 670.698C515.4 673.108 510.983 676.461 507.335 680.566L507.403 680.6ZM386.496 673.393C381.943 670.349 376.842 668.221 371.475 667.129L372.048 664.367C377.768 665.55 383.202 667.838 388.045 671.103L386.496 673.393ZM340.019 672.888L338.538 670.496C343.458 667.344 348.951 665.192 354.703 664.165L355.209 666.96C349.787 667.911 344.605 669.913 339.952 672.854L340.019 672.888ZM552.195 668.24C548.035 666.92 543.695 666.25 539.33 666.253C538.084 666.253 537.107 666.253 535.962 666.253L535.76 663.424C536.905 663.424 538.084 663.424 539.128 663.424C543.787 663.424 548.42 664.128 552.869 665.512L552.195 668.24ZM673.068 655.375H670.239V638.535H673.068V655.375ZM673.068 621.528H670.239V604.688H673.068V621.528ZM673.068 587.68H670.239V570.841H673.068V587.68ZM673.068 554.002H670.239V537.162H673.068V554.002ZM673.068 520.155H670.239V503.315H673.068V520.155ZM673.068 486.274H670.239V469.435H673.068V486.274ZM673.068 452.595H670.239V435.756H673.068V452.595ZM673.068 418.748H670.239V401.909H673.068V418.748ZM673.068 384.901H670.239V368.062H673.068V384.901ZM673.068 351.222H670.239V334.383H673.068V351.222ZM673.068 317.375H670.239V300.536H673.068V317.375Z" fill="#407BFF"/>
<path d="M320.115 851.048H317.286V859.501H320.115V851.048Z" fill="#407BFF"/>
<path d="M665.221 227.251C663.884 227.239 662.604 226.708 661.651 225.769L644.003 208.122C643.066 207.17 642.54 205.888 642.54 204.552C642.54 203.216 643.066 201.933 644.003 200.982C644.47 200.509 645.026 200.134 645.639 199.878C646.252 199.622 646.909 199.49 647.573 199.49C648.237 199.49 648.895 199.622 649.508 199.878C650.121 200.134 650.677 200.509 651.143 200.982L665.221 215.059L691.996 188.285C692.953 187.392 694.22 186.907 695.529 186.93C696.837 186.953 698.086 187.483 699.012 188.409C699.937 189.334 700.467 190.583 700.49 191.892C700.514 193.2 700.028 194.467 699.135 195.425L668.825 225.736C668.356 226.216 667.795 226.598 667.176 226.859C666.557 227.119 665.893 227.252 665.221 227.251Z" fill="white"/>
<path d="M1298.52 328.018C1295.15 344.857 1287.81 378.536 1299.53 389.818C1299.53 389.818 1294.95 406.658 1263.86 406.658C1229.64 406.658 1247.49 389.818 1247.49 389.818C1266.18 385.373 1265.68 371.531 1262.45 358.531L1298.52 328.018Z" fill="#E58A7B"/>
<path d="M1230.42 395.577C1230.42 393.051 1234.26 390.458 1239.85 388.437C1242.84 387.326 1245.77 383.116 1250.32 382.341C1253.69 381.769 1258.03 384.665 1262.34 384.362C1265.95 384.093 1269.72 380.59 1273.9 380.557C1278.07 380.523 1281.44 383.924 1285.55 384.16C1288.11 384.16 1290.67 381.062 1292.82 381.264C1294.98 381.466 1297.3 385.137 1299.36 385.507C1302.09 385.979 1305.15 383.251 1307 383.857C1309.97 384.8 1310.37 388.808 1311.68 389.885C1315.46 392.95 1318.42 395.847 1315.05 396.386C1306.73 397.699 1306.4 393.018 1297.98 393.018C1289.56 393.018 1289.56 396.385 1281.14 396.217C1272.72 396.049 1272.75 392.849 1264.3 392.849C1255.84 392.849 1256.01 395.173 1247.46 396.049C1241.8 396.997 1236.01 396.837 1230.42 395.577Z" fill="#407BFF"/>
<g opacity="0.6">
<path d="M1230.42 395.577C1230.42 393.051 1234.26 390.458 1239.85 388.437C1242.84 387.326 1245.77 383.116 1250.32 382.341C1253.69 381.769 1258.03 384.665 1262.34 384.362C1265.95 384.093 1269.72 380.59 1273.9 380.557C1278.07 380.523 1281.44 383.924 1285.55 384.16C1288.11 384.16 1290.67 381.062 1292.82 381.264C1294.98 381.466 1297.3 385.137 1299.36 385.507C1302.09 385.979 1305.15 383.251 1307 383.857C1309.97 384.8 1310.37 388.808 1311.68 389.885C1315.46 392.95 1318.42 395.847 1315.05 396.386C1306.73 397.699 1306.4 393.018 1297.98 393.018C1289.56 393.018 1289.56 396.385 1281.14 396.217C1272.72 396.049 1272.75 392.849 1264.3 392.849C1255.84 392.849 1256.01 395.173 1247.46 396.049C1241.8 396.997 1236.01 396.837 1230.42 395.577Z" fill="black"/>
</g>
<path d="M1359.68 426.09C1364.05 435.352 1367.49 444.209 1370.96 453.437C1374.43 462.665 1377.22 471.96 1379.92 481.357C1382.65 490.847 1384.89 500.469 1386.65 510.186C1387.46 515.069 1388.3 519.953 1388.84 524.971C1389.18 527.429 1389.48 529.922 1389.65 532.447L1390.22 540.194C1390.37 546.598 1389.22 552.967 1386.85 558.919C1384.92 563.912 1382.61 568.753 1379.95 573.401C1374.93 582.051 1369.3 590.334 1363.11 598.188C1351.12 613.406 1337.97 627.673 1323.77 640.859L1313.27 631.16C1318.82 623.818 1324.52 616.274 1329.84 608.662C1335.16 601.051 1340.48 593.44 1345.29 585.66C1350.12 578.072 1354.49 570.2 1358.36 562.085C1360.15 558.372 1361.65 554.534 1362.88 550.6C1363.86 547.686 1364.32 544.617 1364.22 541.541L1363.38 535.175C1363.14 532.986 1362.77 530.797 1362.34 528.44C1361.63 524.061 1360.65 519.65 1359.68 515.271C1358.7 510.893 1357.59 506.515 1356.31 502.137C1355.03 497.758 1353.88 493.38 1352.54 489.036C1349.88 480.346 1346.81 471.691 1343.64 463.137C1340.48 454.582 1336.91 445.893 1333.54 437.911L1359.68 426.09Z" fill="#E58A7B"/>
<path d="M1348.19 396.251C1359.91 398.81 1372.41 440.976 1372.41 440.976L1326.27 470.411C1326.27 470.411 1311.78 436.733 1317.38 422.049C1323.24 406.893 1334.35 393.22 1348.19 396.251Z" fill="#407BFF"/>
<path opacity="0.6" d="M1348.19 396.251C1359.91 398.81 1372.41 440.976 1372.41 440.976L1326.27 470.411C1326.27 470.411 1311.78 436.733 1317.38 422.049C1323.24 406.893 1334.35 393.22 1348.19 396.251Z" fill="white"/>
<path opacity="0.28" d="M1341.93 410.598L1326.17 470.142V470.411L1344.62 458.624L1341.93 410.598Z" fill="#407BFF"/>
<path d="M1199.8 397.059C1199.8 397.059 1186.33 401.808 1213.27 567.305H1327.78C1325.86 520.694 1325.79 491.932 1347.99 396.251C1331.94 392.939 1315.68 390.789 1299.32 389.818C1282 388.604 1264.61 388.604 1247.29 389.818C1225.16 391.873 1199.8 397.059 1199.8 397.059Z" fill="#407BFF"/>
<path opacity="0.6" d="M1199.8 397.059C1199.8 397.059 1186.33 401.808 1213.27 567.305H1327.78C1325.86 520.694 1325.79 491.932 1347.99 396.251C1331.94 392.939 1315.68 390.789 1299.32 389.818C1282 388.604 1264.61 388.604 1247.29 389.818C1225.16 391.873 1199.8 397.059 1199.8 397.059Z" fill="white"/>
<path d="M1318.72 627.388L1291.44 619.17L1302.83 645.507C1302.83 645.507 1320.84 647.258 1327.34 637.491L1318.72 627.388Z" fill="#E58A7B"/>
<path d="M1269.35 627.859L1280.06 649.38L1302.83 645.574L1291.44 619.237L1269.35 627.859Z" fill="#E58A7B"/>
<path d="M1390.9 1202.38H1362.71L1353.61 1137.05H1381.84L1390.9 1202.38Z" fill="#E58A7B"/>
<path d="M1262.71 1202.38H1234.53L1232.64 1137.05H1260.83L1262.71 1202.38Z" fill="#E58A7B"/>
<path d="M1232.64 1137.08L1233.62 1170.73H1261.84L1260.86 1137.08H1232.64Z" fill="#CF6F64"/>
<path d="M1381.84 1137.08H1353.61L1358.29 1170.73H1386.52L1381.84 1137.08Z" fill="#CF6F64"/>
<path d="M1243.55 567.305C1243.55 567.305 1259.92 760.957 1276.93 870.076C1290.63 958.213 1351.49 1164.23 1351.49 1164.23H1389.95C1389.95 1164.23 1358.26 965.252 1351.29 877.957C1333.68 657.362 1364.56 618.328 1327.88 567.17L1243.55 567.305Z" fill="#407BFF"/>
<path opacity="0.6" d="M1243.55 567.305C1243.55 567.305 1259.92 760.957 1276.93 870.076C1290.63 958.213 1351.49 1164.23 1351.49 1164.23H1389.95C1389.95 1164.23 1358.26 965.252 1351.29 877.957C1333.68 657.362 1364.56 618.328 1327.88 567.17L1243.55 567.305Z" fill="black"/>
<path opacity="0.4" d="M1278.51 643.486C1278.51 643.486 1262.75 692.59 1262.98 763.416C1265.71 787.362 1268.61 811.139 1271.57 833.165C1280.6 812.621 1297.2 752.74 1278.51 643.486Z" fill="black"/>
<path d="M1213.31 567.305C1213.31 567.305 1191.05 784.634 1192.9 870.649C1194.82 960.133 1227.62 1164.23 1227.62 1164.23H1265.75C1265.75 1164.23 1259.72 965.522 1263.09 877.486C1266.76 781.67 1297.2 567.305 1297.2 567.305H1213.31Z" fill="#407BFF"/>
<path opacity="0.6" d="M1213.31 567.305C1213.31 567.305 1191.05 784.634 1192.9 870.649C1194.82 960.133 1227.62 1164.23 1227.62 1164.23H1265.75C1265.75 1164.23 1259.72 965.522 1263.09 877.486C1266.76 781.67 1297.2 567.305 1297.2 567.305H1213.31Z" fill="black"/>
<path d="M1351.29 1204.03C1349.38 1204.19 1347.47 1203.68 1345.9 1202.59C1345.43 1202.13 1345.08 1201.57 1344.89 1200.94C1344.7 1200.32 1344.66 1199.66 1344.79 1199.02C1344.83 1198.61 1344.97 1198.22 1345.21 1197.89C1345.45 1197.56 1345.77 1197.3 1346.14 1197.13C1349.5 1195.68 1357.99 1201.17 1358.93 1201.81C1359.05 1201.88 1359.13 1201.98 1359.19 1202.1C1359.24 1202.22 1359.26 1202.36 1359.24 1202.49C1359.22 1202.62 1359.16 1202.74 1359.07 1202.83C1358.98 1202.93 1358.86 1203 1358.73 1203.02C1356.3 1203.63 1353.8 1203.97 1351.29 1204.03ZM1347.52 1198.21C1347.23 1198.19 1346.94 1198.25 1346.68 1198.38C1346.47 1198.38 1346.2 1198.65 1346.14 1199.22C1346.03 1199.64 1346.04 1200.07 1346.15 1200.49C1346.27 1200.9 1346.5 1201.28 1346.81 1201.58C1348.22 1202.89 1351.93 1203.06 1356.91 1202.08C1354.09 1200.15 1350.89 1198.83 1347.52 1198.21Z" fill="#407BFF"/>
<path d="M1358.56 1203.06C1358.47 1203.09 1358.36 1203.09 1358.26 1203.06C1355.57 1201.54 1350.45 1195.45 1351.05 1192.28C1351.16 1191.76 1351.44 1191.29 1351.85 1190.94C1352.26 1190.6 1352.78 1190.41 1353.31 1190.39C1353.82 1190.32 1354.34 1190.36 1354.83 1190.52C1355.32 1190.68 1355.77 1190.95 1356.14 1191.3C1359.2 1194 1359.24 1202.15 1359.24 1202.49C1359.24 1202.6 1359.21 1202.72 1359.15 1202.82C1359.09 1202.92 1359 1203 1358.9 1203.06C1358.79 1203.09 1358.67 1203.09 1358.56 1203.06ZM1353.78 1191.61H1353.48C1352.64 1191.61 1352.43 1192.08 1352.37 1192.38C1352 1194.33 1355.2 1198.92 1357.86 1201.04C1357.94 1197.89 1357.03 1194.79 1355.26 1192.18C1354.86 1191.81 1354.33 1191.6 1353.78 1191.61Z" fill="#407BFF"/>
<path d="M1222.94 1204.03C1220.57 1204.22 1218.2 1203.62 1216.2 1202.32C1215.74 1201.9 1215.39 1201.37 1215.18 1200.78C1214.98 1200.2 1214.92 1199.56 1215.03 1198.95C1215.04 1198.58 1215.15 1198.22 1215.34 1197.91C1215.54 1197.6 1215.81 1197.34 1216.14 1197.16C1219.5 1195.28 1230.85 1201.04 1232.1 1201.68C1232.23 1201.74 1232.34 1201.84 1232.4 1201.97C1232.47 1202.1 1232.49 1202.24 1232.47 1202.38C1232.45 1202.52 1232.39 1202.65 1232.29 1202.74C1232.19 1202.84 1232.07 1202.9 1231.93 1202.92C1228.98 1203.57 1225.97 1203.95 1222.94 1204.03ZM1217.92 1198.21C1217.49 1198.18 1217.07 1198.27 1216.68 1198.44C1216.55 1198.52 1216.44 1198.63 1216.36 1198.76C1216.28 1198.89 1216.24 1199.03 1216.24 1199.18C1216.19 1199.57 1216.23 1199.97 1216.36 1200.34C1216.5 1200.71 1216.72 1201.04 1217.01 1201.31C1218.73 1202.86 1223.38 1203.13 1229.61 1202.08C1225.96 1200.13 1222.01 1198.82 1217.92 1198.21Z" fill="#407BFF"/>
<path d="M1231.7 1203.06H1231.43C1228.06 1201.54 1221.32 1195.45 1221.93 1192.25C1221.93 1191.51 1222.6 1190.56 1224.46 1190.36C1225.12 1190.3 1225.79 1190.37 1226.43 1190.57C1227.07 1190.77 1227.66 1191.1 1228.16 1191.54C1231.7 1194.47 1232.34 1202.08 1232.37 1202.38C1232.38 1202.5 1232.36 1202.62 1232.31 1202.72C1232.26 1202.83 1232.19 1202.92 1232.1 1202.99C1231.98 1203.06 1231.84 1203.08 1231.7 1203.06ZM1224.96 1191.61H1224.56C1223.34 1191.61 1223.24 1192.21 1223.21 1192.38C1222.91 1194.3 1227.42 1199.12 1230.85 1201.14C1230.57 1197.94 1229.31 1194.91 1227.25 1192.45C1226.62 1191.91 1225.82 1191.61 1224.99 1191.61H1224.96Z" fill="#407BFF"/>
<path d="M1230.72 298.347C1230.5 298.37 1230.28 298.342 1230.08 298.266C1229.87 298.19 1229.69 298.068 1229.54 297.909C1228.46 296.618 1227.09 295.606 1225.53 294.955C1223.98 294.305 1222.29 294.036 1220.62 294.171C1220.26 294.219 1219.91 294.125 1219.62 293.911C1219.34 293.696 1219.15 293.378 1219.1 293.026C1219.06 292.679 1219.15 292.331 1219.36 292.049C1219.57 291.768 1219.87 291.576 1220.21 291.51C1222.33 291.333 1224.46 291.658 1226.42 292.46C1228.39 293.262 1230.14 294.517 1231.53 296.124C1231.77 296.38 1231.9 296.717 1231.9 297.067C1231.9 297.417 1231.77 297.754 1231.53 298.01C1231.3 298.199 1231.02 298.316 1230.72 298.347Z" fill="#263238"/>
<path d="M1224.86 315.085C1223.6 320.51 1221.59 325.734 1218.9 330.611C1220.16 331.27 1221.56 331.644 1222.98 331.708C1224.41 331.772 1225.83 331.524 1227.15 330.981L1224.86 315.085Z" fill="#DF5753"/>
<path d="M1226.34 310.808C1226.64 313.064 1225.74 315.051 1224.25 315.254C1222.77 315.456 1221.32 313.805 1220.89 311.583C1220.45 309.36 1221.49 307.305 1222.97 307.103C1224.46 306.901 1226.11 308.686 1226.34 310.808Z" fill="#263238"/>
<path d="M1223.75 307.44L1218.12 306.665C1218.12 306.665 1221.49 310.303 1223.75 307.44Z" fill="#263238"/>
<path d="M1360.82 1199.12H1392.51C1393.06 1199.1 1393.58 1199.29 1393.99 1199.65C1394.4 1200 1394.67 1200.5 1394.74 1201.04L1398.37 1226.13C1398.44 1226.76 1398.37 1227.41 1398.17 1228.01C1397.97 1228.62 1397.65 1229.18 1397.22 1229.65C1396.79 1230.13 1396.27 1230.5 1395.68 1230.76C1395.1 1231.02 1394.46 1231.15 1393.83 1231.15C1382.78 1230.94 1377.46 1230.3 1363.52 1230.3C1354.96 1230.3 1342.43 1231.18 1330.58 1231.18C1318.72 1231.18 1318.12 1219.46 1323.03 1218.42C1345.16 1213.67 1348.63 1207.1 1356.11 1200.83C1357.43 1199.72 1359.1 1199.12 1360.82 1199.12Z" fill="#263238"/>
<path d="M1233.55 1199.12H1265.24C1265.79 1199.11 1266.31 1199.3 1266.73 1199.65C1267.14 1200.01 1267.42 1200.5 1267.5 1201.04L1271.1 1226.13C1271.17 1226.76 1271.1 1227.4 1270.9 1228C1270.71 1228.61 1270.38 1229.17 1269.96 1229.64C1269.53 1230.11 1269.01 1230.49 1268.43 1230.75C1267.85 1231.01 1267.22 1231.14 1266.59 1231.15C1255.54 1230.94 1250.22 1230.3 1236.28 1230.3C1227.69 1230.3 1209.97 1231.18 1198.12 1231.18C1186.26 1231.18 1185.66 1219.46 1190.58 1218.42C1212.67 1213.67 1221.39 1207.1 1228.83 1200.83C1230.16 1199.73 1231.83 1199.13 1233.55 1199.12Z" fill="#263238"/>
<path opacity="0.28" d="M1196.5 423.8V424.474C1196.84 443.3 1199.43 474.992 1207.25 528.271L1223.21 465.73L1196.5 423.8Z" fill="#407BFF"/>
<path d="M1219.17 433.466C1216 449.463 1212.43 465.124 1208.19 480.852C1203.95 496.58 1199.63 512.207 1194.04 528.002L1191.85 533.896L1189.46 539.823C1188.93 541.227 1188.28 542.589 1187.54 543.898C1186.62 545.642 1185.49 547.27 1184.18 548.748C1181.12 552.109 1177.12 554.458 1172.69 555.484C1168.99 556.328 1165.14 556.328 1161.44 555.484C1158.62 554.902 1155.87 553.998 1153.26 552.789C1148.92 550.755 1144.81 548.259 1141 545.346C1134.19 540.106 1127.86 534.28 1122.07 527.934C1119.18 524.903 1116.48 521.738 1113.85 518.538C1111.23 515.339 1108.7 512.139 1106.21 508.603L1116.89 499.139C1128.21 509.366 1140.44 518.542 1153.43 526.554C1156.23 528.184 1159.19 529.537 1162.25 530.595C1164.84 531.572 1167.17 531.302 1166.26 531.134C1165.71 531.209 1165.19 531.417 1164.74 531.74L1165.21 530.292L1167 524.971L1168.68 519.481C1173.06 504.696 1176.8 489.17 1180.51 473.948L1191.05 427.606L1219.17 433.466Z" fill="#E58A7B"/>
<path d="M1107.09 510.017L1091.66 488.194L1112.64 486.577C1112.64 486.577 1124.5 500.251 1120.32 511.23L1107.09 510.017Z" fill="#E58A7B"/>
<path d="M1105.81 482.569L1110.25 479.841L1112.31 469.502L1115.71 473.745L1118.23 498.028L1105.81 482.569Z" fill="#E58A7B"/>
<path d="M1300.94 292.352C1303.23 320.238 1304.78 331.992 1292.86 348.225C1274.91 372.575 1240.12 369.274 1229.57 342.601C1220.04 318.588 1217.92 276.994 1243.45 262.109C1249.06 258.795 1255.41 256.97 1261.92 256.809C1268.43 256.647 1274.87 258.153 1280.64 261.185C1286.4 264.216 1291.29 268.671 1294.84 274.127C1298.4 279.582 1300.5 285.856 1300.94 292.352Z" fill="#E58A7B"/>
<path d="M1238.6 258.976C1232.9 261.374 1228.22 265.711 1225.41 271.22C1222.59 276.73 1221.81 283.057 1223.21 289.085C1223.21 289.085 1245.13 279.621 1246.01 314.748C1246.65 340.108 1229.17 374.326 1229.17 374.326C1229.17 374.326 1269.82 382.746 1328.32 364.829C1353.21 357.217 1341.99 207.818 1238.6 258.976Z" fill="#263238"/>
<path d="M1236.51 274.502C1232.54 284.067 1233.58 302.994 1249.24 300.974C1264.9 298.953 1260.32 283.158 1260.32 283.158L1236.51 274.502Z" fill="#263238"/>
<path d="M1253.96 312.29C1254.12 317.704 1252.15 322.966 1248.47 326.94C1243.55 332.126 1237.39 328.624 1235.7 322.023C1234.16 316.129 1234.86 306.261 1241.3 303.5C1242.71 302.921 1244.25 302.706 1245.77 302.874C1247.3 303.041 1248.75 303.587 1250.01 304.46C1251.27 305.333 1252.29 306.506 1252.98 307.874C1253.67 309.241 1254 310.759 1253.96 312.29Z" fill="#E58A7B"/>
<path d="M1392.82 1165.47H1348.86L1344.18 1150.15L1394.33 1151.33L1392.82 1165.47Z" fill="#407BFF"/>
<path d="M1314.01 573.502H1317.04C1317.68 573.502 1318.15 573.199 1318.08 572.794L1316.63 559.323C1316.63 558.953 1316.06 558.616 1315.42 558.616H1312.32C1311.72 558.616 1311.25 558.953 1311.28 559.323L1312.73 572.794C1312.86 573.266 1313.4 573.502 1314.01 573.502Z" fill="#407BFF"/>
<path d="M1238.7 573.502H1241.8C1242.41 573.502 1242.88 573.199 1242.84 572.794L1241.4 559.323C1241.4 558.953 1240.79 558.616 1240.18 558.616H1237.09C1236.45 558.616 1235.97 558.953 1236.04 559.323L1237.49 572.794C1237.52 573.266 1238.06 573.502 1238.7 573.502Z" fill="#407BFF"/>
<path d="M1268.68 1165.47H1224.69L1221.53 1152.37L1270.33 1150.15L1268.68 1165.47Z" fill="#407BFF"/>
<path d="M1329.6 560.603L1334.75 570.706C1335.16 571.515 1334.21 572.323 1332.9 572.323H1212.63C1211.59 572.323 1210.75 571.818 1210.68 571.178L1209.64 561.074C1209.64 560.367 1210.48 559.761 1211.59 559.761H1327.61C1327.99 559.711 1328.37 559.762 1328.72 559.91C1329.07 560.058 1329.38 560.298 1329.6 560.603Z" fill="#407BFF"/>
<path opacity="0.1" d="M1329.6 560.603L1334.75 570.706C1335.16 571.515 1334.21 572.323 1332.9 572.323H1212.63C1211.59 572.323 1210.75 571.818 1210.68 571.178L1209.64 561.074C1209.64 560.367 1210.48 559.761 1211.59 559.761H1327.61C1327.99 559.711 1328.37 559.762 1328.72 559.91C1329.07 560.058 1329.38 560.298 1329.6 560.603Z" fill="black"/>
<path opacity="0.6" d="M1314.01 573.502H1317.04C1317.68 573.502 1318.15 573.199 1318.08 572.794L1316.63 559.323C1316.63 558.953 1316.06 558.616 1315.42 558.616H1312.32C1311.72 558.616 1311.25 558.953 1311.28 559.323L1312.73 572.794C1312.86 573.266 1313.4 573.502 1314.01 573.502Z" fill="black"/>
<path opacity="0.6" d="M1238.7 573.502H1241.8C1242.41 573.502 1242.88 573.199 1242.84 572.794L1241.4 559.323C1241.4 558.953 1240.79 558.616 1240.18 558.616H1237.09C1236.45 558.616 1235.97 558.953 1236.04 559.323L1237.49 572.794C1237.52 573.266 1238.06 573.502 1238.7 573.502Z" fill="black"/>
<path d="M1199.8 397.059C1188.18 400.023 1180.07 447.88 1180.07 447.88L1224.93 478.359C1224.93 478.359 1242.95 421.375 1233.89 408.476C1224.56 395.274 1216.78 392.748 1199.8 397.059Z" fill="#407BFF"/>
<path opacity="0.6" d="M1199.8 397.059C1188.18 400.023 1180.07 447.88 1180.07 447.88L1224.93 478.359C1224.93 478.359 1242.95 421.375 1233.89 408.476C1224.56 395.274 1216.78 392.748 1199.8 397.059Z" fill="white"/>
<path d="M563.511 1014.12C563.528 1014.01 563.528 1013.9 563.511 1013.78C564.454 1008.36 565.263 1002.91 565.936 997.382C575.467 1007.99 583.752 1010.68 589.68 1010.68C590.308 1010.72 590.937 1010.72 591.566 1010.68C603.185 1009.54 612.985 998.156 617.835 980.374C617.931 980.022 617.95 979.654 617.892 979.294C617.834 978.934 617.7 978.59 617.498 978.286C617.081 977.647 616.447 977.181 615.713 976.972C607.482 974.72 598.853 974.323 590.449 975.808C582.046 977.293 574.076 980.624 567.115 985.561C567.519 980.374 567.755 975.188 567.822 969.967C569.702 970.297 571.606 970.466 573.514 970.473C592.711 970.473 604.599 953.397 605.172 952.555C605.386 952.23 605.517 951.857 605.553 951.469C605.588 951.082 605.526 950.691 605.374 950.333C605.218 949.94 604.981 949.585 604.68 949.289C604.378 948.993 604.018 948.764 603.623 948.615C591.633 944.102 581.9 943.698 574.726 947.47C570.161 949.953 566.654 954.01 564.858 958.887C559.785 947.834 552.101 938.181 542.467 930.759C532.833 923.337 521.539 918.369 509.558 916.284C509.215 916.202 508.859 916.203 508.517 916.287C508.174 916.37 507.857 916.534 507.591 916.764C507.324 916.995 507.117 917.285 506.984 917.611C506.852 917.937 506.799 918.29 506.83 918.641C508.042 936.053 511.276 957.304 525.623 967.475C531.363 971.408 538.201 973.424 545.156 973.234C551.105 973.105 557.009 972.164 562.703 970.439C562.404 982.849 561.279 995.225 559.335 1007.49C551.353 998.426 531.045 978.286 503.327 971.348C503.019 971.252 502.694 971.225 502.374 971.267C502.054 971.31 501.747 971.421 501.475 971.594C501.202 971.767 500.971 971.998 500.796 972.269C500.622 972.541 500.509 972.847 500.465 973.167C498.41 988.154 501.98 1000.31 510.737 1008.33C518.011 1015.06 528.452 1018.43 541.048 1018.43C546.637 1018.38 552.208 1017.79 557.685 1016.68C555.799 1026.95 553.475 1036.89 550.949 1046.59C542.226 1039.65 517.001 1022.1 492.954 1029.41C492.637 1029.51 492.347 1029.69 492.108 1029.92C491.868 1030.16 491.686 1030.44 491.574 1030.76C491.459 1031.09 491.417 1031.45 491.452 1031.81C491.487 1032.16 491.597 1032.5 491.776 1032.81C500.667 1049.38 509.558 1058.58 519.695 1061.78C522.334 1062.6 525.082 1063.02 527.846 1063.02C534.997 1062.72 541.953 1060.6 548.053 1056.86C544.247 1069.59 540.071 1081.44 535.962 1092.02C529.092 1085.6 520.726 1081.01 511.625 1078.66C502.525 1076.3 492.98 1076.27 483.861 1078.55C483.573 1078.61 483.3 1078.73 483.06 1078.9C482.819 1079.07 482.616 1079.29 482.462 1079.54C482.307 1079.79 482.206 1080.07 482.163 1080.37C482.12 1080.66 482.136 1080.96 482.211 1081.24C483.622 1086.7 486.286 1091.76 489.993 1096.01C493.699 1100.26 498.346 1103.59 503.563 1105.73C507.375 1107.3 511.461 1108.12 515.586 1108.12C521.044 1108.08 526.401 1106.64 531.146 1103.94C525.775 1117.06 519.716 1129.89 512.993 1142.37C512.707 1142.99 512.662 1143.7 512.868 1144.35C513.073 1145 513.514 1145.56 514.105 1145.9C514.545 1146.19 515.06 1146.34 515.586 1146.34C515.979 1146.35 516.367 1146.26 516.711 1146.07C517.054 1145.88 517.341 1145.6 517.54 1145.26C525.691 1129.98 532.944 1114.24 539.263 1098.11C539.393 1097.86 539.495 1097.59 539.566 1097.31C540.823 1094.14 542.069 1090.87 543.304 1087.51C551.421 1096.87 561.288 1102.06 571.19 1102.06C572.268 1102.06 573.312 1102.06 574.39 1102.06C579.878 1101.51 585.062 1099.27 589.224 1095.65C593.387 1092.03 596.323 1087.21 597.628 1081.85C597.723 1081.24 597.624 1080.63 597.345 1080.08C597.067 1079.54 596.624 1079.09 596.079 1078.82C588.653 1074.65 580.347 1072.31 571.842 1071.98C563.336 1071.64 554.872 1073.33 547.143 1076.9C549.804 1069.18 552.397 1061 554.788 1052.51C555.001 1052.17 555.118 1051.77 555.125 1051.37C555.765 1048.98 556.439 1046.59 557.045 1044.13C566.778 1054.7 575.77 1059.89 584.426 1059.89C594.933 1059.89 604.633 1052.11 613.962 1036.31C614.214 1035.73 614.255 1035.07 614.077 1034.46C613.899 1033.84 613.513 1033.31 612.985 1032.95C593.418 1019.48 570.011 1028.67 559.571 1034.06C561.053 1027.75 562.355 1021.33 563.478 1014.79L563.511 1014.12Z" fill="#407BFF"/>
<path opacity="0.3" d="M563.511 1014.12C563.528 1014.01 563.528 1013.9 563.511 1013.78C564.454 1008.36 565.263 1002.91 565.936 997.382C575.467 1007.99 583.752 1010.68 589.68 1010.68C590.308 1010.72 590.937 1010.72 591.566 1010.68C603.185 1009.54 612.985 998.156 617.835 980.374C617.931 980.022 617.95 979.654 617.892 979.294C617.834 978.934 617.7 978.59 617.498 978.286C617.081 977.647 616.447 977.181 615.713 976.972C607.482 974.72 598.853 974.323 590.449 975.808C582.046 977.293 574.076 980.624 567.115 985.561C567.519 980.374 567.755 975.188 567.822 969.967C569.702 970.297 571.606 970.466 573.514 970.473C592.711 970.473 604.599 953.397 605.172 952.555C605.386 952.23 605.517 951.857 605.553 951.469C605.588 951.082 605.526 950.691 605.374 950.333C605.218 949.94 604.981 949.585 604.68 949.289C604.378 948.993 604.018 948.764 603.623 948.615C591.633 944.102 581.9 943.698 574.726 947.47C570.161 949.953 566.654 954.01 564.858 958.887C559.785 947.834 552.101 938.181 542.467 930.759C532.833 923.337 521.539 918.369 509.558 916.284C509.215 916.202 508.859 916.203 508.517 916.287C508.174 916.37 507.857 916.534 507.591 916.764C507.324 916.995 507.117 917.285 506.984 917.611C506.852 917.937 506.799 918.29 506.83 918.641C508.042 936.053 511.276 957.304 525.623 967.475C531.363 971.408 538.201 973.424 545.156 973.234C551.105 973.105 557.009 972.164 562.703 970.439C562.404 982.849 561.279 995.225 559.335 1007.49C551.353 998.426 531.045 978.286 503.327 971.348C503.019 971.252 502.694 971.225 502.374 971.267C502.054 971.31 501.747 971.421 501.475 971.594C501.202 971.767 500.971 971.998 500.796 972.269C500.622 972.541 500.509 972.847 500.465 973.167C498.41 988.154 501.98 1000.31 510.737 1008.33C518.011 1015.06 528.452 1018.43 541.048 1018.43C546.637 1018.38 552.208 1017.79 557.685 1016.68C555.799 1026.95 553.475 1036.89 550.949 1046.59C542.226 1039.65 517.001 1022.1 492.954 1029.41C492.637 1029.51 492.347 1029.69 492.108 1029.92C491.868 1030.16 491.686 1030.44 491.574 1030.76C491.459 1031.09 491.417 1031.45 491.452 1031.81C491.487 1032.16 491.597 1032.5 491.776 1032.81C500.667 1049.38 509.558 1058.58 519.695 1061.78C522.334 1062.6 525.082 1063.02 527.846 1063.02C534.997 1062.72 541.953 1060.6 548.053 1056.86C544.247 1069.59 540.071 1081.44 535.962 1092.02C529.092 1085.6 520.726 1081.01 511.625 1078.66C502.525 1076.3 492.98 1076.27 483.861 1078.55C483.573 1078.61 483.3 1078.73 483.06 1078.9C482.819 1079.07 482.616 1079.29 482.462 1079.54C482.307 1079.79 482.206 1080.07 482.163 1080.37C482.12 1080.66 482.136 1080.96 482.211 1081.24C483.622 1086.7 486.286 1091.76 489.993 1096.01C493.699 1100.26 498.346 1103.59 503.563 1105.73C507.375 1107.3 511.461 1108.12 515.586 1108.12C521.044 1108.08 526.401 1106.64 531.146 1103.94C525.775 1117.06 519.716 1129.89 512.993 1142.37C512.707 1142.99 512.662 1143.7 512.868 1144.35C513.073 1145 513.514 1145.56 514.105 1145.9C514.545 1146.19 515.06 1146.34 515.586 1146.34C515.979 1146.35 516.367 1146.26 516.711 1146.07C517.054 1145.88 517.341 1145.6 517.54 1145.26C525.691 1129.98 532.944 1114.24 539.263 1098.11C539.393 1097.86 539.495 1097.59 539.566 1097.31C540.823 1094.14 542.069 1090.87 543.304 1087.51C551.421 1096.87 561.288 1102.06 571.19 1102.06C572.268 1102.06 573.312 1102.06 574.39 1102.06C579.878 1101.51 585.062 1099.27 589.224 1095.65C593.387 1092.03 596.323 1087.21 597.628 1081.85C597.723 1081.24 597.624 1080.63 597.345 1080.08C597.067 1079.54 596.624 1079.09 596.079 1078.82C588.653 1074.65 580.347 1072.31 571.842 1071.98C563.336 1071.64 554.872 1073.33 547.143 1076.9C549.804 1069.18 552.397 1061 554.788 1052.51C555.001 1052.17 555.118 1051.77 555.125 1051.37C555.765 1048.98 556.439 1046.59 557.045 1044.13C566.778 1054.7 575.77 1059.89 584.426 1059.89C594.933 1059.89 604.633 1052.11 613.962 1036.31C614.214 1035.73 614.255 1035.07 614.077 1034.46C613.899 1033.84 613.513 1033.31 612.985 1032.95C593.418 1019.48 570.011 1028.67 559.571 1034.06C561.053 1027.75 562.355 1021.33 563.478 1014.79L563.511 1014.12Z" fill="black"/>
<path d="M441.392 1082.39C445.023 1083.53 448.802 1084.13 452.607 1084.17C457.439 1084.15 462.21 1083.09 466.601 1081.08C470.993 1079.07 474.904 1076.14 478.072 1072.49C481.241 1068.84 483.595 1064.56 484.977 1059.93C486.358 1055.3 486.736 1050.43 486.084 1045.64C485.97 1045.12 485.666 1044.66 485.23 1044.35C484.794 1044.03 484.258 1043.9 483.726 1043.96C474.417 1044.99 465.453 1048.08 457.485 1053C449.516 1057.92 442.742 1064.55 437.654 1072.42C433.41 1060.77 429.436 1048.37 426.102 1035.54C431.545 1038.76 437.701 1040.58 444.019 1040.83C446.616 1040.84 449.197 1040.43 451.664 1039.61C464.765 1035.27 473.758 1019.64 481.537 1003.38C481.678 1003.08 481.751 1002.76 481.751 1002.43C481.751 1002.11 481.678 1001.79 481.537 1001.49C481.423 1001.2 481.241 1000.94 481.007 1000.72C480.773 1000.51 480.494 1000.36 480.19 1000.28C454.561 992.97 431.255 1018.03 423.913 1026.99C421.341 1016.12 419.363 1005.13 417.986 994.048C423.415 995.086 428.927 995.627 434.454 995.664C447.926 995.664 458.568 992.094 465.776 985.055C474.33 976.737 477.26 964.276 474.296 949.053C474.239 948.759 474.12 948.48 473.948 948.235C473.775 947.991 473.553 947.785 473.295 947.632C473.038 947.48 472.75 947.383 472.453 947.349C472.155 947.316 471.854 947.345 471.568 947.436C444.221 954.711 424.923 975.053 417.043 984.685C417.043 982.698 416.706 980.711 416.571 978.724C416.53 978.225 416.33 977.752 415.999 977.377C415.316 973.645 413.806 970.114 411.58 967.043C409.353 963.971 406.467 961.438 403.133 959.628C395.657 955.923 385.789 956.462 373.867 961.211C373.514 961.348 373.195 961.561 372.933 961.834C372.671 962.108 372.473 962.435 372.351 962.794C372.23 963.141 372.195 963.511 372.248 963.875C372.3 964.238 372.44 964.584 372.654 964.882C373.26 965.69 386.126 982.597 405.39 982.597C407.47 982.591 409.545 982.388 411.587 981.991C411.991 987.469 412.563 992.959 413.304 998.459C406.046 993.525 397.797 990.236 389.135 988.823C380.473 987.409 371.607 987.905 363.157 990.276C362.824 990.358 362.511 990.508 362.239 990.717C361.966 990.925 361.74 991.188 361.574 991.488C361.405 991.775 361.297 992.093 361.256 992.423C361.216 992.754 361.244 993.089 361.338 993.408C367.299 1011.53 377.908 1022.94 389.763 1023.92C390.301 1023.96 390.841 1023.96 391.379 1023.92C397.442 1023.92 405.828 1021.16 414.955 1009.98C417.186 1022.58 420.109 1035.05 423.711 1047.33C412.866 1042.01 388.348 1032.85 369.152 1046.79C368.88 1046.96 368.646 1047.18 368.462 1047.45C368.277 1047.71 368.147 1048 368.078 1048.32C368.009 1048.63 368.003 1048.95 368.06 1049.27C368.117 1049.59 368.236 1049.89 368.411 1050.16C378.75 1066.09 388.921 1073.73 399.496 1073.73H399.765C408.556 1073.73 417.413 1068.24 426.708 1057.3C430.514 1069.29 434.69 1080.67 438.967 1091.24C428.325 1084.27 415.864 1085.38 400.506 1094.61C400.174 1094.82 399.89 1095.11 399.675 1095.44C399.46 1095.77 399.319 1096.14 399.26 1096.53C399.219 1096.9 399.272 1097.27 399.413 1097.61C399.554 1097.95 399.78 1098.25 400.069 1098.49C400.843 1099.09 413.944 1108.96 428.594 1108.96C434.22 1109.01 439.732 1107.38 444.423 1104.28C452.712 1123.55 462.264 1142.24 473.017 1160.25C473.232 1160.59 473.531 1160.87 473.885 1161.06C474.239 1161.25 474.636 1161.34 475.037 1161.33C475.579 1161.33 476.109 1161.17 476.553 1160.86C477.145 1160.49 477.571 1159.91 477.741 1159.24C477.911 1158.57 477.811 1157.86 477.462 1157.25C463.365 1133.35 451.299 1108.31 441.392 1082.39Z" fill="#407BFF"/>
<path opacity="0.5" d="M441.392 1082.39C445.023 1083.53 448.802 1084.13 452.607 1084.17C457.439 1084.15 462.21 1083.09 466.601 1081.08C470.993 1079.07 474.904 1076.14 478.072 1072.49C481.241 1068.84 483.595 1064.56 484.977 1059.93C486.358 1055.3 486.736 1050.43 486.084 1045.64C485.97 1045.12 485.666 1044.66 485.23 1044.35C484.794 1044.03 484.258 1043.9 483.726 1043.96C474.417 1044.99 465.453 1048.08 457.485 1053C449.516 1057.92 442.742 1064.55 437.654 1072.42C433.41 1060.77 429.436 1048.37 426.102 1035.54C431.545 1038.76 437.701 1040.58 444.019 1040.83C446.616 1040.84 449.197 1040.43 451.664 1039.61C464.765 1035.27 473.758 1019.64 481.537 1003.38C481.678 1003.08 481.751 1002.76 481.751 1002.43C481.751 1002.11 481.678 1001.79 481.537 1001.49C481.423 1001.2 481.241 1000.94 481.007 1000.72C480.773 1000.51 480.494 1000.36 480.19 1000.28C454.561 992.97 431.255 1018.03 423.913 1026.99C421.341 1016.12 419.363 1005.13 417.986 994.048C423.415 995.086 428.927 995.627 434.454 995.664C447.926 995.664 458.568 992.094 465.776 985.055C474.33 976.737 477.26 964.276 474.296 949.053C474.239 948.759 474.12 948.48 473.948 948.235C473.775 947.991 473.553 947.785 473.295 947.632C473.038 947.48 472.75 947.383 472.453 947.349C472.155 947.316 471.854 947.345 471.568 947.436C444.221 954.711 424.923 975.053 417.043 984.685C417.043 982.698 416.706 980.711 416.571 978.724C416.53 978.225 416.33 977.752 415.999 977.377C415.316 973.645 413.806 970.114 411.58 967.043C409.353 963.971 406.467 961.438 403.133 959.628C395.657 955.923 385.789 956.462 373.867 961.211C373.514 961.348 373.195 961.561 372.933 961.834C372.671 962.108 372.473 962.435 372.351 962.794C372.23 963.141 372.195 963.511 372.248 963.875C372.3 964.238 372.44 964.584 372.654 964.882C373.26 965.69 386.126 982.597 405.39 982.597C407.47 982.591 409.545 982.388 411.587 981.991C411.991 987.469 412.563 992.959 413.304 998.459C406.046 993.525 397.797 990.236 389.135 988.823C380.473 987.409 371.607 987.905 363.157 990.276C362.824 990.358 362.511 990.508 362.239 990.717C361.966 990.925 361.74 991.188 361.574 991.488C361.405 991.775 361.297 992.093 361.256 992.423C361.216 992.754 361.244 993.089 361.338 993.408C367.299 1011.53 377.908 1022.94 389.763 1023.92C390.301 1023.96 390.841 1023.96 391.379 1023.92C397.442 1023.92 405.828 1021.16 414.955 1009.98C417.186 1022.58 420.109 1035.05 423.711 1047.33C412.866 1042.01 388.348 1032.85 369.152 1046.79C368.88 1046.96 368.646 1047.18 368.462 1047.45C368.277 1047.71 368.147 1048 368.078 1048.32C368.009 1048.63 368.003 1048.95 368.06 1049.27C368.117 1049.59 368.236 1049.89 368.411 1050.16C378.75 1066.09 388.921 1073.73 399.496 1073.73H399.765C408.556 1073.73 417.413 1068.24 426.708 1057.3C430.514 1069.29 434.69 1080.67 438.967 1091.24C428.325 1084.27 415.864 1085.38 400.506 1094.61C400.174 1094.82 399.89 1095.11 399.675 1095.44C399.46 1095.77 399.319 1096.14 399.26 1096.53C399.219 1096.9 399.272 1097.27 399.413 1097.61C399.554 1097.95 399.78 1098.25 400.069 1098.49C400.843 1099.09 413.944 1108.96 428.594 1108.96C434.22 1109.01 439.732 1107.38 444.423 1104.28C452.712 1123.55 462.264 1142.24 473.017 1160.25C473.232 1160.59 473.531 1160.87 473.885 1161.06C474.239 1161.25 474.636 1161.34 475.037 1161.33C475.579 1161.33 476.109 1161.17 476.553 1160.86C477.145 1160.49 477.571 1159.91 477.741 1159.24C477.911 1158.57 477.811 1157.86 477.462 1157.25C463.365 1133.35 451.299 1108.31 441.392 1082.39Z" fill="white"/>
<path d="M534.009 1217.57H453.786L447.724 1134.62H540.071L534.009 1217.57Z" fill="#263238"/>
<path d="M546.032 1129.03H441.729V1143.08H546.032V1129.03Z" fill="#263238"/>
<path d="M498.646 726.976H313.447C300.445 726.976 289.906 737.515 289.906 750.517V1194.03C289.906 1207.03 300.445 1217.57 313.447 1217.57H498.646C511.648 1217.57 522.188 1207.03 522.188 1194.03V750.517C522.188 737.515 511.648 726.976 498.646 726.976Z" fill="#407BFF"/>
<path opacity="0.6" d="M498.646 726.976H313.447C300.445 726.976 289.906 737.515 289.906 750.517V1194.03C289.906 1207.03 300.445 1217.57 313.447 1217.57H498.646C511.648 1217.57 522.188 1207.03 522.188 1194.03V750.517C522.188 737.515 511.648 726.976 498.646 726.976Z" fill="black"/>
<path d="M487.364 726.976H302.165C289.163 726.976 278.623 737.515 278.623 750.517V1194.03C278.623 1207.03 289.163 1217.57 302.165 1217.57H487.364C500.365 1217.57 510.905 1207.03 510.905 1194.03V750.517C510.905 737.515 500.365 726.976 487.364 726.976Z" fill="#407BFF"/>
<path opacity="0.3" d="M487.364 726.976H302.165C289.163 726.976 278.623 737.515 278.623 750.517V1194.03C278.623 1207.03 289.163 1217.57 302.165 1217.57H487.364C500.365 1217.57 510.905 1207.03 510.905 1194.03V750.517C510.905 737.515 500.365 726.976 487.364 726.976Z" fill="black"/>
<path d="M510.905 753.986H278.623V1175.58H510.905V753.986Z" fill="#FAFAFA"/>
<path opacity="0.18" d="M511.04 753.11H278.758V1174.7H511.04V753.11Z" fill="#407BFF"/>
<path opacity="0.4" d="M362.921 754.02L287.582 1175.61H362.18L437.553 754.02H362.921Z" fill="white"/>
<path opacity="0.4" d="M455.739 754.02L380.4 1175.61H417.716L493.055 754.02H455.739Z" fill="white"/>
<path d="M405.255 1195.11C405.255 1197.18 404.641 1199.21 403.49 1200.93C402.339 1202.65 400.703 1203.99 398.789 1204.79C396.875 1205.58 394.769 1205.79 392.738 1205.38C390.706 1204.98 388.84 1203.98 387.375 1202.52C385.91 1201.05 384.912 1199.18 384.508 1197.15C384.104 1195.12 384.311 1193.02 385.104 1191.1C385.897 1189.19 387.239 1187.55 388.962 1186.4C390.684 1185.25 392.709 1184.64 394.781 1184.64C397.559 1184.64 400.223 1185.74 402.187 1187.7C404.152 1189.67 405.255 1192.33 405.255 1195.11Z" fill="#407BFF"/>
<path opacity="0.5" d="M405.255 1195.11C405.255 1197.18 404.641 1199.21 403.49 1200.93C402.339 1202.65 400.703 1203.99 398.789 1204.79C396.875 1205.58 394.769 1205.79 392.738 1205.38C390.706 1204.98 388.84 1203.98 387.375 1202.52C385.91 1201.05 384.912 1199.18 384.508 1197.15C384.104 1195.12 384.311 1193.02 385.104 1191.1C385.897 1189.19 387.239 1187.55 388.962 1186.4C390.684 1185.25 392.709 1184.64 394.781 1184.64C397.559 1184.64 400.223 1185.74 402.187 1187.7C404.152 1189.67 405.255 1192.33 405.255 1195.11Z" fill="black"/>
<path d="M422.229 743.108C424.275 743.108 425.934 741.449 425.934 739.403C425.934 737.357 424.275 735.698 422.229 735.698C420.183 735.698 418.524 737.357 418.524 739.403C418.524 741.449 420.183 743.108 422.229 743.108Z" fill="#407BFF"/>
<path d="M407.107 743.108H367.299C366.317 743.108 365.374 742.717 364.68 742.023C363.985 741.328 363.595 740.386 363.595 739.403C363.603 738.423 363.996 737.486 364.689 736.793C365.382 736.1 366.319 735.707 367.299 735.698H407.074C408.054 735.707 408.991 736.1 409.684 736.793C410.376 737.486 410.77 738.423 410.778 739.403C410.778 740.38 410.393 741.317 409.705 742.011C409.018 742.705 408.084 743.099 407.107 743.108Z" fill="#407BFF"/>
<path opacity="0.5" d="M422.229 743.108C424.275 743.108 425.934 741.449 425.934 739.403C425.934 737.357 424.275 735.698 422.229 735.698C420.183 735.698 418.524 737.357 418.524 739.403C418.524 741.449 420.183 743.108 422.229 743.108Z" fill="black"/>
<path opacity="0.5" d="M407.107 743.108H367.299C366.317 743.108 365.374 742.717 364.68 742.023C363.985 741.328 363.595 740.386 363.595 739.403C363.603 738.423 363.996 737.486 364.689 736.793C365.382 736.1 366.319 735.707 367.299 735.698H407.074C408.054 735.707 408.991 736.1 409.684 736.793C410.376 737.486 410.77 738.423 410.778 739.403C410.778 740.38 410.393 741.317 409.705 742.011C409.018 742.705 408.084 743.099 407.107 743.108Z" fill="black"/>
</svg>
